<svg width="1440" height="527" viewBox="0 0 1440 527" fill="none" xmlns="http://www.w3.org/2000/svg">
<path d="M4.08975 12.1721C2.3398 18.8214 0.689843 24.4708 0.43985 24.7208C-0.210132 25.5207 -0.0601366 28.0204 0.689843 27.7704C0.989834 27.6205 7.43966 33.6198 14.9394 41.169L28.5891 54.8176L23.7392 73.0156C21.0393 83.0646 18.6393 91.5137 18.3394 91.8636C17.9394 92.2636 1.33982 97.0131 0.239855 97.0131C0.139858 97.0131 0.0398606 97.563 0.0398606 98.2629C0.0398606 98.9629 0.339852 99.5128 0.689843 99.5128C0.989834 99.5128 5.33971 98.4129 10.2896 97.0131L19.2893 94.5634L32.9389 108.212L46.5886 121.81L41.5887 140.458C38.8388 150.707 36.5388 159.156 36.4389 159.257C36.3389 159.306 28.5391 161.456 19.0393 163.956C9.5396 166.506 1.38982 168.655 0.939836 168.805C0.389851 168.955 0.0398606 169.555 0.0398606 170.355C0.0398606 171.455 0.189856 171.555 1.38982 171.255C2.1898 171.105 10.2896 168.955 19.4393 166.456C28.6391 164.006 36.3889 162.006 36.6888 162.006C37.0388 162.006 43.4387 168.156 50.8885 175.605L64.4881 189.253L59.5382 207.701C56.8383 217.8 54.5384 226.199 54.4384 226.249C54.3384 226.349 45.9886 228.649 35.7889 231.399L17.2894 236.398L8.63962 227.849C0.139858 219.35 0.0398606 219.3 0.0398606 221C0.0398606 222.55 0.78984 223.45 7.73965 230.499L15.4394 238.248L12.9895 247.247C11.6395 252.197 9.3896 260.546 7.98964 265.845L5.38971 275.444L2.73979 276.244C0.389851 276.894 0.0398606 277.194 0.0398606 278.244C0.0398606 279.744 -0.110135 279.694 3.38977 278.694L6.18969 277.894L19.5893 291.292C27.4891 299.142 33.0389 305.141 33.0389 305.641C33.0389 306.691 23.5892 342.087 23.1892 342.487C23.0892 342.637 17.8394 344.087 11.6395 345.737C0.489848 348.736 0.289854 348.786 0.139858 350.136C-0.0601366 351.786 -1.61009 352.036 13.2895 347.986L23.7892 345.087L37.4388 358.685C44.8886 366.135 51.0384 372.534 51.0384 372.884C51.0384 373.934 41.4887 409.18 41.1387 409.58C40.7387 409.93 5.48971 419.479 4.48974 419.479C4.13975 419.479 2.98978 418.629 1.93981 417.629L0.0398606 415.779V417.479C0.0398606 418.529 0.439849 419.579 1.08983 420.279L2.1898 421.429L1.08983 425.678C0.389851 428.578 0.0398606 431.428 0.0898592 434.577V439.227L2.3398 430.978C3.58976 426.478 4.73973 422.579 4.93972 422.379C5.33971 422.029 40.6387 412.48 41.6387 412.48C42.3887 412.48 69.0379 438.977 69.0379 439.727C69.088 439.977 66.888 448.476 64.1881 458.525L59.3382 476.873L40.7887 481.872L22.2892 486.822L11.1896 475.773L0.0398606 464.724V466.724C0.0398606 468.624 0.389851 469.074 10.0896 478.773L20.1393 488.821L15.2894 507.02C12.5895 517.019 10.1896 525.468 9.93959 525.818C9.68959 526.118 8.98961 526.517 8.38963 526.617C7.78965 526.767 8.48963 526.817 9.98958 526.767L12.6895 526.717L17.6394 508.219C20.3393 498.071 22.7392 489.571 22.9392 489.421C23.1392 489.221 31.589 486.872 41.6887 484.172L60.0882 479.273L73.5878 492.771C80.9876 500.17 87.0375 506.52 87.0375 506.87C87.0375 507.22 85.9375 511.719 84.5375 516.869C83.1876 522.018 82.0376 526.368 82.0376 526.567C82.0376 526.817 82.5876 526.967 83.2876 526.967C84.1375 526.967 84.5875 526.617 84.7875 525.818C84.9375 525.218 86.1375 520.818 87.4374 516.019L89.7874 507.32L108.437 502.32L127.136 497.321L140.736 510.919C152.386 522.568 154.336 524.718 154.136 525.768C153.936 526.767 154.136 526.967 155.186 526.967C155.936 526.967 156.486 526.617 156.636 526.068C156.836 525.418 160.835 524.168 175.485 520.268L194.134 515.319L199.934 521.118C205.184 526.318 205.984 526.967 207.534 526.967C209.284 526.967 209.284 526.967 202.584 520.268L195.934 513.619L200.934 495.021C203.684 484.772 206.034 476.323 206.134 476.223C206.434 475.923 242.083 466.474 242.933 466.474C243.433 466.474 249.833 472.523 257.183 479.872L270.632 493.321L266.283 509.519C263.933 518.418 261.883 526.018 261.783 526.318C261.633 526.767 262.033 526.967 262.933 526.967H264.283L268.682 510.619C271.082 501.62 273.082 494.221 273.182 494.171C273.482 493.921 309.181 484.472 309.931 484.472C310.431 484.472 316.831 490.521 324.231 497.921L337.681 511.369L335.781 518.568C334.731 522.518 333.781 526.018 333.631 526.368C333.481 526.867 333.781 527.017 334.831 526.867C336.231 526.717 336.331 526.567 338.23 519.418L340.18 512.069L348.23 509.919C352.63 508.769 361.03 506.52 366.78 504.92L377.279 502.07L389.779 514.519C401.329 526.018 402.429 526.967 404.029 526.967C405.729 526.967 405.479 526.667 392.629 513.819C385.429 506.62 379.529 500.42 379.529 500.07C379.529 499.47 389.079 463.424 389.279 463.074C389.379 463.024 397.779 460.674 408.079 457.925L426.728 452.925L440.328 466.574L453.977 480.222L448.977 498.72C446.227 508.869 443.828 517.368 443.628 517.518C443.428 517.668 435.778 519.818 426.578 522.268L409.878 526.717L414.578 526.817C419.028 526.917 419.978 526.767 431.778 523.518L444.278 520.118L447.777 523.518C450.927 526.617 451.527 526.967 453.277 526.967H455.277L450.827 522.518L446.427 518.118L451.277 499.92C453.977 489.921 456.377 481.472 456.727 481.172C457.027 480.872 465.477 478.423 475.477 475.773L493.726 470.923L507.376 484.572L521.025 498.221L517.276 512.119C515.226 519.768 513.526 526.218 513.526 526.517C513.526 527.367 515.926 527.017 516.226 526.068C516.376 525.618 517.976 519.568 519.825 512.719C521.625 505.82 523.325 499.92 523.525 499.52C523.775 499.07 531.275 496.821 542.325 493.871L560.724 488.921L574.424 502.62L588.124 516.319L586.824 521.018C585.224 526.767 585.224 526.967 586.724 526.967C587.774 526.967 587.974 526.517 589.023 522.568C589.674 520.168 590.323 517.918 590.523 517.518C590.773 517.069 598.073 514.869 609.323 511.869L627.722 506.92L637.772 516.969C647.422 526.617 647.872 526.967 649.772 526.967H651.772L640.872 516.069C634.922 510.119 630.022 504.92 630.022 504.57C630.022 503.52 639.522 468.274 639.922 467.874C640.122 467.724 648.572 465.374 658.672 462.674L677.071 457.775L690.521 471.223C697.971 478.673 704.02 484.922 704.02 485.222C704.07 485.472 701.87 493.971 699.17 504.07L694.321 522.368L686.021 524.668L677.771 526.917H682.471C685.821 526.967 688.271 526.667 691.071 525.868L695.021 524.818L696.171 525.868C696.921 526.567 697.971 526.967 699.021 526.967H700.72L698.771 524.968L696.821 522.968L701.02 507.37C703.32 498.77 705.57 490.371 706.02 488.722L706.87 485.722L725.47 480.722L744.069 475.773L757.719 489.471L771.418 503.22L768.519 513.819C766.919 519.668 765.469 525.018 765.319 525.768C765.019 526.917 765.119 527.017 766.369 526.867C767.719 526.717 767.769 526.517 770.818 515.219L773.868 503.72L791.818 498.87C801.718 496.221 810.117 494.021 810.517 493.971C810.917 493.971 817.417 500.12 824.867 507.62L838.517 521.218L837.767 523.668C836.767 526.867 836.817 526.967 838.267 526.967C839.617 526.967 839.667 526.917 840.467 523.668L841.017 521.668L859.166 516.819C869.116 514.169 877.616 511.969 878.016 511.969C878.466 511.969 882.165 515.319 886.265 519.468C893.065 526.268 893.915 526.967 895.515 526.967C897.265 526.967 897.165 526.917 888.665 518.368L880.115 509.719L885.065 491.271C887.815 481.072 890.115 472.723 890.215 472.623C890.315 472.523 898.665 470.223 908.815 467.474L927.264 462.524L940.964 476.223L954.713 489.921L949.864 508.069C947.164 518.068 945.014 526.368 945.014 526.567C945.014 527.367 947.464 526.917 947.714 526.068C947.864 525.618 950.014 517.468 952.563 507.969C955.063 498.47 957.163 490.671 957.213 490.621C957.263 490.521 965.663 488.272 975.813 485.522L994.262 480.572L1007.91 494.121C1015.36 501.62 1021.51 508.069 1021.51 508.469C1021.46 508.869 1020.41 513.219 1019.06 518.068L1016.66 526.967H1018.01C1019.31 526.967 1019.41 526.817 1021.76 517.918C1023.71 510.619 1024.41 508.769 1025.21 508.419C1025.81 508.169 1034.26 505.82 1044.01 503.22L1061.76 498.47L1075.41 512.119C1083.76 520.468 1088.91 525.968 1088.76 526.418C1088.36 527.417 1089.61 527.117 1110.26 521.468L1128.71 516.469L1134.01 521.718C1138.66 526.368 1139.46 526.967 1141.01 526.967H1142.76L1136.61 520.818L1130.51 514.719L1135.46 496.321C1138.16 486.172 1140.56 477.723 1140.81 477.523C1141.06 477.273 1149.46 474.923 1159.46 472.223L1177.66 467.374L1191.36 481.072L1205.06 494.771L1201.01 510.019C1198.76 518.368 1196.81 525.618 1196.66 526.118C1196.46 526.867 1196.66 527.017 1197.81 526.867C1199.21 526.717 1199.21 526.667 1203.31 511.269C1205.61 502.77 1207.66 495.671 1207.86 495.471C1208.06 495.221 1216.56 492.871 1226.66 490.171L1245.06 485.272L1258.55 498.77C1265.95 506.17 1272 512.469 1272 512.819C1272 513.169 1271.2 516.369 1270.25 519.918C1269.3 523.468 1268.5 526.517 1268.5 526.667C1268.5 526.817 1269.05 526.967 1269.75 526.967C1271.05 526.967 1270.8 527.667 1273.6 517.518L1274.75 513.269L1293.4 508.269L1312.05 503.27L1323.9 515.119C1334.85 526.068 1335.9 526.967 1337.5 526.967C1339.2 526.967 1338.95 526.667 1326.55 514.269L1313.8 501.52L1318.7 483.122C1321.4 473.023 1323.75 464.574 1323.95 464.374C1324.3 463.974 1359.45 454.475 1360.55 454.475C1360.95 454.475 1367.35 460.624 1374.8 468.124L1388.4 481.722L1385.95 490.721C1384.6 495.671 1382.35 504.02 1380.95 509.269L1378.4 518.818L1363.55 522.768L1348.75 526.717L1353.2 526.867C1357.3 527.017 1358.55 526.767 1368.35 524.168L1379.05 521.268L1381.9 524.118C1384.3 526.468 1385.1 526.967 1386.5 526.967H1388.2L1384.55 523.268L1380.9 519.568L1385.75 501.32C1388.45 491.271 1390.8 482.822 1390.95 482.522C1391.3 482.022 1426.25 472.473 1427.8 472.473C1428.3 472.473 1431.25 475.023 1434.35 478.073L1440 483.722V481.972C1440 480.422 1439.4 479.622 1435 475.223L1430.05 470.223L1435 451.725C1437.75 441.527 1440 432.777 1440 432.228C1440 431.528 1435.2 426.428 1426 417.229L1412 403.231L1417 384.783C1419.7 374.684 1422.1 366.235 1422.25 366.035C1422.45 365.885 1426.45 364.685 1431.15 363.435C1439.4 361.235 1439.75 361.085 1439.9 359.835C1440 359.085 1440 358.485 1439.9 358.485C1439.8 358.485 1435.6 359.585 1430.5 360.985L1421.25 363.435L1407.65 349.836L1394.05 336.238L1399 317.79C1401.7 307.641 1404.15 299.142 1404.35 298.942C1404.55 298.742 1412.65 296.492 1422.25 293.892L1439.75 289.243L1439.9 287.793C1440.05 286.643 1439.9 286.443 1439.15 286.693C1435.8 287.693 1404.35 295.992 1403.85 295.992C1403.5 295.992 1397.15 289.843 1389.7 282.343L1376.1 268.745L1381.1 250.247C1383.85 240.048 1386.15 231.699 1386.15 231.649C1386.2 231.649 1394.6 229.349 1404.75 226.599L1423.25 221.6L1431.65 229.949C1439.95 238.198 1440 238.248 1440 236.498C1440 234.898 1439.35 234.049 1432.75 227.499C1428.75 223.5 1425.5 219.95 1425.5 219.55C1425.5 218.1 1435.2 182.754 1435.7 182.404C1436 182.204 1437.1 181.904 1438.1 181.754C1439.75 181.454 1440 181.254 1440 180.004V178.604L1437.4 179.304L1434.75 180.004L1421.05 166.256L1407.3 152.557L1412.3 133.959L1417.3 115.361L1428.65 112.311C1439.9 109.312 1440 109.312 1440 107.962V106.612L1435.65 107.812C1433.2 108.462 1427.95 109.912 1423.95 110.962L1416.6 112.911L1402.95 99.2129L1389.3 85.5643L1394.3 66.9163L1399.3 48.2682L1417.9 43.3188L1436.5 38.3193L1438.25 40.0191L1440 41.719V39.7692C1440 38.7193 1439.65 37.4694 1439.2 36.9695C1438.5 36.2195 1438.5 35.8696 1439.2 33.4698C1439.7 31.82 1440 29.0703 1439.95 26.0706V21.2711L1437.9 28.5703L1435.9 35.8196L1417.8 40.6691C1407.8 43.3188 1399.35 45.5186 1398.95 45.5186C1398.55 45.5186 1392.2 39.4692 1384.8 32.07L1371.3 18.5714L1373.65 9.82233C1374.95 5.02283 1376 0.823303 1376 0.523315C1376 0.273376 1375.45 0.0233765 1374.8 0.0233765C1373.5 0.0233765 1373.65 -0.376587 1370.2 12.772L1368.9 17.8215L1350.2 22.821L1331.55 27.8204L1317.65 13.9219C1306.05 2.27313 1303.55 0.0233765 1302.4 0.0233765C1301.6 0.0233765 1293 2.17316 1283.3 4.77289C1273.6 7.37262 1265.35 9.5224 1264.95 9.5224C1264.55 9.5224 1262.1 7.37262 1259.51 4.77289C1255.11 0.373352 1254.66 0.0233765 1252.76 0.0233765H1250.76L1256.66 5.92273L1262.55 11.8721L1257.7 30.0702C1255.06 40.0691 1252.71 48.4682 1252.51 48.7182C1252.26 48.9182 1243.81 51.3679 1233.71 54.0676L1215.26 59.0171L1201.61 45.3686L1188.01 31.77L1192.01 16.7716C1194.21 8.52246 1196.16 1.37323 1196.31 0.873291C1196.56 0.123352 1196.36 -0.0266113 1195.16 0.123352L1193.76 0.273376L1189.71 15.4218C1187.46 23.7209 1185.51 30.6701 1185.36 30.8201C1185.21 30.9701 1176.81 33.3199 1166.66 36.0695L1148.26 41.019L1134.56 27.3205L1120.91 13.6719L1122.71 7.07263C1123.71 3.42303 1124.51 0.373352 1124.51 0.223328C1124.51 0.0733643 1123.91 0.0233765 1123.16 0.123352C1121.91 0.273376 1121.76 0.623291 1120.21 6.47272C1119.31 9.87231 1118.46 12.772 1118.31 12.872C1118.16 13.022 1109.76 15.3717 1099.66 18.0715L1081.26 23.0209L1069.76 11.5222C1058.61 0.373352 1058.21 0.0233765 1056.26 0.0233765H1054.26L1066.66 12.4221C1073.46 19.2213 1079.01 25.1207 1079.01 25.5207C1079.01 25.9206 1076.81 34.3697 1074.11 44.2187L1069.26 62.1668L1050.61 67.1663L1031.91 72.1657L1018.46 58.7172C1011.06 51.3179 1005.01 44.9186 1005.01 44.5186C1005.01 43.2188 1014.61 7.77258 1015.01 7.52258C1015.26 7.37262 1021.36 5.67279 1028.61 3.77301L1041.76 0.273376L1037.26 0.123352C1033.21 0.0233765 1031.86 0.273376 1023.51 2.52313L1014.26 5.02283L1011.76 2.52313C1009.56 0.373352 1008.96 0.0233765 1007.26 0.0233765H1005.31L1008.71 3.47302L1012.16 6.97266L1007.21 25.5707L1002.21 44.2187L983.563 49.2182L964.963 54.2176L951.263 40.4691L937.614 26.7705L941.064 14.0219C942.964 7.02264 944.514 0.973267 944.514 0.623291C944.514 0.323364 943.964 0.0233765 943.364 0.0233765C942.214 0.0233765 942.014 0.67334 939.064 11.6221C937.364 18.0215 935.764 23.9708 935.464 24.7708L935.014 26.2706L916.464 31.2201L897.915 36.1696L884.215 22.471L870.516 8.77246L871.766 4.37292L872.966 0.0233765H871.516C870.166 0.0233765 870.066 0.17334 869.216 3.77301C868.716 5.82275 868.216 7.67255 868.066 7.92255C867.916 8.17249 859.466 10.5723 849.366 13.272L830.917 18.1714L821.817 9.07245C813.117 0.373352 812.667 0.0233765 810.767 0.0233765H808.767L818.867 10.1223L828.917 20.2712L823.917 38.7693C821.167 48.9182 818.917 57.3173 818.867 57.3673C818.817 57.4173 810.467 59.6671 800.268 62.4167L781.768 67.4162L768.069 53.7177L754.319 40.0691L759.319 21.4211L764.319 2.77307L769.019 1.42322L773.768 0.123352L766.819 0.0733643C760.119 0.0233765 759.869 0.0733643 760.669 0.923279C761.169 1.42322 761.519 2.17316 761.519 2.52313C761.519 2.87305 759.319 11.3222 756.669 21.2711L751.819 39.4192L733.32 44.3687L714.77 49.3681L701.17 35.8196C693.671 28.3704 687.521 21.971 687.521 21.6211C687.521 21.2711 688.771 16.3217 690.271 10.7222C691.771 5.07281 693.021 0.323364 693.021 0.223328C693.021 0.0733643 692.421 0.0233765 691.671 0.123352C690.421 0.273376 690.271 0.623291 687.671 10.5223C686.171 16.1717 684.771 20.9712 684.571 21.1711C684.321 21.3711 675.971 23.7708 665.971 26.4706L647.772 31.42L633.972 17.6715C620.323 4.07294 620.123 3.87299 620.573 2.32312C621.223 0.123352 621.173 0.0233765 619.773 0.0233765C618.773 0.0233765 618.423 0.323364 618.173 1.52319C618.023 2.37311 617.673 3.17303 617.423 3.37305C617.123 3.52301 608.673 5.87274 598.573 8.57245L580.274 13.4719L573.524 6.77264C567.424 0.723328 566.574 0.0233765 565.024 0.0233765C563.274 0.0233765 563.324 0.0733643 570.874 7.62256L578.524 15.2718L573.574 33.7198C570.824 43.8187 568.424 52.2678 568.174 52.5178C567.974 52.7178 559.574 55.0675 549.575 57.7173L531.325 62.5667L517.625 48.8682L503.926 35.1696L508.676 17.6215L513.376 0.0233765H512.026C510.676 0.0233765 510.676 0.0733643 506.076 17.1216C503.576 26.5206 501.326 34.3697 501.126 34.5697C500.926 34.7197 492.576 37.0695 482.576 39.7192L464.327 44.5687L450.627 30.8701L436.878 17.1216L437.428 14.9718C437.778 13.7719 438.778 9.9223 439.728 6.37268L441.428 0.0233765H440.078C438.778 0.0233765 438.678 0.17334 436.578 8.22253C435.378 12.772 434.128 16.5716 433.778 16.7216C433.428 16.8216 425.028 19.1213 415.028 21.7711L396.929 26.6706L383.579 13.322L370.28 0.0233765H366.28C362.83 0.0233765 360.08 0.623291 346.13 4.32294L329.931 8.67249L325.581 4.32294C321.831 0.573303 321.031 0.0233765 319.531 0.0233765H317.781L322.981 5.22284L328.131 10.3723L323.781 26.5706C321.431 35.4696 319.131 43.9187 318.731 45.3186L318.031 47.8183L299.482 52.7678L280.982 57.7173L267.282 43.9687L253.533 30.2702L257.283 16.4716C259.333 8.82245 261.133 2.02319 261.333 1.32324C261.583 0.17334 261.483 0.0233765 260.333 0.0233765C258.883 0.0233765 259.333 -1.37646 254.333 17.4715C252.533 24.1708 250.983 29.7202 250.933 29.7702C250.633 30.0702 214.834 39.5192 214.084 39.5192C213.634 39.5192 207.234 33.4698 199.834 26.0706L186.385 12.6221L187.985 6.82263C188.835 3.573 189.535 0.773315 189.535 0.523315C189.535 0.223328 188.985 0.0233765 188.285 0.0233765C186.985 0.0233765 187.135 -0.426575 185.035 7.57257L183.935 11.8721L165.285 16.8716L146.586 21.8211L135.686 10.9222C125.636 0.873291 124.636 0.0233765 123.036 0.0233765C121.336 0.0233765 121.536 0.223328 132.936 11.6721C139.286 18.0215 144.536 23.5709 144.536 23.9708C144.536 24.5708 135.036 60.567 134.786 60.9169C134.736 60.9669 126.286 63.2667 115.987 66.0164L97.3372 71.0658L83.7375 57.4173L70.1379 43.7687L74.9878 25.7707C77.6377 15.8717 79.9376 7.42261 80.0876 7.02264C80.2876 6.57269 84.3875 5.22284 91.8373 3.22302L103.287 0.0733643H98.5371C94.5372 0.0233765 92.6373 0.323364 86.6875 1.92316L79.5877 3.87299L77.6877 1.92316C76.1378 0.323364 75.4878 0.0233765 73.8378 0.0233765H71.8379L74.7378 2.97308L77.6377 5.92273L72.7878 24.0708C70.1379 34.0698 67.738 42.4689 67.488 42.7188C67.288 42.9688 58.7882 45.4185 48.6885 48.1183L30.339 53.0178L16.6894 39.4192L3.03978 25.7707L4.73973 19.5213C5.6897 16.0717 7.23966 10.2723 8.18964 6.62268L9.93959 0.0233765H8.63962C7.28966 0.0233765 7.23966 0.123352 4.08975 12.1721ZM390.179 47.1184L385.229 65.7664L367.23 70.6159C357.38 73.2656 348.93 75.4654 348.53 75.5154C348.13 75.5154 341.68 69.366 334.181 61.8668L320.631 48.2682L325.581 29.8202C328.331 19.6213 330.631 11.2722 330.681 11.2222C330.731 11.1722 339.13 8.87244 349.28 6.12274L367.78 1.12329L381.479 14.7718L395.179 28.4204L390.179 47.1184ZM1316.1 15.8717C1323.5 23.2709 1329.5 29.5202 1329.5 29.8702C1329.5 30.9701 1319.9 66.2664 1319.5 66.7163C1319.25 66.9663 1310.8 69.366 1300.65 72.0657L1282.25 77.0152L1268.65 63.3667L1255.06 49.7681L1260 31.3201C1262.75 21.1711 1265.15 12.6721 1265.35 12.472C1265.8 12.0721 1300.75 2.62311 1302 2.57312C1302.4 2.52313 1308.75 8.52246 1316.1 15.8717ZM631.922 19.6713L645.572 33.3199L640.822 51.3179C638.172 61.1669 635.822 69.566 635.622 69.9659C635.372 70.3659 627.572 72.7157 616.773 75.6154L598.323 80.5648L584.674 66.9163L571.024 53.2677L575.824 35.2696C578.474 25.3707 580.824 16.9216 581.024 16.5216C581.274 16.0717 588.124 13.9719 599.373 10.9722C609.223 8.27252 617.523 6.07275 617.773 6.07275C618.073 6.02277 624.423 12.1721 631.922 19.6713ZM882.365 24.6208L895.965 38.2693L891.015 56.7173C888.315 66.8163 886.015 75.2154 885.915 75.2654C885.815 75.3654 877.466 77.6651 867.266 80.4149L848.766 85.4143L835.067 71.7658L821.367 58.1172L826.367 39.4692L831.367 20.7712L849.066 15.9717C858.816 13.322 867.216 11.1222 867.766 11.0722C868.466 11.0222 873.116 15.3717 882.365 24.6208ZM198.334 28.1204L211.934 41.769L206.934 60.267C204.184 70.4159 201.884 78.815 201.834 78.865C201.784 78.915 193.434 81.2148 183.235 83.9645L164.785 88.9139L151.036 75.2654L137.336 61.5668L142.286 42.9188L147.286 24.3208L165.285 19.4713C175.185 16.7716 183.635 14.5718 184.035 14.5718C184.435 14.5219 190.885 20.6712 198.334 28.1204ZM1132.86 29.1203L1146.46 42.7688L1141.51 61.2169C1138.76 71.3658 1136.36 79.8649 1136.16 80.0149C1135.91 80.2149 1127.46 82.5646 1117.36 85.2643L1098.96 90.2138L1085.46 76.7152C1078.06 69.316 1072.01 63.0167 1072.01 62.6667C1072.01 61.5168 1081.61 26.2706 1082.06 25.7707C1082.41 25.4207 1117.06 15.7717 1118.76 15.5717C1119.06 15.5717 1125.36 21.6711 1132.86 29.1203ZM462.027 47.0184C461.977 47.4183 459.777 55.8675 457.127 65.7664L452.277 83.7645L434.278 88.614C424.378 91.2637 415.928 93.4635 415.528 93.5135C415.128 93.5135 408.679 87.4141 401.229 79.9649L387.679 66.4663L392.679 47.8683C395.379 37.6194 397.679 29.2203 397.729 29.1703C397.729 29.1203 406.129 26.8705 416.278 24.1208L434.778 19.1213L448.427 32.6699C455.877 40.1691 462.027 46.6184 462.027 47.0184ZM1383.3 34.0698L1396.8 47.5683L1391.85 66.1664C1389.1 76.4153 1386.85 84.8144 1386.8 84.8644C1386.75 84.9144 1378.4 87.1641 1368.25 89.9138L1349.75 94.9133L1336.15 81.3647C1328.65 73.8655 1322.5 67.4662 1322.5 67.1663C1322.5 66.3163 1332 30.8701 1332.3 30.5201C1332.65 30.1702 1367.5 20.6712 1368.75 20.5712C1369.45 20.5212 1374.05 24.8207 1383.3 34.0698ZM698.97 37.7194L712.62 51.4179L707.77 69.566C705.12 79.5649 702.67 88.014 702.37 88.314C702.02 88.614 693.571 91.0637 683.571 93.7134L665.321 98.5629L651.722 84.9144L638.072 71.2658L643.022 52.8178C645.722 42.7188 648.122 34.2697 648.272 34.0698C648.572 33.8198 683.621 24.1708 684.771 24.0708C685.071 24.0208 691.421 30.1702 698.97 37.7194ZM949.714 42.4689L963.113 55.8675L958.563 73.0656C956.013 82.5146 953.763 90.9637 953.463 91.8136L953.013 93.3635L934.864 98.213C924.914 100.863 916.514 103.012 916.264 103.012C915.964 103.012 909.615 96.8631 902.165 89.3639L888.565 75.7654L893.515 57.3173C896.215 47.2184 898.515 38.8193 898.615 38.7693C898.965 38.4193 933.864 29.1203 935.014 29.0703C936.014 29.0203 938.964 31.72 949.714 42.4689ZM265.383 46.1185L278.982 59.767L274.032 78.2151C271.282 88.364 268.982 96.7631 268.882 96.8631C268.782 96.9631 260.383 99.2628 250.233 102.013L231.783 106.962L218.084 93.2635L204.384 79.6149L209.384 60.9669L214.384 42.3189L232.333 37.4694C242.183 34.7697 250.633 32.5699 251.033 32.5699C251.433 32.5199 257.883 38.6693 265.383 46.1185ZM1199.91 47.1684L1213.51 60.7669L1208.56 79.165C1205.86 89.3139 1203.46 97.763 1203.21 97.963C1202.96 98.213 1194.56 100.563 1184.56 103.262L1166.36 108.112L1152.66 94.4134L1138.96 80.7148L1143.71 62.7167C1146.36 52.8678 1148.71 44.4687 1148.91 44.0687C1149.21 43.5188 1183.11 33.8698 1185.76 33.5698C1186.06 33.5698 1192.41 39.6692 1199.91 47.1684ZM524.625 82.1647C522.025 91.8136 519.725 100.213 519.525 100.763C519.175 101.663 516.376 102.562 500.576 106.762L481.977 111.712L468.527 98.2629C461.077 90.8138 455.027 84.4644 455.027 84.1144C455.027 83.6145 464.477 47.6183 464.727 47.1684C464.777 47.1184 473.127 44.8186 483.276 42.1189L501.776 37.1194L515.576 50.868L529.325 64.5665L524.625 82.1647ZM766.119 55.3675C773.518 62.7667 779.518 69.066 779.518 69.466C779.518 70.1659 770.018 106.112 769.768 106.412C769.669 106.512 761.219 108.812 750.969 111.562L732.32 116.561L718.92 103.162C711.07 95.3133 705.52 89.3639 705.52 88.864C705.52 87.8141 714.97 52.4178 715.37 52.0179C715.67 51.7179 750.969 42.1189 752.019 42.0689C752.419 42.0189 758.769 48.0183 766.119 55.3675ZM81.9876 59.2171L95.6372 72.8656L90.7873 91.0637C88.1374 101.063 85.6875 109.512 85.3875 109.812C85.0375 110.112 76.5877 112.561 66.588 115.261L48.3885 120.111L34.7389 106.412L21.0893 92.7635L26.0391 74.3655C28.7391 64.2166 31.089 55.8174 31.239 55.6175C31.539 55.3675 66.588 45.7185 67.788 45.5685C68.088 45.5685 74.4378 51.6679 81.9876 59.2171ZM1025.31 92.3636C1022.61 102.462 1020.26 110.912 1020.06 111.112C1019.71 111.462 984.463 121.011 983.413 121.011C983.063 121.011 976.663 114.861 969.163 107.362L955.613 93.7634L960.613 75.2654C963.313 65.1165 965.613 56.7674 965.663 56.7173C965.713 56.6674 974.113 54.3676 984.263 51.6179L1002.76 46.6684L1016.46 60.317L1030.21 73.9655L1025.31 92.3636ZM332.431 64.1666L346.03 77.7651L341.08 96.1632C338.38 106.262 336.081 114.661 335.931 114.761C335.781 114.911 327.381 117.261 317.231 120.011L298.782 124.96L285.132 111.312L271.432 97.663L276.432 79.065C279.182 68.8161 281.532 60.367 281.632 60.317C281.932 60.067 317.231 50.618 318.031 50.568C318.431 50.518 324.931 56.6674 332.431 64.1666ZM1266.9 65.1665L1280.6 78.865L1275.7 97.0631C1273.05 107.062 1270.6 115.511 1270.3 115.811C1270 116.111 1261.55 118.561 1251.56 121.211L1233.31 126.06L1219.66 112.411L1206.01 98.7629L1210.76 81.0148C1213.36 71.2658 1215.66 62.8167 1215.91 62.3168C1216.21 61.5668 1219.96 60.367 1234.31 56.4674C1244.16 53.8177 1252.51 51.6179 1252.76 51.5679C1253.06 51.5179 1259.4 57.6673 1266.9 65.1665ZM582.874 68.6161L596.523 82.2646L591.573 100.663C588.874 110.812 586.424 119.261 586.224 119.511C585.774 119.911 550.475 129.51 549.375 129.51C549.025 129.51 542.725 123.46 535.325 116.061L521.825 102.562L526.725 84.1645C529.425 74.0655 531.825 65.5664 532.025 65.3665C532.325 65.0665 567.074 55.3675 569.024 55.0675C569.174 55.0175 575.424 61.1669 582.874 68.6161ZM833.367 73.6156L846.916 87.2641L841.917 105.762C839.167 115.911 836.867 124.31 836.767 124.41C836.717 124.46 828.367 126.76 818.217 129.51L799.768 134.459L786.068 120.761L772.318 107.062L777.318 88.464L782.268 69.816L800.268 64.9665C810.167 62.3168 818.617 60.067 819.017 60.067C819.417 60.017 825.867 66.1664 833.367 73.6156ZM148.986 77.2152L162.685 90.9637L157.735 109.462L152.786 128.01L151.286 128.46C150.486 128.76 142.036 131.009 132.586 133.559L115.387 138.109L101.737 124.46L88.1374 110.762L93.1373 92.2636C95.8372 82.1147 98.1871 73.7155 98.2871 73.5656C98.4371 73.4156 134.236 63.6666 135.036 63.5666C135.186 63.5166 141.486 69.666 148.986 77.2152ZM1097.01 92.3636C1097.01 93.4135 1087.46 128.71 1087.11 129.11C1086.71 129.46 1051.46 139.009 1050.41 139.009C1050.06 139.009 1043.66 132.909 1036.21 125.46L1022.71 111.961L1027.66 93.3135L1032.66 74.6655L1051.21 69.666L1069.76 64.6665L1083.41 78.2151C1090.86 85.6643 1097.01 92.0636 1097.01 92.3636ZM399.729 81.9647L413.178 95.4132L408.279 113.861C405.579 123.96 403.229 132.409 403.079 132.609C402.879 132.809 394.429 135.209 384.279 137.959L365.78 142.958L352.13 129.36L338.53 115.761L343.53 97.0131C346.28 86.7642 348.63 78.2651 348.68 78.2151C349.08 77.9651 384.479 68.5661 385.279 68.5661C385.979 68.5161 390.729 72.9656 399.729 81.9647ZM1333.95 83.2145L1347.65 96.9131L1342.75 115.311C1340.05 125.46 1337.75 133.859 1337.7 133.959C1337.6 134.059 1329.2 136.359 1318.95 139.109L1300.35 144.108L1286.7 130.41L1273.05 116.761L1278 98.313C1280.75 88.164 1283.1 79.7649 1283.25 79.6149C1283.5 79.365 1318.65 69.666 1319.75 69.566C1320.05 69.516 1326.4 75.6653 1333.95 83.2145ZM649.922 86.6642L663.571 100.313L658.572 118.961C655.822 129.21 653.522 137.659 653.422 137.709C653.322 137.759 644.972 140.059 634.822 142.758L616.423 147.658L602.723 133.959L589.023 120.261L593.923 101.863C596.623 91.7636 598.973 83.3645 599.173 83.2145C599.373 83.0146 634.622 73.2656 636.022 73.0656C636.172 73.0156 642.422 79.165 649.922 86.6642ZM900.365 91.6136L913.965 105.262L909.015 123.71C906.315 133.809 903.965 142.208 903.865 142.358C903.715 142.458 895.315 144.808 885.215 147.508L866.766 152.457L853.066 138.809L839.367 125.11L844.266 106.862C846.966 96.7631 849.316 88.364 849.466 88.114C849.766 87.7141 884.415 78.1651 886.015 78.0651C886.415 78.0151 892.915 84.1645 900.365 91.6136ZM216.134 94.8633C223.534 102.263 229.534 108.662 229.534 109.112C229.534 110.612 219.934 145.758 219.484 146.058C219.184 146.208 210.784 148.558 200.684 151.207L182.385 156.107L168.985 142.708C161.585 135.309 155.536 128.91 155.536 128.51C155.536 127.71 165.035 91.9136 165.335 91.5637C165.535 91.3637 201.534 81.6147 202.284 81.5647C202.534 81.5147 208.784 87.5141 216.134 94.8633ZM1159.46 128.36C1156.76 138.459 1154.36 146.858 1154.16 147.058C1153.71 147.458 1118.46 157.007 1117.41 157.007C1116.61 157.007 1090.01 130.46 1090.01 129.66C1090.01 128.61 1099.56 93.2635 1099.96 92.8635C1100.21 92.6635 1108.56 90.2638 1118.56 87.5641L1136.76 82.6146L1150.56 96.3632L1164.36 110.062L1159.46 128.36ZM466.627 99.8628C474.027 107.262 480.027 113.511 480.027 113.861C480.027 114.861 470.477 150.257 470.077 150.657C469.877 150.857 461.477 153.257 451.477 155.957L433.278 160.856L419.478 147.158L405.729 133.459L410.678 114.811L415.678 96.2132L433.478 91.4137C443.278 88.7639 451.727 86.5642 452.277 86.5642C452.927 86.5142 457.677 90.9137 466.627 99.8628ZM1401.1 100.863C1408.5 108.262 1414.5 114.611 1414.5 115.011C1414.5 115.761 1405 151.607 1404.7 151.957C1404.65 152.057 1396.2 154.357 1385.95 157.107L1367.35 162.106L1353.9 148.658C1346.55 141.308 1340.5 134.859 1340.5 134.409C1340.5 133.509 1349.95 97.913 1350.3 97.563C1350.55 97.2631 1385.95 87.6641 1387 87.5641C1387.4 87.5641 1393.75 93.5135 1401.1 100.863ZM716.97 104.712L730.67 118.411L725.72 136.809C723.02 146.958 720.62 155.407 720.37 155.557C720.17 155.707 711.72 158.057 701.67 160.756L683.371 165.606L669.721 151.957L656.072 138.259L661.022 119.811C663.721 109.712 666.071 101.263 666.221 101.163C666.421 100.963 701.97 91.2137 703.02 91.0637C703.17 91.0137 709.42 97.1631 716.97 104.712ZM967.413 109.662L981.013 123.26L976.113 141.658C973.413 151.757 971.063 160.156 970.913 160.306C970.713 160.456 962.313 162.806 952.163 165.506L933.764 170.455L920.114 156.857L906.465 143.208L911.465 124.56C914.215 114.311 916.514 105.862 916.614 105.762C916.914 105.562 952.313 96.1132 953.013 96.0632C953.413 96.0132 959.913 102.163 967.413 109.662ZM283.382 113.111L296.982 126.76L292.032 145.208C289.282 155.357 286.932 163.756 286.832 163.906C286.682 164.006 278.282 166.356 268.182 169.055L249.783 174.005L236.083 160.306L222.384 146.608L227.284 128.21C229.983 118.061 232.283 109.662 232.383 109.562C232.533 109.362 268.432 99.6128 269.282 99.5628C269.582 99.5128 275.882 105.662 283.382 113.111ZM1217.91 114.161L1231.51 127.76L1226.51 146.508C1223.76 156.757 1221.41 165.256 1221.36 165.256C1220.96 165.506 1184.96 175.005 1184.41 175.005C1184.06 175.005 1177.71 168.955 1170.31 161.556L1156.86 148.108L1161.76 129.66C1164.46 119.561 1166.81 111.112 1167.01 110.862C1167.21 110.612 1201.61 101.013 1204.01 100.563C1204.16 100.513 1210.41 106.662 1217.91 114.161ZM533.825 118.061L547.325 131.559L542.375 150.207L537.375 168.855L518.725 173.855L500.076 178.804L486.576 165.306C479.127 157.857 473.027 151.457 473.027 151.107C473.027 150.107 482.576 114.811 482.926 114.411C483.376 114.011 517.875 104.612 519.275 104.562C519.925 104.512 524.725 108.962 533.825 118.061ZM783.968 122.71L797.718 136.459L792.718 155.057L787.768 173.655L769.069 178.654L750.419 183.654L736.769 169.955L723.12 156.257L728.12 137.759C730.87 127.56 733.17 119.211 733.27 119.111C733.42 118.961 769.069 109.212 770.018 109.062C770.169 109.012 776.468 115.161 783.968 122.71ZM99.9871 126.21L113.637 139.859L109.087 157.057C106.537 166.506 104.287 174.955 103.987 175.755L103.537 177.305L84.9875 182.254L66.488 187.204L52.7884 173.455L39.0888 159.756L44.0386 141.308C46.7386 131.209 49.0385 122.81 49.1385 122.71C49.2885 122.61 83.9375 113.061 86.0375 112.561C86.1875 112.561 92.4373 118.661 99.9871 126.21ZM1034.71 127.46L1048.21 140.958L1043.31 159.356C1040.61 169.455 1038.21 177.954 1038.01 178.154C1037.81 178.354 1029.36 180.754 1019.21 183.504L1000.76 188.453L987.162 174.855L973.513 161.256L978.463 142.858C981.163 132.709 983.613 124.21 983.813 124.01C984.313 123.51 1018.76 114.111 1020.26 114.061C1020.96 114.011 1025.66 118.411 1034.71 127.46ZM350.43 131.159L364.03 144.758L359.13 163.156C356.38 173.255 354.03 181.654 353.88 181.854C353.68 182.004 345.28 184.354 335.181 187.104L316.831 192.053L303.131 178.354L289.432 164.656L294.232 146.708C296.882 136.859 299.232 128.41 299.432 128.01C299.732 127.56 306.731 125.46 317.831 122.46C327.681 119.761 336.031 117.561 336.281 117.561C336.581 117.511 342.93 123.66 350.43 131.159ZM1284.9 132.159L1298.6 145.858L1293.6 164.456C1290.85 174.705 1288.5 183.154 1288.4 183.204C1288.35 183.304 1279.95 185.554 1269.85 188.253L1251.41 193.153L1237.71 179.454L1224.01 165.756L1228.96 147.358C1231.66 137.259 1233.96 128.86 1234.11 128.71C1234.31 128.56 1268.7 119.061 1271 118.561C1271.15 118.511 1277.4 124.66 1284.9 132.159ZM600.873 136.109L614.423 149.758L609.423 168.256C606.723 178.404 604.423 186.754 604.373 186.804C604.073 187.054 568.124 196.503 567.474 196.503C567.074 196.503 560.724 190.453 553.325 183.054L539.825 169.555L544.725 151.157C547.425 141.058 549.775 132.609 549.975 132.409C550.325 131.959 584.874 122.61 586.274 122.56C586.974 122.51 591.723 126.96 600.873 136.109ZM851.116 140.358C858.966 148.208 864.516 154.157 864.516 154.657C864.516 155.907 855.016 191.153 854.616 191.553C854.416 191.703 845.966 194.053 835.867 196.753L817.417 201.652L803.968 188.203C796.568 180.804 790.518 174.455 790.518 174.055C790.518 173.355 800.018 137.409 800.318 137.109C800.468 136.909 836.467 127.11 837.267 127.06C837.517 127.01 843.766 133.009 851.116 140.358ZM166.985 144.208L180.735 157.957L175.735 176.555L170.735 195.203L152.086 200.202L133.486 205.202L119.787 191.453L106.137 177.755L111.137 159.257C113.837 149.058 116.387 140.658 116.687 140.508C117.137 140.358 151.986 130.81 153.036 130.56C153.186 130.56 159.485 136.659 166.985 144.208ZM1101.61 145.358C1109.01 152.757 1115.01 158.957 1115.01 159.257C1115.06 159.506 1112.86 168.006 1110.16 178.055L1105.26 196.403L1086.76 201.402L1068.26 206.401L1054.46 192.653L1040.71 178.954L1045.41 161.356C1048.01 151.707 1050.31 143.308 1050.51 142.758C1050.86 141.858 1053.36 141.058 1067.36 137.309C1076.36 134.909 1084.31 132.759 1085.01 132.509C1085.71 132.259 1086.71 132.059 1087.26 132.059C1087.91 132.009 1092.71 136.459 1101.61 145.358ZM417.428 149.158L431.078 162.806L426.228 181.054C423.578 191.053 421.178 199.452 420.978 199.702C420.728 199.952 412.278 202.402 402.179 205.102L383.829 210.001L370.18 196.403L356.53 182.754L361.28 165.006C363.88 155.257 366.18 146.808 366.43 146.258C366.78 145.458 370.18 144.408 384.829 140.458C394.679 137.759 403.029 135.559 403.279 135.559C403.579 135.509 409.928 141.658 417.428 149.158ZM1351.95 150.207L1365.65 163.906L1360.65 182.554L1355.65 201.202L1337.05 206.152L1318.4 211.151L1304.75 197.452L1291.05 183.754L1296 165.306C1298.75 155.157 1301.05 146.758 1301.2 146.658C1301.35 146.508 1336.75 136.759 1338 136.559C1338.15 136.509 1344.4 142.658 1351.95 150.207ZM668.171 153.907L681.571 167.306L676.571 185.954C673.821 196.203 671.521 204.652 671.421 204.752C671.121 205.052 635.322 214.501 634.572 214.501C634.122 214.501 627.722 208.451 620.323 201.052L606.923 187.653L611.823 169.355C614.473 159.257 616.823 150.807 616.973 150.557C617.323 150.007 651.622 140.608 653.522 140.558C654.522 140.508 657.522 143.258 668.171 153.907ZM918.364 158.607L931.964 172.255L927.014 190.703C924.314 200.802 921.914 209.251 921.764 209.401C921.614 209.551 913.215 211.901 903.115 214.601L884.815 219.55L871.066 205.802L857.366 192.103L862.266 173.955C864.916 163.956 867.316 155.507 867.566 155.257C867.966 154.857 902.765 145.158 904.265 145.058C904.565 145.008 910.915 151.157 918.364 158.607ZM247.533 176.355C247.533 177.405 237.983 212.701 237.633 213.051C237.283 213.401 201.634 223 200.784 223C199.984 223 173.535 196.353 173.535 195.553C173.535 194.903 182.985 158.907 183.235 158.657C183.285 158.557 191.685 156.307 201.834 153.557L220.284 148.608L233.933 162.156C241.383 169.655 247.533 176.055 247.533 176.355ZM1168.81 163.606L1182.36 177.255L1177.36 195.753C1174.66 205.902 1172.36 214.301 1172.31 214.351C1172.31 214.401 1163.96 216.65 1153.76 219.4L1135.26 224.4L1121.66 210.801C1114.16 203.352 1108.01 196.902 1108.01 196.503C1108.06 196.103 1110.26 187.653 1112.91 177.755L1117.76 159.756L1135.51 154.957C1145.26 152.307 1153.71 150.107 1154.26 150.057C1154.96 150.007 1159.56 154.357 1168.81 163.606ZM484.626 166.856C492.026 174.255 498.026 180.504 498.026 180.854C498.026 181.954 488.426 217.25 488.026 217.7C487.776 217.95 479.327 220.35 469.177 223.05L450.777 227.999L437.178 214.401L423.578 200.752L428.528 182.304C431.278 172.155 433.678 163.656 433.878 163.456C434.328 163.106 469.277 153.607 470.527 153.557C470.927 153.507 477.277 159.506 484.626 166.856ZM1419 168.256L1432.7 181.954L1427.75 200.552L1422.75 219.2L1404.1 224.2L1385.45 229.199L1371.8 215.451L1358.1 201.752L1363.1 183.254C1365.85 173.055 1368.35 164.656 1368.65 164.506C1369.1 164.356 1403.9 154.807 1405 154.557C1405.15 154.557 1411.45 160.706 1419 168.256ZM743.669 204.052L738.669 222.75L720.72 227.599C710.82 230.249 702.42 232.449 702.02 232.499C701.62 232.499 695.121 226.349 687.671 218.85L674.071 205.252L679.021 186.804C681.721 176.705 684.021 168.306 684.121 168.256C684.221 168.156 692.621 165.856 702.77 163.106L721.27 158.107L734.969 171.755L748.669 185.404L743.669 204.052ZM985.413 176.655L999.012 190.303L994.112 208.651C991.412 218.75 988.962 227.199 988.712 227.449C988.462 227.649 980.063 230.049 970.063 232.699L951.813 237.548L938.114 223.85L924.464 210.201L929.214 192.203C931.864 182.354 934.214 173.955 934.414 173.555C934.664 173.105 942.014 170.855 952.813 167.956C962.663 165.306 971.013 163.056 971.263 163.056C971.563 163.006 977.913 169.155 985.413 176.655ZM301.382 180.104L314.981 193.753L310.031 212.201C307.281 222.35 304.881 230.849 304.681 231.049C304.431 231.249 295.982 233.599 285.882 236.298L267.482 241.198L253.983 227.699C246.583 220.3 240.533 214.001 240.533 213.651C240.533 212.551 250.133 177.255 250.533 176.805C250.883 176.505 285.932 166.756 287.532 166.556C287.682 166.506 293.882 172.655 301.382 180.104ZM1235.86 181.604L1249.41 195.253L1244.46 213.701C1241.71 223.9 1239.41 232.249 1239.36 232.299C1239.06 232.549 1203.31 241.998 1202.61 241.998C1202.11 241.998 1195.71 235.948 1188.31 228.549L1174.86 215.101L1179.76 196.653C1182.46 186.554 1184.81 178.104 1184.96 177.905C1185.31 177.505 1219.86 168.106 1221.26 168.056C1221.96 168.006 1226.61 172.355 1235.86 181.604ZM551.625 184.854C559.024 192.253 565.024 198.602 565.024 199.002C565.024 199.702 555.574 235.598 555.274 235.898C555.224 235.948 546.875 238.248 536.725 240.998L518.276 245.947L504.676 232.349C497.176 224.85 491.026 218.4 491.026 218C491.026 217.6 493.226 209.151 495.926 199.302L500.776 181.304L518.775 176.455C528.675 173.755 537.125 171.555 537.525 171.555C537.925 171.505 544.275 177.505 551.625 184.854ZM810.717 222.1L805.718 240.748L787.118 245.697L768.469 250.697L754.819 236.998L741.119 223.25L746.119 204.752C748.869 194.553 751.169 186.204 751.219 186.154C751.269 186.104 759.619 183.804 769.819 181.054L788.268 176.105L801.968 189.753L815.717 203.452L810.717 222.1ZM118.237 193.453L131.636 206.851L126.736 225.15C124.086 235.248 121.736 243.698 121.536 243.948C121.386 244.247 112.937 246.697 102.787 249.447L84.2875 254.396L70.6379 240.798L56.9883 227.199L61.9881 208.551C64.7381 198.302 67.038 189.853 67.138 189.753C67.488 189.453 102.837 180.054 103.787 180.054C104.437 180.004 109.287 184.454 118.237 193.453ZM1052.41 194.653L1066.11 208.351L1061.26 226.549C1058.56 236.548 1056.11 244.997 1055.81 245.297C1055.51 245.597 1047.06 248.047 1037.06 250.697L1018.81 255.546L1005.16 241.898L991.512 228.249L996.262 210.501C998.862 200.752 1001.21 192.303 1001.41 191.803C1001.76 191.003 1005.31 189.903 1019.81 185.954C1029.66 183.304 1038.01 181.054 1038.26 181.054C1038.56 181.004 1044.91 187.154 1052.41 194.653ZM368.43 198.152L382.029 211.751L377.079 230.149C374.379 240.298 371.98 248.747 371.73 248.947C371.48 249.197 363.08 251.547 353.08 254.246L334.881 259.096L321.181 245.397L307.431 231.649L312.331 213.451C314.981 203.452 317.381 195.053 317.581 194.803C317.931 194.403 352.53 184.754 354.28 184.554C354.58 184.554 360.93 190.653 368.43 198.152ZM1303.15 199.402L1316.6 212.851L1311.6 231.449C1308.85 241.698 1306.5 250.147 1306.4 250.247C1306.1 250.547 1270.55 259.996 1269.65 259.996C1269.15 259.996 1263.05 254.296 1255.31 246.547L1241.91 233.149L1246.91 214.551C1249.66 204.302 1251.96 195.853 1252.06 195.803C1252.46 195.403 1287.3 186.104 1288.5 186.054C1289.5 186.004 1292.4 188.653 1303.15 199.402ZM618.873 203.102L632.422 216.75L627.422 235.248C624.723 245.397 622.373 253.796 622.323 253.846C622.223 253.946 613.873 256.246 603.723 258.996L585.274 263.945L571.574 250.247L557.824 236.548L562.824 217.95L567.824 199.302L585.774 194.453C595.673 191.753 604.123 189.553 604.523 189.553C604.923 189.503 611.373 195.653 618.873 203.102ZM882.515 221.9C882.515 222.95 872.966 258.196 872.616 258.596C872.216 258.946 836.817 268.495 835.867 268.495C835.017 268.495 808.517 241.898 808.517 241.048C808.517 240.498 817.967 204.552 818.217 204.152C818.267 204.102 826.617 201.852 836.767 199.102L855.266 194.103L868.916 207.651C876.366 215.151 882.515 221.55 882.515 221.9ZM185.235 211.451L198.734 224.95L193.834 243.348C191.135 253.447 188.785 261.896 188.585 262.096C188.235 262.496 153.086 271.995 151.986 271.995C151.586 271.995 145.186 265.845 137.686 258.346L124.136 244.747L129.136 226.249C131.836 216.1 134.136 207.751 134.186 207.701C134.536 207.401 169.985 198.052 170.785 198.052C171.435 198.002 176.235 202.452 185.235 211.451ZM1119.61 212.351C1127.01 219.75 1133.01 226.049 1133.01 226.399C1133.01 226.999 1123.51 263.045 1123.26 263.395C1123.16 263.445 1114.76 265.795 1104.46 268.545L1085.81 273.544L1072.16 259.896L1058.56 246.247L1063.56 227.799C1066.31 217.65 1068.66 209.201 1068.81 209.051C1069.16 208.701 1104.41 199.102 1105.51 199.052C1105.91 199.002 1112.26 205.002 1119.61 212.351ZM435.428 216.15L449.127 229.849L444.228 248.047C441.578 258.046 439.128 266.495 438.828 266.845C438.528 267.145 430.078 269.595 420.078 272.245L401.879 277.094L388.229 263.445L374.529 249.747L379.479 231.349C382.179 221.25 384.529 212.851 384.679 212.651C384.929 212.451 420.278 202.702 421.528 202.552C421.678 202.502 427.928 208.651 435.428 216.15ZM1370.2 217.45L1383.65 230.899L1378.75 249.347C1376.05 259.446 1373.7 267.895 1373.55 268.095C1373.2 268.445 1337.95 277.994 1336.9 277.994C1336.55 277.994 1330.15 271.845 1322.65 264.345L1309.05 250.747L1314 232.299C1316.75 222.15 1319.05 213.801 1319.1 213.751C1319.5 213.401 1354.4 204.102 1355.5 204.052C1356.5 204.002 1359.4 206.651 1370.2 217.45ZM685.871 221.1L699.47 234.748L694.521 253.197C691.821 263.295 689.471 271.695 689.371 271.795C689.271 271.895 680.871 274.194 670.721 276.944L652.272 281.893L638.572 268.295L624.923 254.646L629.822 236.348C632.472 226.249 634.822 217.85 634.972 217.6C635.272 217.15 669.971 207.601 671.521 207.551C671.921 207.501 678.421 213.651 685.871 221.1ZM936.364 225.599L949.964 239.248L945.014 257.696C942.264 267.845 939.864 276.344 939.664 276.544C939.264 276.944 903.915 286.493 902.865 286.493C902.115 286.493 875.516 259.946 875.516 259.196C875.516 258.146 885.115 222.75 885.515 222.35C885.815 222.05 920.764 212.301 922.514 212.051C922.664 212.001 928.914 218.15 936.364 225.599ZM265.533 243.348C265.533 244.397 255.983 279.694 255.633 280.094C255.233 280.494 219.984 289.993 218.934 289.993C218.584 289.993 212.184 283.893 204.734 276.444L191.235 262.945L196.184 244.297L201.184 225.649L219.734 220.65L238.283 215.651L251.933 229.199C259.383 236.648 265.533 243.048 265.533 243.348ZM1186.81 230.599L1200.36 244.247L1195.41 262.746C1192.66 272.894 1190.36 281.294 1190.26 281.394C1190.21 281.494 1181.81 283.793 1171.71 286.493L1153.26 291.442L1139.66 277.844C1132.16 270.395 1126.01 263.895 1126.01 263.495C1126.06 263.095 1128.26 254.646 1130.91 244.797L1135.76 226.849L1153.76 221.95C1163.66 219.3 1172.11 217.05 1172.51 217.05C1172.91 217 1179.36 223.15 1186.81 230.599ZM502.476 234.199L516.176 247.897L511.226 266.295C508.526 276.444 506.126 284.893 505.926 285.043C505.726 285.193 497.276 287.493 487.176 290.193L468.877 295.092L455.227 281.394L441.578 267.745L446.527 249.297C449.277 239.148 451.627 230.749 451.777 230.599C451.977 230.399 487.476 220.7 488.526 220.55C488.676 220.5 494.926 226.649 502.476 234.199ZM753.219 238.948L766.669 252.397L761.769 270.795C759.069 280.944 756.719 289.393 756.519 289.643C756.369 289.843 747.919 292.242 737.719 294.992L719.27 299.942L705.62 286.293L691.971 272.694L696.971 254.046C699.72 243.748 702.07 235.298 702.12 235.248C702.52 234.948 737.919 225.599 738.769 225.549C739.469 225.499 744.169 229.899 753.219 238.948ZM68.888 242.598L82.4876 256.246L77.5377 274.694C74.8378 284.793 72.4879 293.242 72.3379 293.342C72.1879 293.492 63.8381 295.842 53.6884 298.542L35.2889 303.491L21.5893 289.793L7.93964 276.144L12.7895 257.946C15.4394 247.947 17.8394 239.498 18.0894 239.248C18.5393 238.798 52.8884 229.199 54.5384 229.049C54.9383 229.049 61.4382 235.148 68.888 242.598ZM1003.41 243.648L1017.01 257.246L1012.21 275.244C1009.56 285.143 1007.21 293.592 1007.01 293.992C1006.71 294.542 1000.36 296.442 988.262 299.692L969.863 304.591L956.163 290.893L942.464 277.194L947.314 258.946C949.964 248.947 952.363 240.548 952.563 240.298C952.813 239.998 987.712 230.299 989.512 230.049C989.662 229.999 995.912 236.148 1003.41 243.648ZM331.731 265.445C331.081 267.795 328.831 276.194 326.731 284.043L322.881 298.292L304.781 303.141C294.832 305.791 286.382 307.991 285.982 307.991C285.132 307.991 258.533 281.494 258.533 280.644C258.533 279.694 268.082 244.297 268.482 243.898C268.632 243.698 277.032 241.298 287.032 238.598L305.281 233.649L319.081 247.397L332.881 261.096L331.731 265.445ZM1253.86 248.597L1267.4 262.246L1262.45 280.694C1259.7 290.843 1257.41 299.242 1257.31 299.342C1257.2 299.442 1248.81 301.791 1238.71 304.491L1220.26 309.441L1206.56 295.742L1192.86 282.093L1197.86 263.445L1202.81 244.847L1220.81 239.948C1230.66 237.298 1239.11 235.098 1239.51 235.048C1239.91 234.998 1246.36 241.148 1253.86 248.597ZM569.624 251.847C577.024 259.246 583.024 265.595 583.024 265.995C583.024 266.395 580.824 274.894 578.174 284.843L573.324 302.991L570.824 303.691C569.424 304.091 560.974 306.391 552.075 308.741L535.875 313.09L522.425 299.642C514.876 292.092 509.026 285.843 509.026 285.343C509.026 284.393 518.475 248.897 518.826 248.547C519.025 248.297 554.974 238.598 555.774 238.548C556.024 238.498 562.274 244.497 569.624 251.847ZM820.117 256.846C827.517 264.245 833.517 270.445 833.517 270.745C833.517 271.645 823.917 307.241 823.567 307.641C823.367 307.841 814.967 310.24 804.868 312.94L786.568 317.84L772.868 304.041L759.119 290.243L764.119 271.745C766.869 261.546 769.119 253.247 769.169 253.197C769.619 252.897 805.018 243.548 805.768 243.548C806.417 243.498 811.217 247.947 820.117 256.846ZM135.936 260.646L149.586 274.294L144.636 292.642C141.886 302.741 139.586 311.14 139.436 311.29C139.286 311.44 130.836 313.79 120.737 316.49L102.287 321.489L88.6374 307.841L74.9878 294.192L79.9876 275.544C82.7376 265.295 85.0375 256.846 85.1375 256.796C85.4875 256.546 120.837 247.097 121.536 247.047C121.936 246.997 128.436 253.147 135.936 260.646ZM1070.41 261.646L1084.11 275.344L1079.11 293.942C1076.36 304.191 1074.06 312.59 1073.96 312.69C1073.86 312.74 1065.46 315.04 1055.31 317.74L1036.91 322.639L1023.21 308.941L1009.51 295.242L1014.46 276.844C1017.16 266.695 1019.51 258.296 1019.66 258.196C1019.86 257.996 1055.36 248.197 1056.51 248.047C1056.66 247.997 1062.91 254.146 1070.41 261.646ZM386.429 265.145L400.029 278.744L395.029 297.492C392.279 307.741 389.929 316.24 389.879 316.29C389.579 316.49 353.58 325.989 352.98 325.989C352.58 325.989 346.23 319.939 338.83 312.54L325.381 299.092L330.281 280.644C332.981 270.545 335.331 262.096 335.481 261.896C335.731 261.646 368.13 252.597 372.53 251.547C372.68 251.547 378.929 257.646 386.429 265.145ZM1320.85 266.595L1334.5 280.244L1329.55 298.642C1326.8 308.791 1324.5 317.19 1324.35 317.29C1324.2 317.44 1315.8 319.789 1305.7 322.489L1287.25 327.439L1273.55 313.79L1259.9 300.142L1264.9 281.544C1267.65 271.295 1269.95 262.896 1270.05 262.796C1270.4 262.546 1305.7 253.097 1306.5 253.047C1306.9 252.997 1313.4 259.146 1320.85 266.595ZM636.872 270.095L650.422 283.743L645.472 302.191C642.722 312.39 640.372 320.789 640.272 320.939C640.122 321.039 631.772 323.389 621.673 326.089L603.273 330.988L589.573 317.29L575.824 303.541L580.774 285.143C583.474 275.044 585.724 266.645 585.824 266.545C586.024 266.345 621.973 256.596 622.773 256.546C623.073 256.496 629.372 262.646 636.872 270.095ZM887.115 274.844C894.515 282.243 900.515 288.543 900.515 288.893C900.515 289.943 890.965 325.189 890.615 325.589C890.415 325.789 881.965 328.189 871.916 330.888L853.566 335.788L840.067 322.289C832.617 314.84 826.517 308.441 826.517 308.041C826.517 307.641 828.717 299.192 831.367 289.243L836.217 271.195L853.966 266.395C863.766 263.745 872.216 261.546 872.766 261.546C873.416 261.496 878.216 265.945 887.115 274.844ZM203.234 278.444L216.734 291.942L211.834 310.34C209.134 320.439 206.734 328.938 206.534 329.138C206.334 329.388 197.834 331.788 187.735 334.538L169.285 339.487L155.686 325.839L142.036 312.24L146.786 294.492C149.386 284.743 151.736 276.294 151.986 275.744C152.286 274.944 155.486 273.894 170.085 269.945C179.835 267.295 188.235 265.095 188.785 265.045C189.485 264.995 194.034 269.245 203.234 278.444ZM1137.46 279.694L1151.16 293.392L1146.16 312.04L1141.21 330.638L1122.56 335.638L1103.91 340.637L1090.26 326.939L1076.56 313.24L1081.56 294.792C1084.26 284.643 1086.61 276.244 1086.71 276.144C1086.86 275.944 1122.56 266.195 1123.51 266.045C1123.66 265.995 1129.91 272.145 1137.46 279.694ZM453.427 283.143L467.127 296.842L462.127 315.44C459.377 325.689 457.027 334.138 456.927 334.188C456.877 334.288 448.477 336.538 438.378 339.237L419.978 344.187L406.229 330.438L392.529 316.74L397.479 298.242C400.479 286.993 402.679 279.694 403.129 279.544C403.629 279.344 438.578 269.745 439.528 269.545C439.678 269.545 445.927 275.644 453.427 283.143ZM1387.9 284.643L1401.55 298.292L1396.7 316.54C1394.05 326.539 1391.7 334.938 1391.5 335.138C1391.3 335.388 1382.85 337.788 1372.7 340.487L1354.25 345.437L1340.6 331.838L1326.95 318.19L1332 299.542C1334.75 289.243 1337.05 280.794 1337.1 280.744C1337.45 280.544 1372.85 271.095 1373.5 271.045C1373.9 270.995 1380.4 277.144 1387.9 284.643ZM703.87 288.093L717.47 301.741L712.52 320.139C709.82 330.288 707.47 338.687 707.32 338.837C707.17 338.987 698.771 341.337 688.671 344.087L670.321 349.036L656.622 335.338L642.922 321.639L647.772 303.441C650.422 293.442 652.822 284.993 653.072 284.743C653.472 284.343 688.271 274.644 689.771 274.544C690.071 274.494 696.421 280.644 703.87 288.093ZM954.313 293.092L967.863 306.741L962.863 325.289L957.863 343.837L939.214 348.836L920.564 353.786L907.065 340.287C899.615 332.838 893.515 326.489 893.515 326.189C893.515 325.289 903.115 289.793 903.465 289.393C903.815 288.993 938.364 279.594 939.764 279.544C940.464 279.494 945.164 283.893 954.313 293.092ZM270.132 296.342C277.532 303.741 283.532 310.04 283.532 310.39C283.532 310.89 274.082 346.887 273.832 347.337C273.782 347.387 265.433 349.686 255.283 352.386L236.783 357.385L222.984 343.637L209.234 329.938L214.134 311.64C216.834 301.541 219.184 293.192 219.334 293.042C219.684 292.642 254.483 283.143 255.783 283.043C256.433 282.993 261.083 287.293 270.132 296.342ZM1204.61 297.342C1212.01 304.741 1218.01 311.09 1218.01 311.54C1218.01 312.99 1208.41 348.236 1207.91 348.536C1207.66 348.686 1199.26 351.036 1189.16 353.736L1170.91 358.635L1157.46 345.187C1150.06 337.788 1144.01 331.388 1144.01 330.938C1144.01 330.088 1153.46 294.392 1153.76 294.092C1153.96 293.892 1190.01 284.093 1190.76 284.043C1191.01 283.993 1197.26 289.993 1204.61 297.342ZM529.175 333.588L524.175 352.236L505.576 357.185L486.976 362.185L473.277 348.436L459.577 334.738L464.527 316.29C467.277 306.141 469.577 297.792 469.677 297.692C469.777 297.592 478.177 295.292 488.326 292.542L506.776 287.593L520.475 301.241L534.175 314.89L529.175 333.588ZM770.919 306.141L784.568 319.789L779.618 338.237C775.668 352.986 774.468 356.786 773.718 357.085C773.218 357.335 764.769 359.635 755.019 362.235L737.269 366.984L723.62 353.336L709.97 339.687L714.77 321.739C717.37 311.84 719.72 303.391 719.97 302.991C720.22 302.491 726.92 300.492 738.319 297.392C748.169 294.742 756.519 292.542 756.769 292.542C757.069 292.492 763.419 298.642 770.919 306.141ZM86.8875 309.591L100.487 323.239L95.5372 341.687C92.7873 351.836 90.3874 360.285 90.1874 360.485C89.9874 360.685 81.5876 363.035 71.5879 365.685L53.3884 370.584L39.6388 356.836L25.9391 343.137L30.789 324.939C33.4389 314.94 35.8389 306.541 36.0889 306.241C36.4888 305.841 71.0879 296.242 72.7878 296.042C73.0878 295.992 79.4377 302.141 86.8875 309.591ZM1021.36 311.09L1034.96 324.739L1029.96 343.187C1027.21 353.336 1024.96 361.735 1024.86 361.785C1024.61 362.035 988.762 371.484 988.062 371.484C987.612 371.484 981.213 365.435 973.813 358.035L960.363 344.587L965.263 326.139C967.963 316.04 970.313 307.591 970.463 307.391C970.813 306.991 1005.36 297.592 1006.76 297.542C1007.46 297.492 1012.16 301.941 1021.36 311.09ZM337.331 314.59L350.88 328.239L345.93 346.737C343.18 356.885 340.88 365.285 340.83 365.335C340.83 365.385 332.481 367.634 322.281 370.384L303.781 375.384L290.182 361.835C282.682 354.336 276.532 347.886 276.532 347.486C276.582 347.087 278.732 338.637 281.432 328.738L286.282 310.74L304.031 305.941C313.781 303.291 322.231 301.091 322.781 301.041C323.481 300.991 328.081 305.291 337.331 314.59ZM1271.85 315.59L1285.45 329.238L1280.45 347.736C1277.7 357.885 1275.3 366.384 1275.1 366.534C1274.9 366.684 1266.45 369.034 1256.35 371.734L1237.91 376.633L1224.46 363.185C1217.06 355.786 1211.01 349.436 1211.01 349.086C1211.01 348.486 1220.56 312.44 1220.81 312.09C1220.91 311.89 1257.01 302.091 1257.76 302.041C1258.06 301.991 1264.35 308.141 1271.85 315.59ZM596.273 351.586L591.273 370.184L573.274 375.034C563.374 377.733 554.924 379.933 554.524 379.933C554.125 379.983 547.675 373.834 540.225 366.335L526.625 352.736L531.625 334.238C534.375 324.039 536.675 315.69 536.725 315.64C536.775 315.54 545.175 313.29 555.324 310.54L573.774 305.591L587.524 319.24L601.223 332.938L596.273 351.586ZM837.917 324.139L851.616 337.838L846.766 356.036C844.116 366.035 841.717 374.434 841.467 374.684C841.267 374.934 832.767 377.383 822.667 380.083L804.318 384.983L790.668 371.384L777.018 357.735L781.968 339.337C784.718 329.188 787.068 320.739 787.268 320.589C787.568 320.289 822.617 310.59 823.767 310.54C824.067 310.49 830.417 316.64 837.917 324.139ZM153.936 327.639L167.535 341.287L162.635 359.635C159.935 369.734 157.485 378.183 157.236 378.433C156.986 378.683 148.586 381.033 138.586 383.683L120.387 388.582L106.687 374.884L92.9873 361.185L97.7372 343.187C100.387 333.338 102.737 324.939 102.937 324.539C103.237 323.989 137.186 314.34 139.786 314.04C140.086 314.04 146.436 320.139 153.936 327.639ZM1097.76 358.535C1095.41 367.434 1093.11 375.883 1092.71 377.283L1092.01 379.783L1073.46 384.733L1054.96 389.682L1041.26 375.933L1027.51 362.235L1032.46 343.837C1035.16 333.688 1037.51 325.339 1037.61 325.239C1037.71 325.089 1046.11 322.789 1056.31 320.039L1074.76 315.09L1088.41 328.688L1102.11 342.337L1097.76 358.535ZM404.379 332.588L417.928 346.237L412.978 364.685C410.228 374.834 407.929 383.233 407.879 383.333C407.779 383.383 399.429 385.682 389.229 388.432L370.78 393.382L357.08 379.733L343.38 366.085L348.38 347.387L353.38 328.738L371.33 323.889C381.179 321.239 389.629 319.04 390.029 319.04C390.429 318.99 396.879 325.139 404.379 332.588ZM1338.85 333.588L1352.5 347.237L1347.55 365.685C1344.8 375.783 1342.4 384.283 1342.15 384.483C1341.95 384.683 1333.55 387.032 1323.55 389.682L1305.3 394.532L1291.6 380.833L1277.9 367.134L1282.75 348.936C1285.45 338.937 1287.85 330.538 1288.1 330.238C1288.45 329.838 1323.15 320.189 1324.75 320.039C1325.05 319.989 1331.4 326.139 1338.85 333.588ZM654.872 337.088L668.421 350.736L663.471 369.234C660.722 379.383 658.322 387.882 658.122 388.032C657.922 388.232 649.472 390.582 639.372 393.282L620.973 398.181L607.473 384.683C600.073 377.283 594.023 370.934 594.023 370.534C594.023 368.984 603.723 333.738 604.223 333.488C604.923 333.188 640.072 323.639 640.772 323.539C641.072 323.539 647.372 329.638 654.872 337.088ZM905.115 341.837C912.515 349.236 918.514 355.536 918.514 355.886C918.514 356.486 909.015 392.532 908.765 392.882C908.715 392.932 900.265 395.231 889.965 397.981L871.316 403.031L857.716 389.382L844.116 375.734L849.066 357.285C851.816 347.087 854.166 338.687 854.316 338.537C854.616 338.187 889.915 328.589 891.015 328.539C891.415 328.489 897.765 334.488 905.115 341.837ZM220.934 345.637L234.633 359.335L229.784 377.533C227.084 387.532 224.634 395.981 224.334 396.281C224.034 396.581 215.584 399.031 205.584 401.681L187.335 406.53L173.685 392.882L160.035 379.233L164.785 361.485C167.385 351.736 169.735 343.287 169.935 342.787C170.285 341.987 173.835 340.887 188.335 336.938C198.184 334.288 206.534 332.038 206.784 332.038C207.084 331.988 213.434 338.137 220.934 345.637ZM1164.16 379.083L1159.16 397.731L1141.21 402.581C1131.36 405.23 1122.91 407.43 1122.51 407.48C1122.11 407.48 1115.66 401.331 1108.16 393.832L1094.61 380.233L1099.56 361.785C1102.31 351.636 1104.56 343.237 1104.66 343.187C1104.71 343.137 1113.11 340.837 1123.26 338.087L1141.76 333.088L1155.46 346.737L1169.16 360.385L1164.16 379.083ZM471.377 350.586L485.026 364.235L480.077 382.633C477.327 392.782 475.027 401.131 474.927 401.231C474.827 401.381 466.427 403.681 456.227 406.43L437.778 411.38L424.128 397.781L410.428 384.133L415.428 365.535C418.178 355.336 420.478 346.887 420.578 346.787C420.878 346.487 456.177 337.038 457.027 337.038C457.427 336.988 463.927 343.137 471.377 350.586ZM1405.9 351.636L1419.55 365.285L1414.75 383.283C1412.15 393.132 1409.8 401.531 1409.6 401.931C1409.35 402.331 1401.55 404.68 1390.75 407.58L1372.3 412.53L1358.65 398.881L1344.95 385.182L1349.75 367.234C1352.4 357.335 1354.7 348.886 1354.95 348.486C1355.2 348.036 1362.2 345.937 1373.3 342.937C1383.15 340.237 1391.5 338.038 1391.75 338.038C1392.05 337.988 1398.4 344.137 1405.9 351.636ZM721.87 355.086L735.519 368.734L730.52 387.182C727.82 397.331 725.37 405.78 725.17 405.98C724.97 406.23 716.47 408.58 706.37 411.28L687.971 416.179L674.371 402.581L660.822 389.032L665.721 370.634C668.421 360.535 670.821 352.036 671.021 351.786C671.371 351.486 706.42 341.737 708.02 341.537C708.17 341.487 714.42 347.636 721.87 355.086ZM972.313 360.085L985.913 373.734L980.913 392.232C978.163 402.381 975.863 410.78 975.813 410.83C975.763 410.88 967.413 413.18 957.213 415.929L938.764 420.879L925.014 407.23L911.315 393.532L916.264 374.884L921.264 356.286L939.264 351.436C949.164 348.736 957.613 346.537 958.013 346.537C958.413 346.487 964.863 352.636 972.313 360.085ZM287.982 363.685L301.682 377.383L296.782 395.831C294.082 405.93 291.782 414.329 291.732 414.379C291.682 414.479 283.232 416.829 272.982 419.579L254.383 424.578L240.733 410.88L227.084 397.231L232.083 378.783C234.783 368.634 237.183 360.185 237.333 360.035C237.533 359.785 272.682 350.186 273.782 350.036C274.082 350.036 280.432 356.136 287.982 363.685ZM1236.01 378.983C1235.96 379.383 1233.76 387.832 1231.11 397.731L1226.26 415.729L1208.26 420.579C1198.36 423.228 1189.91 425.428 1189.51 425.478C1189.11 425.478 1182.66 419.329 1175.21 411.83L1161.66 398.231L1166.61 379.733C1169.36 369.534 1171.66 361.185 1171.71 361.135C1171.71 361.085 1180.11 358.835 1190.26 356.086L1208.76 351.086L1222.41 364.635C1229.86 372.134 1236.01 378.583 1236.01 378.983ZM538.725 368.434L552.175 381.883L547.275 400.331C544.575 410.43 542.225 418.879 542.075 419.079C541.725 419.429 506.526 428.978 505.426 428.978C505.076 428.978 498.676 422.829 491.176 415.329L477.577 401.731L482.526 383.283C485.276 373.134 487.576 364.785 487.626 364.735C487.976 364.385 522.925 355.086 524.025 355.036C525.025 354.986 527.925 357.635 538.725 368.434ZM788.918 373.134L802.568 386.782L797.718 404.98C795.018 415.029 792.618 423.478 792.318 423.828C792.018 424.128 783.568 426.578 773.568 429.228L755.369 434.077L741.669 420.379L727.97 406.68L732.82 388.482C735.519 378.433 737.869 370.034 738.069 369.784C738.369 369.484 773.418 359.735 775.018 359.535C775.168 359.485 781.418 365.635 788.918 373.134ZM104.887 376.583L118.487 390.232L113.537 408.68C110.787 418.829 108.387 427.328 108.187 427.528C107.787 427.928 72.4379 437.477 71.3879 437.477C70.6379 437.477 44.0386 410.93 44.0386 410.18C44.0386 409.18 53.6384 373.734 53.9884 373.334C54.2884 373.034 89.2874 363.285 91.0373 363.035C91.1873 362.985 97.4372 369.134 104.887 376.583ZM1039.36 378.083L1052.96 391.732L1048.01 410.18C1045.26 420.329 1042.96 428.728 1042.86 428.828C1042.76 428.928 1034.36 431.228 1024.21 433.977L1005.76 438.927L992.062 425.228L978.363 411.58L983.363 392.932L988.362 374.284L1006.31 369.434C1016.16 366.734 1024.61 364.535 1025.01 364.535C1025.41 364.485 1031.86 370.634 1039.36 378.083ZM355.13 381.333C362.53 388.732 368.53 395.081 368.53 395.481C368.53 395.881 366.38 404.38 363.68 414.329L358.88 432.477L356.33 433.177C354.93 433.577 346.48 435.827 337.581 438.227L321.381 442.576L307.931 429.128C299.082 420.279 294.532 415.379 294.532 414.729C294.582 414.179 296.782 405.68 299.432 395.781L304.281 377.833L322.281 372.984C332.181 370.284 340.63 368.084 341.03 368.034C341.43 368.034 347.78 373.984 355.13 381.333ZM1298.4 414.879C1295.7 424.928 1293.3 433.377 1293.1 433.527C1292.9 433.727 1284.45 436.077 1274.35 438.777L1255.96 443.676L1242.51 430.228C1235.06 422.779 1229.01 416.429 1229.01 416.079C1229.01 415.579 1238.46 379.583 1238.71 379.133C1238.76 379.083 1247.11 376.783 1257.26 374.084L1275.75 369.084L1289.55 382.833L1303.3 396.531L1298.4 414.879ZM614.323 418.329C611.623 428.428 609.273 436.877 609.123 437.077C608.723 437.477 573.574 446.976 572.474 446.976C572.074 446.976 565.674 440.827 558.224 433.327L544.675 419.729L549.675 401.181L554.674 382.633L573.224 377.633L591.773 372.634L605.523 386.282L619.223 399.931L614.323 418.329ZM855.916 391.132L869.616 404.83L864.766 423.028C862.116 433.027 859.666 441.477 859.366 441.776C859.016 442.076 850.566 444.526 840.567 447.226L822.367 452.075L808.717 438.377L795.018 424.728L799.968 406.33C802.718 396.181 805.068 387.782 805.218 387.582C805.518 387.332 840.517 377.683 841.767 377.533C842.067 377.533 848.416 383.633 855.916 391.132ZM171.935 394.632L185.585 408.28L180.535 426.978C177.785 437.227 175.485 445.676 175.385 445.726C175.035 445.976 138.986 455.475 138.436 455.475C138.086 455.475 131.736 449.426 124.336 442.026L110.887 428.578L115.787 410.13C118.487 400.031 120.837 391.532 121.037 391.332C121.286 391.032 155.786 381.433 158.035 381.033C158.185 380.983 164.435 387.132 171.935 394.632ZM1106.36 396.081L1120.01 409.73L1115.06 428.128C1112.36 438.227 1110.01 446.626 1109.91 446.776C1109.76 446.876 1101.36 449.226 1091.21 451.975L1072.76 456.925L1059.11 443.276L1045.41 429.628L1050.41 411.03C1053.16 400.781 1055.51 392.332 1055.61 392.282C1055.91 392.032 1091.21 382.583 1092.01 382.533C1092.41 382.483 1098.91 388.632 1106.36 396.081ZM422.378 399.581L435.928 413.23L430.978 431.678C428.228 441.826 425.928 450.226 425.828 450.376C425.728 450.476 417.328 452.775 407.179 455.475L388.779 460.425L375.079 446.726L361.38 433.077L366.33 414.429L371.33 395.831L389.329 390.932C399.179 388.282 407.629 386.082 408.029 386.032C408.429 385.982 414.878 392.132 422.378 399.581ZM1356.85 400.581L1370.5 414.229L1365.55 432.677C1362.8 442.776 1360.4 451.275 1360.15 451.475C1359.75 451.875 1324.4 461.474 1323.35 461.474C1323 461.474 1316.7 455.425 1309.3 448.026L1295.8 434.527L1300.7 416.129C1303.4 406.03 1305.8 397.531 1306 397.331C1306.3 397.031 1341.05 387.332 1343 387.032C1343.15 386.982 1349.4 393.132 1356.85 400.581ZM686.021 418.229C686.071 418.479 683.871 426.978 681.221 437.027L676.321 455.275L658.272 460.125C648.322 462.774 639.872 464.974 639.472 464.974C638.572 464.974 612.023 438.477 612.023 437.577C612.023 436.477 621.573 401.281 621.973 400.831C622.173 400.631 630.522 398.281 640.572 395.531L658.772 390.632L672.421 404.18C679.871 411.63 686.021 417.929 686.021 418.229ZM922.964 409.18L936.714 422.928L931.714 441.427C926.764 459.975 926.764 459.975 925.264 460.425C924.464 460.724 916.014 462.974 906.565 465.524L889.365 470.073L875.716 456.425L862.116 442.726L867.066 424.278C869.816 414.079 872.166 405.68 872.266 405.58C872.466 405.38 908.065 395.631 909.015 395.531C909.165 395.481 915.464 401.631 922.964 409.18ZM238.933 412.63L252.633 426.328L247.633 444.926C244.883 455.175 242.583 463.574 242.483 463.674C242.383 463.724 233.983 466.024 223.884 468.724L205.434 473.623L191.735 459.925L178.035 446.226L182.985 427.828C185.735 417.679 188.035 409.28 188.185 409.18C188.335 408.98 223.334 399.381 225.034 399.031C225.184 398.981 231.433 405.13 238.933 412.63ZM1173.71 413.929L1187.16 427.378L1182.26 445.826C1179.56 455.925 1177.21 464.374 1177.06 464.574C1176.86 464.774 1168.41 467.174 1158.26 469.924L1139.76 474.923L1126.11 461.324L1112.51 447.726L1117.51 429.028C1120.26 418.729 1122.56 410.28 1122.66 410.23C1123.01 409.93 1158.46 400.531 1159.26 400.531C1159.96 400.481 1164.71 404.93 1173.71 413.929ZM489.376 417.579L503.026 431.228L498.076 449.626C495.326 459.775 492.976 468.174 492.876 468.324C492.726 468.474 484.326 470.823 474.177 473.523L455.777 478.473L442.128 464.824L428.428 451.126L433.278 432.927C435.978 422.928 438.328 414.479 438.578 414.229C439.028 413.779 473.327 404.18 475.027 404.031C475.427 404.031 481.926 410.13 489.376 417.579ZM1423.9 418.629L1437.55 432.278L1432.55 450.926C1429.8 461.224 1427.5 469.624 1427.4 469.674C1427.3 469.724 1418.95 472.023 1408.8 474.723L1390.4 479.622L1376.7 465.924L1363 452.175L1367.9 433.827C1370.6 423.728 1372.95 415.329 1373.15 415.179C1373.35 414.979 1408.55 405.28 1410 405.03C1410.15 404.98 1416.4 411.13 1423.9 418.629ZM753.219 436.677C753.119 436.977 750.869 445.326 748.219 455.225C745.619 465.124 743.419 473.223 743.369 473.273C742.919 473.523 706.92 482.972 706.42 482.972C706.07 482.972 699.72 476.923 692.321 469.524L678.821 456.025L683.721 437.627C686.421 427.528 688.771 419.029 688.971 418.829C689.171 418.629 697.57 416.229 707.57 413.529L725.77 408.63L739.619 422.379C747.219 429.928 753.319 436.377 753.219 436.677ZM990.112 426.828C997.512 434.227 1003.51 440.577 1003.51 440.977C1003.51 441.377 1001.36 449.876 998.712 459.825L993.862 477.973L992.312 478.423C991.462 478.723 983.013 480.972 973.563 483.522L956.363 488.072L942.964 474.673C935.564 467.274 929.514 460.874 929.514 460.475C929.514 459.675 939.014 423.878 939.314 423.528C939.514 423.328 975.513 413.579 976.263 413.529C976.513 413.479 982.763 419.479 990.112 426.828ZM305.981 430.678L319.681 444.376L314.681 463.024L309.681 481.672L291.082 486.622L272.432 491.621L258.783 477.923L245.083 464.224L250.083 445.776C252.783 435.627 255.133 427.228 255.233 427.128C255.383 426.978 290.932 417.229 292.032 417.029C292.182 416.979 298.432 423.128 305.981 430.678ZM1240.61 431.828C1248.01 439.227 1254.01 445.476 1254.01 445.776C1254.01 446.826 1244.41 482.222 1244.06 482.622C1243.86 482.822 1235.46 485.222 1225.36 487.922L1207.06 492.821L1193.36 479.023L1179.66 465.224L1184.66 446.726L1189.61 428.228L1207.46 423.378C1217.26 420.729 1225.71 418.529 1226.26 418.529C1226.91 418.479 1231.71 422.928 1240.61 431.828ZM556.424 435.627L570.074 449.276L565.224 467.524C562.574 477.523 560.224 485.922 560.024 486.122C559.774 486.372 551.325 488.772 541.225 491.521L522.775 496.471L509.126 482.822L495.476 469.174L500.276 451.225C502.926 441.327 505.226 432.877 505.476 432.477C505.726 431.978 512.326 429.978 523.575 426.928C533.325 424.278 541.625 422.079 542.025 422.029C542.425 422.029 548.925 428.128 556.424 435.627ZM806.917 440.127L820.567 453.775L815.567 472.423C812.817 482.722 810.467 491.171 810.417 491.221C810.067 491.471 774.168 500.97 773.468 500.97C773.068 500.97 766.719 494.921 759.319 487.522L745.869 474.073L750.769 455.675C753.469 445.526 755.819 437.077 756.019 436.877C756.219 436.627 788.568 427.578 793.018 426.528C793.168 426.528 799.418 432.627 806.917 440.127ZM122.836 444.076L136.386 457.725L131.386 476.273L126.386 494.871L113.087 498.42C105.787 500.37 97.3872 502.62 94.4872 503.42L89.1374 504.82L75.4878 491.171L61.8382 477.523L66.788 458.875L71.7879 440.227L89.5374 435.377C99.2871 432.727 107.737 430.528 108.287 430.528C108.987 430.478 113.637 434.877 122.836 444.076ZM1057.36 445.076L1070.96 458.725L1066.01 477.173C1063.26 487.322 1060.91 495.721 1060.81 495.871C1060.66 495.971 1052.26 498.32 1042.16 501.02L1023.76 505.97L1010.06 492.271L996.362 478.573L1001.26 460.125C1003.96 450.026 1006.26 441.627 1006.36 441.527C1006.51 441.327 1042.46 431.578 1043.26 431.528C1043.56 431.478 1049.86 437.627 1057.36 445.076ZM372.88 448.576C380.379 456.075 386.529 462.574 386.529 462.974C386.479 463.374 384.279 471.823 381.629 481.672L376.779 499.67L358.13 504.62L339.43 509.619L325.781 495.921L312.181 482.222L317.131 463.724C319.881 453.525 322.181 445.176 322.281 445.076C322.381 444.976 357.43 435.377 359.03 435.027C359.18 434.977 365.43 441.127 372.88 448.576ZM1307.8 450.026L1321.3 463.524L1316.3 482.172L1311.3 500.82L1292.7 505.82L1274.05 510.769L1260.55 497.271C1253.11 489.821 1247.01 483.422 1247.01 483.072C1247.01 482.072 1256.56 446.776 1256.91 446.376C1257.35 445.976 1291.85 436.577 1293.25 436.527C1293.9 436.477 1298.7 440.927 1307.8 450.026ZM623.773 453.475L637.222 466.924L632.272 485.522C628.122 501.07 627.172 504.17 626.273 504.52C625.723 504.77 617.273 507.12 607.523 509.719L589.773 514.469L576.174 500.82L562.574 487.222L567.524 468.774C570.224 458.675 572.624 450.226 572.774 450.026C573.124 449.626 607.923 440.127 609.273 440.027C609.973 439.977 614.573 444.276 623.773 453.475ZM873.966 458.175L887.615 471.823L883.015 489.021C880.515 498.47 878.266 506.92 877.966 507.719L877.516 509.269L858.966 514.219L840.467 519.168L826.767 505.42L813.067 491.721L818.017 473.323C820.717 463.174 823.017 454.775 823.167 454.675C823.267 454.525 857.466 445.126 860.016 444.526C860.166 444.526 866.416 450.626 873.966 458.175ZM189.885 462.074L203.484 475.723L198.534 494.171C195.784 504.32 193.484 512.669 193.434 512.719C193.135 513.019 157.385 522.468 156.586 522.468C156.136 522.468 149.736 516.419 142.336 509.019L128.886 495.571L133.786 477.123C136.486 467.024 138.836 458.575 138.986 458.375C139.336 457.975 173.885 448.576 175.285 448.526C175.985 448.476 180.685 452.875 189.885 462.074ZM1124.41 463.124L1138.01 476.723L1133.06 495.121C1130.36 505.22 1128.01 513.669 1127.81 513.819C1127.66 513.969 1119.26 516.319 1109.16 519.068L1090.81 524.018L1077.11 510.319L1063.41 496.621L1068.21 478.673C1070.86 468.824 1073.21 460.375 1073.41 459.975C1073.71 459.525 1080.76 457.375 1091.81 454.425C1101.66 451.725 1110.01 449.526 1110.26 449.526C1110.56 449.476 1116.91 455.625 1124.41 463.124Z" fill="#2B2B2B"/>
</svg>
