<svg width="68" height="68" viewBox="0 0 68 68" fill="none" xmlns="http://www.w3.org/2000/svg">
<path d="M49.9664 56.2633H19.5595C16.0915 56.2633 13.2763 53.4481 13.2763 49.9801V19.5732C13.2763 16.1052 16.0915 13.29 19.5595 13.29H49.9664C53.4344 13.29 56.2496 16.1052 56.2496 19.5732V49.9801C56.2523 53.4481 53.4425 56.2633 49.9664 56.2633Z" fill="#C4C4C4"/>
<path d="M22.9133 23.1829V27.9484L31.824 39.6335L40.7429 51.3186H44.3931C48.0271 51.3186 48.0434 51.3186 48.0107 51.2696C47.8611 51.0548 22.9459 18.4175 22.9296 18.4175C22.9215 18.4175 22.9133 20.5636 22.9133 23.1829Z" fill="#333333"/>
<path d="M23.887 18.2758C23.9034 18.3003 24.9016 19.614 26.1093 21.1916L28.307 24.0667L28.579 24.0585C28.7286 24.0504 29.1312 24.034 29.4794 24.0259C30.1158 23.9932 39.712 23.9606 39.712 23.9851C39.712 23.9932 39.6712 24.151 39.6222 24.3224C39.4971 24.7766 39.0782 25.7667 38.2269 27.6245C37.6067 28.9709 37.177 30.0017 36.9893 30.5729L36.9077 30.8286L37.0056 31.0272C37.5251 32.1179 40.5389 36.1625 40.8381 36.1625C40.887 36.1625 41.3413 35.2133 42.6469 32.3382C44.8202 27.5565 47.6598 21.1481 48.6254 18.8606C48.8158 18.4064 48.8648 18.2649 48.8403 18.2486C48.824 18.2323 43.199 18.2241 36.3365 18.2241C24.4637 18.2268 23.8626 18.235 23.887 18.2758Z" fill="#333333"/>
<path d="M22.3503 42.0433V51.3185H31.0951H39.8399L39.5026 50.8724C36.5296 46.9665 35.4797 45.6038 35.4307 45.5956C35.3981 45.5875 33.7552 45.5793 31.7642 45.5793H28.1466V42.9273V40.2835L26.6859 38.3849C25.5463 36.9079 22.6794 33.1897 22.3992 32.8279C22.3502 32.7708 22.3503 33.0265 22.3503 42.0433Z" fill="#333333"/>
</svg>
