<svg width="47" height="50" viewBox="0 0 47 50" fill="none" xmlns="http://www.w3.org/2000/svg">
<path d="M12.0071 0.0357153C11.9248 0.0510214 11.7963 0.12245 11.7243 0.193879C11.6523 0.270409 11.5135 0.392858 11.4158 0.464287C10.521 1.11225 10.5056 1.12755 10.6393 1.51531C10.7524 1.84694 10.9684 2.16327 11.2204 2.36225C11.3283 2.44388 11.4415 2.59694 11.4723 2.69388C11.57 2.97959 11.498 3.48469 11.3129 3.80612C11.1278 4.13265 11.1175 4.40306 11.2358 5.43367C11.3746 6.60714 11.3952 6.67347 11.6986 6.96939C12.182 7.44388 13.0613 8 13.4572 8.08674C13.5498 8.10204 13.6423 8.14796 13.6629 8.17857C13.7195 8.27551 13.3441 8.54592 12.9739 8.66327C12.7836 8.72449 12.5573 8.83163 12.4699 8.89796L12.3208 9.02041L12.3311 9.53572C12.3516 10.1837 12.3002 10.2755 11.7192 10.6939C11.0661 11.1582 10.7576 11.4286 10.2999 11.9286C9.82167 12.4439 9.51828 12.6633 9.13261 12.7755C8.72637 12.8929 8.49497 13.0918 8.08873 13.6786C7.58994 14.3929 7.29169 14.7194 6.97287 14.898C6.66434 15.0765 6.51521 15.0867 6.33523 14.9439C6.23239 14.8622 6.1604 14.8469 6.01641 14.8724C5.30679 15 3.75383 16.2296 3.75383 16.6633C3.75383 16.7449 3.80526 16.8061 3.90296 16.8622C4.04694 16.9337 4.05208 16.949 4.04694 17.2806C4.0418 17.5816 4.06751 17.6684 4.20635 17.9337C4.29891 18.102 4.55088 18.4337 4.76171 18.6735C5.28108 19.25 5.45591 19.5102 5.48676 19.75C5.51248 19.9235 5.49705 19.9643 5.34278 20.1173C5.12167 20.3367 5.07024 20.3418 3.23961 20.4082C2.46313 20.4337 1.73808 20.4796 1.63523 20.5102C1.52725 20.5408 1.34213 20.6429 1.22385 20.7398C0.848472 21.0408 0.570791 21.1837 0.329106 21.2143C0.20055 21.2245 0.0822789 21.2704 0.0668522 21.3061C0.00514537 21.4643 0.781622 22.4847 1.23928 22.852C1.74322 23.2551 2.0569 23.3827 2.59683 23.4082C2.85394 23.4184 3.0802 23.449 3.11105 23.4745C3.19847 23.5561 2.91051 23.7755 2.55055 23.9082C2.1186 24.0612 2.06204 24.0612 1.6918 23.898C1.52725 23.8214 1.35755 23.7755 1.31127 23.7908C1.27013 23.8112 1.19814 23.9031 1.15186 23.9949C1.07473 24.1531 1.07473 24.1786 1.15186 24.3214C1.193 24.4082 1.44497 24.7041 1.70722 24.9847C1.97462 25.2602 2.37057 25.7092 2.59683 25.9898C3.01335 26.5102 3.52243 26.9694 3.88239 27.1531C4.16007 27.2959 4.83884 27.2602 5.45077 27.0663C6.08326 26.8673 6.36094 26.7041 6.51521 26.4439C6.65919 26.1939 6.78775 25.7704 6.78775 25.5102C6.78775 25.2908 6.86488 25.1582 6.93687 25.2296C7.09114 25.3827 7.15285 26.3571 7.02429 26.5561C6.90088 26.7449 6.92659 26.9439 7.12199 27.352L7.30197 27.7296L7.11685 28.2908C6.9523 28.7857 6.92659 28.9337 6.90602 29.5153C6.87517 30.2908 6.96259 31.2806 7.22998 33.1122C7.46652 34.7653 7.61565 35.4847 7.87276 36.1837C7.98589 36.5 8.18129 37.0561 8.29957 37.4184C8.48469 37.9694 8.55154 38.1071 8.73151 38.2959C8.86521 38.4337 8.94749 38.5612 8.94749 38.6429C8.94749 38.7092 9.02976 39.0204 9.12747 39.3367C9.22517 39.648 9.38458 40.2296 9.48228 40.6276C9.71882 41.5969 9.9348 42.1837 10.5673 43.6173C11.4775 45.6735 11.6163 46.0765 11.7757 47.1378C11.93 48.1684 12.0534 48.5 12.5111 49.1122C12.9121 49.648 13.4367 50 13.8583 50C14.136 50 14.7325 49.7806 14.9588 49.602C15.0565 49.5204 15.1953 49.3571 15.2621 49.2296C15.4781 48.8265 15.7867 48.5816 16.198 48.4949C16.6094 48.4082 16.6711 48.3367 16.8357 47.7449C16.9025 47.5153 16.9694 47.4133 17.1751 47.2245C17.319 47.0969 17.5659 46.949 17.7201 46.8929C18.1881 46.7143 18.3938 46.5918 18.4246 46.4694C18.4658 46.3112 18.5429 45.6429 18.6406 44.6888C18.7229 43.8214 18.8 43.5408 19.1497 42.7959C19.4839 42.0765 19.4993 42 19.3811 41.5918C19.2885 41.2704 19.2885 41.2449 19.3708 41.1888C19.4171 41.1531 19.4993 41.1224 19.5508 41.1224C19.6176 41.1224 19.6433 41.0816 19.6433 40.9898C19.6433 40.7551 19.3862 38.9388 19.3039 38.5918C19.2217 38.2347 19.2577 37.9898 19.4119 37.7653C19.5353 37.5969 19.9262 37.4184 20.3324 37.352C20.7283 37.2806 20.9032 37.2092 21.0574 37.0408C21.2374 36.8418 21.5717 36.6429 21.8699 36.5561C22.0293 36.5102 22.1785 36.449 22.1939 36.4184C22.2144 36.3878 22.2453 36.2347 22.2607 36.0765L22.2916 35.7908L22.6258 35.7857C23.0783 35.7857 23.356 35.6378 24.4822 34.7857C24.981 34.4133 25.5466 34.0153 25.742 33.9031C26.21 33.6327 26.3642 33.4898 26.8219 32.9286C27.2641 32.3827 28.0097 31.6684 28.4211 31.398C28.5805 31.2908 29.0382 31.0612 29.4341 30.8827C30.7608 30.2908 31.0179 30.0153 31.1671 29.0102C31.2391 28.5102 31.2956 28.352 31.4602 28.199C31.6967 27.9694 32.6737 27.2959 32.7663 27.2959C32.8126 27.2959 32.8949 27.3776 32.9566 27.4745C33.0131 27.5714 33.1263 27.6786 33.2034 27.7092C33.4451 27.801 34.0004 27.7347 34.3038 27.5816C34.4941 27.4796 34.7049 27.4235 35.0392 27.3878C35.682 27.3163 35.6614 27.3265 35.5174 27.1327C35.3683 26.9337 35.25 26.6071 35.2037 26.25C35.1472 25.8418 35.07 25.6582 34.8335 25.3367C34.5558 24.9745 34.4838 24.7347 34.3501 23.7347C34.2936 23.3061 34.2216 22.9031 34.1856 22.8418C34.1547 22.7806 33.9439 22.5408 33.7228 22.3112C33.5016 22.0816 33.3217 21.8724 33.3217 21.8418C33.3217 21.7653 33.4708 21.699 33.8616 21.6071C34.2936 21.5102 34.3501 21.4643 34.3501 21.2296C34.3501 21.0663 34.309 21.0051 33.9902 20.7092C33.5016 20.2551 33.4759 20.1429 33.6353 19.2959L33.6919 19.0255L33.877 19.2602C34.0724 19.5153 34.273 19.6429 34.4632 19.6429C34.5301 19.6429 34.7049 19.699 34.8541 19.7704C35.0597 19.8622 35.2192 19.898 35.4557 19.898C35.6768 19.898 35.7951 19.9235 35.8414 19.9745C35.8722 20.0153 35.9236 20.2041 35.9442 20.398C35.9956 20.7806 36.1808 21.2551 36.3299 21.3776C36.407 21.4388 36.7155 21.4592 38.1039 21.4796C39.5798 21.5051 39.806 21.5204 39.9243 21.5969C40.0786 21.699 40.1043 21.9082 39.9809 22.1429C39.9397 22.2245 39.6569 22.4847 39.3535 22.7194C39.045 22.9592 38.7364 23.2194 38.6593 23.2959C38.3611 23.6122 38.2531 24.0612 38.3405 24.602L38.3765 24.7959H39.0861H39.7957L39.8112 24.3827C39.8317 23.8622 39.8832 23.8112 40.2431 23.9694L40.4951 24.0765L40.4797 24.9592C40.4591 26.0408 40.3974 26.75 40.2894 27.0663C40.166 27.4235 40.2225 27.4541 40.4899 27.1684C40.9682 26.6582 41.2201 26.0204 41.4207 24.8061C41.5544 24.0102 41.6572 23.6939 41.8064 23.6173C41.8475 23.5918 42.0429 23.5612 42.2383 23.5408C42.6857 23.5 42.8399 23.3673 42.9582 22.9286C43.0045 22.7653 43.133 22.352 43.2513 22.0153C43.5907 21.0051 43.6061 20.9388 43.6061 20.2551V19.6122L43.8427 19.3878C44.29 18.9592 44.9483 18.199 45.1745 17.8469C45.4316 17.4592 45.6733 17.2755 46.2287 17.0663C46.7737 16.8622 46.9023 16.6684 46.9332 16.0255C46.9537 15.6378 46.9434 15.5612 46.8355 15.3571C46.6966 15.0918 46.4498 14.9082 46.167 14.8622C45.9099 14.8265 45.843 14.7194 45.7762 14.2449C45.7196 13.8724 45.6167 13.6735 45.4728 13.6735C45.4316 13.6735 45.2825 13.7245 45.1385 13.7857L44.8763 13.898L44.7271 13.7092C44.4803 13.4082 44.3106 13.4388 43.709 13.8929L43.3799 14.1429L43.0405 14.1173C42.8554 14.0969 42.6085 14.0714 42.4903 14.051L42.2743 14.0204L42.0686 14.449C41.7395 15.1327 41.2099 15.5459 40.1146 15.9541C39.4666 16.1939 38.9936 16.4337 38.9421 16.5459C38.8701 16.699 38.937 16.8469 39.2352 17.2041C39.6569 17.7041 39.6363 17.8571 39.117 18.1071C38.6902 18.3112 38.1862 18.4082 37.1218 18.4745C35.8876 18.551 34.8746 18.5204 34.6895 18.398C34.5095 18.2857 34.3861 18.0051 34.2473 17.4286C34.1239 16.9031 34.0467 16.7398 33.8359 16.5612C33.5685 16.3418 33.2137 16.3827 32.8949 16.6786C32.5246 17.0153 32.4681 17.3571 32.6018 18.3418C32.6789 18.9337 32.6892 19.1122 32.6378 19.1429C32.4629 19.25 32.0155 19.2449 31.5785 19.1327C30.8225 18.9388 30.5397 18.8878 29.8764 18.8265C28.8119 18.7296 28.5137 18.6276 27.6498 18.051C27.2127 17.7602 26.6368 17.449 26.3797 17.3724C26.3077 17.3469 25.9991 17.3265 25.6855 17.3265L25.1198 17.3214L24.3485 17.0102C23.9268 16.8367 23.4537 16.6582 23.3046 16.6071C23.0166 16.5153 22.5795 16.1939 21.8905 15.5663C21.6694 15.3673 21.3146 15.0765 21.1037 14.9184C20.8672 14.7449 20.7129 14.5918 20.6923 14.5102C20.6512 14.3418 20.7335 14.0357 20.9597 13.5153C21.2271 12.898 21.3403 12.5612 21.3403 12.3673C21.3403 12.2245 21.3043 12.1735 21.1192 12.051C20.7129 11.7704 20.353 11.3163 19.8079 10.4031C19.5611 9.9898 19.3759 9.79082 18.7794 9.29592C18.6303 9.17347 18.512 9.04082 18.512 9.0051C18.512 8.95918 18.6046 8.90816 18.7486 8.87245C19.196 8.7602 19.4222 8.40306 19.4736 7.72959C19.4942 7.51531 19.4736 7.35204 19.4119 7.19388C19.2114 6.65816 19.1394 6.38776 19.124 6.10204L19.1034 5.80102L19.3605 5.71939C19.885 5.54592 20.1164 5.32653 20.5072 4.64286C20.5946 4.4898 20.7541 4.27041 20.862 4.15816C21.1809 3.82653 21.2374 3.71939 21.2374 3.44898C21.2374 3.22959 21.2169 3.17857 21.042 3.01021C20.8106 2.77551 20.6512 2.72959 19.6639 2.60204C19.2577 2.54592 18.8463 2.46939 18.7589 2.43367C18.6663 2.39286 18.3064 2.17347 17.9567 1.94898C17.2985 1.51531 17.0516 1.41327 16.4397 1.33163C15.9872 1.27041 15.8124 1.16327 15.1233 0.520409L14.5628 1.02445e-06L13.3595 0.00510307C12.7013 0.0102051 12.0945 0.0255112 12.0071 0.0357153Z" fill="white"/>
</svg>
