<svg width="671" height="1024" viewBox="0 0 671 1024" fill="none" xmlns="http://www.w3.org/2000/svg">
<path d="M464.893 1023.82L503.161 965.419V971.728L469.145 1023.82H464.893ZM459.696 1023.82L503.161 957.488V951.179L455.562 1023.82H459.696ZM450.247 1023.82L503.161 943.068V936.579L445.995 1023.82H450.247ZM488.279 1023.82L503.161 1001.11V994.8L484.027 1023.82H488.279ZM478.712 1023.82L503.161 986.508V980.019L474.46 1023.82H478.712ZM440.798 1023.82L503.161 928.648V922.339L436.546 1023.82H440.798ZM497.61 1023.82L503.161 1015.35V1009.04L493.358 1024H497.61V1023.82ZM431.231 1023.82L503.161 914.048V907.739L427.097 1023.82H431.231ZM301.424 1023.82L335.441 971.908V965.599L297.172 1023.82H301.424ZM291.975 1023.82L335.441 957.488V951.179L287.841 1023.82H291.975ZM282.526 1023.82L335.441 943.068V936.579L278.274 1023.82H282.526ZM320.559 1023.82L335.441 1001.11V994.8L316.307 1023.82H320.559ZM310.992 1023.82L335.441 986.508V980.019L306.739 1023.82H310.992ZM273.077 1023.82L335.441 928.648V922.339L268.825 1023.82H273.077ZM329.89 1023.82L335.441 1015.35V1009.04L325.638 1024H329.89V1023.82ZM263.51 1023.82L335.441 914.048V907.739L259.376 1023.82H263.51ZM-2.12079e-05 896.023V893.319L81.9704 768.225H83.7421V765.522L165.712 640.428H160.516L83.6239 757.771V751.462L156.263 640.608H151.066L83.7421 743.351V737.042L146.933 640.608H141.736L83.7421 729.111V722.622L137.365 640.789H132.168L83.8602 714.511V708.202L128.034 640.789H122.837L83.8602 700.271V693.962L118.585 640.969H113.388L83.8602 686.031V679.542L109.018 641.149H103.821L83.9783 671.431V665.122L99.6873 641.149H94.4904L83.9783 657.191V650.883L90.3564 641.149H83.9783V632.677L78.427 641.149H74.2931L84.0964 626.188V618.257L69.2141 640.969H65.0802L84.2145 611.768V603.837L59.7651 641.149H55.5131L84.2145 596.627V588.696L50.198 640.608H46.0641L84.3326 582.207V574.276L40.8671 640.608H36.7331L84.3326 567.968V560.037L31.418 640.789H27.166L84.3326 553.548V545.617L21.969 640.789H17.835L84.4507 539.128V531.197L12.5199 640.969H8.38597L84.4507 524.888V516.957L3.18904 640.969H0.708628V638.265L81.9704 511.91H83.7421V509.206L165.712 384.113H160.516L83.6239 501.455V495.147L156.263 384.293H151.066L83.7421 487.035V480.727L146.933 384.293H141.736L83.7421 472.796V466.307L137.365 384.473H132.168L83.8602 458.195V451.887L128.034 384.473H122.837L83.8602 443.956V437.647L118.585 384.653H113.388L83.8602 429.716V423.227L109.018 384.834H103.821L83.9783 415.116V408.807L99.6873 384.834H94.4904L83.9783 400.876V394.567L90.3564 384.834H83.9783V376.362L78.427 384.834H74.2931L84.0964 369.873V361.942L69.2141 384.653H65.0802L84.2145 355.092V347.161L59.7651 384.473H55.5131L83.8602 340.132V332.201L49.8437 384.113H45.7097L83.9783 325.712V317.781L40.5127 384.113H36.3788L83.9783 311.472V303.541L31.0637 384.293H26.8116L83.9783 297.052V289.121L21.6146 384.293H17.4807L84.0964 282.632V274.701L12.1656 384.473H8.03165L84.0964 268.392V260.461L2.83472 384.473H0.354303V381.769L82.3247 256.676H84.0964V253.972L166.067 128.879H160.87L83.9783 246.221V239.913L156.618 129.059H151.421L84.0964 231.801V225.493L147.287 129.059H142.09L84.0964 217.562V211.073L137.72 129.239H132.523L84.2145 202.961V196.653L128.389 129.239H123.192L84.2145 188.722V182.413L118.94 129.419H113.743L84.2145 174.482V167.993L109.373 129.6H104.176L84.3326 159.882V153.573L100.042 129.6H94.8447L84.3326 145.642V139.333L90.7107 129.6H84.3326V121.128L78.7813 129.6H74.6474L84.4507 114.639V106.708L69.5685 129.419H65.4346L84.5689 100.219V92.288L60.1195 129.6H55.8674L84.5689 85.7989V77.868L50.5523 129.78H46.4184L84.687 71.3789V63.448L41.2215 129.78H37.0875L84.687 57.1393V49.2082L31.7724 129.96H27.5203L84.687 42.7193V34.7882L22.3234 129.96H18.1894L84.8051 28.2993V20.3682L12.8743 130.14H8.74037L84.8051 14.0595V6.12853L3.54337 130.14H1.06302V127.437L81.9704 -8.24309e-06H83.7421H167.484V9.73353L173.862 -8.24309e-06H177.996L167.484 16.0423V23.9732L183.429 -8.24309e-06H187.563L167.72 30.282V38.213L192.878 -8.24309e-06H197.249L167.72 45.0625V52.9935L202.446 -8.24309e-06H206.58L167.602 59.4825V67.4135L211.895 -8.24309e-06H216.029L167.72 73.7223V81.6532L221.344 -8.24309e-06H225.596L167.602 88.5027V96.4337L230.911 -8.24309e-06H235.045L167.72 102.742V110.673L240.36 -8.24309e-06H244.494L167.602 117.343V125.274L249.691 -8.24309e-06H251.463H335.441V9.73353L341.819 -8.24309e-06H345.953L335.441 16.0423V23.9732L351.15 -8.24309e-06H355.284L335.441 30.282V38.213L360.599 -8.24309e-06H364.969L335.441 45.0625V52.9935L370.166 -8.24309e-06H374.3L335.323 59.4825V67.4135L379.615 -8.24309e-06H383.749L335.441 73.7223V81.6532L389.064 -8.24309e-06H393.316L335.323 88.5027V96.4337L398.631 -8.24309e-06H402.765L335.441 102.742V110.673L408.08 -8.24309e-06H412.214L335.323 117.343V125.274L417.411 -8.24309e-06H419.183H502.925V9.73353L509.303 -8.24309e-06H513.437L502.925 16.0423V23.9732L518.87 -8.24309e-06H523.004L503.161 30.282V38.213L528.319 -8.24309e-06H532.69L503.161 45.0625V52.9935L537.887 -8.24309e-06H542.021L503.043 59.4825V67.4135L547.336 -8.24309e-06H551.47L503.161 73.7223V81.6532L556.785 -8.24309e-06H561.037L503.043 88.5027V96.4337L566.352 -8.24309e-06H570.486L503.161 102.742V110.673L575.801 -8.24309e-06H579.935L503.043 117.343V125.274L585.132 -8.24309e-06H586.904H670.882V127.797V131.582L589.62 255.594H594.817L670.882 139.874V146.183L598.951 255.955H604.148L670.882 154.294V160.603L608.518 255.955H613.715L670.882 168.714V175.203L617.967 255.955H623.164L670.882 183.314V189.623L627.416 255.955H632.613L670.882 197.554V203.863L636.865 255.955H642.062L670.882 212.154V218.643L646.432 255.955H651.629L670.882 226.754V233.063L656 255.955H661.197L671 240.994V247.303L665.449 255.775H670.882V383.572V387.357L589.62 511.369H594.817L670.882 395.829V402.138L598.951 511.91H604.148L670.882 410.249V416.558L608.518 511.91H613.715L670.882 424.669V431.158L617.967 511.91H623.164L670.882 439.269V445.578L627.416 511.91H632.613L670.882 453.509V459.818L636.865 511.91H642.062L670.882 468.109V474.598L646.432 511.91H651.629L670.882 482.709V489.018L656 511.91H661.197L671 496.949V503.258L665.449 511.73H670.882L670.882 639.527V643.312L589.62 767.324H594.817L670.882 651.784V658.093L598.951 767.865H604.148L670.882 666.204V672.513L608.518 767.865H613.715L670.882 680.624V687.113L617.967 767.865H623.164L670.882 695.224V701.533L627.416 767.865H632.613L670.882 709.464V715.773L636.865 767.865H642.062L670.882 724.064V730.553L646.432 767.865H651.629L670.882 738.664V744.973L656 767.865H661.197L671 752.904V759.213L665.449 767.685H670.882V895.662V899.447L589.62 1023.82H587.14V1021.12L669.11 896.023H663.913L587.022 1013.37V1007.06L659.779 896.023H654.464L587.14 998.765V992.456L650.212 896.023H645.015L587.022 984.525V978.036L640.763 896.023H635.448L587.14 969.745V963.436L631.314 896.023H626.117L587.14 955.505V949.196L621.747 896.203H616.55L587.022 941.265V934.776L612.298 896.203H607.101L587.258 926.485V920.176L602.849 896.203H597.416L586.904 912.245V905.936L593.282 896.203H586.904V887.731L581.352 896.203H577.218L587.022 881.242V873.311L572.139 896.023H568.005L586.904 867.002V859.071L562.454 896.383H558.202L587.022 852.042V844.111L553.005 896.023H548.871L587.14 837.622V829.691L543.674 896.023H539.54L587.14 823.382V815.451L534.225 896.203H529.973L587.14 808.962V801.031L524.776 896.203H520.642L587.258 794.542V786.611L515.327 896.383H511.193L587.258 780.302V772.371L505.996 896.383H503.516V900.168L421.9 1023.82H419.419V1021.12L501.39 896.023H496.193L419.301 1013.37V1007.06L491.941 896.203H486.744L419.183 998.945V992.637L482.373 896.203H477.177L419.183 984.706V978.217L472.806 896.383H467.609L419.183 970.105V963.797L463.357 896.383H458.16L419.183 955.866V949.557L453.908 896.563H448.711L419.183 941.626V935.137L444.341 896.744H439.144L419.419 926.485V920.176L435.128 896.203H429.931L419.419 912.245V905.936L425.797 896.203H419.419V887.731L413.868 896.203H409.734L419.537 881.242V873.311L404.655 896.023H400.521L419.419 867.002V859.071L394.97 896.383H390.718L419.301 852.042V844.111L385.285 896.023H381.151L419.419 837.622V829.691L375.954 896.023H371.82L419.419 823.382V815.451L366.505 896.203H362.253L419.419 808.962V801.031L357.056 896.203H352.922L419.537 794.542V786.611L347.607 896.383H343.473L419.537 780.302V772.371L338.276 896.383H335.795V900.168L254.179 1023.82H251.699V1021.12L333.669 896.023H328.472L251.581 1013.37V1007.06L324.22 896.203H319.023L251.581 998.945V992.637L314.771 896.203H309.574L251.581 984.706V978.217L305.204 896.383H300.007L251.581 970.105V963.797L295.755 896.383H290.558L251.581 955.866V949.557L286.306 896.563H281.109L251.581 941.626V935.137L276.739 896.744H271.542L251.817 926.485V920.176L267.526 896.203H262.329L251.817 912.245V905.936L258.195 896.203H251.817V887.731L246.266 896.203H242.132L251.935 881.242V873.311L237.053 896.023H232.919L251.817 867.002V859.071L227.368 896.383H223.115L251.699 852.042V844.111L217.682 896.023H213.548L251.817 837.622V829.691L208.351 896.023H204.217L251.817 823.382V815.451L198.902 896.203H194.65L251.817 808.962V801.031L189.453 896.203H185.319L251.935 794.542L251.935 786.611L180.004 896.383H175.87L251.935 780.302V772.371L170.673 896.383H168.193V900.168L86.4587 1023.82H83.9783V1021.12L165.949 896.023H160.752L83.8602 1013.37V1007.06L156.5 896.203H151.303L83.7421 998.945V992.637L146.933 896.203H141.736L83.7421 984.706V978.217L137.365 896.383H132.168L83.7421 970.105V963.797L127.916 896.383H122.719L83.7421 955.866V949.557L118.467 896.563H113.27L83.7421 941.626V935.137L108.9 896.744H103.703L83.9783 926.485V920.176L99.6873 896.203H94.4904L83.9783 912.245V905.936L90.3564 896.203H83.9783V887.731L78.427 896.203H74.2931L84.0964 881.242V873.311L69.2141 896.023H65.0802L83.9783 867.002V859.071L59.529 896.383H55.2769L83.8602 852.042V844.111L49.8437 896.023H45.7097L83.9783 837.622V829.691L40.5127 896.023H36.3788L83.9783 823.382V815.451L31.0637 896.203H26.8116L83.9783 808.962V801.031L21.6146 896.203H17.4807L84.0964 794.542V786.611L12.1656 896.383H8.03165L84.0964 780.302V772.371L2.83472 896.383H0.354303V896.023H-2.12079e-05ZM419.183 767.865V765.161L501.153 640.068H495.956L419.065 757.41V751.102L491.704 640.248H486.507L419.183 742.99V736.682L482.373 640.248H477.177L419.183 728.751V722.262L472.806 640.428H467.609L419.301 714.15V707.842L463.475 640.428H458.278L419.301 699.911V693.602L454.026 640.608H448.829L419.301 685.671V679.182L444.459 640.789H439.262L419.419 671.071V664.762L435.128 640.789H429.931L419.419 656.831V650.522L425.797 640.789H419.419V632.317L413.868 640.789H409.734L419.537 625.828V617.897L404.655 640.608H400.521L419.655 611.047V603.116L395.206 640.428H390.954L419.655 596.627V588.696L385.639 640.608H381.505L419.655 582.207V574.276L376.19 640.608H372.056L419.655 567.968V560.037L366.741 640.789H362.489L419.655 553.367V545.436L357.292 640.608H353.158L419.774 538.947V531.016L347.843 640.789H343.709L419.774 524.708V516.777L338.512 640.789H336.031V644.574L254.77 768.586H259.967L335.441 651.784V658.093L263.51 767.865H268.707L335.441 666.204V672.513L273.077 767.685H278.274L335.441 680.624V687.113L282.526 767.865H287.723L335.441 695.224V701.533L291.975 767.865H297.172L335.441 709.464V715.773L301.424 767.685H306.621L335.441 724.064V730.553L310.992 767.865H316.189L335.441 738.664V744.973L320.559 767.685H325.756L335.559 752.724V759.033L330.008 767.504H335.441V777.238L341.819 767.504H345.953L335.441 783.547V791.478L351.15 767.865H355.284L335.441 798.147V806.078L360.599 767.685H364.969L335.441 812.747V820.678L370.166 767.685H374.3L335.323 827.167V835.098L379.497 767.685H383.631L335.323 841.407V849.338L388.946 767.504H393.316L335.323 856.007V863.938L398.513 767.504H402.647L335.323 870.247V878.178L407.962 767.324H412.096L335.205 884.667V892.598L417.175 767.504H419.065V767.865H419.183ZM335.441 496.949V503.258L329.89 511.73H335.441V521.463L341.819 511.73H345.953L335.441 527.772V535.703L351.15 511.91H355.284L335.441 542.192V550.123L360.599 511.91H364.969L335.441 556.972V564.903L370.166 511.91H374.3L335.323 571.392V579.323L379.615 511.91H383.749L335.441 585.632V593.563L389.064 511.91H393.316L335.323 600.413V608.344L398.631 511.91H402.765L335.441 614.652V622.583L408.08 511.91H412.214L335.323 629.253V637.184L417.411 511.91H419.183V509.206L501.153 384.113H495.956L419.065 501.455V495.147L491.704 384.293H486.507L419.183 487.035V480.727L482.373 384.293H477.177L419.183 472.796V466.307L472.806 384.473H467.609L419.301 458.195V451.887L463.475 384.473H458.278L419.301 443.956L419.301 437.647L454.026 384.653H448.829L419.301 429.716V423.227L444.459 384.834H439.262L419.419 415.116V408.807L435.128 384.834H429.931L419.419 400.876V394.567L425.797 384.834H419.419V376.362L413.868 384.834H409.734L419.537 369.873V361.942L404.655 384.653H400.521L419.655 355.092V347.161L395.206 384.473H390.954L419.301 340.132V332.201L385.285 384.113H381.151L419.419 325.712V317.781L375.954 384.113H371.82L419.419 311.472V303.541L366.505 384.293H362.253L419.419 297.052V289.121L357.056 384.293H352.922L419.537 282.632V274.701L347.607 384.473H343.473L419.537 268.392V260.461L338.276 384.473H335.795V388.258L254.533 512.27H259.73L335.441 395.829V402.138L263.51 511.91H268.707L335.441 410.249V416.558L273.077 511.73H278.274L335.441 424.669V431.158L282.526 511.91H287.723L335.441 439.269V445.578L291.975 511.91H297.172L335.441 453.509V459.818L301.424 511.73H306.621L335.441 468.109V474.598L310.992 511.91H316.189L335.441 482.709V489.018L320.559 511.73H325.756L335.441 496.949ZM587.14 639.707V631.235L581.588 639.707H577.454L587.258 624.746V616.815L572.376 639.527H568.242L587.376 610.326V602.395L562.927 639.707H558.675L587.376 595.906V587.975L553.359 639.887H549.225L587.494 581.486V573.555L544.029 639.887H539.895L587.494 567.247V559.316L534.579 640.068H530.327L587.494 552.827V544.896L525.13 640.068H520.996L587.612 538.407V530.476L515.681 640.248H511.547L587.14 524.527V516.596L505.878 640.608H503.398V644.394L422.136 768.406H427.333L503.398 652.325V658.633L431.467 768.406H436.664L503.161 666.925V673.234L440.798 768.406H445.995L503.161 681.165V687.654L450.247 768.406H455.444L503.043 695.765V702.074L459.578 768.406H464.775L503.043 710.185V716.494L469.027 768.406H474.224L502.925 724.605V731.094L478.476 768.406H483.673L502.807 739.205V745.514L487.925 768.225H493.122L502.925 753.265V759.573L497.374 768.045H502.925V777.779L509.303 768.045H513.437L502.925 784.087V792.018L518.516 768.406H522.65L502.807 798.688V806.619L527.965 768.225H532.217L502.689 813.288V821.219L537.414 768.225H541.548L502.571 827.708V835.639L546.863 768.225H550.997L502.689 841.948V849.879L556.312 768.045H560.564L502.571 856.548V864.479L565.761 768.045H569.895L502.571 870.788V878.719L575.328 767.865H579.462L502.571 885.208V893.139L584.659 767.865H586.431V765.161L668.52 640.068H663.323L586.431 757.41V751.102L659.071 640.068H654.346L587.022 742.81V736.501L650.212 640.068H645.015L587.022 728.57V722.081L640.645 640.248H635.448L587.14 713.79V707.481L631.314 640.068H626.117L587.14 699.55V693.241L621.865 640.248H616.55L587.022 685.31V678.821L612.18 640.428H607.101L587.258 670.53V664.221L602.967 640.248H597.534L587.022 656.29V649.981L593.4 640.248H587.14V639.707V639.707ZM587.14 384.113V375.641L581.588 384.113H577.454L587.258 369.152V361.221L572.376 383.932H568.242L587.376 354.732V346.801L562.927 384.113H558.675L587.376 339.951V332.02L553.359 383.932H549.225L587.494 325.531V317.6L544.029 383.932H539.895L587.494 311.292V303.361L534.579 384.113H530.327L587.494 296.872V288.941L525.13 384.113H520.996L587.612 282.452V274.521L515.681 384.293H511.547L587.612 268.212V260.281L506.35 384.293H503.87V388.078L422.608 512.09H427.805L503.87 396.009V402.318L431.939 512.09H437.136L503.161 410.609V416.918L440.798 512.09H445.995L503.161 425.029V431.518L450.247 512.27H455.444L503.043 439.63L503.043 445.938L459.578 512.27H464.775L503.043 453.869V460.178L469.027 512.09H474.224L502.925 468.289V474.778L478.476 512.09H483.673L502.807 483.07V489.379L487.925 512.09H493.122L502.925 497.129V503.438L497.374 511.91H502.925V521.643L509.303 511.91H513.437L502.925 527.952V535.883L518.87 511.91H523.004L503.161 542.192V550.123L528.319 511.91H532.69L503.161 556.972V564.903L537.887 511.91H542.021L503.043 571.392V579.323L547.336 511.91H551.47L503.161 585.632V593.563L556.785 511.91H561.037L503.043 600.413V608.344L566.352 511.91H570.486L503.161 614.652V622.583L575.801 511.91H579.935L503.043 629.253V637.184L585.132 511.91H586.904V509.206L668.874 384.113H663.795L586.904 501.455V495.147L659.543 384.293H654.346L587.022 487.035V480.727L650.212 384.293H645.015L587.022 472.796V466.307L640.645 384.473H635.448L587.14 457.835V451.526L631.314 384.113H626.117L587.14 443.595V437.286L621.865 384.293H616.55L587.022 429.355V422.866L612.18 384.473H607.101L587.258 414.575V408.266L602.967 384.293H597.534L587.022 400.335V394.026L593.4 384.293H587.14V384.113V384.113ZM503.161 131.943L421.9 255.955H427.097L503.161 139.874V146.183L431.231 255.955H436.428L503.043 154.294V160.603L440.68 255.775H445.877L503.043 168.534V175.023L450.129 255.775H455.326L502.925 183.134V189.443L459.46 255.955H464.657L502.925 197.554V203.863L468.909 255.955H474.106L502.807 212.154V218.643L478.358 255.955H483.555L502.689 226.754V233.063L487.807 255.775H493.004L502.807 240.814V247.123L497.256 255.594H502.807V265.328L509.185 255.594H513.319L502.807 271.637V279.568L518.398 255.955H522.532L502.689 286.237V294.168L527.847 255.775H532.099L502.571 300.837V308.768L537.296 255.775H541.43L502.453 315.257V323.188L546.627 255.775H550.761L502.453 329.497V337.428L556.076 255.594H560.328L502.335 344.097V352.028L565.525 255.594H569.659L502.335 358.337V366.268L575.21 255.414H579.344L502.453 372.757V380.688L584.423 255.594H586.195V252.891L668.165 127.797H662.968L586.077 245.14V238.831L658.716 127.977H654.11L586.785 230.72V224.411L649.976 127.977H644.779L586.785 216.48V209.991L640.409 128.158H635.448L587.14 201.88V195.571L631.314 128.158H626.117L587.14 187.64V181.331L621.865 128.338H616.55L587.022 173.4V166.911L612.18 128.518H607.101L587.258 158.8V152.491L602.967 128.518H597.534L587.022 144.56V138.252L593.4 128.518H587.022V120.046L581.47 128.518H577.336L587.14 113.557V105.626L572.258 128.338H568.124L587.258 99.1375V91.2064L562.808 128.518H558.556L587.258 84.7175V76.7864L553.241 128.698H549.107L587.376 70.2975V62.3664L543.91 128.698H539.776L587.376 56.0577V48.1268L534.461 128.879H530.209L587.376 41.6377V33.7068L525.012 128.879H520.878L587.494 27.2177V19.2868L515.563 129.059H511.429L587.494 12.978V5.04697L506.232 129.059H503.752L503.161 131.943ZM335.441 131.943L254.179 255.955H259.376L335.441 139.874V146.183L263.51 255.955H268.707L335.441 154.294V160.603L273.077 255.775H278.274L335.441 168.714V175.203L282.526 255.955H287.723L335.441 183.314V189.623L291.975 255.955H297.172L335.441 197.554V203.863L301.424 255.775H306.621L335.441 212.154V218.643L310.992 255.955H316.189L335.441 226.754V233.063L320.559 255.775H325.756L335.559 240.814V247.123L330.008 255.594H335.441V265.328L341.819 255.594H345.953L335.441 271.637V279.568L351.15 255.955H355.284L335.441 286.237V294.168L360.599 255.775H364.969L335.441 300.837V308.768L370.166 255.775H374.3L335.323 315.257V323.188L379.497 255.775H383.631L335.323 329.497V337.428L388.946 255.594H393.316L335.323 344.097V352.028L398.513 255.594H402.647L335.323 358.337V366.268L407.962 255.414H412.096L335.205 372.757V380.688L417.175 255.594H418.947V252.891L500.917 127.797H495.72L418.829 245.14V238.831L491.468 127.977H486.271L418.947 230.72V224.411L482.137 127.977H476.94L418.947 216.48V209.991L472.57 128.158H467.373L419.065 201.88V195.571L463.239 128.158H458.042L419.065 187.64V181.331L453.79 128.338H448.593L419.065 173.4V166.911L444.223 128.518H439.026L419.183 158.8V152.491L434.892 128.518H429.695L419.183 144.56V138.252L425.561 128.518H419.183V120.046L413.632 128.518H409.498L419.301 113.557V105.626L404.419 128.338H400.285L419.419 99.1375V91.2064L394.97 128.518H390.718L419.419 84.7175V76.7864L385.403 128.698H381.269L419.537 70.2975V62.3664L376.072 128.698H371.938L419.537 56.0577V48.1268L366.623 128.879H362.371L419.537 41.6377V33.7068L357.174 128.879H353.04L419.655 27.2177V19.2868L347.725 129.059H343.591L419.655 12.978V5.04697L338.394 129.059H335.913V132.484H335.441V131.943ZM167.72 255.955V265.688L174.099 255.955H178.232L167.72 271.997V279.928L183.429 255.955H187.563L167.72 286.237V294.168L192.878 255.775H197.249L167.72 300.837V308.768L202.446 255.775H206.58L167.602 315.257V323.188L211.777 255.775H215.911L167.602 329.497V337.428L221.226 255.594H225.596L167.602 344.097V352.028L230.793 255.594H234.927L167.602 358.337V366.268L240.242 255.414H244.376L167.484 372.757V380.688L249.455 255.594H251.226V252.891L333.197 127.797H328L251.108 245.14V238.831L323.748 127.977H318.551L251.226 230.72V224.411L314.417 127.977H309.22L251.226 216.48V209.991L304.85 128.158H299.653L251.344 201.88V195.571L295.519 128.158H290.322L251.344 187.64V181.331L286.07 128.338H280.873L251.344 173.4V166.911L276.503 128.518H271.306L251.463 158.8V152.491L267.172 128.518H261.975L251.463 144.56V138.252L257.841 128.518H251.463V120.046L245.911 128.518H241.777L251.581 113.557V105.626L236.698 128.338H232.564L251.699 99.1375V91.2064L227.249 128.518H222.997L251.699 84.7175V76.7864L217.682 128.698H213.548L251.817 70.2975V62.3664L208.351 128.698L204.217 128.698L251.817 56.0577V48.1268L198.902 128.879H194.65L251.817 41.6377V33.7068L189.453 128.879H185.319L251.935 27.2177V19.2868L180.004 129.059H175.87L251.935 12.978V5.04697L170.673 129.059H168.193V132.844L86.9311 256.856H92.1281L168.193 140.775V147.084L96.2621 256.856H101.459L168.075 155.195V161.504L105.711 256.676H110.908L168.075 169.435V175.924L115.16 256.676H120.357L167.72 183.675V189.983L124.255 256.315H129.452L167.72 197.914V204.223L133.704 256.135H138.901L167.602 212.334V218.823L143.153 256.135H148.35L167.484 227.115V233.424L152.602 256.135H157.799L167.602 241.174V247.483L162.051 255.955H167.72ZM167.72 511.91V521.643L174.099 511.91H178.232L167.72 527.952V535.883L183.429 511.91H187.563L167.72 542.192V550.123L192.878 511.91H197.249L167.72 556.972V564.903L202.446 511.91H206.58L167.602 571.392V579.323L211.895 511.91H216.029L167.72 585.632V593.563L221.344 511.91H225.596L167.602 600.413V608.344L230.911 511.91H235.045L167.72 614.652V622.583L240.36 511.91H244.494L167.602 629.253V637.184L249.691 511.91H251.463V509.206L333.433 384.113H328.236L251.344 501.455V495.147L323.984 384.293H318.787L251.463 487.035V480.727L314.653 384.293H309.456L251.463 472.796V466.307L305.086 384.473H299.889L251.581 458.195V451.887L295.755 384.473H290.558L251.581 443.956V437.647L286.306 384.653H281.109L251.581 429.716V423.227L276.739 384.834H271.542L251.699 415.116V408.807L267.408 384.834H262.211L251.699 400.876V394.567L258.077 384.834H251.699V376.362L246.147 384.834H242.014L251.817 369.873V361.942L236.935 384.653H232.801L251.935 355.092V347.161L227.486 384.473H223.234L251.699 340.132V332.201L217.682 384.113H213.548L251.817 325.712V317.781L208.351 384.113L204.217 384.113L251.817 311.472V303.541L198.902 384.293H194.65L251.817 297.052V289.121L189.453 384.293H185.319L251.935 282.632V274.701L180.004 384.473H175.87L251.935 268.392V260.461L170.673 384.473H168.193V388.258L86.9311 512.27H92.1281L168.193 396.189V402.498L96.2621 512.27H101.459L167.72 410.609V416.918L105.357 512.09H110.554L167.72 425.029V431.518L114.806 512.27H120.003L167.602 439.63V445.938L124.137 512.27H129.334L167.602 453.869V460.178L133.586 512.09H138.783L167.484 468.289V474.778L143.035 512.09H148.232L167.366 483.07V489.379L152.484 512.09H157.681L167.484 497.129V503.438L161.933 511.91H167.839H167.72ZM86.4587 767.865H91.6557L167.72 651.784V658.093L95.7896 767.865H100.987L167.602 666.204V672.513L105.239 767.685H110.436L167.602 680.444V686.933L114.688 767.685H119.885L167.484 695.044V701.353L124.019 767.865H129.216L167.484 709.464V715.773L133.468 767.865H138.665L167.366 724.064V730.553L142.917 767.865H148.114L167.248 738.664V744.973L152.366 767.685H157.563L167.366 752.724V759.033L161.815 767.504H167.366V777.238L173.744 767.504H177.878L167.366 783.547V791.478L182.957 767.865H187.091L167.248 798.147V806.078L192.406 767.685H196.658L167.13 812.747V820.678L201.855 767.685H205.989L167.012 827.167V835.098L211.186 767.685H215.32L167.012 841.407V849.338L220.635 767.504H224.887L166.894 856.007V863.938L230.084 767.504H234.218L166.894 870.247V878.178L239.769 767.324H243.903L167.012 884.667V892.598L248.982 767.504H250.754V764.801L332.724 639.707H327.527L250.636 757.05V750.741L323.275 639.887H318.078L250.754 742.63V736.321L314.181 639.347H308.984L250.99 727.849V721.36L304.732 639.347H299.535L251.226 713.069V706.76L295.282 639.347H290.086L251.108 698.829V692.52L285.833 639.527H280.636L251.108 684.589V678.1L276.384 639.527H271.187L251.344 669.809V663.5L266.935 639.527H261.738L251.226 655.569V649.26L257.604 639.527H251.226V631.055L245.675 639.527H241.541L251.344 624.566V616.635L236.462 639.347H232.328L251.463 610.146V602.215L227.013 639.527H222.761L251.463 595.726V587.795L217.446 639.707H213.312L251.581 581.306V573.375L208.115 639.707H203.981L251.581 567.066V559.135L198.666 639.887H194.414L251.581 552.646V544.715L189.217 639.887H185.083L251.699 538.226V530.295L179.768 640.068H175.634L251.699 523.987V516.056L170.437 640.068H167.957V643.853L86.4587 767.865ZM53.6233 767.865L-2.12079e-05 849.698V856.187L57.9934 767.865H53.6233ZM15.709 767.865L-2.12079e-05 791.838V798.147L19.843 767.865H15.709ZM34.7252 767.865L-2.12079e-05 820.858V827.167L38.9773 767.685H34.7252V767.865ZM25.158 767.865L-2.12079e-05 806.258V812.927L29.5282 767.865H25.158ZM6.37811 767.865L-2.12079e-05 777.598V783.907L10.5121 767.865H6.37811ZM63.1904 767.865L-2.12079e-05 864.299V870.607L67.3244 767.865H63.1904ZM72.6394 767.865L-2.12079e-05 878.719V885.027L76.8915 767.865H72.6394ZM44.1743 767.865L-2.12079e-05 835.278V841.587L48.3082 767.865H44.1743ZM133.704 1023.82L167.72 971.908V965.599L129.452 1023.82H133.704ZM124.255 1023.82L167.72 957.488V951.179L120.121 1023.82H124.255ZM114.806 1023.82L167.72 943.068V936.579L110.554 1023.82H114.806ZM152.838 1023.82L167.72 1001.11V994.8L148.586 1023.82H152.838ZM143.271 1023.82L167.72 986.508V980.019L139.019 1023.82H143.271ZM105.357 1023.82L167.72 928.648V922.339L101.105 1023.82H105.357ZM162.169 1023.82L167.72 1015.35V1009.04L157.917 1024H162.169V1023.82ZM95.7896 1023.82L167.72 914.048V907.739L91.6557 1023.82H95.7896ZM636.865 1023.82L670.882 971.908V965.599L632.613 1023.82H636.865ZM627.416 1023.82L670.882 957.488V951.179L623.282 1023.82H627.416ZM617.967 1023.82L670.882 943.068V936.579L613.715 1023.82H617.967ZM656 1023.82L670.882 1001.11V994.8L651.748 1023.82H656ZM646.432 1023.82L670.882 986.508V980.019L642.18 1023.82H646.432ZM608.518 1023.82L670.882 928.648V922.339L604.266 1023.82H608.518ZM665.331 1023.82L670.882 1015.35V1009.04L661.079 1024H665.331V1023.82ZM598.951 1023.82L670.882 914.048V907.739L594.817 1023.82H598.951ZM53.6233 511.91L-2.12079e-05 593.743V600.232L57.9934 511.91H53.6233ZM15.709 511.91L-2.12079e-05 535.883V542.192L19.843 511.91H15.709ZM34.7252 511.91L-2.12079e-05 564.903V571.212L38.9773 511.91H34.7252ZM25.158 511.91L-2.12079e-05 550.303V556.972L29.5282 511.91H25.158ZM6.37811 511.91L-2.12079e-05 521.643V527.952L10.5121 511.91H6.37811ZM63.1904 511.91L-2.12079e-05 608.344V614.652L67.3244 511.91H63.1904ZM72.6394 511.91L-2.12079e-05 622.764V629.072L76.8915 511.91H72.6394ZM44.1743 511.91L-2.12079e-05 579.323V585.632L48.3082 511.91H44.1743ZM53.6233 255.955L-2.12079e-05 337.788V344.277L57.9934 255.955H53.6233ZM15.709 255.955L-2.12079e-05 279.928V286.237L19.843 255.955H15.709ZM34.7252 255.955L-2.12079e-05 308.948V315.257L38.9773 255.775H34.7252V255.955ZM25.158 255.955L-2.12079e-05 294.348V301.017L29.5282 255.955H25.158ZM6.37811 255.955L-2.12079e-05 265.688V271.997L10.5121 255.955H6.37811ZM63.1904 255.955L-2.12079e-05 352.389V358.697L67.3244 255.955H63.1904ZM72.6394 255.955L-2.12079e-05 366.809V373.117L76.8915 255.955H72.6394ZM44.1743 255.955L-2.12079e-05 323.368V329.677L48.3082 255.955H44.1743ZM53.6233 -8.24309e-06L-2.12079e-05 81.8335V88.3225L57.9934 -8.24309e-06H53.6233ZM15.709 -8.24309e-06L-2.12079e-05 23.9732V30.282L19.843 -8.24309e-06H15.709ZM34.7252 -8.24309e-06L-2.12079e-05 52.9935V59.3023L38.9773 -8.24309e-06H34.7252ZM25.158 -8.24309e-06L-2.12079e-05 38.3932V45.0625L29.5282 -8.24309e-06H25.158ZM6.37811 -8.24309e-06L-2.12079e-05 9.73353V16.0423L10.5121 -8.24309e-06H6.37811ZM63.1904 -8.24309e-06L-2.12079e-05 96.4337V102.742L67.3244 -8.24309e-06H63.1904ZM72.6394 -8.24309e-06L-2.12079e-05 110.854V117.162L76.8915 -8.24309e-06H72.6394ZM44.1743 -8.24309e-06L-2.12079e-05 67.4135V73.7223L48.3082 -8.24309e-06H44.1743Z" fill="#C6C6C6"/>
</svg>
