<svg xmlns="http://www.w3.org/2000/svg" fill="none" width="794" height="830" viewBox="0 0 794 830"><g fill="#606060" clip-path="url(#a)"><path d="M75.147.894c0 1.725 2.877 9.01 5.434 13.546 1.598 2.875 4.41 6.389 8.246 10.159 4.794 4.792 6.84 6.325 11.89 8.817 6.968 3.45 11.315 4.664 18.73 5.303 16.365 1.278 33.561-6.645 43.022-19.935 3.196-4.472 6.968-12.203 7.863-16.165l.575-2.62h-2.493c-2.365 0-2.493.128-3.196 2.684-1.79 6.709-6.329 13.929-12.21 19.424-8.374 7.667-16.557 11.117-27.808 11.628-8.757.384-14.766-.83-21.798-4.344C92.407 23.83 84.864 15.142 80.9 3.514 79.878.51 79.686.319 77.512.127c-1.79-.127-2.365.064-2.365.767Z"/><path d="M110.306 9.712c0 9.136.064 9.584 1.151 8.69.575-.512 5.689-4.665 11.314-9.138C128.397 4.728 133.255.83 133.639.511c.319-.256-1.151-.511-3.261-.511-3.835 0-3.899.064-9.397 4.472l-5.561 4.473V0h-5.114v9.712Zm367.569-4.473c0 6.39 1.214 9.392 5.114 12.843 4.666 4.28 4.666 4.28 28.318 4.344 19.945.128 21.479 0 24.164-1.15 6.648-3.003 9.589-7.667 10.036-15.973l.32-5.303h-3.9l-.447 4.92c-.703 7.603-3.26 11.437-8.566 13.034-1.47.383-9.653.575-22.821.447-20.392-.192-20.52-.192-22.694-1.725-3.963-2.683-5.305-5.431-5.561-11.437L481.582 0h-3.707v5.24Z"/><path d="M490.66 3.514c0 3.13.127 3.514 1.47 3.897 4.602 1.15 9.333-1.214 6.584-3.322-.703-.511-1.918-.895-2.749-.895-1.15 0-1.47-.383-1.47-1.597 0-1.342-.32-1.597-1.918-1.597-1.917 0-1.917.064-1.917 3.514ZM498.331.51c0 1.15 6.84 7.156 7.734 6.837.512-.256 2.11-1.981 3.644-3.898L512.458 0h-2.365c-1.343 0-2.941.447-3.58 1.086-1.087.959-1.215.959-2.301 0-1.215-1.086-5.881-1.533-5.881-.575Zm251.672 4.28c-2.557 5.176-2.94 7.157-1.406 7.732 1.598.639 2.94-1.022 5.497-6.645 1.343-2.875 2.621-5.24 2.749-5.24.192 0 2.11 3.451 4.219 7.604 2.046 4.217 4.027 7.795 4.347 7.987.32.192 3.58.767 7.224 1.342 11.762 1.725 11.25.766 4.155 7.922-4.539 4.537-6.137 6.581-6.137 7.795 0 .895.575 4.856 1.278 8.882.767 3.96 1.215 7.283 1.087 7.411-.192.256-3.004-1.15-11.123-5.559l-4.602-2.491-8.119 4.153c-4.475 2.3-8.182 4.153-8.246 4.153-.128 0 2.109-13.801 2.557-16.038.319-1.469-.448-2.491-6.073-7.986-7.224-7.092-7.288-6.709 1.151-7.86 2.94-.382 5.625-.83 5.945-1.021.958-.64.639-2.876-.448-3.323-.895-.32-12.018 1.023-17.643 2.109-3.452.703-2.302 2.683 5.625 10.478l7.415 7.284-.383 2.556c-.192 1.47-1.023 6.006-1.726 10.095-1.406 7.795-1.342 9.456.447 9.456.64 0 5.178-2.108 10.165-4.728l9.077-4.728 9.013 4.728c4.986 2.62 9.589 4.728 10.356 4.728 1.726 0 1.662-1.725-.256-13.098l-1.534-8.945 7.671-7.795c7.927-7.923 8.694-9.392 5.498-10.031-.831-.192-5.626-.895-10.676-1.662-5.114-.702-9.269-1.341-9.333-1.47-.064-.063-1.534-2.938-3.196-6.388L761.51 0h-9.142l-2.365 4.792ZM255.927 9.904c-2.11 1.15-3.324 4.6-2.493 6.9 2.621 6.837 13.232 3.195 10.931-3.769-1.214-3.706-4.858-5.048-8.438-3.13Zm133.348 3.195c-.767 1.853.255 3.067 2.173 2.556 2.237-.511 2.813-1.15 2.301-2.428-.511-1.406-3.963-1.47-4.474-.128Zm7.415.32c0 .766.575 1.533 1.47 1.852 1.982.767 3.132.128 2.877-1.47-.128-1.022-.703-1.405-2.238-1.533-1.79-.191-2.109 0-2.109 1.15Zm-13.041 3.13c-1.406 1.534-.959 3.259.767 3.259 1.598 0 2.877-1.534 2.557-3.003-.319-1.597-1.981-1.725-3.324-.256Zm19.625-.192c-.511 1.342 1.918 3.77 3.26 3.259 1.215-.447 1.343-2.428.256-3.514-1.087-1.086-3.068-.959-3.516.255Zm-23.588 6.965c-.512 2.044.064 3.514 1.342 3.514 1.215 0 2.557-2.747 2.046-4.09-.64-1.66-2.941-1.213-3.388.576Zm27.679-.83c-.511 1.469.767 3.705 2.11 3.705 1.662 0 2.237-1.405 1.278-3.13-.767-1.47-2.876-1.79-3.388-.576Z"/><path d="M783.819 25.877c-1.981 2.044-1.086 2.875 3.772 3.578 1.726.255 3.708.639 4.347.894.895.384 1.087.064 1.087-1.789 0-2.044-.192-2.236-2.366-2.62-1.342-.255-3.196-.575-4.091-.766-1.086-.192-2.045.064-2.749.703Zm-375.623 3.77c-1.022 1.277-.575 3.833.767 4.089 1.599.32 2.941-2.684 1.79-4.026-1.022-1.214-1.534-1.214-2.557-.064Zm-28.51.638c-.575 1.598 0 3.259 1.278 3.45 1.662.32 2.557-.766 2.046-2.683-.448-1.853-2.749-2.3-3.324-.767Zm351.843 3.706c-1.406 1.534-3.452 4.6-4.539 6.9-1.918 3.898-2.045 4.601-2.045 11.182 0 6.709.127 7.22 2.173 11.5 3.772 7.732 11.187 13.482 19.305 15.016 1.854.383 8.63.639 15.215.639h11.89l9.269 6.07c5.114 3.322 9.461 6.07 9.78 6.07.256 0 .448-3.898.384-8.69l-.128-8.69-1.982.384c-3.068.639-3.324 1.214-2.173 5.814.511 2.3.767 4.153.511 4.153s-3.452-1.917-7.095-4.345l-6.585-4.28-14.766-.32c-14.192-.383-14.831-.447-18.347-2.044-4.858-2.237-9.525-6.71-11.762-11.246-1.598-3.194-1.854-4.344-1.854-9.712 0-5.303.192-6.517 1.726-9.584.959-1.916 2.941-4.92 4.347-6.645 2.046-2.427 2.429-3.322 1.854-3.96-1.215-1.47-2.557-1.023-5.178 1.788ZM383.01 36.802c-.512 1.342 1.278 3.45 2.94 3.45 1.343 0 1.598-2.491.384-3.705-1.087-1.086-2.877-.958-3.324.255Zm21.095.192c-1.278 1.406-.767 3.259.959 3.259 1.406 0 3.196-2.364 2.685-3.578-.448-1.278-2.365-1.086-3.644.32Zm-14.383 3.514c-1.534 1.853 1.087 4.09 3.388 2.812 1.534-.831 1.215-2.364-.639-3.067-2.046-.767-1.854-.83-2.749.255Zm7.927 0c-1.534 1.086-.831 2.94 1.15 2.94 2.174 0 3.452-1.598 2.366-2.876-.959-1.214-1.982-1.214-3.516-.064Zm-95.888 5.878c-2.109.512-6.264 2.109-9.269 3.642-7.479 3.706-15.917 12.012-19.305 18.977-3.388 6.964-4.539 11.948-4.539 19.807-.064 21.979 15.598 39.614 37.972 42.872 5.241.767 7.415.639 16.556-.958 1.215-.256 4.986-1.725 8.31-3.387 5.114-2.491 6.904-3.769 11.507-8.434 6.201-6.261 9.333-11.756 11.506-20.19 5.818-22.618-8.566-46.195-31.834-52.137-5.753-1.47-15.214-1.533-20.904-.192Zm.256 6.454c-3.004 3.194-6.712 8.497-7.863 11.373-.511 1.214-1.15 2.236-1.342 2.236-.703 0-5.37-3.195-6.648-4.536l-1.215-1.342 1.982-1.725c4.474-3.706 7.862-5.56 14.191-7.604 3.132-1.086 3.26-.894.895 1.598Zm22.821-1.023c3.772 1.214 13.041 6.71 14.064 8.306.511.895-.64 2.109-4.092 4.41-3.451 2.3-3.771 2.3-4.346.446-.768-2.491-4.731-8.306-7.799-11.5-1.598-1.662-2.749-3.003-2.493-3.003.255 0 2.365.639 4.666 1.341Zm-15.086 9.265v9.392l-3.963-.383c-2.238-.192-5.114-.703-6.393-1.086l-2.429-.703 1.854-3.642c1.534-3.003 9.716-12.906 10.675-12.906.128 0 .256 4.217.256 9.328Zm10.803-3.45c4.411 5.43 6.904 10.095 5.753 10.798-1.342.83-6.712 1.853-9.524 1.853h-2.557V51.754l1.598 1.022c.831.51 2.94 2.747 4.73 4.856Zm-32.154 11.373c1.342.83 2.557 1.533 2.685 1.66.128.065-.256 1.79-.767 3.834-.512 2.109-1.151 5.56-1.407 7.732l-.383 3.897-7.479.256c-4.092.127-7.671.064-7.927-.192-.767-.575 1.406-10.031 3.068-13.418.895-1.66 2.429-4.344 3.58-5.942l1.982-3.003 2.045 1.853c1.151.959 3.197 2.492 4.603 3.323Zm55.359-3.387c2.237 2.556 5.05 8.562 6.265 13.29 2.045 7.923 2.557 7.348-6.712 7.348h-7.991v-2.748c0-1.469-.575-4.92-1.215-7.667l-1.15-4.92 2.301-1.405c1.278-.767 3.324-2.172 4.539-3.195 2.621-2.108 2.684-2.108 3.963-.703Zm-43.149 8.179c1.981.51 4.922.958 6.392.958h2.749v11.5H292.94l.447-3.45c.639-5.622 1.79-9.967 2.685-9.967.447 0 2.493.448 4.539.959Zm28.958 1.405c.383 1.342.831 4.345 1.086 6.71l.384 4.344h-16.876l.192-5.623.191-5.558 3.836-.448c2.173-.191 4.858-.703 6.073-1.022 3.835-1.086 4.347-.958 5.114 1.597ZM288.912 94.69c.256 2.236.895 5.686 1.407 7.795.511 2.044.895 3.77.767 3.833-.128.128-1.47.831-3.069 1.598-1.534.83-3.707 2.172-4.73 3.067l-1.918 1.597-1.47-1.789c-3.26-4.089-6.584-13.034-6.584-17.635v-2.428h15.15l.447 3.962Zm20.84 1.661v5.623l-6.201 1.022c-3.452.511-6.648 1.086-7.159 1.214-1.151.319-2.366-3.45-2.941-9.265l-.447-4.216h16.748v5.622Zm21.095-2.939c0 2.108-1.662 10.542-2.173 11.181-.064.064-1.407-.255-2.941-.702-1.598-.448-4.794-1.087-7.159-1.278l-4.347-.512V90.728h16.62v2.684Zm20.456-1.661c0 2.811-2.301 10.67-4.219 14.312-3.771 7.092-3.324 6.9-8.118 3.642-2.302-1.598-4.475-2.939-4.923-3.131-.639-.192-.639-1.342.192-5.495.639-2.875 1.087-6.39 1.087-7.795v-2.556h7.991c6.776 0 7.99.128 7.99 1.023ZM309.88 112.58c.128 3.259.064 7.539-.128 9.456l-.32 3.514-2.876-2.875c-3.197-3.131-6.137-7.156-8.183-11.309l-1.406-2.683 3.388-.639c1.79-.384 3.899-.831 4.603-.959.703-.128 2.045-.255 3.004-.319l1.726-.064.192 5.878Zm14.383-4.536c1.534.383 2.749.958 2.749 1.15 0 2.044-10.676 16.037-12.21 16.037-.32 0-.575-3.961-.575-9.329v-9.392l3.643.447c1.982.256 4.859.703 6.393 1.087Zm-30.812 3.769c.575 1.853 6.329 10.287 8.63 12.587 2.365 2.492 1.598 2.684-3.644.767-3.835-1.406-11.251-6.006-13.168-8.114-1.087-1.151-1.023-1.278.959-2.812 2.173-1.661 5.625-3.642 6.392-3.706.256 0 .575.575.831 1.278Zm41.551.575c3.133 1.789 5.242 3.642 4.731 4.153-2.877 2.556-9.589 6.965-12.338 7.987-7.287 2.684-7.351 2.684-3.324-2.236 1.918-2.428 4.347-6.07 5.306-8.051.959-1.98 1.918-3.642 2.109-3.642.192-.064 1.79.767 3.516 1.789Zm225.464-56.737c-1.854.447-3.644 1.533-5.242 3.13-7.927 7.924-2.365 20.83 8.821 20.638 3.964-.127 6.521-1.47 9.333-4.855 1.79-2.3 1.982-2.876 1.982-7.157 0-4.28-.192-4.92-1.982-7.156-3.26-4.089-7.862-5.75-12.912-4.6Zm7.479 4.28c4.027 2.173 5.561 7.03 3.516 11.374-1.598 3.322-4.731 4.984-8.758 4.536-2.685-.255-3.58-.639-5.306-2.555-2.749-2.94-3.324-6.006-1.79-9.201 2.366-4.792 7.735-6.581 12.338-4.153Zm51.268-4.024c-5.178 1.597-8.374 5.942-8.374 11.5 0 3.834 1.214 6.581 4.027 9.073 9.205 8.05 23.396-1.15 19.561-12.65-2.238-6.582-8.694-9.968-15.214-7.923Zm8.31 4.344c2.749 1.853 3.771 3.834 3.771 7.54 0 8.753-12.465 11.5-16.173 3.578-3.899-8.179 4.987-16.101 12.402-11.118Zm-39.698-3.194c-3.132 1.405-6.328 4.344-7.607 7.028-1.662 3.45-1.79 9.776-.319 12.779 3.324 6.58 10.42 9.775 17.259 7.795 6.585-1.917 10.484-6.965 10.484-13.738 0-6.325-2.685-10.861-7.99-13.353-3.197-1.47-9.078-1.79-11.827-.511Zm10.164 3.642c10.676 5.43 7.16 21.084-4.73 21.084-9.461 0-14.703-11.245-8.502-18.273 3.58-4.09 8.694-5.175 13.232-2.811Zm-391.604 5.239c-.383.447-1.023 1.853-1.406 3.13-1.215 3.706-4.795 7.348-9.397 9.585-4.986 2.364-5.114 3.45-.575 5.111 4.155 1.534 8.182 5.559 9.972 9.904 1.918 4.6 3.388 4.536 5.178-.192 1.47-4.025 6.264-8.626 10.292-9.904 2.812-.894 3.707-2.747 1.726-3.705-7.671-3.578-10.804-6.326-12.21-10.798-.767-2.492-1.726-3.898-2.493-3.898-.256 0-.767.383-1.087.767Z"/><path d="M631.934 77.63c-1.534 1.853-5.817 3.514-9.014 3.514-2.109 0-4.091-.575-6.968-2.044l-4.027-2.109-2.493 2.876c-1.406 1.597-2.876 2.875-3.324 2.875-.384.064-1.854.83-3.324 1.789-5.689 3.833-13.936 3.706-19.369-.256-1.471-1.022-2.877-1.789-3.197-1.725-.255.128-1.662-1.086-3.068-2.683l-2.557-2.812-4.219 2.109c-3.772 1.917-4.667 2.108-7.735 1.789-3.196-.32-5.37-1.15-8.182-3.131-.959-.703-1.535-.447-3.708 1.725-3.644 3.578-5.114 7.859-5.114 15.015v5.75h26.209v9.584h42.83v-9.584h26.209v-5.303c0-7.284-1.278-11.117-4.986-15.206-2.813-3.067-3.068-3.195-3.963-2.173Zm-68.4 6.965c3.772 0 5.37-.32 7.543-1.406 3.069-1.661 3.516-1.533 4.603 1.086.703 1.725.575 2.236-.64 4.217-.831 1.278-1.789 3.514-2.237 4.984l-.767 2.683-11.379.192-11.378.128.319-4.728c.256-3.834.704-5.367 2.046-7.412l1.662-2.556 2.749 1.406c2.045 1.022 3.835 1.342 7.479 1.406Zm51.971-1.406c3.708 1.917 10.484 1.98 14.639.064 2.876-1.342 3.004-1.342 4.027-.192 1.662 1.853 2.813 5.75 2.877 9.712v3.706h-22.246l-.767-2.428c-.448-1.278-1.534-3.642-2.365-5.175-1.599-2.812-1.663-2.876-.512-4.984.639-1.15 1.279-2.109 1.406-2.109.128 0 1.471.64 2.941 1.406Zm-30.812 6.07c2.749 1.47 4.155 1.789 8.246 1.789 4.156 0 5.562-.32 8.886-1.917l4.027-1.853 1.215 1.534c2.621 3.514 3.452 6.006 3.644 12.012l.255 5.878-17.835-.128-17.771-.192.128-5.047c.064-2.748.447-5.942.895-7.028.959-2.492 3.771-6.773 4.411-6.773.319 0 2.045.766 3.899 1.725Zm-100.17-7.476c-1.79.703-4.091 3.706-4.091 5.24 0 2.108 1.789 4.792 3.707 5.558 3.772 1.598 7.863-1.15 7.991-5.303.128-3.833-4.155-6.964-7.607-5.495ZM68.052 93.86c-3.836 3.898-1.535 9.648 3.899 9.648 3.452 0 5.753-2.172 5.753-5.43 0-3.067-2.876-6.07-5.753-6.07-1.406 0-2.621.575-3.9 1.852Zm104.261 33.289c-4.602.958-10.484 4.217-13.808 7.667-2.876 3.003-6.584 8.945-6.648 10.67 0 .511-1.342.639-4.666.384-6.521-.512-10.612.894-14.639 5.047-8.758 8.945-5.37 24.152 6.328 28.624 3.133 1.15 5.242 1.214 37.588 1.278 32.73 0 34.392-.064 36.949-1.214 3.58-1.661 5.178-3.131 6.776-6.325 1.79-3.578 1.726-7.412-.256-11.373-2.493-4.984-7.415-7.795-12.529-7.092-2.365.319-2.493.255-2.493-1.406 0-2.492-1.726-8.881-3.324-12.204-2.685-5.495-9.014-10.925-15.342-13.034-3.9-1.278-10.292-1.725-13.936-1.022Zm12.593 4.92c5.242 1.661 10.292 6.069 12.977 11.309 2.11 4.217 2.238 4.728 2.238 10.989 0 3.642.255 6.645.511 6.645s1.534-.447 2.877-1.022c7.031-2.939 13.807.894 13.68 7.795-.064 3.259-1.215 5.303-4.028 7.412-1.406 1.086-3.771 1.15-36.437 1.214-38.611.063-36.757.255-41.359-4.09-2.557-2.491-4.283-7.667-3.644-11.309.703-4.153 3.707-8.178 7.543-9.903 4.027-1.917 6.392-1.981 11.123-.32 2.046.703 3.708 1.278 3.771 1.278.064 0 .704-1.98 1.471-4.345 3.835-12.778 16.684-19.615 29.277-15.653Zm224.057-.32c-.383.383-.767 1.15-.767 1.597 0 1.598-2.429 5.559-4.602 7.668-1.151 1.15-3.772 2.747-5.754 3.642-4.219 1.852-4.666 3.13-1.534 4.216 5.498 1.789 10.1 6.326 11.826 11.693 1.151 3.45 3.133 3.067 4.411-.831 1.279-3.769 6.584-9.073 10.356-10.35 1.982-.639 2.941-1.342 3.068-2.237.192-1.086-.447-1.533-3.196-2.491-4.411-1.598-8.246-5.431-9.972-9.904-1.279-3.514-2.429-4.409-3.836-3.003Zm341.232 10.415c-11.315 2.811-26.145 11.756-38.675 23.321-4.347 4.025-10.547 8.434-21.798 15.334-6.201 3.834-6.776 4.984-3.132 6.837l2.237 1.15-4.475 3.45c-4.283 3.259-5.242 4.792-3.771 6.262.447.447-.384 2.236-2.877 5.942-4.283 6.325-4.667 7.411-3.324 8.881.959 1.086.895 1.469-1.279 5.878-1.278 2.556-2.365 5.559-2.429 6.645-.064 1.789.064 1.917 2.302 1.853 1.278-.064 3.899-.703 5.881-1.47 2.684-1.15 3.771-1.277 4.73-.766.959.511 1.982.447 3.899-.256 3.069-1.022 8.822-4.664 10.548-6.581.831-.958 1.662-1.278 2.685-1.022 1.79.447 6.009-2.556 7.735-5.559 1.406-2.3 1.662-2.3 2.557.064 1.47 3.834 2.813 2.683 9.844-8.498 3.772-5.814 8.502-12.459 11.059-15.143 9.333-10.159 17.899-22.554 21.671-31.627 2.365-5.622 3.771-10.862 3.516-13.226-.256-2.556-1.534-2.811-6.904-1.469Zm1.278 8.625c-2.557 7.54-7.99 17.124-14.319 25.174-4.922 6.326-12.593 14.44-13.552 14.44-4.155 0-12.913-8.306-14.83-13.992-.768-2.109-.704-2.173 3.26-5.943 8.182-7.795 18.73-15.334 27.296-19.679 4.858-2.492 13.04-5.239 13.296-4.472.128.255-.447 2.3-1.151 4.472Zm-45.514 29.391c1.918 4.153 8.118 10.351 12.465 12.587l3.452 1.789-3.899 6.198c-2.11 3.45-4.091 6.261-4.283 6.261-.256 0-1.087-1.852-1.918-4.153-.831-2.428-1.918-4.28-2.557-4.472-.575-.192-3.132.128-5.689.703-2.493.575-4.731.894-4.859.703-.191-.128.128-2.237.704-4.537 1.47-6.453 1.534-6.325-3.516-8.37-2.429-.958-4.475-1.917-4.475-1.981 0-.447 11.826-7.922 12.465-7.859.384 0 1.279 1.406 2.11 3.131Zm-10.804 10.798c.832.511.832 1.214-.127 5.303-1.279 5.495-1.407 7.923-.256 8.37.383.128 3.196-.255 6.201-.894 6.776-1.47 6.2-1.47 6.712.128.319.83-.128 2.108-1.215 3.833-1.47 2.173-1.854 2.428-2.876 1.725-1.087-.639-1.918-.127-6.776 4.473-3.005 2.875-5.754 5.239-6.073 5.239-.256 0-.64-.447-.895-.958-.576-1.47-1.79-1.15-7.735 1.917-3.069 1.661-5.753 2.811-5.881 2.619-.384-.383 3.516-7.475 5.817-10.542 2.045-2.748 2.045-3.45.256-4.728l-1.471-.959 2.621-3.067c1.407-1.725 3.772-4.025 5.178-5.047 2.813-2.109 3.644-3.642 2.493-4.792-.511-.511-.319-1.022.895-1.917 1.854-1.469 1.918-1.469 3.132-.703Z"/><path d="M730.059 157.561c-7.416 4.153-5.562 14.376 2.748 15.398 4.411.512 8.63-3.45 8.63-8.114 0-5.814-6.456-9.967-11.378-7.284Zm6.2 4.536c2.429 2.173.703 6.582-2.685 6.582-3.579 0-5.305-3.259-3.132-5.943 1.534-1.98 4.027-2.236 5.817-.639Zm-463.648-.766c-3.963 2.172-3.771 8.562.32 10.223 4.091 1.725 8.31-.895 8.31-5.239 0-1.726-.447-2.684-2.045-4.09-2.302-2.044-4.028-2.3-6.585-.894Zm232.368-.32c-3.005 1.214-4.347 5.431-2.749 8.434.895 1.662 4.283 3.067 6.52 2.62 3.964-.767 5.626-6.262 2.877-9.392-1.598-1.853-4.603-2.556-6.648-1.662Zm105.22 15.335c0 .383-.256.511-.639.319-.32-.192-.639.192-.639.959 0 1.661 1.214 2.172 3.452 1.277 2.301-.83 2.045-2.811-.448-3.067-.959-.127-1.726.128-1.726.512Zm6.585.383c-.256.703.063 1.406.767 1.917 1.534 1.15 2.557 1.15 3.515-.064.64-.767.64-1.15 0-1.917-1.086-1.278-3.771-1.214-4.282.064Zm-540.167 2.172c-.767.32-1.917 1.342-2.493 2.237-1.022 1.533-1.342 1.661-4.41 1.278-2.174-.32-3.9-.192-4.795.319-1.534.831-3.196 4.217-3.196 6.709 0 1.214-.511 1.789-2.301 2.556-1.343.511-2.75 1.469-3.197 2.108-1.214 1.533-1.086 5.048.192 7.156 1.023 1.725 1.023 1.981-.128 4.537-2.045 4.472-1.086 7.411 2.94 9.264 1.855.831 2.494 1.47 2.494 2.62 0 2.683 1.726 5.942 3.644 6.645.959.383 3.132.511 4.794.319 2.685-.383 3.132-.255 4.027 1.15 1.279 1.981 4.283 3.195 6.457 2.684.959-.256 2.493-1.278 3.516-2.364 1.662-1.789 1.917-1.853 5.242-1.47 3.196.383 3.707.256 5.113-1.15.96-.958 1.727-2.684 1.982-4.473.384-2.491.703-3.066 2.237-3.578 4.092-1.405 5.946-6.325 3.58-9.456-.511-.639-.895-1.789-.895-2.492 0-.702.384-1.853.895-2.491 1.087-1.406 1.279-4.984.384-6.709-.384-.639-1.79-1.662-3.196-2.3-1.47-.639-2.685-1.342-2.685-1.534-.064-.192-.192-1.022-.256-1.725-.575-5.175-2.94-7.092-7.863-6.325-2.748.383-3.068.319-4.602-1.534-1.726-2.172-4.986-3.067-7.48-1.981Zm4.987 5.24c1.086 1.98 4.538 3.194 6.904 2.364 2.812-.959 3.899-.384 3.899 2.108 0 3.067 2.046 6.07 4.475 6.581 2.685.575 3.004 1.853 1.342 4.792-1.662 3.003-1.662 4.217-.064 6.901 1.79 2.939 1.598 3.578-1.278 4.856-2.813 1.214-4.475 3.705-4.475 6.645 0 2.172-1.087 2.811-3.644 2.172-3.004-.767-5.242-.192-6.712 1.853-1.662 2.172-3.963 2.428-4.986.511-1.087-1.981-4.539-3.195-6.968-2.492-2.94.831-3.707.256-4.091-2.939-.384-3.386-1.215-4.536-4.41-5.814-2.814-1.086-2.877-1.534-1.151-4.984.703-1.406 1.278-2.811 1.278-3.195 0-.383-.575-1.789-1.279-3.194-.703-1.406-1.278-2.876-1.278-3.323 0-.383 1.279-1.342 2.877-2.044 3.004-1.342 4.155-3.067 4.155-6.454 0-2.364.639-2.683 3.644-2.044 3.068.703 5.05 0 7.35-2.428 1.855-2.045 3.261-1.981 4.412.128Z"/><path d="M73.357 190.85c-4.602 2.236-7.799 7.092-7.799 11.884 0 4.6.64 6.645 3.069 9.456 2.876 3.322 6.456 4.984 10.867 5.048 3.835 0 6.456-1.151 9.589-4.09 6.776-6.389 4.666-18.273-3.964-22.362-2.812-1.342-9.013-1.278-11.762.064Zm9.972 3.705c1.535.639 3.069 1.917 4.156 3.642 6.52 10.095-7.543 20.702-15.47 11.693-3.516-4.025-3.26-9.584.575-13.546 2.749-2.811 6.52-3.45 10.74-1.789Zm520.158-14.12c-1.215 1.789-.831 2.939.895 2.939 1.534 0 2.813-1.534 2.493-3.003-.32-1.789-2.237-1.725-3.388.064Zm19.689-.511c-.511 1.341 1.918 3.769 3.26 3.258 1.215-.447 1.343-2.428.256-3.514-1.087-1.086-3.068-.958-3.516.256Zm-23.077 6.134c-1.087 1.086-.959 3.641.192 4.089 1.47.575 2.941-1.023 2.749-2.876-.192-1.852-1.726-2.427-2.941-1.213Zm27.36 1.15c0 2.236 1.982 3.705 3.132 2.3 1.215-1.47.192-4.217-1.598-4.217-1.278 0-1.534.319-1.534 1.917Zm.831 5.878c-1.087 1.469-.639 4.025.703 4.025 1.662 0 2.813-1.917 1.918-3.322-.895-1.406-1.854-1.662-2.621-.703Zm-28.574.319c-.704.703-.384 1.534.447 1.086.575-.383.575-.319 0 .448-1.087 1.405.32 3.386 1.918 2.747 1.726-.639 1.214-4.217-.576-4.472-.767-.128-1.534-.064-1.789.191Zm-290.028 4.984c-13.552 3.706-22.31 16.676-20.392 30.158.703 4.983 2.173 8.561 5.817 13.928 4.347 6.517 4.986 8.051 5.817 13.737.639 4.792.639 5.304-.575 6.901-1.087 1.469-1.279 2.747-1.343 8.178 0 3.77.32 6.773.768 7.348.383.575 2.045 1.597 3.707 2.364 1.662.703 4.091 2.109 5.37 3.131 2.046 1.533 3.004 1.789 7.287 1.917 4.667.127 5.05 0 7.991-2.045 1.662-1.214 4.283-2.683 5.817-3.259 3.452-1.341 3.964-2.747 3.836-10.286-.064-4.728-.32-6.07-1.279-7.156-1.023-1.15-1.15-1.981-.831-5.815.448-5.047 2.365-9.839 6.009-14.951 4.091-5.686 5.498-9.648 5.817-15.973.256-4.728.128-5.559-.575-5.112-.703.384-.767.32-.192-.447 1.79-2.236-2.94-12.203-7.735-16.357-6.904-6.006-17.132-8.561-25.314-6.261Zm16.429 5.431c8.182 3.706 12.976 10.606 13.552 19.423.383 6.07-.895 10.287-4.731 16.038-4.155 6.133-6.52 11.373-7.031 15.398l-.384 3.45h-4.986v-4.536c0-9.712 2.493-19.935 6.137-25.238 1.278-1.917 2.045-3.706 1.853-4.281-.511-1.15-2.429-1.789-3.579-1.022-.448.255-1.343.191-2.046-.128-.639-.383-2.046-.447-3.132-.256-2.621.575-8.758.575-10.867 0-.959-.255-2.238-.127-2.813.192-.703.383-1.726.447-2.621.064-1.023-.383-1.726-.256-2.429.447-1.343 1.342-1.215 1.917.959 4.601 1.022 1.277 2.429 3.961 3.132 5.942 1.662 4.919 3.26 14.567 3.26 19.87v4.345h-4.283c-.256.064-.831-1.661-1.214-3.769-1.023-4.984-2.621-8.434-6.585-14.504-4.155-6.262-5.433-10.479-5.05-16.549 1.087-16.292 17.963-26.26 32.858-19.487Zm-3.324 24.918c-1.854 4.409-3.644 11.693-4.283 17.379-.704 6.39-.831 6.901-2.11 6.901-1.215 0-1.406-.447-1.79-4.984-.511-5.75-2.493-14.695-3.899-17.379-.512-1.022-.959-2.108-.959-2.364 0-.256 3.004-.511 6.712-.511 5.753 0 6.648.128 6.329.958Zm-4.731 28.752c0 .32-.703.639-1.598.639-.895 0-1.598-.319-1.598-.639 0-.383.703-.639 1.598-.639.895 0 1.598.256 1.598.639Zm9.589 6.39c0 .639.511 1.533 1.151 1.853 1.022.638 1.022.638-.128.702-1.535 0-19.753-3.194-20.137-3.578-.128-.127 4.092-.255 9.397-.255 9.205 0 9.717.064 9.717 1.278Zm-10.612 4.792c6.649 1.214 12.402 2.236 12.721 2.236.384 0 .512.192.32.383-.384.32-26.145-4.089-26.657-4.6-.575-.511 1.854-.192 13.616 1.981Zm-1.598 4.536c5.37 1.022 9.525 1.917 9.141 2.045-.831.255-21.287-3.514-21.798-4.09-.192-.255.32-.255 1.215-.063.895.191 6.009 1.15 11.442 2.108Zm13.041 2.62c-.448.127-1.343.127-1.918 0-.639-.192-.256-.32.767-.32 1.087 0 1.534.128 1.151.32Zm-14.767 1.789c4.986.894 9.269 1.597 9.461 1.597.192 0-.383.575-1.278 1.278-2.238 1.725-8.758 1.789-10.932.064-.831-.639-2.94-1.917-4.73-2.811-1.726-.895-2.813-1.662-2.429-1.726.447 0 4.922.703 9.908 1.598Zm289.516-77.056c-.511.895-.383 1.406.512 2.237 2.429 2.172 4.73.766 3.004-1.853-1.278-1.917-2.684-2.045-3.516-.384Zm20.776.128c-1.087 1.597-.703 3.131.895 3.131 1.47 0 3.452-2.3 3.005-3.514-.576-1.406-2.749-1.214-3.9.383Zm152.717 4.345c-2.11 4.664-5.498 8.051-9.653 9.584-4.347 1.661-4.602 3.386-.575 4.728 5.37 1.853 9.653 6.645 11.442 12.715.704 2.236 2.302 1.15 4.156-2.875 2.045-4.473 4.986-7.54 8.566-9.073 1.981-.831 2.365-1.278 2.365-2.811 0-1.598-.512-2.173-3.388-3.77-3.9-2.173-6.521-5.303-7.927-9.393-1.406-4.153-2.877-3.897-4.986.895Zm-167.164-.895c-.895 1.087-.192 2.684 1.406 3.067 1.918.511 3.133-.191 2.941-1.661-.256-1.597-3.324-2.62-4.347-1.406Zm-580.63.384c-3.58.83-5.69 2.108-8.375 5.047-4.283 4.728-4.219 4.409-4.219 30.669 0 22.682.064 23.768 1.343 26.516.703 1.533 2.493 3.897 3.9 5.175 4.666 4.153 4.73 4.153 28.574 4.153l21.478-.064 3.324-1.597c3.772-1.853 6.52-4.984 8.119-9.265 1.534-4.089 1.215-17.762-.384-18.784-2.173-1.342-2.748.447-3.068 9.776-.32 8.497-.384 8.881-2.174 11.181-3.515 4.664-4.41 4.856-27.743 4.856-22.63 0-22.374.064-26.081-3.962-3.324-3.514-3.452-4.6-3.388-28.241.064-25.237.127-25.876 5.561-29.838 2.046-1.469 2.621-1.533 14.959-1.853 11.506-.255 12.912-.447 13.552-1.469.575-.959.447-1.342-.512-2.109-1.023-.703-3.58-.894-11.826-.83-5.817.064-11.698.319-13.04.639Zm587.917.255c-.255.575 0 1.47.512 1.981 1.278 1.278 4.538.128 4.219-1.534-.256-1.533-4.219-1.916-4.731-.447Zm-92.052 8.242c-1.789 1.726-3.579 2.94-4.41 2.94-2.685 0-7.671 6.836-6.457 8.817.192.383-.831 2.044-2.365 3.706-1.47 1.725-6.968 8.178-12.146 14.376l-9.397 11.245-3.835 10.798c-2.11 5.942-3.708 11.181-3.516 11.565.575 1.597 2.813.766 12.465-4.856 10.931-6.262 8.119-3.514 26.721-25.813 5.242-6.262 7.16-8.115 8.31-8.115 1.662 0 5.562-3.706 6.584-6.261.831-2.109.064-3.195-6.2-8.434l-5.498-4.664 2.238-2.237c2.62-2.555 3.963-2.492 7.415.32 2.429 2.044 2.813 4.6 1.023 6.581-2.302 2.492.383 5.111 2.94 2.811 1.918-1.725 2.813-5.431 1.918-8.114-1.151-3.451-5.817-6.965-9.717-7.348-3.004-.256-3.26-.192-6.073 2.683Zm2.238 12.268 5.817 4.856-1.151 1.469c-.575.895-1.214 1.598-1.406 1.598-.575 0-12.146-9.584-12.146-10.032 0-.575 2.046-2.747 2.621-2.747.256 0 3.069 2.172 6.265 4.856Zm-5.178 6.517c1.79 1.534 3.324 3.067 3.324 3.323 0 .383-14.447 17.954-19.689 23.896-2.365 2.747-2.365 2.747-7.735-1.981l-2.749-2.428 10.996-13.226c6.52-7.795 11.314-13.098 11.762-12.842.383.255 2.237 1.725 4.091 3.258Zm-25.059 29.774 3.069 2.748-5.05 3.003c-5.434 3.131-6.393 3.514-5.881 2.044.191-.511 1.15-3.13 2.109-5.75.959-2.684 1.918-4.856 2.174-4.856.319 0 1.917 1.278 3.579 2.811Z"/><path d="M508.75 243.498c-5.05 6.006-9.141 11.437-9.141 12.076 0 1.214 1.598 2.172 2.621 1.597.448-.32 16.045-18.593 18.347-21.468 1.086-1.406.319-3.131-1.407-3.131-.959 0-3.899 3.131-10.42 10.926ZM29.888 219.665c-.575.448-.767 2.556-.639 8.498l.192 7.923h4.155c4.027 0 4.155-.064 4.155-1.597 0-1.406-.32-1.598-2.365-1.789l-2.43-.192v-8.881h8.95v1.917c0 1.213.448 2.108 1.215 2.555 1.917.959 3.26-.766 3.26-4.153 0-4.345-.831-4.792-8.822-4.792-3.771 0-7.223.256-7.67.511Z"/><path d="M50.536 222.86c-.383.256-1.918 2.173-3.452 4.281-1.534 2.109-2.94 3.961-3.068 4.089-.128.192-1.215-.703-2.43-1.853-1.79-1.789-2.492-2.044-3.323-1.533-.576.383-1.215 1.022-1.343 1.406-.384 1.214 5.945 7.283 7.288 7.028 1.853-.32 9.205-10.095 9.013-12.012-.128-1.597-1.47-2.3-2.685-1.406Zm10.867 9.073c-3.004 7.987-2.748 8.498 3.452 7.923 4.155-.384 4.347-.384 8.31 2.236 3.772 2.428 4.22 2.556 5.242 1.597.704-.639 1.215-.766 1.535-.319.703 1.214 2.493.767 6.009-1.597 3.324-2.301 3.58-2.301 7.734-1.917 6.201.575 6.521 0 3.836-7.156-2.237-6.134-3.26-7.54-4.73-6.965-1.343.511-1.28 2.62.255 6.645l1.279 3.387-3.388-.192c-2.877-.128-3.772.128-5.754 1.661l-2.3 1.789-.32-1.469a88.069 88.069 0 0 1-.832-4.281c-1.022-5.431-4.09-4.92-4.986.766-.767 5.112-.703 5.048-3.771 2.939-2.43-1.597-3.197-1.789-5.754-1.469l-3.004.447 1.598-4.281c1.79-4.664 1.662-6.133-.575-6.133-1.215 0-1.79.894-3.836 6.389Zm139.229 1.981c-1.726.639-1.982 2.811-.448 3.386 1.407.575 4.156-1.278 3.708-2.428-.511-1.278-1.598-1.597-3.26-.958Zm6.456.255c-.959.639-1.023 1.023-.383 1.789 1.726 2.045 4.922 1.662 4.474-.511-.255-1.597-2.684-2.364-4.091-1.278Zm-13.68 4.217c-.831 1.534-.447 3.131.831 3.131 1.343 0 3.197-2.364 2.813-3.514-.575-1.406-2.813-1.214-3.644.383Zm20.009-.319c-.511 1.341 1.918 3.769 3.26 3.258 1.215-.447 1.343-2.428.256-3.514-1.087-1.086-3.069-.958-3.516.256Zm248.732 4.472c-1.726.895-3.963 2.556-4.922 3.642-3.388 3.834-3.708 6.517-3.516 29.647.192 20.19.256 21.084 1.598 23.832 1.662 3.322 5.753 6.773 9.269 7.731 1.534.383 12.402.575 29.47.447 26.465-.191 27.04-.191 29.661-1.597 3.324-1.789 6.392-5.495 7.287-8.817.448-1.662.703-10.287.639-23.897-.127-23.065-.255-24.087-3.707-27.729-1.918-1.981-2.877-2.173-4.027-.767-.64.767-.576 1.278.383 2.62 3.58 4.919 3.452 4.089 3.452 26.643 0 22.746-.128 23.513-3.58 26.772-1.023.958-2.685 2.044-3.643 2.364-2.366.894-51.652.958-54.72.064-1.215-.32-3.324-1.662-4.667-3.003-3.58-3.451-3.835-5.687-3.58-27.986.192-21.724.384-22.618 5.178-25.749l2.557-1.725 16.046-.319 16.045-.32v-3.195l-16.045-.191-15.982-.128-3.196 1.661ZM217.7 243.753c-.639.767-.639 1.342-.128 2.556.767 1.661 3.26 2.236 3.388.767.32-3.578-1.534-5.431-3.26-3.323Zm-27.68.064c-.767.831-.511 3.962.384 4.281 1.406.511 2.429-.447 2.557-2.492.128-1.406-.192-1.917-1.151-2.044-.767-.128-1.534 0-1.79.255Zm-160.451.703c-.256.192-.448 3.897-.448 8.242 0 8.626-.064 8.562 4.411 8.562 3.132 0 5.114-1.406 4.155-3.003-.383-.639-1.598-1.214-2.749-1.342l-1.981-.191v-8.882h8.885l.192 1.981c.256 2.747 2.173 3.898 3.452 2.236 1.087-1.533 1.215-6.197.128-7.284-.831-.83-15.278-1.15-16.045-.319Z"/><path d="M47.34 251.42c-1.726 2.301-3.26 4.154-3.388 4.154-.192 0-1.279-.895-2.493-1.981-2.366-2.045-3.197-2.109-4.283-.32-.576.895-.064 1.662 2.94 4.601 2.749 2.619 3.964 3.386 4.667 3.003 1.726-1.023 9.205-11.693 8.821-12.651-.767-2.173-3.132-.959-6.264 3.194Zm142.936-.319c-1.215.703-.575 4.089.831 4.345 1.662.319 2.429-.703 1.982-2.62-.448-1.789-1.598-2.492-2.813-1.725Zm27.424 1.022c-.703 1.853.064 3.45 1.662 3.45 1.342 0 2.365-3.13 1.47-4.216-1.15-1.406-2.493-1.087-3.132.766Zm179.949 4.409c-3.452 3.386-.703 9.903 4.155 9.903 2.813 0 5.753-3.003 5.753-5.942 0-4.983-6.328-7.539-9.908-3.961Zm-204.688 1.981c-.511 1.341 1.918 3.769 3.26 3.258 1.279-.511 1.343-2.172.128-3.386-1.215-1.214-2.877-1.15-3.388.128Zm21.031.255c-1.022 1.661-.959 2.364.256 2.812 1.534.575 3.452-.767 3.452-2.492 0-1.214-.32-1.598-1.47-1.598-.767 0-1.79.575-2.238 1.278Zm255.125 1.661c-.959 2.492.511 3.067 8.438 3.067 6.265.064 7.607-.128 8.182-.958.384-.575.448-1.534.256-2.109-.32-.894-1.598-1.022-8.438-1.022-6.84 0-8.119.128-8.438 1.022Zm-269.188 1.47c-.512.319-.767 1.086-.64 1.725.256 1.597 4.156 2.109 4.731.575.703-1.725-2.365-3.386-4.091-2.3Zm7.863.319c-1.535 1.087-.831 2.939 1.15 2.939 2.174 0 3.452-1.597 2.365-2.875-.958-1.214-1.981-1.214-3.515-.064Zm261.389 7.732c-.959 2.427.128 2.875 6.712 2.875s7.607-.448 6.712-2.875c-.32-.767-1.662-.959-6.712-.959s-6.457.192-6.712.959Zm31.387-.32c-.192.319-.192 1.214 0 1.917.383 1.214.895 1.342 5.625 1.15 5.114-.192 5.242-.256 5.242-1.789 0-1.534-.128-1.597-5.242-1.789-3.132-.128-5.369.064-5.625.511Zm137.758 1.661c-14.83 2.684-22.31 6.454-31.067 15.654-4.795 5.048-8.566 11.437-10.868 18.146-2.493 7.348-2.876 18.912-.958 26.58 3.707 14.567 12.593 25.621 25.953 32.266 8.119 3.961 12.529 4.983 21.735 4.983 10.739 0 18.666-2.428 27.232-8.178 3.899-2.683 11.442-9.84 11.442-10.926 0-.383.576-1.15 1.279-1.725 1.726-1.533 5.369-8.881 7.159-14.568 1.215-4.089 1.471-6.069 1.471-13.417-.064-7.22-.32-9.392-1.535-13.418-5.497-17.507-18.857-30.221-36.053-34.183-4.283-.958-13.233-1.661-15.79-1.214Zm13.744 5.687c15.981 3.322 28.255 14.759 33.561 31.308 1.15 3.578 1.47 6.006 1.47 11.82 0 6.581-.192 7.987-2.046 13.29-2.237 6.708-3.835 9.648-7.99 14.887-5.37 6.836-15.023 12.779-24.164 14.951-4.986 1.15-14.255 1.214-19.369.064-19.114-4.217-33.177-20.51-34.647-40.381-1.087-14.44 6.2-29.838 18.026-38.272 10.74-7.603 22.694-10.223 35.159-7.667Z"/><path d="M630.655 320.106c0 15.782.128 28.752.32 28.752s4.986-3.77 10.675-8.37c5.754-4.664 13.68-10.99 17.644-14.184 3.963-3.195 7.095-5.943 7.031-6.198-.127-.256-1.789-1.725-3.707-3.259-1.918-1.597-8.119-6.581-13.744-11.117-5.626-4.537-11.89-9.648-13.936-11.309-2.045-1.662-3.835-3.067-4.027-3.067-.128 0-.256 12.906-.256 28.752Zm16.621-9.52c6.137 4.983 11.251 9.2 11.378 9.456.064.256-1.662 1.917-3.835 3.706-2.237 1.725-7.288 5.814-11.251 9.073-3.963 3.194-7.479 5.814-7.863 5.814-.319 0-.575-7.348-.575-18.529 0-10.223.192-18.529.511-18.529.256 0 5.498 4.089 11.635 9.009Zm-178.095-31.053c-.895 2.364.192 2.939 4.986 2.748 4.475-.192 4.666-.256 4.666-1.789 0-1.534-.191-1.598-4.666-1.789-3.708-.128-4.667 0-4.986.83Zm16.748 0c-.192.512-.192 1.406 0 1.917.32.831 2.621.959 15.278.959s14.959-.128 15.278-.959c.192-.511.192-1.405 0-1.917-.319-.83-2.621-.958-15.278-.958s-14.958.128-15.278.958Zm-16.556 9.009c-.832.831-.448 2.684.575 3.067 1.534.575 26.657.448 27.615-.191.512-.32.768-1.087.64-1.725-.192-1.151-1.087-1.214-14.32-1.406-7.734-.064-14.255.064-14.51.255Zm300.575 15.527c-3.836 3.833-1.535 9.647 3.771 9.647 5.498 0 7.863-5.75 4.028-9.647-1.279-1.278-2.494-1.853-3.9-1.853-1.406 0-2.621.575-3.899 1.853Zm-492.223 4.472c-1.278 1.278-1.853 2.492-1.853 3.898 0 2.875 3.004 5.75 6.072 5.75 3.261 0 5.434-2.3 5.434-5.75 0-5.367-5.817-7.731-9.653-3.898Zm-168.122 10.606c-3.324 1.853-3.708 6.965-.703 9.265 2.493 2.045 6.073 1.725 8.054-.703 2.046-2.428 2.11-4.792.192-7.156-1.726-2.172-5.114-2.811-7.543-1.406Zm74.025 1.789c-.511 1.342.703 7.029 2.493 11.821 4.283 11.309 11.123 21.468 24.228 35.908 1.789 1.917 4.73 5.942 6.584 8.945 8.31 13.29 9.525 15.015 10.739 15.015.703 0 1.598-.831 2.238-2.045l1.022-2.108 1.79 2.556c2.429 3.45 5.754 5.942 7.352 5.43.895-.319 2.045.256 3.899 1.789 5.114 4.409 12.529 7.412 13.68 5.559.192-.319 1.598-.064 3.324.703 4.731 2.045 7.735 2.492 8.822 1.47.767-.767.767-1.278-.064-3.578-.512-1.47-1.79-4.217-2.813-6.198-1.662-3.003-1.79-3.578-.959-4.089.512-.256.959-.959.959-1.534 0-1.278-3.388-7.411-5.753-10.414-1.47-1.917-1.662-2.364-.895-3.067 1.598-1.47.959-2.556-3.58-6.006-4.475-3.387-5.242-4.345-3.58-4.345 1.471 0 3.708-2.172 3.261-3.195-.192-.511-4.731-3.705-10.037-7.028-5.689-3.578-12.337-8.434-16.109-11.756-11.059-9.712-18.218-14.76-27.679-19.488-8.374-4.153-18.091-6.389-18.922-4.345Zm13.296 6.454c6.457 2.619 12.53 6.133 19.625 11.437 7.671 5.75 15.854 13.289 15.854 14.695 0 4.664-10.164 15.143-14.703 15.143-3.708 0-18.155-17.89-24.292-30.03-2.748-5.495-5.114-11.565-5.114-13.29 0-1.15 1.79-.767 8.63 2.045Zm46.026 31.755c3.324 2.172 6.073 4.089 6.073 4.408 0 .256-1.662 1.087-3.771 1.853-5.05 1.853-5.242 2.173-4.156 6.773.448 2.108.895 4.473.895 5.239 0 1.342-.063 1.342-3.643.448-2.046-.448-4.603-.831-5.754-.895-1.789 0-2.109.319-2.812 2.364-.448 1.342-1.215 3.386-1.662 4.6l-.959 2.173-1.982-3.131c-1.087-1.725-2.94-4.664-4.155-6.517-1.215-1.853-2.109-3.45-1.982-3.514.128-.128 1.279-.639 2.493-1.15 5.37-2.492 12.849-10.287 14.32-15.143.255-.767.575-1.406.767-1.406.128 0 3.004 1.725 6.328 3.898Zm6.009 11.181c1.023.767 1.279 1.214.767 1.725-1.214 1.214-.767 2.939 1.087 3.898 1.918 1.022 7.224 6.389 8.31 8.498.64 1.086.512 1.405-.511 1.661-1.79.447-1.598 2.364.575 5.431 3.069 4.217 6.009 9.711 5.178 9.711-.383 0-3.388-1.341-6.52-3.003-5.306-2.683-5.881-2.875-6.584-1.916-.448.575-1.087 1.086-1.471 1.086-.383 0-3.004-2.172-5.817-4.856-4.283-4.025-5.434-4.792-6.712-4.473-1.279.32-1.79 0-2.877-1.789-1.662-2.683-1.79-4.855-.191-4.855.575 0 3.452.511 6.328 1.086 7.096 1.469 7.16 1.341 5.498-6.454-1.279-6.005-1.215-6.581.767-6.708.383-.064 1.342.383 2.173.958Z"/><path d="M203.636 336.271c-2.109 1.086-4.474 4.728-4.474 6.964 0 7.731 10.228 11.245 14.638 5.048 2.685-3.77 1.407-9.904-2.493-11.884-2.237-1.151-5.497-1.214-7.671-.128Zm5.37 3.769c2.941 1.278 3.005 5.687.064 7.029-4.794 2.172-8.246-4.473-3.644-7.092 1.407-.831 1.662-.831 3.58.063Zm170.552-8.114c-4.155 8.37-4.603 10.159-2.941 10.798 1.535.575 1.982.064 5.242-6.389l3.005-6.006 4.155 8.306c2.237 4.536 4.411 8.306 4.794 8.306 1.726.064 16.365 2.364 16.621 2.684.192.127-2.557 3.13-6.073 6.581-3.516 3.45-6.393 6.325-6.393 6.453 0 .128.576 3.322 1.279 7.092 1.79 9.648 1.918 10.415 1.662 10.415-.128 0-3.836-1.853-8.182-4.153l-7.927-4.154-8.119 4.217c-4.474 2.301-8.118 4.09-8.118 3.962 0-.128.703-4.089 1.534-8.817l1.534-8.626-6.392-6.453c-7.224-7.348-7.288-6.773 1.534-7.923 5.561-.767 6.648-1.406 5.881-3.514-.511-1.214-2.046-1.214-11.57.255-8.119 1.278-9.142 1.598-9.142 2.812 0 .383 3.452 4.217 7.671 8.434l7.671 7.667-1.598 9.264c-1.981 11.565-1.981 12.779-.319 12.779.703 0 5.369-2.172 10.355-4.792l9.142-4.728 9.013 4.728c4.986 2.62 9.525 4.792 10.1 4.792 1.854 0 1.854-1.789.128-12.012l-1.662-9.967 7.671-7.795c7.991-8.051 8.694-9.393 5.242-10.095-1.406-.32-18.986-2.94-19.497-2.94-.128 0-2.301-4.344-4.922-9.584-3.836-7.667-5.05-9.584-6.073-9.584-1.023 0-2.11 1.662-5.306 7.987ZM-.732 333.14c-3.388 1.086-7.607 4.153-9.525 6.964-1.79 2.684-3.004 7.093-2.684 10.096l.191 2.172h7.927c6.393 0 7.99-.192 8.374-.958 1.854-4.026 2.43-4.792 3.644-4.984 2.11-.32 3.58 1.661 3.132 4.217-.255 1.597-1.534 3.45-4.73 6.773-4.986 5.111-6.073 7.603-6.137 13.801l-.064 4.153 7.16.191 7.16.192.383-1.661c.192-.895.511-2.364.703-3.387.192-.958 2.493-3.897 5.306-6.836 2.749-2.812 5.497-6.134 6.137-7.348 3.26-6.389 0-20.382-3.9-16.548-.895.958-.895 1.214.064 3.194 1.343 2.556 1.534 9.201.32 11.437-.448.895-3.197 4.089-6.137 7.092-3.963 4.153-5.37 6.07-5.69 7.795l-.447 2.364H2.976l.32-2.108c.703-4.025 1.79-5.942 5.753-10.031 2.237-2.3 4.347-4.984 4.666-5.942 1.535-3.962.256-9.201-2.429-10.671-.703-.319-2.429-.639-3.9-.639-2.173 0-3.068.384-4.858 2.173-1.214 1.214-2.173 2.619-2.173 3.195 0 .894-.703 1.022-4.603.894-4.538-.192-4.666-.256-4.41-1.789 1.15-8.434 11.826-12.843 23.46-9.776 3.26.895 4.22.959 4.858.32 3.58-3.578-12.145-6.901-20.392-4.345Z"/><path d="M411.648 356.206c-1.981 1.469-.447 3.13 3.388 3.578 4.475.575 7.352 1.597 10.292 3.769 1.407.959 2.813 1.598 3.069 1.406.319-.256.383-.192.127.128-.255.319.448 1.597 1.535 2.875 5.561 6.326 6.968 15.846 3.516 23.385-.959 2.045-2.494 4.664-3.325 5.814-2.045 2.62-7.607 6.326-11.059 7.284-1.534.384-2.876 1.086-3.068 1.598-.192.511 0 2.491.384 4.472.383 1.981.639 3.706.511 3.898-.192.127-3.452-1.789-7.287-4.217l-6.968-4.473h-11.507c-13.68 0-18.666-.703-23.077-3.195-1.854-1.022-3.516-1.661-3.771-1.405-.32.255-.32.128-.128-.256.383-.639-1.343-2.747-1.918-2.364-.064.128-.128.128-.064 0 .128-.064-.703-1.406-1.854-3.003-6.136-8.689-5.241-20.637 2.11-28.752 2.365-2.62 2.621-4.6.639-4.984-1.342-.255-3.644 1.726-6.264 5.495-7.288 10.543-5.69 25.749 3.707 34.63 6.712 6.39 11.443 7.668 28.127 7.668h12.274l9.525 6.07c5.241 3.322 9.972 6.069 10.547 6.069 1.726 0 1.854-1.789.512-7.028-.704-2.747-1.279-5.239-1.279-5.559 0-.319 1.662-1.341 3.708-2.236 9.205-4.281 15.47-14.312 15.47-24.791 0-10.989-7.863-21.659-18.539-25.11-4.794-1.533-7.926-1.789-9.333-.766Zm-43.021 48.686c.831 1.023.767 1.087-.192.256-.639-.447-1.151-.958-1.151-1.086 0-.511.512-.192 1.343.83Zm-392.883-42.425c-4.73 1.789-9.141 4.792-11.762 7.923-1.79 2.172-1.982 2.811-1.982 6.837v4.408l1.982-3.897c2.301-4.601 6.456-8.562 11.442-10.862 3.197-1.534 4.411-1.661 13.552-1.917 8.183-.255 10.1-.447 10.42-1.214.831-2.3-.767-2.747-10.484-2.683-8.054 0-9.844.191-13.168 1.405Zm553.398-.894c-1.278.766-.639 2.875.831 3.13 1.79.256 3.836-1.341 3.325-2.683-.448-1.086-2.749-1.342-4.156-.447Zm6.904.703c0 1.725 2.813 3.066 4.091 1.916 1.535-1.214.128-3.194-2.173-3.194-1.47 0-1.918.255-1.918 1.278Zm-13.104 3.194c-2.174 2.428.511 4.409 2.94 2.173.895-.831 1.023-1.342.512-2.237-.831-1.533-1.982-1.533-3.452.064Zm19.689-.319c-.384 1.086 1.47 3.514 2.684 3.514 1.599 0 2.238-1.598 1.215-3.067-1.151-1.597-3.324-1.853-3.899-.447Zm-523.29.766c-1.023.959-.256 2.492 2.812 5.751 10.037 10.606 8.95 26.068-2.493 34.63-1.79 1.342-4.538 2.875-6.2 3.323-4.092 1.214-4.475 1.789-3.516 5.686.447 1.789.703 3.386.575 3.514-.128.128-2.685-1.597-5.69-3.833l-5.433-4.09h-9.013c-6.265-.063-10.037-.383-12.402-1.086-6.264-1.853-11.57-6.517-14.447-12.651L-38 393.903v9.584l4.155 3.897c6.073 5.815 8.886 6.773 21.735 7.22l10.228.384 7.862 5.878c4.347 3.258 8.055 5.942 8.31 5.942.256 0 .896-.256 1.343-.575.831-.511.831-1.278-.192-5.623-.639-2.747-1.342-5.303-1.47-5.686-.128-.448 1.342-1.47 3.324-2.428 5.05-2.3 10.803-7.987 13.233-13.098 1.726-3.578 2.11-5.176 2.3-10.032.384-8.945-2.237-15.462-8.501-21.276-2.749-2.492-4.091-3.131-4.986-2.173Zm500.213 5.431c-1.087 1.087-.959 3.706.255 4.153 1.343.512 2.941-1.533 2.685-3.322-.256-1.47-1.79-1.981-2.94-.831Zm27.36 1.15c0 2.237 1.981 3.706 3.132 2.301 1.214-1.47.192-4.217-1.598-4.217-1.279 0-1.534.319-1.534 1.916Zm243.873 4.153c-3.068 6.901-3.068 15.782-.064 22.363.895 1.917 1.726 3.514 1.854 3.514.128 0 .256-6.645.256-14.695 0-8.115-.128-14.696-.256-14.696s-.959 1.598-1.79 3.514Z"/><path d="M2.4 378.313c-3.26 1.597-4.602 3.961-4.602 7.922 0 2.365.384 3.323 2.11 5.24 1.853 1.98 2.62 2.364 5.689 2.619 4.603.384 7.48-.958 9.46-4.408 2.494-4.537.512-9.712-4.474-11.693-3.388-1.342-4.858-1.278-8.182.32Zm8.055 4.153c1.023.703 1.407 1.597 1.407 3.45 0 2.172-.256 2.684-1.918 3.514-2.557 1.342-4.603 1.214-6.648-.383-2.046-1.598-2.238-4.473-.384-6.326 1.534-1.533 5.498-1.725 7.543-.255Zm537.098-3.962c-1.151 1.47-.512 3.898 1.022 4.09 1.023.127 1.471-.256 1.79-1.47.256-1.022.128-2.108-.319-2.62-.959-1.15-1.534-1.15-2.493 0Zm-28.319.192c-1.406 1.342.511 4.984 2.301 4.281 1.854-.703 1.215-4.728-.767-4.728-.639 0-1.342.192-1.534.447Zm183.081 1.853c-3.516 4.409-.064 10.606 5.37 9.584 2.557-.511 4.091-2.172 4.538-4.984.32-1.725.064-2.555-1.342-4.217-1.47-1.725-2.173-2.044-4.475-2.044-2.237 0-3.068.319-4.091 1.661Zm79.523 3.259c-3.516.894-8.758 5.75-10.995 10.095-2.174 4.217-2.621 9.903-1.215 14.248 1.918 5.686 5.753 9.648 12.402 12.651.127.064-.256 1.789-.768 3.833-.958 3.642-.639 5.367 1.087 5.367.32 0 2.877-1.341 5.626-2.939 4.73-2.811 5.05-3.13 5.05-5.111 0-1.214-.192-2.173-.384-2.173-.256 0-1.854.895-3.58 1.917l-3.132 1.981.384-2.875.447-2.875-2.621-.703c-8.822-2.364-13.872-13.418-9.78-21.468 1.726-3.451 5.817-7.029 9.013-7.987 6.073-1.789 4.666-5.495-1.534-3.961Zm-259.216 1.789c-.639.83-.639 1.214.32 2.236 1.406 1.533 3.388 1.661 3.963.192.256-.639-.128-1.47-1.023-2.237-1.79-1.405-2.237-1.405-3.26-.191Zm20.84.255c-1.279 1.406-.767 3.259.959 3.259 1.406 0 3.196-2.364 2.684-3.578-.447-1.278-2.365-1.087-3.643.319Zm-5.945 3.259c-2.621 1.086-1.215 4.153 1.534 3.45 1.726-.447 2.365-2.045 1.406-3.195-.831-1.022-1.023-1.022-2.94-.255Zm-8.758.575c-.64.958.255 2.492 1.662 2.811 1.918.511 3.132-.192 2.94-1.725-.128-.958-.703-1.406-2.237-1.534-1.087-.127-2.174.064-2.365.448Zm-393.203 17.698c-2.812.447-11.251 1.853-18.794 3.131-12.976 2.108-15.086 2.747-14.575 4.473.256.638 6.904 6.133 24.42 20.126 4.538 3.642 6.073 4.536 7.351 4.281.895-.192 9.205-1.534 18.538-3.003 9.333-1.534 17.324-3.003 17.772-3.323.383-.383.767-1.022.767-1.469 0-.511-4.923-4.856-10.932-9.712-6.072-4.856-12.848-10.351-15.15-12.204-2.237-1.789-4.155-3.322-4.219-3.258 0 0-2.365.447-5.178.958Zm15.534 12.459c13.233 10.607 12.593 10.032 12.21 10.415-.192.192-6.904 1.406-14.959 2.684-12.913 2.108-14.766 2.3-16.045 1.469-2.237-1.406-22.629-18.018-22.629-18.401 0-.32 26.081-4.856 29.277-5.112.448-.064 5.945 4.026 12.146 8.945Zm149.521-4.472c-1.535 4.345-5.626 8.37-9.909 9.776-5.05 1.661-4.986 3.194.128 5.175 4.155 1.533 8.31 5.687 9.781 9.84.894 2.619 1.406 3.258 2.557 3.258 1.086 0 1.598-.511 2.109-2.428 1.342-5.047 6.52-10.095 11.634-11.309.959-.255 1.854-.831 2.046-1.342.384-.958-1.215-2.811-2.365-2.811-1.534 0-5.945-2.747-7.991-5.048-1.087-1.277-2.493-3.641-3.068-5.367-.767-2.364-1.279-3.003-2.365-3.003-1.151 0-1.663.703-2.557 3.259Z"/><path d="M111.648 429.875c-.319.575-1.086 2.939-1.662 5.175-1.278 4.92-.767 6.709 2.749 9.456 10.612 8.37 24.228 11.565 36.118 8.434 2.94-.766 3.899-2.172 5.306-7.795.958-3.833.958-4.472.127-5.303-1.662-1.661-2.876-.383-4.155 4.409-1.47 5.367-1.47 5.431-10.42 5.495-6.456.063-11.122-.895-16.109-3.195-3.004-1.406-3.068-1.406-4.474-.192l-1.471 1.214 1.151-1.342c1.087-1.341 1.087-1.405-2.11-3.833-1.725-1.342-3.196-2.875-3.196-3.45 0-.575.448-2.684.959-4.792.575-2.045.831-4.153.703-4.601-.511-1.214-2.812-1.022-3.516.32Z"/><path d="M100.525 438.053c-4.155 1.278-8.374 5.495-9.588 9.648-.895 3.067-.895 3.067-3.836 3.259-2.94.191-3.963 1.15-3.26 3.003.256.638 1.279.958 3.196.958h2.813v5.111h-2.813c-1.918 0-2.94.32-3.196.959-.703 1.917.32 2.875 3.196 2.875h2.813v2.556c0 2.555 0 2.555-2.493 2.555-2.685 0-4.155 1.151-3.516 2.812.256.703 1.215 1.022 3.196 1.022 2.174 0 2.813.256 2.813 1.022 0 .895.128.959 1.15.192 1.023-.831 1.023-.831 0 .447-.639.703-1.15 1.789-1.15 2.364 0 1.023-1.278 1.406-3.9 1.15-1.406-.127-2.62 1.47-2.109 2.748.256.703 1.215 1.022 3.196 1.022h2.813v2.556c0 2.556 0 2.556-2.493 2.556-2.621 0-4.283 1.277-3.644 2.875.256.639 1.215.958 3.196.958 2.813 0 2.813.064 3.836 2.939 1.342 4.026 3.708 6.901 7.287 9.009l3.005 1.789 18.538.192c22.054.256 23.78 0 28.383-4.089 4.986-4.473 5.178-5.559 5.178-27.155 0-17.443-.064-18.465-1.215-19.04-.895-.511-1.406-.447-1.918.128-.383.511-.703 7.603-.831 19.743l-.191 18.912-1.982 2.492c-3.963 4.856-4.347 4.984-22.63 5.175-8.949.128-17.771.064-19.624-.191-3.836-.448-6.904-2.3-8.95-5.367-1.982-2.939-1.918-4.409.256-4.665 3.26-.383 2.493-3.641-.831-3.705-1.151 0-1.343-.384-1.279-2.364.064-2.173.256-2.428 1.982-2.748 1.534-.255 1.918-.639 1.918-1.917 0-1.341-.32-1.661-2.11-1.789-2.045-.191-2.11-.319-1.918-2.555.192-2.045.448-2.428 2.11-2.684 1.534-.256 1.918-.639 1.918-1.917 0-.958-.384-1.661-.96-1.661-.51-.064-1.47-.128-2.045-.192-.83-.064-1.15-.575-1.15-1.853 0-2.3.639-3.13 2.556-3.386 1.215-.192 1.599-.639 1.599-1.853 0-1.278-.384-1.661-1.918-1.917-1.726-.319-1.918-.575-1.918-2.555 0-1.981.192-2.237 1.918-2.556 1.534-.256 1.918-.639 1.918-1.917s-.384-1.661-1.79-1.789c-1.662-.192-1.79-.383-1.407-1.917 1.023-4.281 5.69-7.795 10.164-7.795 2.813 0 4.156-1.853 2.557-3.45-1.214-1.214-2.812-1.214-6.84 0Zm-6.2 33.097c0 .128-.512.639-1.087 1.086-1.023.831-1.087.767-.256-.256.831-1.022 1.343-1.341 1.343-.83Zm72.938-32.905c-.383.639-.511 1.853-.319 2.683.319 1.342.383 3.259.127 6.326-.191 2.747.128 3.258 1.918 3.067 1.726-.192 1.726-.256 1.918-5.304.064-2.811 0-5.75-.192-6.581-.447-1.725-2.557-1.916-3.452-.191Zm433.028 7.411c-3.58 3.578-1.151 9.904 3.835 9.904 3.069 0 6.073-2.875 6.073-5.75 0-4.856-6.52-7.604-9.908-4.154Zm86.107 1.981c-7.224 1.917-13.424 7.092-16.813 14.057-3.835 7.667-3.196 18.018 1.407 25.301 11.954 18.721 40.081 15.335 47.176-5.75 2.494-7.412 1.407-16.229-2.812-22.618-1.726-2.556-3.9-3.259-4.603-1.406-.192.575.128 1.789.703 2.748 1.662 2.491 3.388 6.517 3.836 8.817.319 1.789.128 2.108-.831 2.108-2.11 0-3.26.703-3.26 1.981s.767 1.789 3.004 2.109c1.598.255 1.215 2.939-1.151 7.858-2.876 6.006-9.077 10.862-15.469 12.012-2.238.448-2.366.384-2.366-1.15 0-.83-.383-1.917-.895-2.3-1.406-1.15-2.94-.128-2.94 1.981 0 1.853-.064 1.917-2.365 1.469-7.543-1.341-14.703-7.667-16.813-14.823-.447-1.469-1.022-2.556-1.342-2.428-.256.192-.32-.192-.128-.894.192-.703 1.087-1.342 2.174-1.598 3.388-.639 2.94-4.217-.512-4.217-1.406 0-1.534-.191-1.15-2.108 1.47-6.773 6.264-12.779 12.529-15.782 5.306-2.492 7.479-2.556 7.735-.191.128 1.405.511 1.789 1.79 1.789 1.278 0 1.662-.384 1.79-1.789.255-2.301 2.237-2.301 7.223-.064 4.091 1.853 5.881 1.661 5.562-.512-.384-2.491-8.694-5.622-14.895-5.558-1.726 0-4.73.447-6.584.958Zm-219.071 7.923c-6.52 1.022-11.826 3.833-16.429 8.753-12.785 13.737-8.694 35.717 8.31 44.087 4.22 2.108 5.434 2.428 10.676 2.619 6.904.32 10.995-.639 16.429-3.897l3.579-2.173 5.818 5.815c5.241 5.303 5.817 6.07 5.817 8.242 0 2.3.767 3.195 15.406 18.018 11.059 11.181 15.981 15.718 17.323 15.973 2.685.639 5.37-.703 6.585-3.258.895-1.853.895-2.364.064-4.217-.512-1.15-7.671-8.818-15.918-17.06-14.511-14.44-15.086-14.951-17.771-15.142-2.557-.192-3.26-.639-8.502-5.943-5.561-5.686-5.625-5.814-4.602-7.22 1.598-2.236 4.155-7.922 4.858-10.925 1.342-5.815.319-13.354-2.621-19.104-1.598-3.195-6.457-8.498-9.525-10.415-5.497-3.45-13.296-5.112-19.497-4.153Zm13.872 6.517c4.794 2.236 9.077 6.581 11.506 11.82 1.726 3.642 1.982 4.856 1.918 9.52 0 4.601-.256 5.942-1.918 9.457-2.429 5.111-6.392 9.2-11.378 11.628-3.325 1.598-4.475 1.789-9.845 1.853-5.434 0-6.456-.192-9.908-1.853-14.256-7.028-17.899-24.663-7.543-36.802 6.264-7.284 18.154-9.712 27.168-5.623Z"/><path d="M464.578 463.802c-6.392 2.236-10.228 6.709-7.159 8.37 1.15.575 1.726.447 3.388-.83 3.132-2.365 5.625-3.451 8.821-3.962 3.836-.575 7.352.447 11.507 3.259 2.557 1.789 3.58 2.172 4.347 1.725 1.917-1.214 1.214-3.514-1.726-5.751-5.178-3.961-12.721-5.047-19.178-2.811Zm-358.363-6.581c-1.023 2.62.256 2.811 17.132 2.684l16.045-.192v-3.195l-16.365-.191c-14.703-.128-16.429-.064-16.812.894Zm576.028 4.536c-1.151 1.087 0 2.876 5.178 8.051l5.625 5.623 2.557-1.853c4.794-3.578 7.991-6.901 7.543-8.051-.703-1.789-3.068-1.15-6.456 1.853l-3.26 2.875-4.347-4.472c-3.964-4.089-5.754-5.176-6.84-4.026Zm-576.028 5.048c-.959 2.492.511 2.875 12.018 2.684l10.931-.192v-3.195l-11.251-.191c-10.036-.128-11.315-.064-11.698.894Zm544.449 9.009c-.256.639-.448 2.3-.448 3.77l.064 2.683-3.707.32c-6.137.511-11.379 4.472-13.233 9.967-.959 2.684-1.023 38.336-.128 41.595.895 3.322 4.283 6.964 7.927 8.689l3.26 1.534h26.913c25.25 0 27.104-.064 29.725-1.214 3.132-1.406 6.264-4.409 7.862-7.54 1.535-3.003 2.238-36.93.831-38.783-.575-.767-1.278-1.086-1.981-.831-.895.384-1.023 2.237-1.023 17.699 0 18.529-.256 20.19-3.388 23.513-3.132 3.386-2.877 3.386-32.282 3.322H643.76l-2.557-1.789c-5.05-3.514-5.114-3.77-5.114-24.727 0-16.804.128-18.848 1.214-21.212 1.662-3.706 5.242-6.07 9.781-6.454l3.58-.319-.32 2.939c-.447 3.642.703 5.623 2.493 4.536.831-.511 1.215-1.661 1.343-4.025l.191-3.258h5.05v3.45c0 3.706.512 4.536 2.557 3.897 1.087-.319 1.279-.958 1.279-3.833 0-3.387 0-3.451 2.109-3.642 1.726-.128 2.046-.447 2.046-1.789 0-1.342-.32-1.661-2.046-1.789-2.109-.192-2.109-.256-2.109-3.642 0-3.514-.831-4.537-2.877-3.77-.703.32-.959 1.342-.959 3.834v3.45h-5.114v-3.067c0-3.067-.767-4.6-2.365-4.6-.511 0-1.086.511-1.278 1.086Zm-544.577.511c-.256.511-.064 1.406.383 1.917.64.767 3.069.958 13.68.958 7.032 0 13.233-.255 13.68-.575.512-.319.767-1.086.64-1.725-.192-1.15-1.087-1.214-14.128-1.405-12.018-.128-13.935 0-14.255.83Zm.895 8.69c-.639.319-1.151 1.022-1.151 1.533 0 1.853 2.493 2.3 12.53 2.109 8.566-.192 10.1-.32 10.675-1.278.511-.767.448-1.342-.128-2.045-.703-.83-2.493-1.022-10.867-1.022-5.562 0-10.484.319-11.059.703Zm113.85 3.706c-3.771 3.769-1.406 9.584 3.9 9.647 5.369 0 7.862-6.453 3.771-9.839-2.621-2.236-5.306-2.173-7.671.192Z"/><path d="M647.659 505.716c-.192.511-.192 1.406 0 1.917.32.831 3.388.958 23.844.831l23.397-.192v-3.195l-23.397-.191c-20.456-.128-23.524 0-23.844.83Zm.384 8.115c-1.215 1.214-.895 2.428.703 2.939.767.255 10.356.319 21.223.128l19.817-.32v-3.195l-20.456-.191c-15.406-.128-20.712.064-21.287.639Zm-277.562 2.236c-5.882 2.3-4.667 11.054 1.534 11.054 3.132 0 4.155-.512 5.242-2.684 1.214-2.3.767-5.623-.895-7.156-1.279-1.15-4.411-1.789-5.881-1.214Zm277.05 6.9c-.255.511-.064 1.406.384 1.917.703.831 4.155.959 23.333.959 19.177 0 22.629-.128 23.332-.959.448-.511.639-1.406.384-1.917-.32-.83-3.452-.958-23.716-.958-20.265 0-23.397.128-23.717.958ZM296.647 549.1c-1.534 1.086-.831 2.939 1.151 2.939 1.918 0 3.196-1.406 2.621-2.811-.448-1.278-2.174-1.342-3.772-.128Zm6.968.064c-.639 1.661.256 2.875 2.237 2.875 2.174 0 3.005-1.47 1.599-2.875-1.279-1.214-3.389-1.214-3.836 0Zm6.776 3.194c-.639.767-.639 1.15.064 2.045 1.918 2.428 2.813 2.62 3.772.831.511-.959.383-1.47-.767-2.556-1.662-1.534-2.046-1.598-3.069-.32Zm-175.602.767c-2.173 6.453-5.625 10.351-10.739 12.268-2.557.958-3.196 1.469-3.196 2.683 0 1.086.575 1.597 2.684 2.3 3.964 1.342 7.991 5.24 10.037 9.712.958 2.172 2.109 3.898 2.621 3.898.511 0 1.789-1.853 2.876-4.09 2.238-4.664 5.945-8.306 9.781-9.456 2.685-.83 4.091-2.556 2.812-3.578-.383-.319-1.79-.958-3.068-1.342-3.772-1.214-7.607-4.983-9.653-9.456-1.79-4.025-3.388-5.111-4.155-2.939Zm155.53-.064c-1.279 1.214-1.279 1.789-.128 2.748 1.406 1.15 3.58-.192 3.58-2.173 0-1.853-1.854-2.172-3.452-.575Zm-3.197 5.751c-1.47 1.469-1.086 3.705.704 3.961 1.853.256 2.748-2.684 1.342-4.153-.831-.831-1.087-.767-2.046.192Zm27.36-.064c-.703 1.725.32 4.153 1.726 4.153 1.598 0 2.238-1.597 1.343-3.578-.831-1.725-2.557-2.045-3.069-.575Zm99.659 6.964c-7.351 2.364-14.319 9.073-16.62 15.846-1.854 5.367-2.302 9.648-1.471 13.928 3.964 21.085 30.557 29.136 44.812 13.546 6.009-6.581 8.438-14.121 7.096-22.107-1.023-6.134-4.667-13.162-6.84-13.162-2.11 0-2.046 2.044.127 6.325 1.151 2.3 2.302 5.303 2.557 6.581.32 2.173.256 2.364-1.47 2.556-1.47.128-1.854.511-1.854 1.789s.384 1.661 1.79 1.789c2.11.256 2.238 1.342.384 6.134-2.429 6.517-8.95 12.139-15.854 13.737-2.493.511-2.621.511-2.621-.895 0-.766-.447-1.789-1.022-2.3-1.343-1.086-3.133 0-3.133 2.045 0 1.342-.319 1.533-1.917 1.342-1.087-.128-3.58-.959-5.562-1.853-6.137-2.748-11.123-9.073-12.337-15.718-.448-2.236-.384-2.364 1.214-2.364 1.662 0 3.005-1.598 2.493-3.067-.192-.383-1.15-.767-2.237-.767-1.918 0-1.918-.064-1.47-2.428 1.534-8.434 8.757-15.781 17.451-17.698 1.854-.384 2.046-.256 2.046 1.15 0 1.853 1.47 3.322 2.876 2.747.576-.191 1.151-1.214 1.407-2.3.319-1.853.511-1.917 2.365-1.533 1.087.191 3.516 1.15 5.37 1.98 3.132 1.47 3.516 1.534 4.41.639 1.535-1.533.512-2.939-3.451-4.792-3.069-1.342-4.795-1.725-9.781-1.853-3.899-.127-7.032.128-8.758.703Zm-127.85.767c-.191.511 0 1.725.384 2.556.895 1.98 2.877 1.789 3.132-.256.384-2.62-2.621-4.6-3.516-2.3Zm28.191.575c-.511 2.045.064 3.514 1.343 3.514 1.214 0 2.557-2.747 2.045-4.089-.639-1.661-2.94-1.214-3.388.575Zm-303.771.958c-6.137 1.278-14.064 7.22-17.196 12.907-1.918 3.386-3.004 6.9-3.708 11.756l-.383 2.684-4.091.255c-5.37.32-8.758 2.556-10.932 7.092-3.196 6.965-.958 13.61 5.818 17.252 2.557 1.405 2.94 1.405 38.035 1.405h35.478l3.197-1.725c6.52-3.45 9.844-8.817 9.908-15.845 0-11.501-10.612-19.68-22.054-16.996-1.854.383-1.982.256-3.069-2.62-2.365-6.517-8.182-12.267-15.15-14.951-3.963-1.533-11.634-2.108-15.853-1.214Zm9.78 3.898c9.717 1.789 16.43 8.242 18.922 18.146.576 2.364.96 2.875 1.79 2.491 6.712-2.875 11.379-2.811 15.598.128 3.004 2.109 6.2 7.603 6.2 10.734 0 5.367-3.004 10.095-7.926 12.459-2.621 1.278-3.644 1.342-37.077 1.342-37.524 0-36.565.064-39.314-3.77-.958-1.277-1.342-2.811-1.342-5.111 0-2.683.32-3.578 1.982-5.495 1.086-1.214 3.068-2.556 4.41-2.939 2.366-.703 4.347-.383 9.653 1.661.767.256.895-.766.895-6.197 0-5.751.192-7.029 1.662-10.159 3.196-6.837 8.566-11.246 15.726-12.971 4.73-1.15 4.41-1.15 8.821-.319Zm290.667 1.214c-1.15 1.086-1.278 1.597-.767 2.556.767 1.469.959 1.533 2.493.638 1.598-.83 2.174-2.491 1.279-3.578-.959-1.214-1.343-1.15-3.005.384Zm-21.479-.064c-1.15 1.789 2.174 4.536 3.836 3.195 1.151-.959 1.151-1.534-.128-2.748-1.087-1.15-3.196-1.342-3.708-.447Zm6.393 4.217c-.448 1.278 1.406 3.003 3.068 2.747 1.534-.192 2.174-2.364.895-3.131-1.342-.894-3.516-.639-3.963.384Zm7.927 0c-1.023 1.214-.384 2.875 1.15 2.875 1.79 0 3.58-1.597 3.133-2.811-.512-1.278-3.197-1.342-4.283-.064Z"/><path d="M410.498 580.599c-.32.767 1.086 2.62 5.177 6.709 3.069 3.067 5.882 5.623 6.265 5.623.384 0 2.813-1.725 5.306-3.834 4.539-3.834 5.625-5.878 3.58-6.645-1.215-.447-1.598-.255-5.562 3.003l-3.068 2.556-4.283-4.217c-4.347-4.345-6.648-5.303-7.415-3.195Zm193.5 2.237c-.255.447-1.214 2.428-2.173 4.408-1.918 3.962-5.434 7.284-9.077 8.37-4.603 1.406-4.795 3.578-.448 4.92 4.667 1.406 9.269 6.517 11.123 12.332.192.638.959 1.15 1.662 1.15s1.47-.512 1.662-1.15c2.174-6.901 6.073-10.735 13.233-13.099 1.278-.447 1.406-1.916.319-2.811-.447-.383-1.981-1.022-3.388-1.469-3.132-1.023-8.246-6.198-9.269-9.393-.895-2.619-1.79-4.025-2.621-4.025-.255 0-.703.383-1.023.767Zm-224.824 11.053c-.191.575-.383 2.364-.383 3.898v2.811h-3.005c-5.497.064-10.164 3.067-13.168 8.626-1.343 2.428-1.406 3.45-1.598 20.701-.192 21.34.128 23.321 4.666 27.858 4.667 4.728 5.562 4.856 35.798 4.664 25.506-.192 26.273-.256 28.83-1.598 3.516-1.852 7.096-5.942 7.927-9.072.384-1.598.575-9.009.512-19.999-.192-17.379-.192-17.443-1.599-17.635l-1.406-.191-.192 18.082c-.192 15.398-.319 18.337-1.278 19.998-1.534 2.812-4.475 5.367-6.968 6.07-1.279.383-12.913.639-27.744.639-36.629-.064-34.775 1.406-34.839-27.155 0-9.52.256-18.273.64-19.423.703-2.428 3.26-5.495 5.753-6.773.895-.447 3.004-1.022 4.666-1.278l3.005-.447v3.578c0 2.811.256 3.642 1.214 4.153 1.726.958 2.494-.256 2.749-4.089.192-3.195.192-3.195 2.621-3.387l2.365-.191.064 2.556c.064 1.469.192 2.875.256 3.258.064.32.192.895.256 1.214.128 1.086 1.981 1.278 2.94.32.576-.639.959-2.173.959-4.09 0-3.067.064-3.13 2.11-3.322 1.534-.128 2.045-.511 2.045-1.47 0-.958-.511-1.341-2.045-1.469-2.046-.192-2.11-.32-2.11-3.003 0-3.578-.511-4.792-1.982-4.792-1.534 0-2.493 1.917-2.493 5.111v2.62l-2.365-.192-2.429-.191-.32-3.515c-.255-3.003-.511-3.514-1.662-3.705-.831-.128-1.534.255-1.79.83Zm327.999 3.003c-1.47 1.086-.767 3.067 1.087 3.067 1.982 0 3.069-.958 2.813-2.3-.256-1.47-2.365-1.853-3.9-.767Zm6.84.192c-.575 1.342.895 2.875 2.749 2.875 1.79 0 2.557-1.533 1.47-2.875-1.022-1.214-3.771-1.214-4.219 0Zm-12.593 3.194c-1.278.895-1.278 3.578-.064 3.962.384.128 1.407-.32 2.238-1.023 1.214-1.022 1.406-1.469.831-2.364-.895-1.533-1.599-1.661-3.005-.575Zm19.433.256c-.511.894-.383 1.406.512 2.236 2.429 2.237 5.114.256 2.94-2.172-1.47-1.597-2.621-1.597-3.452-.064Zm-23.78 6.709c-1.023 2.108-.32 3.706 1.47 3.45 1.215-.128 1.471-.575 1.471-2.428 0-2.811-1.854-3.45-2.941-1.022Zm27.999-1.087c-.767.767-.447 3.195.512 4.026 1.342 1.086 2.876.319 2.876-1.47 0-2.236-2.109-3.833-3.388-2.556Zm-27.871 7.796c-1.087.703-.447 3.769.959 4.344 1.662.639 2.941-1.214 2.237-3.194-.703-1.789-1.662-2.109-3.196-1.15Zm27.68 1.022c-.256.894-.064 2.044.383 2.556 1.215 1.469 3.196.064 3.196-2.237 0-1.597-.255-1.916-1.598-1.916-1.15 0-1.662.447-1.981 1.597Zm-519.582 3.578c-5.178.767-10.037 3.131-14.128 7.028-6.201 5.814-8.63 11.501-8.63 20.127 0 6.708 1.407 10.734 6.329 18.145 4.155 6.262 4.922 8.306 5.561 14.504.384 3.386.256 4.153-.895 5.559-1.15 1.469-1.278 2.428-1.086 8.242.064 3.578.191 6.709.255 6.964 0 .256 1.79 1.342 3.964 2.428 2.173 1.023 4.794 2.62 5.817 3.515 1.662 1.405 2.493 1.597 7.223 1.597 4.667 0 5.562-.192 7.16-1.534.959-.83 3.58-2.428 5.817-3.514 2.174-1.086 4.027-2.236 4.027-2.492.064-.255.192-3.386.256-6.964.192-5.814.064-6.773-1.087-8.242-1.15-1.406-1.278-2.236-.958-5.559.511-5.495 1.789-8.753 6.136-15.398 2.046-3.195 4.028-6.837 4.475-8.051 3.388-9.584 1.215-20.254-5.497-27.474-6.713-7.284-14.959-10.223-24.739-8.881Zm11.442 4.728c9.525 2.875 16.301 12.076 16.301 22.235 0 5.239-1.406 9.264-5.114 14.823-4.411 6.517-5.625 9.329-6.52 14.312l-.767 4.537h-4.859v-4.409c0-10.223 2.493-20.574 6.201-26.068 2.685-3.898 2.237-5.24-1.598-5.24-1.343 0-3.196-.064-4.283-.064-15.534-.191-19.497.064-20.392 1.406-.512.831-.384 1.406.703 2.556 3.708 4.025 6.456 13.609 7.032 24.599l.383 7.22h-5.114l-.383-3.067c-.703-5.176-1.598-7.348-5.881-14.248-5.114-8.115-6.329-11.948-5.945-18.082 1.022-14.887 15.789-24.855 30.236-20.51Zm-9.908 25.302c.895-.064 2.173-.192 2.876-.192.704 0 1.982.128 2.877.192.895.128 2.237 0 3.004-.32l1.407-.447-1.279 2.875c-1.854 4.281-3.579 11.629-4.091 17.507-.447 4.856-.575 5.239-1.918 5.239-1.278 0-1.47-.383-1.853-4.983-.512-6.134-2.494-14.696-4.283-18.082l-1.279-2.62 1.47.511c.831.256 2.174.448 3.069.32Zm4.474 29.966c0 .319-.703.639-1.598.639-.895 0-1.598-.32-1.598-.639 0-.384.703-.639 1.598-.639.895 0 1.598.255 1.598.639Zm9.589 5.686c0 .703.639 1.725 1.407 2.237 1.981 1.405 1.278 1.341-10.996-1.151l-10.547-2.172 10.1-.064c9.525-.064 10.036 0 10.036 1.15Zm-9.652 5.24c6.52 1.15 11.506 2.172 11.123 2.3-.832.319-25.89-4.153-26.338-4.664-.191-.256.512-.256 1.535-.064 1.086.191 7.223 1.277 13.68 2.428Zm-7.863 3.578c-.384.447-6.776-.575-6.776-1.087 0-.191 1.598-.127 3.516.192 1.917.383 3.388.767 3.26.895Zm7.287 1.15c2.302.447 3.452.83 2.557.894-.895 0-3.324-.383-5.433-.83-4.987-1.151-2.557-1.214 2.876-.064Zm11.826 2.3c1.535.639-3.771-.064-6.073-.767-.958-.319-.383-.383 1.599-.128 1.79.192 3.771.575 4.474.895Zm-18.538 1.214c3.9.703 8.246 1.469 9.781 1.725 2.621.383 2.684.447 1.662 1.533-1.407 1.534-9.461 1.725-11.123.256-.576-.511-2.749-1.789-4.795-2.875-4.538-2.237-4.538-2.237 4.475-.639Zm497.208-77.503c-1.214.447-1.022 2.364.384 3.642 1.47 1.342 3.388.703 3.132-1.086-.191-1.47-2.365-3.003-3.516-2.556Zm20.712.703c-1.598 1.725-1.406 3.323.447 3.323 1.79 0 3.133-1.406 2.813-3.003-.319-1.598-1.981-1.726-3.26-.32Z"/><path d="M377.001 623.088c-1.087 1.087-.959 2.876.256 3.323 1.662.639 44.491.383 45.77-.32 1.47-.83 1.47-2.3-.064-3.067-1.79-1.022-45.003-.894-45.962.064Zm329.725 2.748c0 1.853 2.621 2.875 4.155 1.597 1.47-1.214.064-3.195-2.237-3.195-1.598 0-1.918.256-1.918 1.598Zm7.671-.639c-.639.767-.639 1.15 0 1.917 1.534 1.853 4.475.702 4.475-1.725 0-1.47-3.324-1.598-4.475-.192Zm-337.907 7.028c-.256.511-.256 1.406 0 1.917.255.767 2.045.958 10.483.958 7.16 0 10.356-.255 10.931-.83.704-.639.831-.639.448 0-.384.639 1.79.83 9.78.83 9.653 0 10.228-.064 10.612-1.278.192-.702.192-1.533 0-1.916-.256-.384-7.863-.639-21.159-.639-17.835 0-20.776.128-21.095.958Zm0 8.306c-.256.511-.256 1.406 0 1.917.319.831 3.515.958 23.652.958 20.903 0 23.268-.127 23.652-1.022 1.023-2.683.128-2.811-24.036-2.811-19.817 0-22.949.128-23.268.958Zm120.242-.511c-1.789.447-3.963 2.62-4.41 4.409-.576 2.108 1.214 5.622 3.196 6.581 2.237 1.022 3.452.894 5.817-.511 3.772-2.364 3.388-7.987-.767-9.904-1.151-.575-2.237-.958-2.365-.958-.064.064-.767.191-1.471.383Zm120.179 15.59c-18.282 1.725-34.199 16.421-37.779 34.886-1.151 6.07-1.151 10.287.064 16.548 3.196 16.74 16.94 30.477 34.2 34.183 5.305 1.15 17.323.384 22.309-1.341 13.552-4.792 23.525-14.952 28-28.433 1.406-4.345 1.662-6.262 1.662-12.779.063-6.645-.192-8.37-1.662-12.778-.959-2.812-2.749-6.965-4.092-9.265-2.94-5.048-10.164-12.331-15.022-15.207-7.799-4.6-17.771-6.708-27.68-5.814Zm-5.945 8.051c-3.004 3.642-6.776 9.52-7.415 11.501-.447 1.405-.511 1.405-2.493.447-1.151-.575-3.068-1.981-4.347-3.131-2.237-1.981-2.301-2.172-1.214-3.067.639-.575 1.789-1.342 2.493-1.725.767-.383 1.15-1.022.959-1.406-.256-.447-.128-.511.319-.255.384.255 1.151.128 1.662-.256 1.215-.958 10.612-5.111 11.698-5.111.512 0-.255 1.341-1.662 3.003Zm25.826-1.023c2.621 1.087 6.52 3.259 8.63 4.856 3.835 2.812 3.899 2.876 2.685 4.153-1.343 1.47-6.584 5.24-6.84 4.856-.128-.064-.895-1.469-1.662-3.067-1.726-3.386-4.283-7.156-7.032-10.159-1.023-1.15-1.918-2.236-1.918-2.364 0-.575 1.726-.127 6.137 1.725Zm-17.004 8.562v9.265h-1.726c-1.982 0-10.42-1.725-10.931-2.173-1.023-1.086 10.356-16.356 12.21-16.356.255 0 .447 4.153.447 9.264Zm9.589-4.984c1.534 1.726 3.196 3.834 3.835 4.792.576 1.023 1.215 1.598 1.407 1.406.191-.192.575 0 .895.447.255.512.191.639-.256.32-1.087-.639-.959-.064.511 2.3.703 1.15 1.279 2.3 1.279 2.556 0 .575-8.31 2.428-10.804 2.428h-1.981V671.2c0-10.67 0-10.734 5.114-4.984Zm-36.118 9.137c.831.959 6.648 4.984 7.799 5.367.064.064-.447 2.364-1.151 5.176-.639 2.811-1.214 6.325-1.214 7.795v2.747h-16.109l.447-2.747c.639-4.026 2.749-10.607 4.539-13.801 1.854-3.323 1.918-3.706.447-2.556-1.022.831-1.086.767-.255-.192.447-.639 1.086-.958 1.406-.83.32.191.895-.192 1.342-.959 1.023-1.597 1.279-1.597 2.749 0Zm63.989 6.326c1.534 3.322 4.091 11.948 4.091 13.928 0 .639-1.726.831-7.926.831h-7.863l-.448-4.345c-.255-2.428-.831-5.942-1.342-7.795-.511-1.917-.831-3.514-.767-3.514 1.854-.958 6.968-4.536 7.863-5.495l1.214-1.341 1.726 2.108c.959 1.15 2.493 3.642 3.452 5.623Zm-39.186 3.258h1.726v11.501h-16.812l.383-4.025c.192-2.173.704-5.303 1.151-6.837l.767-2.939 5.498 1.15c3.004.639 6.264 1.15 7.287 1.15Zm21.479.959c.383 1.597.895 4.6 1.151 6.708l.383 3.834h-16.812v-11.245l5.945-.959c9.013-1.533 8.502-1.661 9.333 1.662Zm-40.592 19.295c.191 2.428.767 5.751 1.214 7.54l.831 3.195-3.708 2.3c-2.045 1.278-4.219 2.811-4.922 3.386-1.15 1.022-1.278 1.022-2.557-.639-2.876-3.642-7.095-15.207-7.095-19.36 0-.447 2.812-.702 7.926-.702h7.863l.448 4.28Zm20.839 1.47v5.75h-2.365c-1.343 0-4.411.448-6.904.959-2.429.511-4.667.958-4.858.958-.64 0-1.918-4.983-2.302-9.264l-.383-4.153h16.812v5.75Zm20.904-1.917c-.256 2.109-.768 5.176-1.151 6.773-.639 2.492-.959 2.875-2.11 2.556-.767-.192-4.027-.703-7.223-1.15l-5.945-.767v-11.245h16.812l-.383 3.833Zm20.647-3.067c-.064 4.026-3.58 13.865-6.52 18.21l-1.854 2.747-3.004-2.172c-1.662-1.15-3.9-2.62-5.05-3.195l-1.982-1.022.831-3.322c.511-1.789 1.087-5.24 1.342-7.668l.448-4.344h7.863c5.945 0 7.926.191 7.926.766Zm-41.551 24.535c0 8.754-.064 9.329-1.087 8.498-3.516-2.747-9.205-10.159-10.931-14.184-.575-1.406-.575-1.853.064-2.045 1.534-.575 7.224-1.469 9.589-1.533l2.365-.064v9.328Zm11.89-8.689c2.046.383 4.155.83 4.603.958 1.406.511-2.877 7.667-7.671 12.715l-4.283 4.536-.064-9.456v-9.392h1.79c1.023 0 3.516.319 5.625.639Zm-26.657 7.411c1.215 2.365 3.836 6.006 5.754 8.115l3.579 3.834-2.237-.512c-3.708-.766-10.995-4.408-14.575-7.283-2.94-2.364-3.26-2.876-2.557-3.706 1.023-1.278 6.265-4.664 7.16-4.664.383 0 1.662 1.916 2.876 4.216Zm39.953-2.619c1.535.894 3.261 2.172 3.836 2.811 1.087 1.214 1.023 1.342-2.237 3.898-1.854 1.469-4.539 3.258-5.945 3.961-2.685 1.342-9.078 3.706-10.164 3.706-.32 0 .831-1.534 2.493-3.386 1.726-1.917 4.283-5.495 5.689-7.987 1.406-2.492 2.813-4.6 3.068-4.6.32 0 1.79.702 3.26 1.597Zm-660.28-49.006c-6.265 3.003-8.95 9.775-6.137 15.781 2.237 4.856 6.073 7.348 11.314 7.348 8.886 0 14.447-9.328 10.484-17.571-2.749-5.75-9.908-8.242-15.662-5.558Zm10.1 4.089c8.054 5.686 1.342 18.337-8.119 15.206-5.625-1.853-7.48-9.2-3.516-13.737 3.197-3.642 7.735-4.217 11.635-1.469Zm761.474-4.089c-4.155 1.916-7.351 6.708-7.351 10.989 0 2.364 1.534 5.942 3.324 8.051 5.05 5.75 14.127 5.367 18.857-.767 2.43-3.259 2.813-9.073.895-12.906-2.748-5.431-10.228-7.923-15.725-5.367Zm9.78 3.769c.831.511 2.046 1.789 2.685 2.939 4.411 7.156-3.58 15.846-11.187 12.204-4.602-2.172-6.264-8.242-3.452-12.779.704-1.214 1.343-2.172 1.407-2.172.064 0 1.278-.447 2.685-.959 2.748-1.022 5.561-.766 7.862.767Zm20.073-3.067c-1.854.639-4.219 1.981-5.306 3.003-5.306 5.048-5.945 13.801-1.47 19.807 1.981 2.684 7.415 5.367 10.931 5.367 2.493 0 2.749-.127 2.749-1.597 0-1.342-.32-1.597-2.046-1.597-3.132-.064-7.159-2.109-9.205-4.856-1.598-2.045-1.854-3.003-1.854-6.326 0-3.13.32-4.408 1.598-6.261 1.854-2.811 5.817-4.92 9.141-4.92 2.174 0 2.366-.128 2.366-1.917 0-1.661-.256-1.916-1.726-1.916-1.023.063-3.324.575-5.178 1.213Zm-679.459 18.593c-1.854.767-3.58 4.217-3.068 6.198 1.534 6.134 9.972 6.262 11.506.192 1.087-4.537-3.835-8.242-8.438-6.39Z"/><path d="M-22.466 695.416c-1.023.83-2.238 2.3-2.749 3.194-.575 1.151-1.215 1.534-1.982 1.342-.575-.191-1.278-.064-1.534.32-.64 1.022-6.456 3.833-7.99 3.833-1.023 0-1.279.448-1.279 1.917 0 2.492 1.406 2.492 6.584.192l3.836-1.725 1.79 2.044c2.301 2.556 3.771 7.54 3.771 12.715v4.025H-38v3.834h19.753l.192-4.984.191-4.92 12.785-.191 12.785-.128-.32-6.901c-.447-7.667-1.406-10.35-5.369-14.12l-2.237-2.172-1.918 1.661c-3.963 3.322-11.123 3.45-15.981.255l-2.557-1.725-1.79 1.534Zm4.986 4.856c3.771 1.661 9.717 1.661 14.127 0l3.388-1.278 1.151 1.342c1.534 1.916 3.132 7.731 2.877 10.606l-.192 2.428-11.187.192-11.25.127-.704-2.683c-.384-1.534-1.47-3.834-2.365-5.176-.895-1.341-1.662-2.683-1.662-2.939 0-.511 2.493-3.897 2.876-3.897.064 0 1.407.575 2.94 1.278Zm766.46-4.728c-1.022.894-2.684 3.194-3.707 5.239-1.47 3.003-1.79 4.6-1.982 9.839l-.256 6.262 12.977.128 13.041.191.192 4.92.191 4.984h23.589v-3.834h-19.817v-4.728c0-5.175 1.151-9.137 3.516-12.267l1.534-1.981 3.324 1.597a18.7 18.7 0 0 0 7.415 1.917c3.9.256 4.028.256 4.028-1.278 0-1.469-.32-1.661-4.219-2.3-2.685-.447-5.178-1.342-6.904-2.492-1.407-.958-3.069-1.789-3.644-1.789-.575 0-2.365-1.469-3.899-3.194l-2.877-3.131-2.365 1.853c-4.283 3.258-10.804 3.258-15.854 0l-2.365-1.598-1.918 1.662Zm5.114 4.728c3.836 1.725 10.292 1.725 14.32 0 1.662-.703 3.132-1.278 3.26-1.278.128 0 .831.894 1.534 2.044 1.215 1.981 1.215 2.045-.192 3.962-.767 1.086-1.854 3.386-2.493 5.175l-1.087 3.195h-22.118l-.191-3.003c-.256-3.706.703-7.476 2.493-9.712.703-.894 1.406-1.661 1.534-1.661.064 0 1.406.575 2.94 1.278Zm-448.178 7.092c-4.922.83-8.502 2.747-11.506 6.133-3.708 4.217-5.689 11.757-3.58 13.546.575.511 3.388.703 8.438.575l7.479-.192.704-2.556c1.406-4.983 6.136-4.855 6.136.192 0 1.789-.703 2.875-4.091 6.389-2.237 2.365-4.539 5.24-5.178 6.454-1.534 3.067-2.557 10.734-1.534 11.948 1.023 1.214 13.936 1.342 14.319.064.128-.384.384-1.917.639-3.323.32-1.98 1.407-3.514 5.434-7.667 2.749-2.811 5.625-6.389 6.329-7.987 2.685-5.942.895-16.995-2.621-16.484-1.662.192-1.726 1.086-.448 7.028 1.215 5.687.256 7.923-6.137 14.568-3.771 3.897-5.561 6.325-6.136 8.178l-.767 2.684h-3.452c-3.324 0-3.388 0-3.388-1.917 0-3.323 1.79-6.581 6.2-10.99 4.219-4.281 4.283-4.345 4.539-8.306.192-3.386.064-4.281-1.151-5.75-3.196-4.09-10.355-3.003-12.209 1.853-.512 1.341-.959 1.469-5.05 1.469-4.859 0-5.114-.192-3.772-3.642 1.151-3.067 5.05-6.517 8.502-7.539 4.155-1.214 10.164-1.214 14.383.064 3.964 1.15 5.37.83 5.05-1.15-.383-2.748-10.164-4.792-17.132-3.642Zm117.75 26.963c-.319.447-1.278 2.3-2.045 4.089-1.726 4.153-5.242 7.412-9.525 8.945-4.539 1.597-4.347 2.875.767 5.175 4.602 2.109 7.735 5.368 9.333 9.776 1.598 4.217 3.26 4.153 5.114-.319 1.854-4.537 5.625-8.306 9.844-9.84 4.667-1.789 4.603-2.875-.319-5.111-4.667-2.109-8.822-6.39-9.973-10.223-.831-2.684-2.173-3.77-3.196-2.492Z"/><path d="M280.282 736.946c-14.958 4.026-23.588 21.66-17.643 35.845 3.196 7.667 9.397 13.353 16.94 15.653 3.197 1.023 5.945 1.278 12.849 1.278h8.694l7.671 5.751c10.42 7.859 11.954 7.603 9.589-1.278-.512-1.917-.959-3.962-.959-4.473 0-.575 1.662-1.725 3.835-2.747 10.292-4.792 16.685-17.124 14.767-28.305-.447-2.364-1.662-6.006-2.685-8.114-2.493-4.792-7.671-10.223-9.716-9.904-2.43.32-2.046 2.3.958 4.984 1.599 1.342 3.836 4.281 5.051 6.517 2.109 3.834 2.173 4.281 2.173 10.734 0 5.878-.192 7.092-1.534 9.584-3.324 6.198-8.055 10.351-13.808 12.14-3.772 1.15-4.219 1.981-3.132 5.942.447 1.789.767 3.322.639 3.45-.128.128-2.685-1.661-5.753-3.961l-5.626-4.153h-8.757c-9.909 0-13.872-.831-18.73-3.962-6.393-4.025-9.525-9.711-9.973-18.081-.255-5.112-.064-6.198 1.279-9.521 2.301-5.431 6.073-9.52 11.187-12.012 4.155-2.044 4.602-2.108 13.296-2.3 11.059-.191 11.954-.383 11.698-2.236-.191-1.342-.383-1.406-9.78-1.533-6.073-.064-10.676.191-12.53.702Z"/><path d="M305.405 753.367c-3.132 1.597-4.603 3.898-4.603 7.412 0 6.517 7.416 10.478 13.872 7.411 6.201-2.939 6.201-11.82-.064-14.887-3.452-1.661-5.753-1.597-9.205.064Zm7.16 3.386c3.707 1.534 3.643 6.454-.192 7.987-2.365 1.022-6.137 0-7.16-1.917-1.15-2.172-.064-5.047 2.174-6.07 2.557-1.086 2.621-1.086 5.178 0Zm223.737.064c-2.046 2.173-2.237 2.237-5.498 1.853-3.004-.319-3.579-.191-5.114 1.214-1.15 1.023-1.853 2.556-2.109 4.473-.384 2.556-.703 3.003-3.005 4.025-1.342.639-2.748 1.597-3.132 2.236-.959 1.853-.639 5.24.639 7.22 1.215 1.789 1.215 1.853-.255 4.601-2.302 4.28-.959 7.539 3.707 9.264.959.384 1.79 1.15 1.79 1.725.064.639.128 1.342.256 1.725.064.32.192 1.15.192 1.789.064.639.895 1.853 1.917 2.748 1.599 1.533 2.046 1.597 5.37 1.278 3.388-.384 3.708-.32 4.667 1.15 1.278 1.98 4.283 3.194 6.456 2.683.895-.255 2.429-1.341 3.452-2.364 1.598-1.789 1.982-1.917 4.539-1.533 4.922.703 7.351-1.022 7.862-5.559.128-1.15.256-2.3.32-2.492 0-.191 1.151-.894 2.557-1.469 3.644-1.662 5.114-6.198 2.941-9.073-.512-.639-.895-1.789-.895-2.492 0-.703.383-1.853.895-2.492 1.342-1.789 1.214-5.622-.256-7.156-.639-.703-2.046-1.661-3.132-2.108-1.918-.831-2.685-2.237-2.685-5.048 0-.831-.767-2.172-1.726-3.131-1.598-1.469-2.11-1.597-5.434-1.214-3.196.32-3.771.192-4.347-.894-.831-1.598-3.899-3.195-6.137-3.195-1.15 0-2.429.767-3.835 2.236Zm7.032 3.898c1.278 1.853 4.538 2.811 6.968 1.981 2.493-.831 3.643-.192 3.643 2.044 0 3.323 1.151 5.175 3.836 6.326 1.406.575 2.685 1.469 2.876 1.98.192.511-.255 2.109-1.022 3.642-1.151 2.428-1.215 3.131-.576 5.048.384 1.214 1.023 2.364 1.343 2.556 1.406.894.511 2.811-1.662 3.514-2.941.958-4.795 3.386-4.795 6.389 0 2.747-.895 3.386-3.707 2.62-2.749-.831-5.05-.128-6.776 1.916-1.854 2.173-3.9 2.364-4.859.512-1.15-2.045-4.474-3.195-7.287-2.428-2.749.766-3.58.383-3.58-1.725 0-3.131-1.662-5.815-4.411-7.029-3.004-1.278-3.132-1.853-1.342-5.175.703-1.342 1.278-2.684 1.278-3.067s-.575-1.725-1.278-3.067c-1.79-3.386-1.598-4.089 1.534-5.431 3.324-1.469 3.58-1.853 4.155-5.75l.384-3.003 3.963.191c3.772.256 4.027.128 6.201-2.044 2.493-2.428 3.58-2.428 5.114 0Z"/><path d="M535.407 766.785c-2.301.894-6.329 5.047-7.415 7.539-1.151 2.747-1.151 8.242 0 10.99 2.045 4.856 7.479 8.242 13.168 8.242 12.466 0 18.091-15.846 8.63-24.152-1.278-1.15-3.068-2.428-3.963-2.747-1.982-.767-8.374-.703-10.42.128Zm10.292 4.6c3.58 2.428 5.242 5.367 4.858 8.945-.639 7.284-7.671 11.309-14.127 8.178-4.922-2.428-6.84-8.37-4.283-13.353 2.621-5.048 9.013-6.837 13.552-3.77Zm-291.945-12.268c-1.79.639-4.411 2.237-5.945 3.515-9.845 8.434-7.991 25.685 3.452 31.627l3.004 1.533-.447 2.875c-.704 4.665-.704 5.24.383 5.879.703.511 2.557-.32 7.735-3.514l6.84-4.154 10.42-.255c11.314-.256 14.575-1.086 14.575-3.77 0-1.853-1.343-2.044-5.178-.958-2.365.703-6.073 1.022-12.274 1.022h-8.949l-4.028 2.556c-2.237 1.405-4.219 2.556-4.474 2.556-.192 0-.192-.959 0-2.173.447-2.428-.064-3.067-3.452-4.153-5.69-1.789-10.228-8.242-10.228-14.504 0-6.389 4.602-12.587 10.995-14.695 3.196-1.022 3.835-1.853 2.94-3.642-.703-1.342-1.278-1.342-5.369.255ZM-9.553 770.299c-.512.575-.96 1.278-.96 1.725 0 .383-.575 1.917-1.342 3.45-1.598 3.259-6.073 6.901-9.588 7.859-1.982.511-2.493 1.022-2.493 2.108 0 1.151.639 1.662 3.26 2.556 1.981.703 4.346 2.3 6.009 3.962 1.662 1.661 3.26 4.025 3.963 6.006.895 2.555 1.406 3.258 2.557 3.258 1.023 0 1.47-.511 1.79-1.853 1.023-4.856 6.904-10.798 11.634-11.82 2.046-.447 2.94-1.597 2.238-2.684-.256-.383-1.854-1.15-3.58-1.789-3.964-1.533-8.374-6.069-9.845-10.095-1.214-3.386-2.173-4.153-3.643-2.683Zm125.932.894c-26.401 3.834-44.684 27.283-42.19 53.926l.447 4.856h4.73l-.255-8.178c-.192-6.134 0-9.201.767-12.268 4.027-15.781 15.342-27.474 31.387-32.394 2.876-.83 5.881-1.15 11.826-1.15 8.886.064 12.657.895 19.817 4.473 15.47 7.731 25.186 24.599 24.099 41.85-.191 3.003-.511 5.942-.767 6.517-.383.958-.064 1.15 2.11 1.15h2.621l.447-3.067c2.621-16.42-4.73-35.077-17.963-45.428-10.547-8.242-24.611-12.14-37.076-10.287Zm374.281 9.52c-3.197.639-5.69 2.173-8.439 4.984-4.091 4.217-4.346 5.75-4.346 26.132v18.146h3.771l.192-18.721c.192-18.593.192-18.784 1.726-21.021.831-1.214 2.557-2.939 3.771-3.769 2.174-1.47 2.877-1.534 14.895-1.853 12.721-.32 14.639-.703 13.808-2.748-.512-1.405-19.625-2.3-25.378-1.15Z"/><path d="M110.306 810.488v19.487h5.114v-14.376c0-7.923.192-14.376.383-14.376.895 0 22.63 18.21 22.438 18.785-.128.383-2.685 2.683-5.753 5.175l-5.562 4.473 3.58.191 3.58.192 6.009-4.856c3.324-2.747 6.009-5.111 6.009-5.367 0-.511-1.662-1.917-20.264-16.868-8.119-6.581-14.959-11.948-15.151-11.948-.191 0-.383 8.754-.383 19.488Zm552.631-18.721c-2.045 1.15-2.812 2.556-2.876 5.048 0 5.367 6.392 7.795 9.844 3.705 2.238-2.619 2.174-5.303-.192-7.667-1.981-1.981-4.474-2.364-6.776-1.086Zm-171.51 4.281c-.576.383-.767 2.492-.64 8.434l.192 7.922 3.9.192c3.068.128 4.027 0 4.283-.83.703-1.79-.256-2.876-2.494-2.876h-2.173v-8.817l2.557-.447c1.406-.256 3.388-.256 4.411 0 1.598.319 1.918.766 2.109 2.428.128 1.725.512 2.108 1.982 2.236 1.726.192 1.726.192 1.726-3.898 0-2.939-.256-4.216-.895-4.472-1.406-.575-14.063-.447-14.958.128Z"/><path d="M509.837 801.926c-1.47 1.853-3.068 3.898-3.516 4.664-.959 1.278-.959 1.278-3.068-.766-1.151-1.151-2.557-2.045-3.133-2.045-1.342 0-1.981 1.725-1.15 3.131 1.023 1.98 5.817 5.878 6.904 5.686 1.598-.319 9.141-10.734 8.949-12.331-.383-2.428-2.237-1.789-4.986 1.661Zm15.853.192c-.447.447-1.789 3.45-3.004 6.645-2.749 7.411-2.493 7.986 3.772 7.411 4.155-.383 4.41-.383 7.734 1.917 3.58 2.428 4.987 2.747 6.137 1.597.512-.511.831-.511 1.087 0 .767 1.214 2.365.767 6.009-1.597 3.388-2.3 3.58-2.3 7.799-1.917 6.264.575 6.52 0 3.707-7.411-2.429-6.39-3.643-7.859-5.305-6.198-.959.958-.895 1.406.575 5.048.895 2.236 1.662 4.217 1.662 4.344 0 .192-1.406.128-3.068-.127-2.749-.32-3.324-.192-5.69 1.533-2.94 2.172-3.004 2.108-3.707-2.747-.576-3.578-1.662-5.304-3.133-4.729-1.214.512-1.342.767-2.301 5.751l-.767 3.706-2.621-1.981c-2.365-1.725-2.941-1.853-5.689-1.533l-3.069.447 1.534-4.409c.831-2.364 1.407-4.664 1.215-5.111-.447-1.214-1.982-1.598-2.877-.639Zm-34.583 18.72c-.256.192-.447 2.364-.447 4.792v4.345h1.917c1.854 0 1.918-.128 1.918-2.875v-2.875h4.475c4.475 0 4.475 0 4.475 1.789 0 1.917 1.022 3.322 2.365 3.322 1.342 0 2.237-3.195 1.79-6.261l-.384-2.684h-7.863c-4.283 0-8.054.192-8.246.447Zm51.012 2.109c-.192.319-.575 2.044-.767 3.833l-.383 3.195h4.666v-3.067c0-3.067-.767-4.6-2.301-4.6-.448 0-1.023.255-1.215.639Zm-32.474 3.642-2.301 3.067 2.365.191c1.918.192 2.621-.064 3.772-1.597 1.981-2.428 1.981-4.664-.064-4.664-1.087 0-2.174.894-3.772 3.003Zm244.513-.128c-.767 1.597-1.406 3.067-1.406 3.195 0 .191 1.854.319 4.155.319 2.429 0 4.155-.255 4.155-.639 0-.383-.575-1.853-1.278-3.195-1.854-3.641-3.772-3.514-5.626.32Z"/><path d="M498.97 829.017c-.703.83-.448.958 1.662.958 2.301-.064 2.429-.128 1.278-.958-1.598-1.214-1.981-1.214-2.94 0Z"/></g><defs><clipPath id="a"><path d="M0 0h831.025v829.975H0z" fill="#fff" transform="translate(-38)"/></clipPath></defs></svg>