<svg width="7418" height="9890" viewBox="0 0 7418 9890" fill="none" xmlns="http://www.w3.org/2000/svg">
  <g clip-path="url(#clip0_303_578)">
    <rect width="7417.5" height="9890" fill="#C4C4C4"/>
    <path d="M-1441 6868.36C-605.645 6953.46 1774.86 6362.79 4614.06 3319.36C8163.05 -484.93 7537.03 2.56297 8859 -1923" stroke="#7D7D7D" stroke-width="1000" stroke-dasharray="10 5"/>
    <path d="M-1441 8992.36C-605.645 9077.46 1774.86 8486.79 4614.06 5443.36C8163.05 1639.07 7537.03 2126.56 8859 201" stroke="#7D7D7D" stroke-width="1000" stroke-dasharray="10 5"/>
    <path d="M-1441 11268.4C-605.645 11353.5 1774.86 10762.8 4614.06 7719.36C8163.05 3915.07 7537.03 4402.56 8859 2477" stroke="#7D7D7D" stroke-width="1000" stroke-dasharray="10 5"/>
    <path d="M-1441 13392.4C-605.645 13477.5 1774.86 12886.8 4614.06 9843.36C8163.05 6039.07 7537.03 6526.56 8859 4601" stroke="#7D7D7D" stroke-width="1000" stroke-dasharray="10 5"/>
    <path d="M-1441 15366.4C-605.645 15451.5 1774.86 14860.8 4614.06 11817.4C8163.05 8013.07 7537.03 8500.56 8859 6575" stroke="#7D7D7D" stroke-width="1000" stroke-dasharray="10 5"/>
    <path d="M-1441 2813.36C-605.645 2898.46 1774.86 2307.79 4614.06 -735.64C8163.05 -4539.93 7537.03 -4052.44 8859 -5978" stroke="#7D7D7D" stroke-width="1000" stroke-dasharray="10 5"/>
    <path d="M-1441 1013.36C-605.645 1098.46 1774.86 507.792 4614.06 -2535.64C8163.05 -6339.93 7537.03 -5852.44 8859 -7778" stroke="#7D7D7D" stroke-width="1000" stroke-dasharray="10 5"/>
    <path d="M-1441 4937.36C-605.645 5022.46 1774.86 4431.79 4614.06 1388.36C8163.05 -2415.93 7537.03 -1928.44 8859 -3854" stroke="#7D7D7D" stroke-width="1000" stroke-dasharray="10 5"/>
    <path d="M7904.71 -1725.18C7075.3 -1594.24 4924.41 -415.521 2956.09 3251.8C495.688 7835.95 976.541 7204.81 189.858 9404.02" stroke="#222222" stroke-width="1000" stroke-dasharray="30 30"/>
    <path d="M7362.56 -3778.82C6533.16 -3647.88 4382.27 -2469.16 2413.95 1198.16C-46.455 5782.3 434.399 5151.17 -352.284 7350.38" stroke="#222222" stroke-width="1000" stroke-dasharray="30 30"/>
    <path d="M6781.62 -5979.43C5952.21 -5848.49 3801.32 -4669.77 1833 -1002.45C-627.4 3581.69 -146.547 2950.56 -933.23 5149.77" stroke="#222222" stroke-width="1000" stroke-dasharray="30 30"/>
    <path d="M6239.47 -8033.08C5410.07 -7902.14 3259.18 -6723.42 1290.86 -3056.1C-1169.54 1528.05 -688.691 896.911 -1475.37 3096.12" stroke="#222222" stroke-width="1000" stroke-dasharray="30 30"/>
    <path d="M5735.61 -9941.69C4906.21 -9810.75 2755.32 -8632.03 786.996 -4964.71C-1673.41 -380.563 -1192.55 -1011.7 -1979.23 1187.51" stroke="#222222" stroke-width="1000" stroke-dasharray="30 30"/>
    <path d="M8939.74 2195.5C8110.33 2326.44 5959.44 3505.16 3991.12 7172.48C1530.72 11756.6 2011.57 11125.5 1224.89 13324.7" stroke="#222222" stroke-width="1000" stroke-dasharray="30 30"/>
    <path d="M9399.18 3935.88C8569.78 4066.82 6418.89 5245.54 4450.57 8912.86C1990.17 13497 2471.02 12865.9 1684.34 15065.1" stroke="#222222" stroke-width="1000" stroke-dasharray="30 30"/>
    <path d="M8397.59 141.856C7568.18 272.801 5417.29 1451.52 3448.97 5118.84C988.57 9702.98 1469.42 9071.85 682.741 11271.1" stroke="#222222" stroke-width="1000" stroke-dasharray="30 30"/>
    <path d="M-1549.6 8102.64C-710.848 8063.29 1556.17 7127.16 3914.18 3697.4C6861.7 -589.808 6314.64 -15.1149 7337.38 -2114.97" stroke="#FCFF61" stroke-width="1000" stroke-dasharray="50 500"/>
    <path d="M-1235.57 10203.3C-396.815 10163.9 1870.2 9227.81 4228.22 5798.05C7175.74 1510.85 6628.67 2085.54 7651.41 -14.3165" stroke="#FCFF61" stroke-width="1000" stroke-dasharray="50 500"/>
    <path d="M-899.059 12454.3C-60.3031 12414.9 2206.71 11478.8 4564.73 8049.03C7512.25 3761.83 6965.18 4336.52 7987.92 2236.67" stroke="#FCFF61" stroke-width="1000" stroke-dasharray="50 500"/>
    <path d="M-585.024 14554.9C253.732 14515.6 2520.75 13579.5 4878.76 10149.7C7826.28 5862.49 7279.22 6437.19 8301.96 4337.33" stroke="#FCFF61" stroke-width="1000" stroke-dasharray="50 500"/>
    <path d="M-293.163 16507.2C545.593 16467.9 2812.61 15531.8 5170.62 12102C8118.14 7814.79 7571.08 8389.49 8593.82 6289.63" stroke="#FCFF61" stroke-width="1000" stroke-dasharray="50 500"/>
    <path d="M-2149.14 4092.21C-1310.39 4052.86 956.627 3116.72 3314.64 -313.038C6262.16 -4600.24 5715.1 -4025.55 6737.84 -6125.4" stroke="#FCFF61" stroke-width="1000" stroke-dasharray="50 500"/>
    <path d="M-2415.28 2311.98C-1576.52 2272.64 690.494 1336.5 3048.51 -2093.26C5996.03 -6380.46 5448.97 -5805.77 6471.71 -7905.63" stroke="#FCFF61" stroke-width="1000" stroke-dasharray="50 500"/>
    <path d="M-1835.11 6192.86C-996.349 6153.51 1270.67 5217.38 3628.68 1787.62C6576.2 -2499.59 6029.14 -1924.89 7051.88 -4024.75" stroke="#FCFF61" stroke-width="1000" stroke-dasharray="50 500"/>
  </g>
  <defs>
    <clipPath id="clip0_303_578">
      <rect width="7417.5" height="9890" fill="white"/>
    </clipPath>
  </defs>
</svg>
