<?xml version="1.0" encoding="utf-8"?>
<!-- Generator: Adobe Illustrator 24.1.2, SVG Export Plug-In . SVG Version: 6.00 Build 0)  -->
<svg version="1.1" id="Layer_1" xmlns="http://www.w3.org/2000/svg" xmlns:xlink="http://www.w3.org/1999/xlink" x="0px" y="0px"
	 viewBox="0 0 512 512" style="enable-background:new 0 0 512 512;" xml:space="preserve">
<style type="text/css">
	.st0{fill:#FFFFFF;}
</style>
<g transform="translate(0.000000,512.000000) scale(0.100000,-0.100000)">
	<path class="st0" d="M2460,5113c-54-9-158-46-210-76c-84-47-189-158-235-248l-39-77l-116-5c-166-7-277-52-399-162
		c-49-45-122-152-146-217c-17-45-19-47-72-58c-203-42-394-230-449-441c-22-82-22-225-1-306l16-62l-82-83c-95-96-148-189-173-309
		c-17-79-14-212,6-281l11-38h1984h1984l11,38c21,71,24,203,6,286c-28,122-76,208-173,304l-83,83l17,57c23,78,23,237-1,317
		c-63,213-246,390-449,436c-52,11-55,14-68,53c-22,65-100,177-165,234c-110,99-252,152-409,152l-90,1l-35,72
		c-50,104-168,221-272,271C2713,5109,2572,5132,2460,5113z M3189,3875c224-53,397-264,402-492c2-72-19-115-71-150
		c-88-60-211,3-225,115c-12,93-26,126-74,172c-48,47-102,70-163,70c-73,0-143,73-143,150c0,55,21,91,75,128
		C3030,3895,3094,3897,3189,3875z M1684,3706c45-19,78-68,84-127c6-63-22-109-84-139c-168-82-300,164-138,257
		C1591,3723,1636,3726,1684,3706z M2060,3248c80-42,108-153,54-218c-85-100-232-70-265,53c-19,72,11,132,86,171
		C1976,3276,2008,3274,2060,3248z"/>
	<path class="st0" d="M680,2438c0-7,97-538,214-1179C1044,440,1113,85,1125,66c10-15,35-36,56-47c36-18,61-19,363-19h324l-5,78
		c-3,42-37,592-77,1222l-71,1145l-517,3C787,2450,680,2448,680,2438z"/>
	<path class="st0" d="M2020,2429c0-32,138-2273,146-2357l6-72h383h384l5,53c7,59,146,2327,146,2370v27h-535h-535V2429z"/>
	<path class="st0" d="M3396,2438c-2-7-36-544-75-1193S3248,50,3245,32l-4-33l337,3c330,3,338,3,368,25c17,13,38,37,47,55
		c12,27,437,2315,437,2356C4430,2456,3401,2456,3396,2438z"/>
</g>
</svg>
