<?xml version="1.0" encoding="utf-8"?>
<!-- Generator: Adobe Illustrator 24.1.2, SVG Export Plug-In . SVG Version: 6.00 Build 0)  -->
<svg version="1.1" id="Layer_1" xmlns="http://www.w3.org/2000/svg" xmlns:xlink="http://www.w3.org/1999/xlink" x="0px" y="0px"
	 viewBox="0 0 3000 3021" style="enable-background:new 0 0 3000 3021;" xml:space="preserve">
<style type="text/css">
	.st0{fill:#C4C4C4;}
</style>
<g transform="translate(0.000000,3021.000000) scale(0.100000,-0.100000)">
	<path class="st0" d="M29815,28091c-405-162-937-447-1345-721c-1308-879-2603-2275-4025-4340c-526-763-1048-1589-1925-3045
		c-575-955-1079-1776-1662-2705c-184-294-487-780-673-1080c-1731-2790-2477-3877-3526-5135c-356-427-947-1053-1444-1528
		c-288-276-403-378-640-568c-1155-927-2207-1491-3325-1783c-475-124-972-208-2060-346c-1397-178-1882-270-2482-471
		c-260-88-542-205-813-339c-700-345-1176-701-1653-1235c-666-746-1319-1836-1849-3085c-192-451-373-947-527-1440L1783,5l60-3
		c33-2,64,1,68,5s53,141,108,303c177,526,272,789,409,1130c410,1025,916,1960,1456,2694c229,310,487,618,691,821
		c545,544,1273,977,2125,1266c639,217,1174,320,2570,494c1485,185,2129,325,2880,627c1893,762,3671,2307,5522,4798
		c694,934,1378,1977,2696,4105c157,253,436,701,620,995c584,932,787,1262,1432,2330c1061,1756,1708,2779,2263,3572
		c1650,2357,3164,3845,4682,4597c207,103,544,253,599,267c22,5,25,2,29-28c2-18,5,15,5,75c1,59-1,107-5,107
		C29988,28160,29909,28129,29815,28091z"/>
	<path class="st0" d="M29830,26777c-481-194-1028-502-1535-865c-580-416-1340-1139-1980-1883c-603-703-1202-1511-1900-2564
		c-481-727-766-1182-1562-2500c-538-891-1002-1646-1268-2065c-173-273-607-967-1010-1615c-550-884-975-1550-1318-2065
		c-816-1223-1514-2137-2275-2980c-232-257-861-885-1087-1086c-1166-1034-2255-1666-3447-1998c-490-137-891-205-2086-356
		c-1022-129-1425-197-1919-325c-801-208-1612-617-2186-1103c-400-338-762-757-1139-1317C4413,3009,3856,1780,3410,288l-83-277
		l-136-4c-108-2-94-3,70-5l206-2l53,188c63,222,234,741,355,1077c486,1347,1175,2598,1895,3439c131,154,373,400,505,513
		c657,567,1537,986,2540,1208c399,88,669,130,1505,235c1032,130,1432,192,1870,291c879,198,1713,570,2565,1143
		c621,418,1156,866,1790,1501c627,626,1140,1222,1756,2040c697,925,1259,1773,2566,3870c264,424,569,912,678,1085
		c623,991,757,1209,1320,2140c1000,1654,1578,2568,2113,3340c555,800,1175,1586,1769,2242c211,234,720,740,926,923
		c708,627,1391,1071,2129,1386c187,79,186,79,191,37c2-18,5,15,5,75c1,59-1,107-5,107C29988,26839,29915,26811,29830,26777z"/>
	<path class="st0" d="M29765,25426c-382-161-704-334-1060-571c-853-567-1684-1368-2580-2485c-805-1005-1528-2094-2975-4485
		c-402-664-670-1102-813-1330c-66-104-454-723-862-1375c-970-1550-1150-1833-1441-2273c-990-1494-1829-2560-2719-3453
		c-393-394-631-610-1007-910c-805-645-1744-1175-2526-1427c-515-167-996-255-2258-417c-1337-170-1785-265-2424-514
		c-679-265-1184-591-1676-1081c-293-293-540-598-814-1005C5933,3091,5297,1630,4930,235c-33-126-60-231-60-232c0-2,60-2,133-1
		c72,1,106,3,74,5c-34,3-57,9-57,15c0,25,93,367,175,643c428,1443,1045,2735,1767,3701c548,733,1048,1155,1803,1524
		c465,227,874,359,1485,479c362,71,666,117,1325,201c1304,166,1780,258,2366,459c836,287,1765,838,2643,1570
		c910,758,1847,1803,2767,3086c571,795,1013,1473,2204,3375c381,608,780,1245,887,1415c223,355,454,734,893,1460
		c819,1356,1229,2012,1650,2640c1488,2218,2819,3624,4160,4395c180,103,499,262,680,338c169,71,163,70,168,30c2-18,5,15,5,75
		c1,59-1,107-5,107C29988,25519,29886,25477,29765,25426z"/>
	<path class="st0" d="M29870,24150c-166-67-464-216-702-352c-1220-694-2447-1966-3786-3925c-440-643-901-1373-1717-2718
		c-311-512-673-1098-953-1540c-157-247-484-767-727-1155c-1207-1926-1610-2532-2273-3418c-1133-1516-2205-2567-3345-3283
		c-504-316-930-524-1382-674c-524-174-1000-266-2126-410c-927-118-1144-152-1505-236c-466-107-854-241-1232-424
		c-795-386-1388-929-1964-1797c-517-778-986-1762-1330-2793c-100-301-181-582-298-1035c-50-195-94-363-96-372c-5-16,3-18,69-18h74
		l7,43c9,54,124,513,171,682c576,2054,1559,3814,2596,4647c647,519,1473,859,2483,1023c273,44,466,71,1046,145
		c1044,134,1439,204,1886,335c1826,538,3612,2042,5380,4530c510,718,933,1363,1882,2875c223,355,512,814,642,1020
		c432,683,670,1068,1173,1895c584,959,930,1514,1257,2015c1584,2428,2993,3910,4395,4620c160,81,468,220,488,220c3,0,8-15,10-32
		c2-18,5,15,5,75c1,59,1,107,0,107C29996,24200,29939,24177,29870,24150z"/>
	<path class="st0" d="M29840,22814c-810-340-1599-926-2439-1814c-621-657-1146-1333-1829-2356c-418-627-765-1179-1567-2489
		c-269-440-611-987-967-1550c-157-247-430-681-607-964c-1430-2278-2085-3193-3032-4236c-1078-1189-2318-2057-3466-2429
		c-447-144-858-221-1873-351c-714-91-1040-139-1278-191c-332-71-707-182-977-289c-171-67-559-261-695-347
		c-539-340-921-717-1352-1333c-671-959-1246-2272-1583-3615c-57-227-160-673-178-772l-15-78h72h71l53,268
		c267,1362,871,2882,1570,3947c534,816,1057,1301,1787,1661c640,315,1151,438,2570,619c903,116,1267,179,1645,286
		c1399,398,2805,1406,4119,2954c787,928,1428,1851,2768,3985c237,377,569,906,740,1175c324,513,580,927,978,1580
		c1118,1833,1821,2869,2550,3760c308,376,960,1057,1354,1413c383,347,980,738,1491,978c250,117,238,113,243,72c2-18,5,15,5,75
		c1,59,1,107,0,107C29996,22880,29925,22850,29840,22814z"/>
	<path class="st0" d="M29850,21496c-687-298-1292-735-1995-1441c-987-991-1678-1943-3182-4388c-417-677-584-945-868-1392
		c-136-214-429-676-650-1025c-1040-1642-1438-2237-1964-2935c-1366-1814-2700-2922-4083-3394c-474-161-859-236-1818-355
		c-1393-173-2008-336-2638-700c-311-179-480-313-808-640c-312-312-412-433-619-746c-686-1038-1247-2421-1519-3747
		c-29-139-126-701-126-727c0-3,31-6,68-6h68l33,203c260,1623,944,3358,1741,4422c474,631,1014,1064,1676,1342
		c516,217,944,310,2160,468c762,99,1026,143,1364,226c637,156,1229,423,1850,834c638,422,1230,940,1805,1580
		c883,982,1479,1820,2947,4145c179,283,419,661,533,840c246,384,569,902,977,1566c557,905,790,1276,1106,1754
		c1019,1544,1984,2657,2907,3352c243,183,521,358,779,493c125,65,377,185,390,185c3,0,7-19,9-42c2-24,4,10,5,75c1,64,1,117,0,117
		C29996,21560,29930,21531,29850,21496z"/>
	<path class="st0" d="M29704,20096c-317-158-536-285-743-434c-682-486-1450-1294-2189-2301c-435-593-796-1139-1452-2196
		c-1455-2345-2539-4035-3020-4710c-1537-2154-2962-3332-4505-3724c-314-79-595-127-1320-221c-1175-153-1632-262-2170-519
		c-461-220-813-488-1158-881c-902-1028-1671-2905-1911-4665c-13-91-46-409-46-438c0-4,28-7,62-5l63,3l32,240
		c89,652,180,1096,338,1650c327,1139,782,2111,1335,2850c384,512,806,867,1334,1120c519,249,948,355,1981,490
		c1155,150,1540,230,2052,424c635,241,1311,659,1876,1159c185,163,966,946,1130,1130c471,532,1199,1544,1914,2657
		c698,1088,1556,2449,2060,3265c701,1135,1165,1834,1629,2453c849,1129,1660,1915,2444,2364c164,95,531,275,546,269
		c11-4,14,11,14,79c0,47-2,85-3,85C29995,20240,29863,20175,29704,20096z"/>
	<path class="st0" d="M29750,18787c-271-136-460-248-674-401c-616-440-1240-1087-1903-1971c-402-536-702-985-1271-1897
		c-158-255-426-684-594-954c-566-908-1406-2220-1809-2824c-1136-1704-2076-2744-3086-3413c-212-140-398-248-633-367
		c-588-296-893-373-2095-530c-843-110-1104-160-1487-286c-743-244-1255-612-1728-1239c-767-1019-1374-2630-1545-4105
		c-12-103-75-771-75-795c0-3,34-5,75-5h75v108c0,206,48,644,115,1052c156,945,457,1877,870,2695c436,863,924,1463,1465,1800
		c297,185,750,371,1132,464c193,47,510,96,1228,191c1123,147,1468,238,2055,539c669,343,1144,700,1780,1336
		c567,566,1020,1116,1595,1935c426,606,1547,2354,2595,4045c1068,1723,1715,2610,2449,3354c455,460,841,769,1280,1021
		c122,70,384,200,403,200c7,0,15-10,17-22c3-13,7-32,9-43c3-11,5,37,6,108c0,70,0,127-1,127C29996,18910,29885,18854,29750,18787z"
		/>
	<path class="st0" d="M29775,17482c-228-118-341-184-510-300c-470-321-1020-856-1524-1482c-457-568-932-1265-1661-2435
		c-833-1339-1819-2873-2168-3375c-1107-1591-2073-2531-3142-3059c-498-246-837-332-1830-461c-992-130-1391-222-1796-415
		c-435-207-767-477-1104-900c-629-788-1175-2112-1390-3369c-76-444-101-741-107-1263l-5-423h74h75l-13,63c-33,154-4,771,57,1247
		c205,1590,900,3208,1718,4003c387,376,932,649,1545,776c189,39,390,70,896,136c234,31,513,69,621,85c939,138,1698,501,2521,1206
		c186,158,608,571,798,779c446,488,853,1020,1384,1808c380,564,1191,1830,1949,3042c1128,1803,1642,2508,2347,3216
		c384,386,699,641,1050,848c138,82,416,231,430,231c6,0,10,32,10,75c0,41-3,75-7,75C29988,17590,29891,17541,29775,17482z"/>
	<path class="st0" d="M29815,16182c-280-145-535-318-810-549c-225-189-525-486-761-754c-379-430-886-1142-1489-2094
		c-115-181-310-490-434-685c-511-806-1408-2183-1647-2527c-345-497-675-925-1013-1312c-171-195-577-606-741-747
		c-529-459-1026-757-1564-938c-323-109-544-151-1386-261c-939-123-1341-249-1807-567c-860-585-1613-2061-1882-3688
		c-39-237-57-417-72-715c-20-423,7-974,63-1283l11-62h69c37,0,68,3,68,8c0,4-7,39-15,79c-66,315-79,1017-29,1583
		c72,835,382,1892,766,2620c241,457,457,761,737,1040c283,282,572,467,956,610c279,104,597,169,1220,250c663,87,908,130,1171,205
		c1195,343,2282,1280,3484,3000c382,547,1222,1836,1903,2920c981,1560,1452,2205,2072,2833c431,438,746,679,1192,913l123,64v73
		c0,39-3,72-7,72C29988,16270,29908,16230,29815,16182z"/>
	<path class="st0" d="M29835,14871c-365-190-655-411-1025-781c-549-548-988-1139-1820-2450c-674-1063-1490-2304-1777-2702
		c-982-1367-1847-2121-2804-2444c-261-88-469-129-1044-204c-782-103-1054-164-1373-307c-150-68-342-177-454-258
		c-98-71-321-285-422-405c-536-634-986-1697-1165-2750c-38-220-47-315-62-615c-14-280-6-713,16-920c29-270,77-498,175-819
		c28-92,50-176,48-185s-17-18-38-22c-19-4,20-7,88-8c67,0,122,3,122,7s-22,62-49,127c-119,289-191,622-221,1025
		c-13,175-13,705,0,885c32,437,94,789,215,1211c111,389,263,797,410,1102c106,218,163,318,291,512c284,430,617,751,964,930
		c323,165,678,252,1440,350c784,101,1092,181,1545,399c337,163,616,352,960,650c164,142,613,594,767,771
		c529,609,1045,1354,2293,3310c1061,1664,1420,2148,2042,2760c245,241,357,338,541,467c126,88,461,293,479,293c7,0,14-15,16-32
		c2-18,5,15,5,75c1,59-1,107-5,107C29988,14950,29917,14914,29835,14871z"/>
	<path class="st0" d="M29872,13555c-506-266-1007-748-1583-1525c-235-316-347-480-774-1135c-504-772-1245-1882-1569-2350
		c-308-445-644-853-976-1185c-499-500-971-809-1494-979c-70-23-164-50-209-61c-114-27-462-83-777-125c-657-88-901-150-1207-306
		c-355-182-618-423-857-788c-106-161-153-244-263-466c-314-628-501-1269-575-1975c-17-167-17-726,0-885c72-652,270-1155,655-1668
		l81-107h94h94l-37,42c-295,345-472,651-607,1048c-118,349-150,596-150,1160c0,358,10,501,53,750c111,655,353,1345,639,1824
		c321,539,662,860,1089,1025c252,97,465,142,1056,220c455,61,652,96,848,151c356,100,706,270,1024,498c214,153,381,300,653,572
		c525,524,737,807,1799,2400c399,598,474,713,856,1305c772,1198,1378,1908,1950,2289c112,75,273,166,293,166c6,0,13-15,15-32
		c2-18,5,20,5,85c1,64,1,117,0,117C29996,13620,29940,13591,29872,13555z"/>
	<path class="st0" d="M29872,12217c-218-120-406-270-668-531c-435-435-566-612-1644-2221c-826-1233-1051-1547-1432-1994
		c-161-189-444-474-591-596c-372-308-771-525-1141-620c-167-43-352-75-686-120c-708-96-1020-202-1332-453
		c-471-380-904-1238-1062-2102c-157-861-60-1643,273-2197c152-254,327-469,597-733c208-204,379-342,639-516l201-134h159h160l-178,95
		c-401,214-634,390-972,736c-491,503-691,883-785,1495c-82,538-20,1153,181,1799c126,401,340,843,527,1085c85,109,304,334,407,416
		c237,191,570,292,1260,384c340,45,576,88,705,127c554,167,1024,484,1570,1058c390,410,674,800,1690,2315
		c732,1091,952,1405,1159,1655c155,187,579,612,726,729c107,85,334,236,355,236c6,0,10,29,10,75c0,41-3,75-7,75
		C29988,12280,29934,12252,29872,12217z"/>
	<path class="st0" d="M29885,10896c-169-108-282-203-490-411c-352-351-512-559-1120-1450c-870-1276-1221-1742-1589-2111
		c-375-374-702-583-1106-705c-146-44-359-85-650-124c-415-55-546-85-746-171c-193-82-326-173-473-324c-332-340-644-1003-740-1570
		c-36-216-45-339-45-625c1-464,44-677,203-994c112-223,212-358,442-595c443-459,859-716,1383-856c239-64,486-78,801-45
		c211,21,321,20,388-5c158-59,379-272,712-687l168-208l-349-5l-349-5l438-3c348-2,437,1,431,11c-4,6-73,93-153,192
		c-418,519-617,716-826,816c-111,53-180,62-330,43c-172-21-559-30-680-14c-548,68-1125,398-1588,905c-336,369-490,686-549,1135
		c-16,125-16,516,1,655c84,715,379,1402,766,1791c262,262,499,349,1200,439c371,47,517,79,726,159c375,142,773,433,1175,857
		c291,308,640,782,1444,1964c704,1034,1030,1426,1444,1737c65,49,132,96,148,105c27,17,28,21,28,90c0,40-3,73-7,73
		C29988,10959,29940,10931,29885,10896z"/>
	<path class="st0" d="M29888,9562c-308-213-592-543-1093-1272c-409-594-797-1114-1062-1421c-246-285-571-546-838-674
		c-196-94-300-120-695-175c-369-51-547-97-725-186c-230-114-408-309-574-624c-218-417-301-780-288-1273c5-235,19-310,93-500
		c171-444,592-877,1093-1125c323-160,609-218,941-191c468,38,530,14,920-356c374-355,502-460,635-524c108-53,169-65,310-64
		c298,3,662,79,1241,259c130,40,141,41,147,12c2-13,5,23,6,78l1,102l-107-34c-734-233-932-272-1336-262c-215,5-219,7-439,195
		c-54,46-171,151-260,235c-291,269-429,378-586,462l-100,54l-168-9c-283-14-578-11-685,7c-475,79-1049,471-1337,912
		c-100,154-192,378-224,548c-17,91-17,459,1,579c41,284,120,545,236,780c187,381,395,587,696,688c102,34,233,60,489,97
		c529,77,749,148,1015,325c405,270,832,752,1450,1640c104,149,256,367,338,485c192,275,334,464,462,615c136,160,500,517,523,513
		c11-2,19-17,23-43c4-23,7,15,8,88c0,70-2,127-6,127C29988,9629,29941,9599,29888,9562z"/>
	<path class="st0" d="M29844,8157c-228-233-364-394-639-757c-557-734-805-1007-1070-1179c-203-133-363-182-780-241
		c-262-37-345-58-445-111c-293-158-528-524-606-944c-26-137-26-448-1-550c24-96,113-274,184-371c200-269,514-495,838-603
		c145-48,229-55,592-47l321,7l179-94c98-52,300-157,448-234l270-140l433,5l432,5v79c0,67-3,79-15,74c-8-3-54-10-101-17
		c-106-14-652-6-734,11c-67,14-184,70-395,190c-298,170-494,252-628,266c-36,3-115-1-189-10c-272-34-478-10-696,80
		c-292,121-593,380-725,624c-126,233-134,578-22,916c106,321,315,583,522,655c76,27,206,53,423,83c213,31,387,68,479,102
		c384,145,712,465,1396,1364c293,385,447,573,589,718l81,83l6-113c4-94,5-79,7,95c1,114,0,207-2,207S29926,8241,29844,8157z"/>
	<path class="st0" d="M29784,6719c-237-262-504-528-609-607c-91-69-210-127-309-152c-43-11-158-31-255-45c-294-43-383-75-472-173
		c-121-132-201-324-200-481c1-141,55-263,175-388c88-94,167-151,287-208c224-105,461-125,725-61c254,62,580,59,847-9l27-7v71v70
		l-37,10c-84,23-189,32-413,38c-252,6-263,5-510-53c-128-29-295-36-384-15c-138,33-295,116-418,223c-112,97-158,189-158,317
		c1,178,102,385,223,455c58,34,141,53,325,77c277,35,418,79,568,178c89,59,284,228,340,293c67,80,416,458,439,477
		c25,19,26,23,23,122l-3,102L29784,6719z"/>
	<path class="st0" d="M29992,419l-2-117l-304-126c-167-69-330-136-362-148l-59-23l364-3c200-1,366-1,368,1s2,123,0,268
		C29996,416,29994,483,29992,419z"/>
</g>
</svg>
