<?xml version="1.0" encoding="utf-8"?>
<!-- Generator: Adobe Illustrator 24.1.2, SVG Export Plug-In . SVG Version: 6.00 Build 0)  -->
<svg version="1.1" id="Layer_1" xmlns="http://www.w3.org/2000/svg" xmlns:xlink="http://www.w3.org/1999/xlink" x="0px" y="0px"
	 viewBox="0 0 3000 4262" style="enable-background:new 0 0 3000 4262;" xml:space="preserve">
<style type="text/css">
	.st0{fill:#C4C4C4;}
</style>
<g transform="translate(0.000000,4262.000000) scale(0.100000,-0.100000)">
	<path class="st0" d="M678,42613c32-13,11-46-182-283c-157-192-395-467-450-520l-46-44v-134v-133l167,193c348,401,510,602,657,816
		l78,112l-119-1C718,42619,671,42616,678,42613z"/>
	<path class="st0" d="M2288,42613c33-3,52-9,52-17c0-7-26-50-58-97c-173-254-346-452-957-1099c-424-448-582-635-748-881
		c-323-481-432-864-413-1454c8-232,16-347,56-770c71-740,59-1010-60-1390c-63-202-89-265-110-265c-23,0-31,38-40,210
		c-5,99-7,27-8-265l-1-400l95,195c293,598,333,770,321,1349c-3,152-13,341-21,421s-22,210-30,290c-41,398-47,933-11,1160
		c39,251,176,563,378,865c129,193,349,445,892,1020c428,454,656,722,810,955c56,85,105,161,109,168c6,9-27,12-151,10
		C2306,42617,2259,42615,2288,42613z"/>
	<path class="st0" d="M3969,42513c-246-365-419-565-1070-1233c-195-201-414-426-485-500c-853-895-1114-1276-1321-1935
		c-79-253-78-242-78-925c0-666,2-699,67-1265c39-340,42-376,42-655c1-242-2-315-17-403c-84-497-274-926-582-1312
		c-73-92-490-515-507-515c-4,0-9,159-11,353c-1,193-3,96-3-218c0-313,2-517,5-452c5,99,9,120,24,128c72,41,525,483,638,624
		c211,262,460,756,539,1068c53,212,65,343,65,737c0,363-6,458-50,870c-63,573-81,934-65,1249c25,479,101,795,279,1156
		c212,429,439,707,1360,1659c754,780,948,994,1164,1284c66,89,195,290,231,360l17,32h-85h-84L3969,42513z"/>
	<path class="st0" d="M5678,42613c12-2,22-8,22-11c0-30-203-330-359-532c-228-294-414-492-1346-1430c-919-925-1111-1129-1363-1444
		c-392-489-671-1084-771-1643c-46-257-56-389-56-788c0-449,16-684,95-1400c110-1000,91-1449-81-1982c-253-782-757-1407-1572-1951
		c-133-89-219-142-230-142c-3,0-8,15-10,33c-2,17-5-28-5-100c-1-73,0-133,3-133c12,0,273,161,390,241c529,360,956,802,1254,1298
		c326,543,494,1129,495,1726c1,216-3,255-69,860c-74,669-95,1007-95,1520c0,352,10,551,35,740c79,582,441,1309,912,1831
		c186,206,500,530,1096,1133c1237,1249,1457,1500,1800,2048c43,68,77,125,77,128s-55,4-122,4C5710,42618,5665,42615,5678,42613z"/>
	<path class="st0" d="M7343,42613c26-2,47-9,47-15c0-44-429-663-577-834c-148-169-555-584-1054-1074c-748-734-1595-1578-1792-1785
		c-289-305-433-482-620-766c-292-441-479-863-608-1368c-77-301-94-461-109-1044c-16-623,5-1004,95-1724c59-468,73-609,86-889
		c27-593-51-1143-232-1629c-205-553-471-956-939-1426c-440-442-883-760-1461-1050l-179-89v-90c0-50,3-90,6-90c15,0,456,229,579,301
		c419,245,794,531,1134,864c393,385,612,684,836,1140c149,303,248,567,325,870c73,283,75,313,75,925c0,601-2,624-75,1255
		c-71,613-100,1045-100,1500c0,520,30,788,132,1190c127,502,342,955,670,1413c279,389,538,663,1538,1630
		c727,704,1435,1411,1634,1632c173,193,348,408,463,570c74,105,282,429,347,543l28,47l-149-2C7362,42617,7316,42615,7343,42613z"/>
	<path class="st0" d="M8987,42611c45-4,85-10,89-14c12-12-19-69-139-251c-205-310-422-610-566-781c-342-405-970-1020-1966-1925
		c-805-732-1348-1268-1698-1677c-575-672-969-1430-1137-2183c-89-399-129-757-137-1226c-9-549,27-1044,143-1979
		c66-537,75-646,81-965c11-595-29-1063-118-1400c-253-955-798-1786-1624-2474c-237-197-578-439-830-588c-270-159-941-499-1052-532
		c-21-7-22-4-26,61c-2,37-4-3-5-90l-2-157l32,13c1046,438,1749,899,2428,1593c658,673,1039,1342,1250,2199c92,373,114,574,114,1070
		c0,487-20,762-99,1400c-107,860-131,1219-122,1790c12,652,41,930,142,1320c83,321,194,615,355,940c197,398,425,748,719,1100
		c286,342,961,1005,1771,1740c145,132,370,337,500,456c925,849,1467,1439,1865,2029c90,133,325,520,325,534c0,3-84,5-187,4
		C8951,42617,8925,42615,8987,42611z"/>
	<path class="st0" d="M10723,42613c37-3,47-8,47-22c0-26-154-281-327-541c-474-713-1170-1438-2623-2735c-708-631-1002-906-1420-1324
		c-783-784-1191-1322-1545-2036c-347-698-502-1241-576-2015c-6-63-13-316-16-561c-9-754,25-1275,146-2249c125-997,142-1494,70-2070
		c-164-1313-824-2465-1954-3407c-544-454-1228-863-2015-1206c-336-146-472-199-483-188c-5,5-13,47-17,93c-6,68-7,49-9-106
		c-1-147,2-187,12-183c443,176,633,260,988,437c677,338,1080,589,1534,953c360,290,723,652,994,991c573,719,934,1515,1085,2397
		c92,538,93,1118,1,1944c-13,121-42,371-64,555c-100,837-131,1264-131,1805c0,1162,158,1913,580,2755c461,921,1145,1704,2720,3110
		c796,711,1132,1023,1614,1500c511,506,673,684,905,990c340,449,658,944,705,1098l7,22l-138-2C10737,42617,10696,42615,10723,42613z
		"/>
	<path class="st0" d="M12400,42487c-183-325-337-558-610-922c-269-358-442-554-910-1029c-538-545-1091-1063-1790-1676
		c-870-763-1297-1156-1776-1634c-449-449-675-703-944-1061c-667-887-1042-1755-1224-2831c-63-373-82-748-73-1494
		c7-511,16-727,42-1010c19-193,97-897,125-1120c50-401,83-747,101-1071c13-238,7-894-11-1064c-70-689-232-1243-555-1900
		c-282-575-599-1015-1095-1519c-676-689-1370-1181-2315-1642c-463-226-1050-471-1265-529c-51-13-94-26-97-28c-2-3-3-43-1-90l3-86
		l190,63c273,91,584,217,990,401c697,316,1418,759,1975,1214c382,312,757,683,1041,1031c676,827,1117,1817,1263,2840
		c38,259,48,414,53,782c7,508-6,714-92,1398c-138,1101-197,1892-197,2645c0,477,16,705,78,1105c177,1151,609,2106,1380,3051
		c246,302,638,711,1104,1154c452,429,434,413,1659,1500c707,627,1121,1012,1481,1381c779,797,1257,1414,1634,2108
		c47,87,86,160,86,162s-39,4-87,4h-88L12400,42487z"/>
	<path class="st0" d="M14095,42492c-262-475-583-947-934-1372c-614-744-1180-1293-2811-2725c-1328-1166-1918-1720-2401-2255
		c-1114-1234-1696-2387-1943-3846c-63-369-76-619-76-1434c0-1089,15-1282,209-2805c176-1371,115-2371-205-3357
		c-189-584-426-1071-761-1568c-529-782-1246-1479-2140-2078c-551-369-1237-736-1837-983c-374-154-1134-439-1171-439
		c-8,0-15,14-18,32c-2,18-3-160-3-397c1-426,1-427,6-120l5,310l205,72c786,277,1182,440,1750,724c1085,543,1963,1185,2675,1955
		c695,753,1182,1596,1479,2559c183,595,249,1016,262,1670c13,615-19,1144-116,1900c-158,1243-198,1800-187,2650
		c7,579,36,940,108,1377c248,1506,916,2707,2269,4082c457,463,947,913,2125,1945c1071,940,1528,1363,2004,1855
		c625,646,1087,1227,1423,1786c71,118,299,535,313,573c6,15-1,17-76,17l-84-1L14095,42492z"/>
	<path class="st0" d="M15761,42437c-213-412-558-935-887-1346c-649-809-1432-1569-3069-2981c-881-760-1226-1064-1626-1431
		c-841-772-1379-1346-1844-1964c-846-1127-1374-2353-1549-3601c-119-844-125-1687-20-2834c40-446,71-719,154-1385
		c94-751,115-946,131-1208c16-269,7-1023-15-1257c-67-715-201-1283-453-1915c-268-673-605-1238-1074-1800
		c-1141-1368-2747-2432-4739-3138c-160-57-694-231-743-243l-27-6l2-397l3-396l5,309l5,308l420,143c889,301,1151,409,1875,771
		c616,308,951,499,1370,779c344,230,609,433,920,703c179,156,588,559,760,747c1023,1125,1635,2432,1819,3885c37,286,44,477,38,980
		c-7,616-28,926-92,1390c-138,1000-237,2003-257,2620c-16,510,4,1226,47,1650c29,288,99,674,181,1005c395,1592,1231,2878,2904,4470
		c445,423,854,786,1795,1595c1085,933,1321,1144,1850,1651c778,747,1395,1454,1827,2094c186,274,302,473,502,858l66,127h-93h-92
		L15761,42437z"/>
	<path class="st0" d="M17483,42613c44-3,57-8,57-20c0-54-441-807-646-1104c-403-581-813-1058-1481-1719
		c-652-647-1354-1275-2658-2380c-1310-1110-2066-1794-2614-2363c-1256-1306-2014-2606-2381-4087c-146-590-228-1170-261-1855
		c-13-266-7-1020,11-1320c42-727,86-1168,225-2275c126-1005,117-883,122-1760c6-957,0-1073-82-1515c-262-1422-834-2599-1791-3689
		c-1180-1344-2888-2429-5014-3184c-365-130-937-308-949-296c-3,3-9,56-12,117c-5,94-6,78-7-95c-1-130,2-208,8-208
		c14,0,665,208,890,285c1707,582,3174,1401,4359,2432c197,171,706,682,871,873c786,912,1322,1882,1625,2939
		c112,393,219,936,255,1292c29,292,39,1063,20,1509c-12,284-35,515-110,1105c-225,1768-241,1973-241,3188c1,1126,18,1359,147,2022
		c247,1263,824,2483,1681,3558c718,900,1447,1591,3648,3457c1787,1515,2652,2344,3401,3260c398,487,818,1128,1079,1651l95,189
		l-152-2C17494,42617,17451,42615,17483,42613z"/>
	<path class="st0" d="M19205,42548c-130-340-692-1228-1090-1723c-829-1030-1818-1976-4000-3825c-369-313-1084-926-1300-1115
		c-611-534-1606-1519-2145-2125c-234-263-548-675-795-1045c-523-783-900-1566-1150-2392c-311-1023-443-2198-395-3498
		c32-843,106-1641,285-3060c109-862,135-1166,142-1655c6-400-6-655-48-1040c-130-1196-482-2266-1072-3255
		c-824-1384-2101-2582-3762-3532c-754-431-1551-796-2440-1118c-355-129-916-313-1192-391l-243-69l2-400l3-400l2,317l3,317l58,16
		c31,9,165,48,297,86c2123,621,3947,1547,5339,2710c485,405,956,877,1331,1334c867,1056,1467,2311,1730,3620
		c104,523,145,993,145,1675c0,667-22,954-149,1915c-197,1496-264,2374-265,3450c0,775,35,1277,130,1839c125,746,374,1558,662,2161
		c328,688,793,1440,1221,1975c774,968,1722,1873,3856,3680c1439,1219,1801,1547,2661,2412c624,628,906,935,1235,1343
		c426,528,708,968,1015,1578l144,287h-93h-94L19205,42548z"/>
	<path class="st0" d="M20908,42613c30-6,28-11-75-217c-600-1198-1488-2302-2983-3706c-506-476-1122-1015-2345-2050
		c-1524-1291-1970-1694-2855-2579c-730-731-1150-1200-1552-1736c-657-875-1241-2020-1548-3032c-461-1519-534-3217-249-5788
		c28-257,98-817,194-1563c79-608,105-978,105-1475c0-2002-566-3759-1700-5287c-506-680-1161-1353-1884-1934
		c-413-332-1242-888-1766-1184c-723-408-1503-767-2368-1089c-454-168-1270-433-1785-578l-97-28v-78c0-44,2-79,5-79
		c12,0,720,204,920,265c1912,583,3763,1520,5130,2597c702,553,1358,1210,1859,1862c847,1101,1399,2297,1666,3611
		c144,705,208,1494,182,2218c-18,482-39,710-117,1297c-444,3329-467,4891-95,6570c245,1101,630,2006,1291,3033
		c507,787,1053,1434,2005,2377c803,795,1181,1133,2909,2600c1540,1307,2065,1780,2831,2545c410,409,627,639,885,935
		c528,608,976,1238,1303,1835c76,138,336,649,336,660c0,3-51,4-112,4C20936,42618,20895,42615,20908,42613z"/>
	<path class="st0" d="M22585,42528c-197-480-716-1311-1227-1965c-319-409-593-718-1116-1260c-826-855-1499-1456-3452-3083
		c-1642-1368-2209-1863-2944-2569c-858-825-1440-1479-1944-2186c-1155-1619-1765-3253-1941-5200c-125-1375-50-2885,255-5185
		c163-1223,184-1467,184-2090c-1-1689-297-3011-980-4370c-464-921-1055-1728-1844-2515c-666-665-1399-1244-2271-1797
		c-868-550-2148-1162-3360-1607c-526-194-1688-552-1871-578c-51-7-56,0-64,87c-5,47-8,16-9-109c-1-135,2-172,11-168
		c7,2,157,44,333,92c1364,371,2524,811,3715,1406c1056,529,1931,1086,2715,1730c1246,1023,2179,2164,2820,3449
		c670,1342,995,2810,972,4385c-3,215-11,453-17,530c-34,464-76,839-175,1595c-342,2602-399,4186-199,5615
		c148,1063,372,1860,764,2726c722,1591,1645,2811,3255,4305c678,629,1157,1043,2685,2319c1850,1545,2347,1983,3123,2754
		c764,759,1227,1274,1648,1836c406,541,643,928,997,1628l160,317h-92h-93L22585,42528z"/>
	<path class="st0" d="M24290,42558c-45-126-267-553-458-883c-566-977-1380-1969-2526-3079c-821-794-1462-1354-3496-3056
		c-1685-1410-2241-1909-3200-2876c-522-527-782-808-1110-1199c-1345-1608-2175-3342-2515-5251c-279-1568-265-3316,45-5834
		c28-223,77-603,110-845c150-1105,170-1353,170-2105c0-1356-132-2232-504-3345c-1121-3351-4076-5992-8492-7588
		c-510-185-995-338-1694-536c-441-125-576-159-591-144c-6,6-14,41-18,79c-7,57-9,40-10-100l-1-168l23,6c12,3,103,27,202,52
		c2034,515,4100,1359,5565,2272c397,248,981,645,1294,880c708,532,1480,1264,2037,1932c1023,1227,1711,2584,2079,4102
		c112,463,202,997,245,1446c42,447,45,1570,5,2027c-15,170-71,632-125,1030c-259,1919-334,2740-366,4011c-25,970,27,1824,157,2614
		c246,1495,748,2808,1557,4075c520,815,1225,1664,2147,2585c818,819,1736,1628,3800,3355c1613,1349,2276,1939,3080,2745
		c828,828,1419,1532,1935,2305c311,465,519,834,791,1403l73,152h-93h-93L24290,42558z"/>
	<path class="st0" d="M25960,42518c-56-134-237-496-358-718c-138-254-263-460-467-765c-543-814-1135-1513-2105-2485
		c-832-834-1501-1428-3160-2809c-1640-1365-2096-1749-2670-2252c-783-685-1511-1383-2120-2030c-377-400-672-750-1027-1219
		c-1198-1582-1902-3130-2248-4940c-161-840-225-1577-225-2580c0-1306,80-2390,296-4020c156-1177,196-1515,233-1955
		c36-426,44-658,38-1075c-20-1385-268-2663-750-3876c-747-1877-2089-3557-3950-4948c-805-601-1647-1113-2642-1606
		c-431-213-624-303-1015-470c-1102-472-2173-836-3492-1186L0,3505v-77c0-43,3-78,8-78c4,0,124,29,267,64c572,142,1518,428,2145,648
		c2164,762,4022,1759,5525,2965c656,527,1249,1099,1770,1708c986,1151,1731,2510,2155,3925c174,583,340,1405,379,1885
		c39,459,59,1347,43,1841c-15,457-46,754-201,1919c-324,2438-412,3936-316,5390c162,2448,893,4440,2334,6360
		c738,983,1596,1887,2866,3019c597,531,971,850,2200,1875c2609,2175,2985,2508,4130,3662c829,835,1225,1289,1675,1919
		c490,686,843,1292,1130,1938l68,152h-87h-88L25960,42518z"/>
</g>
</svg>
