<svg width="1301" height="840" viewBox="0 0 1301 840" fill="none" xmlns="http://www.w3.org/2000/svg">
<g opacity="0.5">
<path d="M164.354 146L174 110L138 119.646L139.631 121.278L171.174 112.826L162.722 144.369L164.354 146Z" fill="#333333"/>
<path d="M160.802 142.448L167.848 116.152L141.552 123.198L160.802 142.448Z" fill="#333333"/>
</g>
<path d="M1286 304C1286 353.706 1245.71 394 1196 394C1146.29 394 1106 353.706 1106 304C1106 254.294 1146.29 214 1196 214C1245.71 214 1286 254.294 1286 304Z" stroke="#4F4F4F" stroke-width="30"/>
<path opacity="0.1" fill-rule="evenodd" clip-rule="evenodd" d="M0 0H682V597H0V0ZM1.06562 1.06607H84.1844V84.2196H1.06562V1.06607ZM86.3156 1.06607H169.434V84.2196H86.3156V1.06607ZM254.684 1.06607H171.566V84.2196H254.684V1.06607ZM256.816 1.06607H339.934V84.2196H256.816V1.06607ZM425.184 1.06607H342.066V84.2196H425.184V1.06607ZM427.316 1.06607H510.434V84.2196H427.316V1.06607ZM595.684 1.06607H512.566V84.2196H595.684V1.06607ZM597.816 1.06607H680.934V84.2196H597.816V1.06607ZM84.1844 86.3518H1.06562V169.505H84.1844V86.3518ZM86.3156 86.3518H169.434V169.505H86.3156V86.3518ZM254.684 86.3518H171.566V169.505H254.684V86.3518ZM256.816 86.3518H339.934V169.505H256.816V86.3518ZM425.184 86.3518H342.066V169.505H425.184V86.3518ZM427.316 86.3518H510.434V169.505H427.316V86.3518ZM595.684 86.3518H512.566V169.505H595.684V86.3518ZM597.816 86.3518H680.934V169.505H597.816V86.3518ZM84.1844 171.637H1.06562V254.791H84.1844V171.637ZM86.3156 171.637H169.434V254.791H86.3156V171.637ZM254.684 171.637H171.566V254.791H254.684V171.637ZM256.816 171.637H339.934V254.791H256.816V171.637ZM425.184 171.637H342.066V254.791H425.184V171.637ZM427.316 171.637H510.434V254.791H427.316V171.637ZM595.684 171.637H512.566V254.791H595.684V171.637ZM597.816 171.637H680.934V254.791H597.816V171.637ZM84.1844 256.923H1.06562V340.077H84.1844V256.923ZM86.3156 256.923H169.434V340.077H86.3156V256.923ZM254.684 256.923H171.566V340.077H254.684V256.923ZM256.816 256.923H339.934V340.077H256.816V256.923ZM425.184 256.923H342.066V340.077H425.184V256.923ZM427.316 256.923H510.434V340.077H427.316V256.923ZM595.684 256.923H512.566V340.077H595.684V256.923ZM597.816 256.923H680.934V340.077H597.816V256.923ZM84.1844 342.209H1.06562V425.362H84.1844V342.209ZM86.3156 342.209H169.434V425.362H86.3156V342.209ZM254.684 342.209H171.566V425.362H254.684V342.209ZM256.816 342.209H339.934V425.362H256.816V342.209ZM425.184 342.209H342.066V425.362H425.184V342.209ZM427.316 342.209H510.434V425.362H427.316V342.209ZM595.684 342.209H512.566V425.362H595.684V342.209ZM597.816 342.209H680.934V425.362H597.816V342.209ZM84.1844 427.495H1.06562V510.648H84.1844V427.495ZM86.3156 427.495H169.434V510.648H86.3156V427.495ZM254.684 427.495H171.566V510.648H254.684V427.495ZM256.816 427.495H339.934V510.648H256.816V427.495ZM425.184 427.495H342.066V510.648H425.184V427.495ZM427.316 427.495H510.434V510.648H427.316V427.495ZM595.684 427.495H512.566V510.648H595.684V427.495ZM597.816 427.495H680.934V510.648H597.816V427.495ZM84.1844 512.78H1.06562V595.934H84.1844V512.78ZM86.3156 512.78H169.434V595.934H86.3156V512.78ZM254.684 512.78H171.566V595.934H254.684V512.78ZM256.816 512.78H339.934V595.934H256.816V512.78ZM425.184 512.78H342.066V595.934H425.184V512.78ZM427.316 512.78H510.434V595.934H427.316V512.78ZM595.684 512.78H512.566V595.934H595.684V512.78ZM597.816 512.78H680.934V595.934H597.816V512.78Z" fill="#333333"/>
<path d="M1293.86 523.514C1294.41 524.473 1294.95 525.442 1295.48 526.419C1294.52 525.796 1293.89 524.73 1293.86 523.514Z" fill="url(#paint0_linear_35_1018)"/>
<path d="M1274.3 498.857C1275.97 500.419 1277.58 502.033 1279.14 503.697C1278.54 504.813 1277.36 505.571 1276 505.571C1274.03 505.571 1272.43 503.972 1272.43 502C1272.43 500.642 1273.19 499.461 1274.3 498.857Z" fill="url(#paint1_linear_35_1018)"/>
<path d="M1251.58 482.524C1252.56 483.049 1253.53 483.588 1254.49 484.142C1253.27 484.113 1252.2 483.477 1251.58 482.524Z" fill="url(#paint2_linear_35_1018)"/>
<path d="M1147.51 484.142C1148.47 483.588 1149.44 483.049 1150.42 482.524C1149.8 483.477 1148.73 484.113 1147.51 484.142Z" fill="url(#paint3_linear_35_1018)"/>
<path d="M1122.86 503.697C1124.42 502.033 1126.03 500.419 1127.7 498.857C1128.81 499.461 1129.57 500.642 1129.57 502C1129.57 503.972 1127.97 505.571 1126 505.571C1124.64 505.571 1123.46 504.813 1122.86 503.697Z" fill="url(#paint4_linear_35_1018)"/>
<path d="M1106.52 526.419C1107.05 525.442 1107.59 524.473 1108.14 523.514C1108.11 524.73 1107.48 525.796 1106.52 526.419Z" fill="url(#paint5_linear_35_1018)"/>
<path d="M1295.48 627.581C1294.95 628.558 1294.41 629.527 1293.86 630.486C1293.89 629.27 1294.52 628.204 1295.48 627.581Z" fill="url(#paint6_linear_35_1018)"/>
<path d="M1279.14 650.303C1278.54 649.187 1277.36 648.429 1276 648.429C1274.03 648.429 1272.43 650.028 1272.43 652C1272.43 653.358 1273.19 654.539 1274.3 655.143C1275.97 653.581 1277.58 651.967 1279.14 650.303Z" fill="url(#paint7_linear_35_1018)"/>
<path d="M1254.49 669.858C1253.27 669.887 1252.2 670.523 1251.58 671.476C1252.56 670.951 1253.53 670.412 1254.49 669.858Z" fill="url(#paint8_linear_35_1018)"/>
<path d="M1150.42 671.476C1149.8 670.523 1148.73 669.887 1147.51 669.858C1148.47 670.412 1149.44 670.951 1150.42 671.476Z" fill="url(#paint9_linear_35_1018)"/>
<path d="M1127.7 655.143C1128.81 654.539 1129.57 653.358 1129.57 652C1129.57 650.028 1127.97 648.429 1126 648.429C1124.64 648.429 1123.46 649.187 1122.86 650.303C1124.42 651.967 1126.03 653.581 1127.7 655.143Z" fill="url(#paint10_linear_35_1018)"/>
<path d="M1108.14 630.486C1108.11 629.27 1107.48 628.204 1106.52 627.581C1107.05 628.558 1107.59 629.527 1108.14 630.486Z" fill="url(#paint11_linear_35_1018)"/>
<path d="M1172.43 480.571C1172.43 482.544 1170.83 484.143 1168.86 484.143C1166.88 484.143 1165.29 482.544 1165.29 480.571C1165.29 478.599 1166.88 477 1168.86 477C1170.83 477 1172.43 478.599 1172.43 480.571Z" fill="url(#paint12_linear_35_1018)"/>
<path d="M1193.86 480.571C1193.86 482.544 1192.26 484.143 1190.29 484.143C1188.31 484.143 1186.71 482.544 1186.71 480.571C1186.71 478.599 1188.31 477 1190.29 477C1192.26 477 1193.86 478.599 1193.86 480.571Z" fill="url(#paint13_linear_35_1018)"/>
<path d="M1215.29 480.571C1215.29 482.544 1213.69 484.143 1211.71 484.143C1209.74 484.143 1208.14 482.544 1208.14 480.571C1208.14 478.599 1209.74 477 1211.71 477C1213.69 477 1215.29 478.599 1215.29 480.571Z" fill="url(#paint14_linear_35_1018)"/>
<path d="M1236.71 480.571C1236.71 482.544 1235.12 484.143 1233.14 484.143C1231.17 484.143 1229.57 482.544 1229.57 480.571C1229.57 478.599 1231.17 477 1233.14 477C1235.12 477 1236.71 478.599 1236.71 480.571Z" fill="url(#paint15_linear_35_1018)"/>
<path d="M1151 502C1151 503.972 1149.4 505.571 1147.43 505.571C1145.46 505.571 1143.86 503.972 1143.86 502C1143.86 500.028 1145.46 498.429 1147.43 498.429C1149.4 498.429 1151 500.028 1151 502Z" fill="url(#paint16_linear_35_1018)"/>
<path d="M1172.43 502C1172.43 503.972 1170.83 505.571 1168.86 505.571C1166.88 505.571 1165.29 503.972 1165.29 502C1165.29 500.028 1166.88 498.429 1168.86 498.429C1170.83 498.429 1172.43 500.028 1172.43 502Z" fill="url(#paint17_linear_35_1018)"/>
<path d="M1193.86 502C1193.86 503.972 1192.26 505.571 1190.29 505.571C1188.31 505.571 1186.71 503.972 1186.71 502C1186.71 500.028 1188.31 498.429 1190.29 498.429C1192.26 498.429 1193.86 500.028 1193.86 502Z" fill="url(#paint18_linear_35_1018)"/>
<path d="M1215.29 502C1215.29 503.972 1213.69 505.571 1211.71 505.571C1209.74 505.571 1208.14 503.972 1208.14 502C1208.14 500.028 1209.74 498.429 1211.71 498.429C1213.69 498.429 1215.29 500.028 1215.29 502Z" fill="url(#paint19_linear_35_1018)"/>
<path d="M1236.71 502C1236.71 503.972 1235.12 505.571 1233.14 505.571C1231.17 505.571 1229.57 503.972 1229.57 502C1229.57 500.028 1231.17 498.429 1233.14 498.429C1235.12 498.429 1236.71 500.028 1236.71 502Z" fill="url(#paint20_linear_35_1018)"/>
<path d="M1258.14 502C1258.14 503.972 1256.54 505.571 1254.57 505.571C1252.6 505.571 1251 503.972 1251 502C1251 500.028 1252.6 498.429 1254.57 498.429C1256.54 498.429 1258.14 500.028 1258.14 502Z" fill="url(#paint21_linear_35_1018)"/>
<path d="M1129.57 523.429C1129.57 525.401 1127.97 527 1126 527C1124.03 527 1122.43 525.401 1122.43 523.429C1122.43 521.456 1124.03 519.857 1126 519.857C1127.97 519.857 1129.57 521.456 1129.57 523.429Z" fill="url(#paint22_linear_35_1018)"/>
<path d="M1151 523.429C1151 525.401 1149.4 527 1147.43 527C1145.46 527 1143.86 525.401 1143.86 523.429C1143.86 521.456 1145.46 519.857 1147.43 519.857C1149.4 519.857 1151 521.456 1151 523.429Z" fill="url(#paint23_linear_35_1018)"/>
<path d="M1172.43 523.429C1172.43 525.401 1170.83 527 1168.86 527C1166.88 527 1165.29 525.401 1165.29 523.429C1165.29 521.456 1166.88 519.857 1168.86 519.857C1170.83 519.857 1172.43 521.456 1172.43 523.429Z" fill="url(#paint24_linear_35_1018)"/>
<path d="M1193.86 523.429C1193.86 525.401 1192.26 527 1190.29 527C1188.31 527 1186.71 525.401 1186.71 523.429C1186.71 521.456 1188.31 519.857 1190.29 519.857C1192.26 519.857 1193.86 521.456 1193.86 523.429Z" fill="url(#paint25_linear_35_1018)"/>
<path d="M1215.29 523.429C1215.29 525.401 1213.69 527 1211.71 527C1209.74 527 1208.14 525.401 1208.14 523.429C1208.14 521.456 1209.74 519.857 1211.71 519.857C1213.69 519.857 1215.29 521.456 1215.29 523.429Z" fill="url(#paint26_linear_35_1018)"/>
<path d="M1236.71 523.429C1236.71 525.401 1235.12 527 1233.14 527C1231.17 527 1229.57 525.401 1229.57 523.429C1229.57 521.456 1231.17 519.857 1233.14 519.857C1235.12 519.857 1236.71 521.456 1236.71 523.429Z" fill="url(#paint27_linear_35_1018)"/>
<path d="M1258.14 523.429C1258.14 525.401 1256.54 527 1254.57 527C1252.6 527 1251 525.401 1251 523.429C1251 521.456 1252.6 519.857 1254.57 519.857C1256.54 519.857 1258.14 521.456 1258.14 523.429Z" fill="url(#paint28_linear_35_1018)"/>
<path d="M1279.57 523.429C1279.57 525.401 1277.97 527 1276 527C1274.03 527 1272.43 525.401 1272.43 523.429C1272.43 521.456 1274.03 519.857 1276 519.857C1277.97 519.857 1279.57 521.456 1279.57 523.429Z" fill="url(#paint29_linear_35_1018)"/>
<path d="M1108.14 544.857C1108.14 546.83 1106.54 548.429 1104.57 548.429C1102.6 548.429 1101 546.83 1101 544.857C1101 542.885 1102.6 541.286 1104.57 541.286C1106.54 541.286 1108.14 542.885 1108.14 544.857Z" fill="url(#paint30_linear_35_1018)"/>
<path d="M1129.57 544.857C1129.57 546.83 1127.97 548.429 1126 548.429C1124.03 548.429 1122.43 546.83 1122.43 544.857C1122.43 542.885 1124.03 541.286 1126 541.286C1127.97 541.286 1129.57 542.885 1129.57 544.857Z" fill="url(#paint31_linear_35_1018)"/>
<path d="M1151 544.857C1151 546.83 1149.4 548.429 1147.43 548.429C1145.46 548.429 1143.86 546.83 1143.86 544.857C1143.86 542.885 1145.46 541.286 1147.43 541.286C1149.4 541.286 1151 542.885 1151 544.857Z" fill="url(#paint32_linear_35_1018)"/>
<path d="M1172.43 544.857C1172.43 546.83 1170.83 548.429 1168.86 548.429C1166.88 548.429 1165.29 546.83 1165.29 544.857C1165.29 542.885 1166.88 541.286 1168.86 541.286C1170.83 541.286 1172.43 542.885 1172.43 544.857Z" fill="url(#paint33_linear_35_1018)"/>
<path d="M1193.86 544.857C1193.86 546.83 1192.26 548.429 1190.29 548.429C1188.31 548.429 1186.71 546.83 1186.71 544.857C1186.71 542.885 1188.31 541.286 1190.29 541.286C1192.26 541.286 1193.86 542.885 1193.86 544.857Z" fill="url(#paint34_linear_35_1018)"/>
<path d="M1215.29 544.857C1215.29 546.83 1213.69 548.429 1211.71 548.429C1209.74 548.429 1208.14 546.83 1208.14 544.857C1208.14 542.885 1209.74 541.286 1211.71 541.286C1213.69 541.286 1215.29 542.885 1215.29 544.857Z" fill="url(#paint35_linear_35_1018)"/>
<path d="M1236.71 544.857C1236.71 546.83 1235.12 548.429 1233.14 548.429C1231.17 548.429 1229.57 546.83 1229.57 544.857C1229.57 542.885 1231.17 541.286 1233.14 541.286C1235.12 541.286 1236.71 542.885 1236.71 544.857Z" fill="url(#paint36_linear_35_1018)"/>
<path d="M1258.14 544.857C1258.14 546.83 1256.54 548.429 1254.57 548.429C1252.6 548.429 1251 546.83 1251 544.857C1251 542.885 1252.6 541.286 1254.57 541.286C1256.54 541.286 1258.14 542.885 1258.14 544.857Z" fill="url(#paint37_linear_35_1018)"/>
<path d="M1279.57 544.857C1279.57 546.83 1277.97 548.429 1276 548.429C1274.03 548.429 1272.43 546.83 1272.43 544.857C1272.43 542.885 1274.03 541.286 1276 541.286C1277.97 541.286 1279.57 542.885 1279.57 544.857Z" fill="url(#paint38_linear_35_1018)"/>
<path d="M1301 544.857C1301 546.83 1299.4 548.429 1297.43 548.429C1295.46 548.429 1293.86 546.83 1293.86 544.857C1293.86 542.885 1295.46 541.286 1297.43 541.286C1299.4 541.286 1301 542.885 1301 544.857Z" fill="url(#paint39_linear_35_1018)"/>
<path d="M1108.14 566.286C1108.14 568.258 1106.54 569.857 1104.57 569.857C1102.6 569.857 1101 568.258 1101 566.286C1101 564.313 1102.6 562.714 1104.57 562.714C1106.54 562.714 1108.14 564.313 1108.14 566.286Z" fill="url(#paint40_linear_35_1018)"/>
<path d="M1129.57 566.286C1129.57 568.258 1127.97 569.857 1126 569.857C1124.03 569.857 1122.43 568.258 1122.43 566.286C1122.43 564.313 1124.03 562.714 1126 562.714C1127.97 562.714 1129.57 564.313 1129.57 566.286Z" fill="url(#paint41_linear_35_1018)"/>
<path d="M1151 566.286C1151 568.258 1149.4 569.857 1147.43 569.857C1145.46 569.857 1143.86 568.258 1143.86 566.286C1143.86 564.313 1145.46 562.714 1147.43 562.714C1149.4 562.714 1151 564.313 1151 566.286Z" fill="url(#paint42_linear_35_1018)"/>
<path d="M1172.43 566.286C1172.43 568.258 1170.83 569.857 1168.86 569.857C1166.88 569.857 1165.29 568.258 1165.29 566.286C1165.29 564.313 1166.88 562.714 1168.86 562.714C1170.83 562.714 1172.43 564.313 1172.43 566.286Z" fill="url(#paint43_linear_35_1018)"/>
<path d="M1193.86 566.286C1193.86 568.258 1192.26 569.857 1190.29 569.857C1188.31 569.857 1186.71 568.258 1186.71 566.286C1186.71 564.313 1188.31 562.714 1190.29 562.714C1192.26 562.714 1193.86 564.313 1193.86 566.286Z" fill="url(#paint44_linear_35_1018)"/>
<path d="M1215.29 566.286C1215.29 568.258 1213.69 569.857 1211.71 569.857C1209.74 569.857 1208.14 568.258 1208.14 566.286C1208.14 564.313 1209.74 562.714 1211.71 562.714C1213.69 562.714 1215.29 564.313 1215.29 566.286Z" fill="url(#paint45_linear_35_1018)"/>
<path d="M1236.71 566.286C1236.71 568.258 1235.12 569.857 1233.14 569.857C1231.17 569.857 1229.57 568.258 1229.57 566.286C1229.57 564.313 1231.17 562.714 1233.14 562.714C1235.12 562.714 1236.71 564.313 1236.71 566.286Z" fill="url(#paint46_linear_35_1018)"/>
<path d="M1258.14 566.286C1258.14 568.258 1256.54 569.857 1254.57 569.857C1252.6 569.857 1251 568.258 1251 566.286C1251 564.313 1252.6 562.714 1254.57 562.714C1256.54 562.714 1258.14 564.313 1258.14 566.286Z" fill="url(#paint47_linear_35_1018)"/>
<path d="M1279.57 566.286C1279.57 568.258 1277.97 569.857 1276 569.857C1274.03 569.857 1272.43 568.258 1272.43 566.286C1272.43 564.313 1274.03 562.714 1276 562.714C1277.97 562.714 1279.57 564.313 1279.57 566.286Z" fill="url(#paint48_linear_35_1018)"/>
<path d="M1301 566.286C1301 568.258 1299.4 569.857 1297.43 569.857C1295.46 569.857 1293.86 568.258 1293.86 566.286C1293.86 564.313 1295.46 562.714 1297.43 562.714C1299.4 562.714 1301 564.313 1301 566.286Z" fill="url(#paint49_linear_35_1018)"/>
<path d="M1108.14 587.714C1108.14 589.687 1106.54 591.286 1104.57 591.286C1102.6 591.286 1101 589.687 1101 587.714C1101 585.742 1102.6 584.143 1104.57 584.143C1106.54 584.143 1108.14 585.742 1108.14 587.714Z" fill="url(#paint50_linear_35_1018)"/>
<path d="M1129.57 587.714C1129.57 589.687 1127.97 591.286 1126 591.286C1124.03 591.286 1122.43 589.687 1122.43 587.714C1122.43 585.742 1124.03 584.143 1126 584.143C1127.97 584.143 1129.57 585.742 1129.57 587.714Z" fill="url(#paint51_linear_35_1018)"/>
<path d="M1151 587.714C1151 589.687 1149.4 591.286 1147.43 591.286C1145.46 591.286 1143.86 589.687 1143.86 587.714C1143.86 585.742 1145.46 584.143 1147.43 584.143C1149.4 584.143 1151 585.742 1151 587.714Z" fill="url(#paint52_linear_35_1018)"/>
<path d="M1172.43 587.714C1172.43 589.687 1170.83 591.286 1168.86 591.286C1166.88 591.286 1165.29 589.687 1165.29 587.714C1165.29 585.742 1166.88 584.143 1168.86 584.143C1170.83 584.143 1172.43 585.742 1172.43 587.714Z" fill="url(#paint53_linear_35_1018)"/>
<path d="M1193.86 587.714C1193.86 589.687 1192.26 591.286 1190.29 591.286C1188.31 591.286 1186.71 589.687 1186.71 587.714C1186.71 585.742 1188.31 584.143 1190.29 584.143C1192.26 584.143 1193.86 585.742 1193.86 587.714Z" fill="url(#paint54_linear_35_1018)"/>
<path d="M1215.29 587.714C1215.29 589.687 1213.69 591.286 1211.71 591.286C1209.74 591.286 1208.14 589.687 1208.14 587.714C1208.14 585.742 1209.74 584.143 1211.71 584.143C1213.69 584.143 1215.29 585.742 1215.29 587.714Z" fill="url(#paint55_linear_35_1018)"/>
<path d="M1236.71 587.714C1236.71 589.687 1235.12 591.286 1233.14 591.286C1231.17 591.286 1229.57 589.687 1229.57 587.714C1229.57 585.742 1231.17 584.143 1233.14 584.143C1235.12 584.143 1236.71 585.742 1236.71 587.714Z" fill="url(#paint56_linear_35_1018)"/>
<path d="M1258.14 587.714C1258.14 589.687 1256.54 591.286 1254.57 591.286C1252.6 591.286 1251 589.687 1251 587.714C1251 585.742 1252.6 584.143 1254.57 584.143C1256.54 584.143 1258.14 585.742 1258.14 587.714Z" fill="url(#paint57_linear_35_1018)"/>
<path d="M1279.57 587.714C1279.57 589.687 1277.97 591.286 1276 591.286C1274.03 591.286 1272.43 589.687 1272.43 587.714C1272.43 585.742 1274.03 584.143 1276 584.143C1277.97 584.143 1279.57 585.742 1279.57 587.714Z" fill="url(#paint58_linear_35_1018)"/>
<path d="M1301 587.714C1301 589.687 1299.4 591.286 1297.43 591.286C1295.46 591.286 1293.86 589.687 1293.86 587.714C1293.86 585.742 1295.46 584.143 1297.43 584.143C1299.4 584.143 1301 585.742 1301 587.714Z" fill="url(#paint59_linear_35_1018)"/>
<path d="M1108.14 609.143C1108.14 611.115 1106.54 612.714 1104.57 612.714C1102.6 612.714 1101 611.115 1101 609.143C1101 607.17 1102.6 605.571 1104.57 605.571C1106.54 605.571 1108.14 607.17 1108.14 609.143Z" fill="url(#paint60_linear_35_1018)"/>
<path d="M1129.57 609.143C1129.57 611.115 1127.97 612.714 1126 612.714C1124.03 612.714 1122.43 611.115 1122.43 609.143C1122.43 607.17 1124.03 605.571 1126 605.571C1127.97 605.571 1129.57 607.17 1129.57 609.143Z" fill="url(#paint61_linear_35_1018)"/>
<path d="M1151 609.143C1151 611.115 1149.4 612.714 1147.43 612.714C1145.46 612.714 1143.86 611.115 1143.86 609.143C1143.86 607.17 1145.46 605.571 1147.43 605.571C1149.4 605.571 1151 607.17 1151 609.143Z" fill="url(#paint62_linear_35_1018)"/>
<path d="M1172.43 609.143C1172.43 611.115 1170.83 612.714 1168.86 612.714C1166.88 612.714 1165.29 611.115 1165.29 609.143C1165.29 607.17 1166.88 605.571 1168.86 605.571C1170.83 605.571 1172.43 607.17 1172.43 609.143Z" fill="url(#paint63_linear_35_1018)"/>
<path d="M1193.86 609.143C1193.86 611.115 1192.26 612.714 1190.29 612.714C1188.31 612.714 1186.71 611.115 1186.71 609.143C1186.71 607.17 1188.31 605.571 1190.29 605.571C1192.26 605.571 1193.86 607.17 1193.86 609.143Z" fill="url(#paint64_linear_35_1018)"/>
<path d="M1215.29 609.143C1215.29 611.115 1213.69 612.714 1211.71 612.714C1209.74 612.714 1208.14 611.115 1208.14 609.143C1208.14 607.17 1209.74 605.571 1211.71 605.571C1213.69 605.571 1215.29 607.17 1215.29 609.143Z" fill="url(#paint65_linear_35_1018)"/>
<path d="M1236.71 609.143C1236.71 611.115 1235.12 612.714 1233.14 612.714C1231.17 612.714 1229.57 611.115 1229.57 609.143C1229.57 607.17 1231.17 605.571 1233.14 605.571C1235.12 605.571 1236.71 607.17 1236.71 609.143Z" fill="url(#paint66_linear_35_1018)"/>
<path d="M1258.14 609.143C1258.14 611.115 1256.54 612.714 1254.57 612.714C1252.6 612.714 1251 611.115 1251 609.143C1251 607.17 1252.6 605.571 1254.57 605.571C1256.54 605.571 1258.14 607.17 1258.14 609.143Z" fill="url(#paint67_linear_35_1018)"/>
<path d="M1279.57 609.143C1279.57 611.115 1277.97 612.714 1276 612.714C1274.03 612.714 1272.43 611.115 1272.43 609.143C1272.43 607.17 1274.03 605.571 1276 605.571C1277.97 605.571 1279.57 607.17 1279.57 609.143Z" fill="url(#paint68_linear_35_1018)"/>
<path d="M1301 609.143C1301 611.115 1299.4 612.714 1297.43 612.714C1295.46 612.714 1293.86 611.115 1293.86 609.143C1293.86 607.17 1295.46 605.571 1297.43 605.571C1299.4 605.571 1301 607.17 1301 609.143Z" fill="url(#paint69_linear_35_1018)"/>
<path d="M1129.57 630.571C1129.57 632.544 1127.97 634.143 1126 634.143C1124.03 634.143 1122.43 632.544 1122.43 630.571C1122.43 628.599 1124.03 627 1126 627C1127.97 627 1129.57 628.599 1129.57 630.571Z" fill="url(#paint70_linear_35_1018)"/>
<path d="M1151 630.571C1151 632.544 1149.4 634.143 1147.43 634.143C1145.46 634.143 1143.86 632.544 1143.86 630.571C1143.86 628.599 1145.46 627 1147.43 627C1149.4 627 1151 628.599 1151 630.571Z" fill="url(#paint71_linear_35_1018)"/>
<path d="M1172.43 630.571C1172.43 632.544 1170.83 634.143 1168.86 634.143C1166.88 634.143 1165.29 632.544 1165.29 630.571C1165.29 628.599 1166.88 627 1168.86 627C1170.83 627 1172.43 628.599 1172.43 630.571Z" fill="url(#paint72_linear_35_1018)"/>
<path d="M1193.86 630.571C1193.86 632.544 1192.26 634.143 1190.29 634.143C1188.31 634.143 1186.71 632.544 1186.71 630.571C1186.71 628.599 1188.31 627 1190.29 627C1192.26 627 1193.86 628.599 1193.86 630.571Z" fill="url(#paint73_linear_35_1018)"/>
<path d="M1215.29 630.571C1215.29 632.544 1213.69 634.143 1211.71 634.143C1209.74 634.143 1208.14 632.544 1208.14 630.571C1208.14 628.599 1209.74 627 1211.71 627C1213.69 627 1215.29 628.599 1215.29 630.571Z" fill="url(#paint74_linear_35_1018)"/>
<path d="M1236.71 630.571C1236.71 632.544 1235.12 634.143 1233.14 634.143C1231.17 634.143 1229.57 632.544 1229.57 630.571C1229.57 628.599 1231.17 627 1233.14 627C1235.12 627 1236.71 628.599 1236.71 630.571Z" fill="url(#paint75_linear_35_1018)"/>
<path d="M1258.14 630.571C1258.14 632.544 1256.54 634.143 1254.57 634.143C1252.6 634.143 1251 632.544 1251 630.571C1251 628.599 1252.6 627 1254.57 627C1256.54 627 1258.14 628.599 1258.14 630.571Z" fill="url(#paint76_linear_35_1018)"/>
<path d="M1279.57 630.571C1279.57 632.544 1277.97 634.143 1276 634.143C1274.03 634.143 1272.43 632.544 1272.43 630.571C1272.43 628.599 1274.03 627 1276 627C1277.97 627 1279.57 628.599 1279.57 630.571Z" fill="url(#paint77_linear_35_1018)"/>
<path d="M1151 652C1151 653.972 1149.4 655.571 1147.43 655.571C1145.46 655.571 1143.86 653.972 1143.86 652C1143.86 650.028 1145.46 648.429 1147.43 648.429C1149.4 648.429 1151 650.028 1151 652Z" fill="url(#paint78_linear_35_1018)"/>
<path d="M1172.43 652C1172.43 653.972 1170.83 655.571 1168.86 655.571C1166.88 655.571 1165.29 653.972 1165.29 652C1165.29 650.028 1166.88 648.429 1168.86 648.429C1170.83 648.429 1172.43 650.028 1172.43 652Z" fill="url(#paint79_linear_35_1018)"/>
<path d="M1193.86 652C1193.86 653.972 1192.26 655.571 1190.29 655.571C1188.31 655.571 1186.71 653.972 1186.71 652C1186.71 650.028 1188.31 648.429 1190.29 648.429C1192.26 648.429 1193.86 650.028 1193.86 652Z" fill="url(#paint80_linear_35_1018)"/>
<path d="M1215.29 652C1215.29 653.972 1213.69 655.571 1211.71 655.571C1209.74 655.571 1208.14 653.972 1208.14 652C1208.14 650.028 1209.74 648.429 1211.71 648.429C1213.69 648.429 1215.29 650.028 1215.29 652Z" fill="url(#paint81_linear_35_1018)"/>
<path d="M1236.71 652C1236.71 653.972 1235.12 655.571 1233.14 655.571C1231.17 655.571 1229.57 653.972 1229.57 652C1229.57 650.028 1231.17 648.429 1233.14 648.429C1235.12 648.429 1236.71 650.028 1236.71 652Z" fill="url(#paint82_linear_35_1018)"/>
<path d="M1258.14 652C1258.14 653.972 1256.54 655.571 1254.57 655.571C1252.6 655.571 1251 653.972 1251 652C1251 650.028 1252.6 648.429 1254.57 648.429C1256.54 648.429 1258.14 650.028 1258.14 652Z" fill="url(#paint83_linear_35_1018)"/>
<path d="M1172.43 673.429C1172.43 675.401 1170.83 677 1168.86 677C1166.88 677 1165.29 675.401 1165.29 673.429C1165.29 671.456 1166.88 669.857 1168.86 669.857C1170.83 669.857 1172.43 671.456 1172.43 673.429Z" fill="url(#paint84_linear_35_1018)"/>
<path d="M1193.86 673.429C1193.86 675.401 1192.26 677 1190.29 677C1188.31 677 1186.71 675.401 1186.71 673.429C1186.71 671.456 1188.31 669.857 1190.29 669.857C1192.26 669.857 1193.86 671.456 1193.86 673.429Z" fill="url(#paint85_linear_35_1018)"/>
<path d="M1215.29 673.429C1215.29 675.401 1213.69 677 1211.71 677C1209.74 677 1208.14 675.401 1208.14 673.429C1208.14 671.456 1209.74 669.857 1211.71 669.857C1213.69 669.857 1215.29 671.456 1215.29 673.429Z" fill="url(#paint86_linear_35_1018)"/>
<path d="M1236.71 673.429C1236.71 675.401 1235.12 677 1233.14 677C1231.17 677 1229.57 675.401 1229.57 673.429C1229.57 671.456 1231.17 669.857 1233.14 669.857C1235.12 669.857 1236.71 671.456 1236.71 673.429Z" fill="url(#paint87_linear_35_1018)"/>
<path opacity="0.5" d="M257.867 252.135L274.367 223.556L296.883 236.556L280.383 265.135L279.383 266.867L281.115 267.867L309.694 284.367L296.694 306.883L268.115 290.383L266.383 289.383L265.383 291.115L248.883 319.694L226.367 306.694L242.867 278.115L243.867 276.383L242.135 275.383L213.556 258.883L226.556 236.367L255.135 252.867L256.867 253.867L257.867 252.135Z" stroke="#333333" stroke-width="4"/>
<path d="M875 651.326V657.484L905.435 640H894.715L875 651.326Z" fill="#333333"/>
<path d="M923.727 640L875 667.993V674.151L934.447 640H923.727Z" fill="#333333"/>
<path d="M952.739 640L875 684.659V690.818L963.459 640H952.739Z" fill="#333333"/>
<path d="M981.751 640L875 701.326V707.484L992.471 640H981.751Z" fill="#333333"/>
<path d="M1009 641.013L875 717.993V724.151L1009 647.171V641.013Z" fill="#333333"/>
<path d="M1009 657.679L875 734.659V740.818L1009 663.838V657.679Z" fill="#333333"/>
<path d="M1009 674.346L875 751.326V757.484L1009 680.504V674.346Z" fill="#333333"/>
<path d="M1009 691.013L875 767.993V774.151L1009 697.171V691.013Z" fill="#333333"/>
<path d="M1009 707.679L875 784.659V790.818L1009 713.838V707.679Z" fill="#333333"/>
<path d="M1009 724.346L875 801.326V807.484L1009 730.504V724.346Z" fill="#333333"/>
<path d="M1009 741.013L875 817.993V824.151L1009 747.171V741.013Z" fill="#333333"/>
<path d="M1009 757.679L875 834.659V840H876.423L1009 763.838V757.679Z" fill="#333333"/>
<path d="M1009 774.346L894.715 840H905.435L1009 780.504V774.346Z" fill="#333333"/>
<path d="M1009 791.013L923.727 840H934.447L1009 797.171V791.013Z" fill="#333333"/>
<path d="M1009 807.679L952.739 840H963.459L1009 813.838V807.679Z" fill="#333333"/>
<path d="M1009 824.346L981.751 840H992.471L1009 830.504V824.346Z" fill="#333333"/>
<path d="M1036.5 597L1037.88 602.121L1043 603.5L1037.88 604.879L1036.5 610L1035.12 604.879L1030 603.5L1035.12 602.121L1036.5 597Z" fill="#333333"/>
<path d="M1099.5 743L1102.36 753.636L1113 756.5L1102.36 759.364L1099.5 770L1096.64 759.364L1086 756.5L1096.64 753.636L1099.5 743Z" fill="#333333"/>
<path d="M308 126L310.121 133.879L318 136L310.121 138.121L308 146L305.879 138.121L298 136L305.879 133.879L308 126Z" fill="#7B7B7B"/>
<defs>
<linearGradient id="paint0_linear_35_1018" x1="1224.33" y1="696.333" x2="1144.67" y2="493.333" gradientUnits="userSpaceOnUse">
<stop stop-color="#2E2E2E"/>
<stop offset="1" stop-color="#373737" stop-opacity="0"/>
</linearGradient>
<linearGradient id="paint1_linear_35_1018" x1="1224.33" y1="696.333" x2="1144.67" y2="493.333" gradientUnits="userSpaceOnUse">
<stop stop-color="#2E2E2E"/>
<stop offset="1" stop-color="#373737" stop-opacity="0"/>
</linearGradient>
<linearGradient id="paint2_linear_35_1018" x1="1224.33" y1="696.333" x2="1144.67" y2="493.333" gradientUnits="userSpaceOnUse">
<stop stop-color="#2E2E2E"/>
<stop offset="1" stop-color="#373737" stop-opacity="0"/>
</linearGradient>
<linearGradient id="paint3_linear_35_1018" x1="1224.33" y1="696.333" x2="1144.67" y2="493.333" gradientUnits="userSpaceOnUse">
<stop stop-color="#2E2E2E"/>
<stop offset="1" stop-color="#373737" stop-opacity="0"/>
</linearGradient>
<linearGradient id="paint4_linear_35_1018" x1="1224.33" y1="696.333" x2="1144.67" y2="493.333" gradientUnits="userSpaceOnUse">
<stop stop-color="#2E2E2E"/>
<stop offset="1" stop-color="#373737" stop-opacity="0"/>
</linearGradient>
<linearGradient id="paint5_linear_35_1018" x1="1224.33" y1="696.333" x2="1144.67" y2="493.333" gradientUnits="userSpaceOnUse">
<stop stop-color="#2E2E2E"/>
<stop offset="1" stop-color="#373737" stop-opacity="0"/>
</linearGradient>
<linearGradient id="paint6_linear_35_1018" x1="1224.33" y1="696.333" x2="1144.67" y2="493.333" gradientUnits="userSpaceOnUse">
<stop stop-color="#2E2E2E"/>
<stop offset="1" stop-color="#373737" stop-opacity="0"/>
</linearGradient>
<linearGradient id="paint7_linear_35_1018" x1="1224.33" y1="696.333" x2="1144.67" y2="493.333" gradientUnits="userSpaceOnUse">
<stop stop-color="#2E2E2E"/>
<stop offset="1" stop-color="#373737" stop-opacity="0"/>
</linearGradient>
<linearGradient id="paint8_linear_35_1018" x1="1224.33" y1="696.333" x2="1144.67" y2="493.333" gradientUnits="userSpaceOnUse">
<stop stop-color="#2E2E2E"/>
<stop offset="1" stop-color="#373737" stop-opacity="0"/>
</linearGradient>
<linearGradient id="paint9_linear_35_1018" x1="1224.33" y1="696.333" x2="1144.67" y2="493.333" gradientUnits="userSpaceOnUse">
<stop stop-color="#2E2E2E"/>
<stop offset="1" stop-color="#373737" stop-opacity="0"/>
</linearGradient>
<linearGradient id="paint10_linear_35_1018" x1="1224.33" y1="696.333" x2="1144.67" y2="493.333" gradientUnits="userSpaceOnUse">
<stop stop-color="#2E2E2E"/>
<stop offset="1" stop-color="#373737" stop-opacity="0"/>
</linearGradient>
<linearGradient id="paint11_linear_35_1018" x1="1224.33" y1="696.333" x2="1144.67" y2="493.333" gradientUnits="userSpaceOnUse">
<stop stop-color="#2E2E2E"/>
<stop offset="1" stop-color="#373737" stop-opacity="0"/>
</linearGradient>
<linearGradient id="paint12_linear_35_1018" x1="1224.33" y1="696.333" x2="1144.67" y2="493.333" gradientUnits="userSpaceOnUse">
<stop stop-color="#2E2E2E"/>
<stop offset="1" stop-color="#373737" stop-opacity="0"/>
</linearGradient>
<linearGradient id="paint13_linear_35_1018" x1="1224.33" y1="696.333" x2="1144.67" y2="493.333" gradientUnits="userSpaceOnUse">
<stop stop-color="#2E2E2E"/>
<stop offset="1" stop-color="#373737" stop-opacity="0"/>
</linearGradient>
<linearGradient id="paint14_linear_35_1018" x1="1224.33" y1="696.333" x2="1144.67" y2="493.333" gradientUnits="userSpaceOnUse">
<stop stop-color="#2E2E2E"/>
<stop offset="1" stop-color="#373737" stop-opacity="0"/>
</linearGradient>
<linearGradient id="paint15_linear_35_1018" x1="1224.33" y1="696.333" x2="1144.67" y2="493.333" gradientUnits="userSpaceOnUse">
<stop stop-color="#2E2E2E"/>
<stop offset="1" stop-color="#373737" stop-opacity="0"/>
</linearGradient>
<linearGradient id="paint16_linear_35_1018" x1="1224.33" y1="696.333" x2="1144.67" y2="493.333" gradientUnits="userSpaceOnUse">
<stop stop-color="#2E2E2E"/>
<stop offset="1" stop-color="#373737" stop-opacity="0"/>
</linearGradient>
<linearGradient id="paint17_linear_35_1018" x1="1224.33" y1="696.333" x2="1144.67" y2="493.333" gradientUnits="userSpaceOnUse">
<stop stop-color="#2E2E2E"/>
<stop offset="1" stop-color="#373737" stop-opacity="0"/>
</linearGradient>
<linearGradient id="paint18_linear_35_1018" x1="1224.33" y1="696.333" x2="1144.67" y2="493.333" gradientUnits="userSpaceOnUse">
<stop stop-color="#2E2E2E"/>
<stop offset="1" stop-color="#373737" stop-opacity="0"/>
</linearGradient>
<linearGradient id="paint19_linear_35_1018" x1="1224.33" y1="696.333" x2="1144.67" y2="493.333" gradientUnits="userSpaceOnUse">
<stop stop-color="#2E2E2E"/>
<stop offset="1" stop-color="#373737" stop-opacity="0"/>
</linearGradient>
<linearGradient id="paint20_linear_35_1018" x1="1224.33" y1="696.333" x2="1144.67" y2="493.333" gradientUnits="userSpaceOnUse">
<stop stop-color="#2E2E2E"/>
<stop offset="1" stop-color="#373737" stop-opacity="0"/>
</linearGradient>
<linearGradient id="paint21_linear_35_1018" x1="1224.33" y1="696.333" x2="1144.67" y2="493.333" gradientUnits="userSpaceOnUse">
<stop stop-color="#2E2E2E"/>
<stop offset="1" stop-color="#373737" stop-opacity="0"/>
</linearGradient>
<linearGradient id="paint22_linear_35_1018" x1="1224.33" y1="696.333" x2="1144.67" y2="493.333" gradientUnits="userSpaceOnUse">
<stop stop-color="#2E2E2E"/>
<stop offset="1" stop-color="#373737" stop-opacity="0"/>
</linearGradient>
<linearGradient id="paint23_linear_35_1018" x1="1224.33" y1="696.333" x2="1144.67" y2="493.333" gradientUnits="userSpaceOnUse">
<stop stop-color="#2E2E2E"/>
<stop offset="1" stop-color="#373737" stop-opacity="0"/>
</linearGradient>
<linearGradient id="paint24_linear_35_1018" x1="1224.33" y1="696.333" x2="1144.67" y2="493.333" gradientUnits="userSpaceOnUse">
<stop stop-color="#2E2E2E"/>
<stop offset="1" stop-color="#373737" stop-opacity="0"/>
</linearGradient>
<linearGradient id="paint25_linear_35_1018" x1="1224.33" y1="696.333" x2="1144.67" y2="493.333" gradientUnits="userSpaceOnUse">
<stop stop-color="#2E2E2E"/>
<stop offset="1" stop-color="#373737" stop-opacity="0"/>
</linearGradient>
<linearGradient id="paint26_linear_35_1018" x1="1224.33" y1="696.333" x2="1144.67" y2="493.333" gradientUnits="userSpaceOnUse">
<stop stop-color="#2E2E2E"/>
<stop offset="1" stop-color="#373737" stop-opacity="0"/>
</linearGradient>
<linearGradient id="paint27_linear_35_1018" x1="1224.33" y1="696.333" x2="1144.67" y2="493.333" gradientUnits="userSpaceOnUse">
<stop stop-color="#2E2E2E"/>
<stop offset="1" stop-color="#373737" stop-opacity="0"/>
</linearGradient>
<linearGradient id="paint28_linear_35_1018" x1="1224.33" y1="696.333" x2="1144.67" y2="493.333" gradientUnits="userSpaceOnUse">
<stop stop-color="#2E2E2E"/>
<stop offset="1" stop-color="#373737" stop-opacity="0"/>
</linearGradient>
<linearGradient id="paint29_linear_35_1018" x1="1224.33" y1="696.333" x2="1144.67" y2="493.333" gradientUnits="userSpaceOnUse">
<stop stop-color="#2E2E2E"/>
<stop offset="1" stop-color="#373737" stop-opacity="0"/>
</linearGradient>
<linearGradient id="paint30_linear_35_1018" x1="1224.33" y1="696.333" x2="1144.67" y2="493.333" gradientUnits="userSpaceOnUse">
<stop stop-color="#2E2E2E"/>
<stop offset="1" stop-color="#373737" stop-opacity="0"/>
</linearGradient>
<linearGradient id="paint31_linear_35_1018" x1="1224.33" y1="696.333" x2="1144.67" y2="493.333" gradientUnits="userSpaceOnUse">
<stop stop-color="#2E2E2E"/>
<stop offset="1" stop-color="#373737" stop-opacity="0"/>
</linearGradient>
<linearGradient id="paint32_linear_35_1018" x1="1224.33" y1="696.333" x2="1144.67" y2="493.333" gradientUnits="userSpaceOnUse">
<stop stop-color="#2E2E2E"/>
<stop offset="1" stop-color="#373737" stop-opacity="0"/>
</linearGradient>
<linearGradient id="paint33_linear_35_1018" x1="1224.33" y1="696.333" x2="1144.67" y2="493.333" gradientUnits="userSpaceOnUse">
<stop stop-color="#2E2E2E"/>
<stop offset="1" stop-color="#373737" stop-opacity="0"/>
</linearGradient>
<linearGradient id="paint34_linear_35_1018" x1="1224.33" y1="696.333" x2="1144.67" y2="493.333" gradientUnits="userSpaceOnUse">
<stop stop-color="#2E2E2E"/>
<stop offset="1" stop-color="#373737" stop-opacity="0"/>
</linearGradient>
<linearGradient id="paint35_linear_35_1018" x1="1224.33" y1="696.333" x2="1144.67" y2="493.333" gradientUnits="userSpaceOnUse">
<stop stop-color="#2E2E2E"/>
<stop offset="1" stop-color="#373737" stop-opacity="0"/>
</linearGradient>
<linearGradient id="paint36_linear_35_1018" x1="1224.33" y1="696.333" x2="1144.67" y2="493.333" gradientUnits="userSpaceOnUse">
<stop stop-color="#2E2E2E"/>
<stop offset="1" stop-color="#373737" stop-opacity="0"/>
</linearGradient>
<linearGradient id="paint37_linear_35_1018" x1="1224.33" y1="696.333" x2="1144.67" y2="493.333" gradientUnits="userSpaceOnUse">
<stop stop-color="#2E2E2E"/>
<stop offset="1" stop-color="#373737" stop-opacity="0"/>
</linearGradient>
<linearGradient id="paint38_linear_35_1018" x1="1224.33" y1="696.333" x2="1144.67" y2="493.333" gradientUnits="userSpaceOnUse">
<stop stop-color="#2E2E2E"/>
<stop offset="1" stop-color="#373737" stop-opacity="0"/>
</linearGradient>
<linearGradient id="paint39_linear_35_1018" x1="1224.33" y1="696.333" x2="1144.67" y2="493.333" gradientUnits="userSpaceOnUse">
<stop stop-color="#2E2E2E"/>
<stop offset="1" stop-color="#373737" stop-opacity="0"/>
</linearGradient>
<linearGradient id="paint40_linear_35_1018" x1="1224.33" y1="696.333" x2="1144.67" y2="493.333" gradientUnits="userSpaceOnUse">
<stop stop-color="#2E2E2E"/>
<stop offset="1" stop-color="#373737" stop-opacity="0"/>
</linearGradient>
<linearGradient id="paint41_linear_35_1018" x1="1224.33" y1="696.333" x2="1144.67" y2="493.333" gradientUnits="userSpaceOnUse">
<stop stop-color="#2E2E2E"/>
<stop offset="1" stop-color="#373737" stop-opacity="0"/>
</linearGradient>
<linearGradient id="paint42_linear_35_1018" x1="1224.33" y1="696.333" x2="1144.67" y2="493.333" gradientUnits="userSpaceOnUse">
<stop stop-color="#2E2E2E"/>
<stop offset="1" stop-color="#373737" stop-opacity="0"/>
</linearGradient>
<linearGradient id="paint43_linear_35_1018" x1="1224.33" y1="696.333" x2="1144.67" y2="493.333" gradientUnits="userSpaceOnUse">
<stop stop-color="#2E2E2E"/>
<stop offset="1" stop-color="#373737" stop-opacity="0"/>
</linearGradient>
<linearGradient id="paint44_linear_35_1018" x1="1224.33" y1="696.333" x2="1144.67" y2="493.333" gradientUnits="userSpaceOnUse">
<stop stop-color="#2E2E2E"/>
<stop offset="1" stop-color="#373737" stop-opacity="0"/>
</linearGradient>
<linearGradient id="paint45_linear_35_1018" x1="1224.33" y1="696.333" x2="1144.67" y2="493.333" gradientUnits="userSpaceOnUse">
<stop stop-color="#2E2E2E"/>
<stop offset="1" stop-color="#373737" stop-opacity="0"/>
</linearGradient>
<linearGradient id="paint46_linear_35_1018" x1="1224.33" y1="696.333" x2="1144.67" y2="493.333" gradientUnits="userSpaceOnUse">
<stop stop-color="#2E2E2E"/>
<stop offset="1" stop-color="#373737" stop-opacity="0"/>
</linearGradient>
<linearGradient id="paint47_linear_35_1018" x1="1224.33" y1="696.333" x2="1144.67" y2="493.333" gradientUnits="userSpaceOnUse">
<stop stop-color="#2E2E2E"/>
<stop offset="1" stop-color="#373737" stop-opacity="0"/>
</linearGradient>
<linearGradient id="paint48_linear_35_1018" x1="1224.33" y1="696.333" x2="1144.67" y2="493.333" gradientUnits="userSpaceOnUse">
<stop stop-color="#2E2E2E"/>
<stop offset="1" stop-color="#373737" stop-opacity="0"/>
</linearGradient>
<linearGradient id="paint49_linear_35_1018" x1="1224.33" y1="696.333" x2="1144.67" y2="493.333" gradientUnits="userSpaceOnUse">
<stop stop-color="#2E2E2E"/>
<stop offset="1" stop-color="#373737" stop-opacity="0"/>
</linearGradient>
<linearGradient id="paint50_linear_35_1018" x1="1224.33" y1="696.333" x2="1144.67" y2="493.333" gradientUnits="userSpaceOnUse">
<stop stop-color="#2E2E2E"/>
<stop offset="1" stop-color="#373737" stop-opacity="0"/>
</linearGradient>
<linearGradient id="paint51_linear_35_1018" x1="1224.33" y1="696.333" x2="1144.67" y2="493.333" gradientUnits="userSpaceOnUse">
<stop stop-color="#2E2E2E"/>
<stop offset="1" stop-color="#373737" stop-opacity="0"/>
</linearGradient>
<linearGradient id="paint52_linear_35_1018" x1="1224.33" y1="696.333" x2="1144.67" y2="493.333" gradientUnits="userSpaceOnUse">
<stop stop-color="#2E2E2E"/>
<stop offset="1" stop-color="#373737" stop-opacity="0"/>
</linearGradient>
<linearGradient id="paint53_linear_35_1018" x1="1224.33" y1="696.333" x2="1144.67" y2="493.333" gradientUnits="userSpaceOnUse">
<stop stop-color="#2E2E2E"/>
<stop offset="1" stop-color="#373737" stop-opacity="0"/>
</linearGradient>
<linearGradient id="paint54_linear_35_1018" x1="1224.33" y1="696.333" x2="1144.67" y2="493.333" gradientUnits="userSpaceOnUse">
<stop stop-color="#2E2E2E"/>
<stop offset="1" stop-color="#373737" stop-opacity="0"/>
</linearGradient>
<linearGradient id="paint55_linear_35_1018" x1="1224.33" y1="696.333" x2="1144.67" y2="493.333" gradientUnits="userSpaceOnUse">
<stop stop-color="#2E2E2E"/>
<stop offset="1" stop-color="#373737" stop-opacity="0"/>
</linearGradient>
<linearGradient id="paint56_linear_35_1018" x1="1224.33" y1="696.333" x2="1144.67" y2="493.333" gradientUnits="userSpaceOnUse">
<stop stop-color="#2E2E2E"/>
<stop offset="1" stop-color="#373737" stop-opacity="0"/>
</linearGradient>
<linearGradient id="paint57_linear_35_1018" x1="1224.33" y1="696.333" x2="1144.67" y2="493.333" gradientUnits="userSpaceOnUse">
<stop stop-color="#2E2E2E"/>
<stop offset="1" stop-color="#373737" stop-opacity="0"/>
</linearGradient>
<linearGradient id="paint58_linear_35_1018" x1="1224.33" y1="696.333" x2="1144.67" y2="493.333" gradientUnits="userSpaceOnUse">
<stop stop-color="#2E2E2E"/>
<stop offset="1" stop-color="#373737" stop-opacity="0"/>
</linearGradient>
<linearGradient id="paint59_linear_35_1018" x1="1224.33" y1="696.333" x2="1144.67" y2="493.333" gradientUnits="userSpaceOnUse">
<stop stop-color="#2E2E2E"/>
<stop offset="1" stop-color="#373737" stop-opacity="0"/>
</linearGradient>
<linearGradient id="paint60_linear_35_1018" x1="1224.33" y1="696.333" x2="1144.67" y2="493.333" gradientUnits="userSpaceOnUse">
<stop stop-color="#2E2E2E"/>
<stop offset="1" stop-color="#373737" stop-opacity="0"/>
</linearGradient>
<linearGradient id="paint61_linear_35_1018" x1="1224.33" y1="696.333" x2="1144.67" y2="493.333" gradientUnits="userSpaceOnUse">
<stop stop-color="#2E2E2E"/>
<stop offset="1" stop-color="#373737" stop-opacity="0"/>
</linearGradient>
<linearGradient id="paint62_linear_35_1018" x1="1224.33" y1="696.333" x2="1144.67" y2="493.333" gradientUnits="userSpaceOnUse">
<stop stop-color="#2E2E2E"/>
<stop offset="1" stop-color="#373737" stop-opacity="0"/>
</linearGradient>
<linearGradient id="paint63_linear_35_1018" x1="1224.33" y1="696.333" x2="1144.67" y2="493.333" gradientUnits="userSpaceOnUse">
<stop stop-color="#2E2E2E"/>
<stop offset="1" stop-color="#373737" stop-opacity="0"/>
</linearGradient>
<linearGradient id="paint64_linear_35_1018" x1="1224.33" y1="696.333" x2="1144.67" y2="493.333" gradientUnits="userSpaceOnUse">
<stop stop-color="#2E2E2E"/>
<stop offset="1" stop-color="#373737" stop-opacity="0"/>
</linearGradient>
<linearGradient id="paint65_linear_35_1018" x1="1224.33" y1="696.333" x2="1144.67" y2="493.333" gradientUnits="userSpaceOnUse">
<stop stop-color="#2E2E2E"/>
<stop offset="1" stop-color="#373737" stop-opacity="0"/>
</linearGradient>
<linearGradient id="paint66_linear_35_1018" x1="1224.33" y1="696.333" x2="1144.67" y2="493.333" gradientUnits="userSpaceOnUse">
<stop stop-color="#2E2E2E"/>
<stop offset="1" stop-color="#373737" stop-opacity="0"/>
</linearGradient>
<linearGradient id="paint67_linear_35_1018" x1="1224.33" y1="696.333" x2="1144.67" y2="493.333" gradientUnits="userSpaceOnUse">
<stop stop-color="#2E2E2E"/>
<stop offset="1" stop-color="#373737" stop-opacity="0"/>
</linearGradient>
<linearGradient id="paint68_linear_35_1018" x1="1224.33" y1="696.333" x2="1144.67" y2="493.333" gradientUnits="userSpaceOnUse">
<stop stop-color="#2E2E2E"/>
<stop offset="1" stop-color="#373737" stop-opacity="0"/>
</linearGradient>
<linearGradient id="paint69_linear_35_1018" x1="1224.33" y1="696.333" x2="1144.67" y2="493.333" gradientUnits="userSpaceOnUse">
<stop stop-color="#2E2E2E"/>
<stop offset="1" stop-color="#373737" stop-opacity="0"/>
</linearGradient>
<linearGradient id="paint70_linear_35_1018" x1="1224.33" y1="696.333" x2="1144.67" y2="493.333" gradientUnits="userSpaceOnUse">
<stop stop-color="#2E2E2E"/>
<stop offset="1" stop-color="#373737" stop-opacity="0"/>
</linearGradient>
<linearGradient id="paint71_linear_35_1018" x1="1224.33" y1="696.333" x2="1144.67" y2="493.333" gradientUnits="userSpaceOnUse">
<stop stop-color="#2E2E2E"/>
<stop offset="1" stop-color="#373737" stop-opacity="0"/>
</linearGradient>
<linearGradient id="paint72_linear_35_1018" x1="1224.33" y1="696.333" x2="1144.67" y2="493.333" gradientUnits="userSpaceOnUse">
<stop stop-color="#2E2E2E"/>
<stop offset="1" stop-color="#373737" stop-opacity="0"/>
</linearGradient>
<linearGradient id="paint73_linear_35_1018" x1="1224.33" y1="696.333" x2="1144.67" y2="493.333" gradientUnits="userSpaceOnUse">
<stop stop-color="#2E2E2E"/>
<stop offset="1" stop-color="#373737" stop-opacity="0"/>
</linearGradient>
<linearGradient id="paint74_linear_35_1018" x1="1224.33" y1="696.333" x2="1144.67" y2="493.333" gradientUnits="userSpaceOnUse">
<stop stop-color="#2E2E2E"/>
<stop offset="1" stop-color="#373737" stop-opacity="0"/>
</linearGradient>
<linearGradient id="paint75_linear_35_1018" x1="1224.33" y1="696.333" x2="1144.67" y2="493.333" gradientUnits="userSpaceOnUse">
<stop stop-color="#2E2E2E"/>
<stop offset="1" stop-color="#373737" stop-opacity="0"/>
</linearGradient>
<linearGradient id="paint76_linear_35_1018" x1="1224.33" y1="696.333" x2="1144.67" y2="493.333" gradientUnits="userSpaceOnUse">
<stop stop-color="#2E2E2E"/>
<stop offset="1" stop-color="#373737" stop-opacity="0"/>
</linearGradient>
<linearGradient id="paint77_linear_35_1018" x1="1224.33" y1="696.333" x2="1144.67" y2="493.333" gradientUnits="userSpaceOnUse">
<stop stop-color="#2E2E2E"/>
<stop offset="1" stop-color="#373737" stop-opacity="0"/>
</linearGradient>
<linearGradient id="paint78_linear_35_1018" x1="1224.33" y1="696.333" x2="1144.67" y2="493.333" gradientUnits="userSpaceOnUse">
<stop stop-color="#2E2E2E"/>
<stop offset="1" stop-color="#373737" stop-opacity="0"/>
</linearGradient>
<linearGradient id="paint79_linear_35_1018" x1="1224.33" y1="696.333" x2="1144.67" y2="493.333" gradientUnits="userSpaceOnUse">
<stop stop-color="#2E2E2E"/>
<stop offset="1" stop-color="#373737" stop-opacity="0"/>
</linearGradient>
<linearGradient id="paint80_linear_35_1018" x1="1224.33" y1="696.333" x2="1144.67" y2="493.333" gradientUnits="userSpaceOnUse">
<stop stop-color="#2E2E2E"/>
<stop offset="1" stop-color="#373737" stop-opacity="0"/>
</linearGradient>
<linearGradient id="paint81_linear_35_1018" x1="1224.33" y1="696.333" x2="1144.67" y2="493.333" gradientUnits="userSpaceOnUse">
<stop stop-color="#2E2E2E"/>
<stop offset="1" stop-color="#373737" stop-opacity="0"/>
</linearGradient>
<linearGradient id="paint82_linear_35_1018" x1="1224.33" y1="696.333" x2="1144.67" y2="493.333" gradientUnits="userSpaceOnUse">
<stop stop-color="#2E2E2E"/>
<stop offset="1" stop-color="#373737" stop-opacity="0"/>
</linearGradient>
<linearGradient id="paint83_linear_35_1018" x1="1224.33" y1="696.333" x2="1144.67" y2="493.333" gradientUnits="userSpaceOnUse">
<stop stop-color="#2E2E2E"/>
<stop offset="1" stop-color="#373737" stop-opacity="0"/>
</linearGradient>
<linearGradient id="paint84_linear_35_1018" x1="1224.33" y1="696.333" x2="1144.67" y2="493.333" gradientUnits="userSpaceOnUse">
<stop stop-color="#2E2E2E"/>
<stop offset="1" stop-color="#373737" stop-opacity="0"/>
</linearGradient>
<linearGradient id="paint85_linear_35_1018" x1="1224.33" y1="696.333" x2="1144.67" y2="493.333" gradientUnits="userSpaceOnUse">
<stop stop-color="#2E2E2E"/>
<stop offset="1" stop-color="#373737" stop-opacity="0"/>
</linearGradient>
<linearGradient id="paint86_linear_35_1018" x1="1224.33" y1="696.333" x2="1144.67" y2="493.333" gradientUnits="userSpaceOnUse">
<stop stop-color="#2E2E2E"/>
<stop offset="1" stop-color="#373737" stop-opacity="0"/>
</linearGradient>
<linearGradient id="paint87_linear_35_1018" x1="1224.33" y1="696.333" x2="1144.67" y2="493.333" gradientUnits="userSpaceOnUse">
<stop stop-color="#2E2E2E"/>
<stop offset="1" stop-color="#373737" stop-opacity="0"/>
</linearGradient>
</defs>
</svg>
