<svg width="443" height="16" viewBox="0 0 443 16" fill="none" xmlns="http://www.w3.org/2000/svg">
<path fill-rule="evenodd" clip-rule="evenodd" d="M303.658 2.22101C303.751 2.02562 303.804 1.80691 303.804 1.57601C303.804 0.747583 303.132 0.0760101 302.304 0.0760101C282.388 0.0760101 262.471 0.0590745 242.553 0.0421382C202.714 0.00826285 162.872 -0.0256151 123.033 0.076015C119.865 0.0840962 116.663 0.0617083 113.44 0.039175C102.04 -0.0405368 90.3789 -0.122069 79.0478 1.13695C78.1819 1.23316 77.5032 1.32456 77.0082 1.41319C76.7634 1.45704 76.5343 1.5053 76.3377 1.56102C76.2396 1.58881 76.1255 1.62514 76.01 1.67337C75.9147 1.71317 75.7194 1.80074 75.5266 1.96426C75.3573 2.10784 74.8866 2.57995 74.9822 3.3431C75.0685 4.03175 75.5568 4.37284 75.6868 4.45784C75.9886 4.65526 76.3253 4.72718 76.4483 4.75346L76.4515 4.75416C76.8069 4.83011 77.2971 4.88324 77.8403 4.92573C80.0558 5.09904 84.4066 5.18093 89.5444 5.2162C96.1051 5.26123 104.076 5.23022 110.767 5.20419C114.581 5.18935 117.979 5.17614 120.464 5.17953C151.929 5.22252 183.395 5.23924 214.861 5.24173C186.681 5.93924 158.504 6.79216 130.336 7.88829C97.7922 8.04116 67.0851 8.18421 42.0526 8.30082C25.785 8.3766 11.9139 8.44122 1.49296 8.49011C0.664544 8.494 -0.00387019 9.16871 1.68678e-05 9.99713C0.00390381 10.8256 0.67862 11.494 1.50704 11.4901C11.9277 11.4412 25.7986 11.3766 42.0661 11.3008C47.5586 11.2752 53.3243 11.2483 59.3227 11.2204C58.1728 11.2844 57.0229 11.349 55.8731 11.4141C46.0697 11.969 41.0646 12.2864 39.3001 12.4429C39.0774 12.4626 38.8931 12.4809 38.7513 12.498C38.6813 12.5065 38.6092 12.5161 38.5419 12.5273L38.5374 12.528C38.4984 12.5344 38.3544 12.5581 38.203 12.613C38.1564 12.6299 38.0613 12.6665 37.9511 12.7307C37.8824 12.7707 37.5895 12.9414 37.3884 13.3068C37.3025 13.4913 37.2061 13.9214 37.2076 14.1603C37.2457 14.391 37.404 14.7838 37.5101 14.9429C37.7442 15.2497 38.0291 15.3763 38.0986 15.4071C38.2792 15.4873 38.4392 15.5139 38.475 15.5199L38.4783 15.5204C38.5397 15.5308 38.5933 15.5364 38.6279 15.5395C38.7539 15.551 38.9089 15.5543 39.047 15.5557C39.6361 15.5615 40.8321 15.5349 42.4001 15.4885C46.7453 15.3598 54.2155 15.0699 60.6259 14.821C63.5241 14.7085 66.2057 14.6045 68.2839 14.5275C128.196 12.3085 188.165 11.0619 248.138 10.3273C285.422 10.1463 318.854 9.97936 342.045 9.854C374.399 9.67911 391.622 9.56597 399.073 9.49556C400.935 9.47797 402.191 9.463 402.922 9.45034C403.279 9.44415 403.532 9.43819 403.668 9.43184C403.698 9.43042 403.75 9.42777 403.804 9.4225L403.805 9.4224C403.817 9.42125 403.911 9.4126 404.02 9.38648C404.114 9.36076 404.464 9.20076 404.694 9.02483C405.148 8.19308 404.723 6.85654 404.319 6.57323C404.192 6.51955 404.004 6.46336 403.945 6.45111C403.911 6.44519 403.857 6.43722 403.835 6.43446C403.793 6.42962 403.757 6.42716 403.739 6.42599C403.698 6.42339 403.656 6.42174 403.62 6.42057C403.097 6.40335 400.797 6.39569 397.449 6.39377C383.98 6.38602 352.879 6.47328 347.054 6.50346C320.219 6.6425 293.377 6.83339 266.533 7.11741C281.113 6.83774 295.694 6.58531 310.275 6.34796C347.052 5.74925 366.578 5.52714 402.464 5.29636C410.873 5.24229 419.282 5.21823 427.693 5.19416C429.37 5.18937 431.047 5.18457 432.724 5.17953H441.37C441.726 5.17953 441.914 5.17941 441.954 5.17914L441.971 5.17897C441.971 5.17896 441.986 5.17878 442.003 5.17817C442.017 5.17762 442.072 5.17411 442.114 5.17013C443.191 4.52112 442.92 2.53476 442.106 2.18729C442.068 2.18377 442.017 2.18059 442.004 2.18005L441.982 2.17943L441.967 2.17916L441.953 2.17903L441.893 2.1788L441.642 2.17832C441.191 2.17764 440.29 2.17683 439.208 2.17629C437.048 2.1752 434.165 2.1752 432.72 2.17953H429.45C395.117 2.17953 360.785 2.19517 326.453 2.2108C318.854 2.21426 311.256 2.21772 303.658 2.22101ZM39.0404 15.4857C39.0231 15.489 39.0193 15.4891 39.0342 15.4866C39.0353 15.4864 39.0373 15.4861 39.0404 15.4857ZM77.0329 1.80889C77.0336 1.80866 77.0439 1.81103 77.0617 1.81669C77.0411 1.81194 77.0322 1.80911 77.0329 1.80889Z" fill="#333333"/>
</svg>
