<?xml version="1.0" encoding="utf-8"?>
<!-- Generator: Adobe Illustrator 24.1.2, SVG Export Plug-In . SVG Version: 6.00 Build 0)  -->
<svg version="1.1" id="Layer_1" xmlns="http://www.w3.org/2000/svg" xmlns:xlink="http://www.w3.org/1999/xlink" x="0px" y="0px"
	 viewBox="0 0 2500 2500" style="enable-background:new 0 0 2500 2500;" xml:space="preserve">
<style type="text/css">
	.st0{fill:#333333;}
	.st1{fill:#C4C4C4;}
</style>
<path class="st0" d="M1837,2068.5H719.1c-127.5,0-231-103.5-231-231V719.6c0-127.5,103.5-231,231-231H1837
	c127.5,0,231,103.5,231,231v1117.9C2068.1,1965,1964.8,2068.5,1837,2068.5z"/>
<g>
	<path class="st1" d="M842.4,852.3v175.2l327.6,429.6l327.9,429.6h134.2c133.6,0,134.2,0,133-1.8C1759.6,1877,843.6,677.1,843,677.1
		C842.7,677.1,842.4,756,842.4,852.3z"/>
	<path class="st1" d="M878.2,671.9c0.6,0.9,37.3,49.2,81.7,107.2l80.8,105.7l10-0.3c5.5-0.3,20.3-0.9,33.1-1.2
		c23.4-1.2,376.2-2.4,376.2-1.5c0,0.3-1.5,6.1-3.3,12.4c-4.6,16.7-20,53.1-51.3,121.4c-22.8,49.5-38.6,87.4-45.5,108.4l-3,9.4
		l3.6,7.3c19.1,40.1,129.9,188.8,140.9,188.8c1.8,0,18.5-34.9,66.5-140.6c79.9-175.8,184.3-411.4,219.8-495.5
		c7-16.7,8.8-21.9,7.9-22.5c-0.6-0.6-207.4-0.9-459.7-0.9C899.4,670.1,877.3,670.4,878.2,671.9z"/>
	<path class="st1" d="M821.7,1545.7v341h321.5h321.5l-12.4-16.4c-109.3-143.6-147.9-193.7-149.7-194c-1.2-0.3-61.6-0.6-134.8-0.6
		h-133v-97.5V1481l-53.7-69.8c-41.9-54.3-147.3-191-157.6-204.3C821.7,1204.8,821.7,1214.2,821.7,1545.7z"/>
</g>
</svg>
