<svg width="1377" height="813" viewBox="0 0 1377 813" fill="none" xmlns="http://www.w3.org/2000/svg">
<circle cx="38.2186" cy="766.928" r="0.685676" transform="rotate(-90 38.2186 766.928)" fill="white"/>
<circle cx="38.2186" cy="664.077" r="0.685676" transform="rotate(-90 38.2186 664.077)" fill="white"/>
<circle cx="38.2186" cy="561.225" r="0.685676" transform="rotate(-90 38.2186 561.225)" fill="white"/>
<ellipse cx="38.2186" cy="458.374" rx="0.685696" ry="0.685676" transform="rotate(-90 38.2186 458.374)" fill="white"/>
<ellipse cx="38.2186" cy="355.523" rx="0.685696" ry="0.685676" transform="rotate(-90 38.2186 355.523)" fill="white"/>
<circle cx="38.2186" cy="252.672" r="0.685676" transform="rotate(-90 38.2186 252.672)" fill="white"/>
<circle cx="38.2186" cy="149.82" r="0.685676" transform="rotate(-90 38.2186 149.82)" fill="white"/>
<circle cx="106.786" cy="773.785" r="0.685676" transform="rotate(-90 106.786 773.785)" fill="white"/>
<ellipse cx="106.786" cy="670.933" rx="0.685644" ry="0.685676" transform="rotate(-90 106.786 670.933)" fill="white"/>
<circle cx="106.786" cy="568.082" r="0.685676" transform="rotate(-90 106.786 568.082)" fill="white"/>
<circle cx="106.786" cy="465.231" r="0.685676" transform="rotate(-90 106.786 465.231)" fill="white"/>
<circle cx="106.786" cy="362.38" r="0.685676" transform="rotate(-90 106.786 362.38)" fill="white"/>
<circle cx="106.786" cy="259.528" r="0.685676" transform="rotate(-90 106.786 259.528)" fill="white"/>
<circle cx="106.786" cy="156.677" r="0.685676" transform="rotate(-90 106.786 156.677)" fill="white"/>
<circle cx="175.354" cy="725.787" r="0.685676" transform="rotate(-90 175.354 725.787)" fill="white"/>
<circle cx="175.354" cy="622.936" r="0.685676" transform="rotate(-90 175.354 622.936)" fill="white"/>
<circle cx="175.354" cy="520.085" r="0.685676" transform="rotate(-90 175.354 520.085)" fill="white"/>
<ellipse cx="175.354" cy="417.234" rx="0.685655" ry="0.685676" transform="rotate(-90 175.354 417.234)" fill="white"/>
<ellipse cx="175.354" cy="314.382" rx="0.685655" ry="0.685676" transform="rotate(-90 175.354 314.382)" fill="white"/>
<circle cx="175.354" cy="211.531" r="0.685676" transform="rotate(-90 175.354 211.531)" fill="white"/>
<circle cx="175.354" cy="108.68" r="0.685676" transform="rotate(-90 175.354 108.68)" fill="white"/>
<circle cx="243.921" cy="746.358" r="0.685676" transform="rotate(-90 243.921 746.358)" fill="white"/>
<circle cx="243.921" cy="643.506" r="0.685676" transform="rotate(-90 243.921 643.506)" fill="white"/>
<circle cx="243.921" cy="540.655" r="0.685676" transform="rotate(-90 243.921 540.655)" fill="white"/>
<ellipse cx="243.921" cy="437.804" rx="0.685717" ry="0.685676" transform="rotate(-90 243.921 437.804)" fill="white"/>
<circle cx="243.921" cy="334.953" r="0.685676" transform="rotate(-90 243.921 334.953)" fill="white"/>
<circle cx="243.921" cy="232.101" r="0.685676" transform="rotate(-90 243.921 232.101)" fill="white"/>
<circle cx="243.921" cy="129.25" r="0.685676" transform="rotate(-90 243.921 129.25)" fill="white"/>
<circle cx="312.489" cy="725.787" r="0.685676" transform="rotate(-90 312.489 725.787)" fill="white"/>
<circle cx="312.489" cy="622.936" r="0.685676" transform="rotate(-90 312.489 622.936)" fill="white"/>
<circle cx="312.489" cy="520.085" r="0.685676" transform="rotate(-90 312.489 520.085)" fill="white"/>
<ellipse cx="312.489" cy="417.234" rx="0.685655" ry="0.685676" transform="rotate(-90 312.489 417.234)" fill="white"/>
<ellipse cx="312.489" cy="314.382" rx="0.685655" ry="0.685676" transform="rotate(-90 312.489 314.382)" fill="white"/>
<circle cx="312.489" cy="211.531" r="0.685676" transform="rotate(-90 312.489 211.531)" fill="white"/>
<circle cx="312.489" cy="108.68" r="0.685676" transform="rotate(-90 312.489 108.68)" fill="white"/>
<circle cx="382.427" cy="760.071" r="0.685676" transform="rotate(-90 382.427 760.071)" fill="white"/>
<circle cx="382.427" cy="657.22" r="0.685676" transform="rotate(-90 382.427 657.22)" fill="white"/>
<circle cx="382.427" cy="554.369" r="0.685676" transform="rotate(-90 382.427 554.369)" fill="white"/>
<ellipse cx="382.427" cy="451.517" rx="0.685655" ry="0.685676" transform="rotate(-90 382.427 451.517)" fill="white"/>
<ellipse cx="382.427" cy="348.666" rx="0.685655" ry="0.685676" transform="rotate(-90 382.427 348.666)" fill="white"/>
<circle cx="382.427" cy="245.815" r="0.685676" transform="rotate(-90 382.427 245.815)" fill="white"/>
<circle cx="382.427" cy="142.963" r="0.685676" transform="rotate(-90 382.427 142.963)" fill="white"/>
<circle cx="450.995" cy="718.931" r="0.685676" transform="rotate(-90 450.995 718.931)" fill="white"/>
<circle cx="450.995" cy="616.079" r="0.685676" transform="rotate(-90 450.995 616.079)" fill="white"/>
<circle cx="450.995" cy="513.228" r="0.685676" transform="rotate(-90 450.995 513.228)" fill="white"/>
<ellipse cx="450.995" cy="410.377" rx="0.685655" ry="0.685676" transform="rotate(-90 450.995 410.377)" fill="white"/>
<circle cx="450.995" cy="307.526" r="0.685676" transform="rotate(-90 450.995 307.526)" fill="white"/>
<circle cx="450.995" cy="204.674" r="0.685676" transform="rotate(-90 450.995 204.674)" fill="white"/>
<ellipse cx="519.562" cy="732.644" rx="0.685686" ry="0.685676" transform="rotate(-90 519.562 732.644)" fill="white"/>
<circle cx="519.562" cy="629.793" r="0.685676" transform="rotate(-90 519.562 629.793)" fill="white"/>
<circle cx="519.562" cy="526.942" r="0.685676" transform="rotate(-90 519.562 526.942)" fill="white"/>
<ellipse cx="519.562" cy="424.09" rx="0.685696" ry="0.685676" transform="rotate(-90 519.562 424.09)" fill="white"/>
<ellipse cx="519.562" cy="321.239" rx="0.685738" ry="0.685676" transform="rotate(-90 519.562 321.239)" fill="white"/>
<circle cx="519.562" cy="218.388" r="0.685676" transform="rotate(-90 519.562 218.388)" fill="white"/>
<circle cx="519.562" cy="115.536" r="0.685676" transform="rotate(-90 519.562 115.536)" fill="white"/>
<ellipse cx="588.13" cy="794.355" rx="0.685676" ry="0.685644" transform="rotate(-90 588.13 794.355)" fill="white"/>
<ellipse cx="588.13" cy="691.504" rx="0.685676" ry="0.685644" transform="rotate(-90 588.13 691.504)" fill="white"/>
<ellipse cx="588.13" cy="588.652" rx="0.685676" ry="0.685644" transform="rotate(-90 588.13 588.652)" fill="white"/>
<ellipse cx="588.13" cy="485.801" rx="0.685676" ry="0.685644" transform="rotate(-90 588.13 485.801)" fill="white"/>
<ellipse cx="588.13" cy="382.95" rx="0.685655" ry="0.685644" transform="rotate(-90 588.13 382.95)" fill="white"/>
<ellipse cx="588.13" cy="280.099" rx="0.685676" ry="0.685644" transform="rotate(-90 588.13 280.099)" fill="white"/>
<ellipse cx="588.13" cy="177.247" rx="0.685676" ry="0.685644" transform="rotate(-90 588.13 177.247)" fill="white"/>
<ellipse cx="588.13" cy="74.3959" rx="0.685676" ry="0.685644" transform="rotate(-90 588.13 74.3959)" fill="white"/>
<circle cx="656.698" cy="746.358" r="0.685676" transform="rotate(-90 656.698 746.358)" fill="white"/>
<circle cx="656.698" cy="643.506" r="0.685676" transform="rotate(-90 656.698 643.506)" fill="white"/>
<circle cx="656.698" cy="540.655" r="0.685676" transform="rotate(-90 656.698 540.655)" fill="white"/>
<ellipse cx="656.698" cy="437.804" rx="0.685717" ry="0.685676" transform="rotate(-90 656.698 437.804)" fill="white"/>
<circle cx="656.698" cy="334.953" r="0.685676" transform="rotate(-90 656.698 334.953)" fill="white"/>
<circle cx="656.698" cy="232.101" r="0.685676" transform="rotate(-90 656.698 232.101)" fill="white"/>
<circle cx="656.698" cy="129.25" r="0.685676" transform="rotate(-90 656.698 129.25)" fill="white"/>
<circle cx="725.265" cy="725.787" r="0.685676" transform="rotate(-90 725.265 725.787)" fill="white"/>
<circle cx="725.265" cy="622.936" r="0.685676" transform="rotate(-90 725.265 622.936)" fill="white"/>
<circle cx="725.265" cy="520.085" r="0.685676" transform="rotate(-90 725.265 520.085)" fill="white"/>
<ellipse cx="725.265" cy="417.234" rx="0.685655" ry="0.685676" transform="rotate(-90 725.265 417.234)" fill="white"/>
<ellipse cx="725.265" cy="314.382" rx="0.685655" ry="0.685676" transform="rotate(-90 725.265 314.382)" fill="white"/>
<circle cx="725.265" cy="211.531" r="0.685676" transform="rotate(-90 725.265 211.531)" fill="white"/>
<circle cx="725.265" cy="108.68" r="0.685676" transform="rotate(-90 725.265 108.68)" fill="white"/>
<circle cx="800.689" cy="780.641" r="0.685676" transform="rotate(-90 800.689 780.641)" fill="white"/>
<circle cx="800.689" cy="677.79" r="0.685676" transform="rotate(-90 800.689 677.79)" fill="white"/>
<circle cx="800.689" cy="574.939" r="0.685676" transform="rotate(-90 800.689 574.939)" fill="white"/>
<circle cx="800.689" cy="472.088" r="0.685676" transform="rotate(-90 800.689 472.088)" fill="white"/>
<ellipse cx="800.689" cy="369.236" rx="0.685717" ry="0.685676" transform="rotate(-90 800.689 369.236)" fill="white"/>
<circle cx="800.689" cy="266.385" r="0.685676" transform="rotate(-90 800.689 266.385)" fill="white"/>
<circle cx="800.689" cy="163.534" r="0.685676" transform="rotate(-90 800.689 163.534)" fill="white"/>
<circle cx="800.689" cy="60.6822" r="0.685676" transform="rotate(-90 800.689 60.6822)" fill="white"/>
<circle cx="876.114" cy="718.931" r="0.685676" transform="rotate(-90 876.114 718.931)" fill="white"/>
<circle cx="876.114" cy="616.079" r="0.685676" transform="rotate(-90 876.114 616.079)" fill="white"/>
<circle cx="876.114" cy="513.228" r="0.685676" transform="rotate(-90 876.114 513.228)" fill="white"/>
<ellipse cx="876.114" cy="410.377" rx="0.685655" ry="0.685676" transform="rotate(-90 876.114 410.377)" fill="white"/>
<circle cx="876.114" cy="307.526" r="0.685676" transform="rotate(-90 876.114 307.526)" fill="white"/>
<circle cx="876.114" cy="204.674" r="0.685676" transform="rotate(-90 876.114 204.674)" fill="white"/>
<circle cx="876.114" cy="101.823" r="0.685676" transform="rotate(-90 876.114 101.823)" fill="white"/>
<circle cx="950.167" cy="766.928" r="0.685676" transform="rotate(-90 950.167 766.928)" fill="white"/>
<circle cx="950.167" cy="664.077" r="0.685676" transform="rotate(-90 950.167 664.077)" fill="white"/>
<circle cx="950.167" cy="561.225" r="0.685676" transform="rotate(-90 950.167 561.225)" fill="white"/>
<ellipse cx="950.167" cy="458.374" rx="0.685696" ry="0.685676" transform="rotate(-90 950.167 458.374)" fill="white"/>
<ellipse cx="950.167" cy="355.523" rx="0.685696" ry="0.685676" transform="rotate(-90 950.167 355.523)" fill="white"/>
<circle cx="950.167" cy="252.672" r="0.685676" transform="rotate(-90 950.167 252.672)" fill="white"/>
<circle cx="950.167" cy="149.82" r="0.685676" transform="rotate(-90 950.167 149.82)" fill="white"/>
<circle cx="1025.59" cy="808.068" r="0.685676" transform="rotate(-90 1025.59 808.068)" fill="white"/>
<ellipse cx="1025.59" cy="705.217" rx="0.685665" ry="0.685676" transform="rotate(-90 1025.59 705.217)" fill="white"/>
<circle cx="1025.59" cy="602.366" r="0.685676" transform="rotate(-90 1025.59 602.366)" fill="white"/>
<circle cx="1025.59" cy="499.515" r="0.685676" transform="rotate(-90 1025.59 499.515)" fill="white"/>
<circle cx="1025.59" cy="396.663" r="0.685676" transform="rotate(-90 1025.59 396.663)" fill="white"/>
<circle cx="1025.59" cy="293.812" r="0.685676" transform="rotate(-90 1025.59 293.812)" fill="white"/>
<circle cx="1025.59" cy="190.961" r="0.685676" transform="rotate(-90 1025.59 190.961)" fill="white"/>
<circle cx="1025.59" cy="88.1092" r="0.685676" transform="rotate(-90 1025.59 88.1092)" fill="white"/>
<circle cx="1101.02" cy="746.358" r="0.685676" transform="rotate(-90 1101.02 746.358)" fill="white"/>
<circle cx="1101.02" cy="643.506" r="0.685676" transform="rotate(-90 1101.02 643.506)" fill="white"/>
<circle cx="1101.02" cy="540.655" r="0.685676" transform="rotate(-90 1101.02 540.655)" fill="white"/>
<ellipse cx="1101.02" cy="437.804" rx="0.685717" ry="0.685676" transform="rotate(-90 1101.02 437.804)" fill="white"/>
<circle cx="1101.02" cy="334.953" r="0.685676" transform="rotate(-90 1101.02 334.953)" fill="white"/>
<circle cx="1101.02" cy="232.101" r="0.685676" transform="rotate(-90 1101.02 232.101)" fill="white"/>
<circle cx="1101.02" cy="129.25" r="0.685676" transform="rotate(-90 1101.02 129.25)" fill="white"/>
<circle cx="1176.44" cy="808.068" r="0.685676" transform="rotate(-90 1176.44 808.068)" fill="white"/>
<ellipse cx="1176.44" cy="705.217" rx="0.685665" ry="0.685676" transform="rotate(-90 1176.44 705.217)" fill="white"/>
<circle cx="1176.44" cy="602.366" r="0.685676" transform="rotate(-90 1176.44 602.366)" fill="white"/>
<circle cx="1176.44" cy="499.515" r="0.685676" transform="rotate(-90 1176.44 499.515)" fill="white"/>
<circle cx="1176.44" cy="396.663" r="0.685676" transform="rotate(-90 1176.44 396.663)" fill="white"/>
<circle cx="1176.44" cy="293.812" r="0.685676" transform="rotate(-90 1176.44 293.812)" fill="white"/>
<circle cx="1176.44" cy="190.961" r="0.685676" transform="rotate(-90 1176.44 190.961)" fill="white"/>
<ellipse cx="1245.01" cy="732.644" rx="0.685686" ry="0.685676" transform="rotate(-90 1245.01 732.644)" fill="white"/>
<circle cx="1245.01" cy="629.793" r="0.685676" transform="rotate(-90 1245.01 629.793)" fill="white"/>
<circle cx="1245.01" cy="526.942" r="0.685676" transform="rotate(-90 1245.01 526.942)" fill="white"/>
<ellipse cx="1245.01" cy="424.09" rx="0.685696" ry="0.685676" transform="rotate(-90 1245.01 424.09)" fill="white"/>
<ellipse cx="1245.01" cy="321.239" rx="0.685738" ry="0.685676" transform="rotate(-90 1245.01 321.239)" fill="white"/>
<circle cx="1245.01" cy="218.388" r="0.685676" transform="rotate(-90 1245.01 218.388)" fill="white"/>
<circle cx="1245.01" cy="218.388" r="0.685676" transform="rotate(-90 1245.01 218.388)" fill="white"/>
<circle cx="1313.57" cy="780.641" r="0.685676" transform="rotate(-90 1313.57 780.641)" fill="white"/>
<circle cx="1313.57" cy="677.79" r="0.685676" transform="rotate(-90 1313.57 677.79)" fill="white"/>
<circle cx="1313.57" cy="574.939" r="0.685676" transform="rotate(-90 1313.57 574.939)" fill="white"/>
<circle cx="1313.57" cy="472.088" r="0.685676" transform="rotate(-90 1313.57 472.088)" fill="white"/>
<ellipse cx="1313.57" cy="369.236" rx="0.685717" ry="0.685676" transform="rotate(-90 1313.57 369.236)" fill="white"/>
<circle cx="1313.57" cy="266.385" r="0.685676" transform="rotate(-90 1313.57 266.385)" fill="white"/>
<circle cx="1313.57" cy="163.534" r="0.685676" transform="rotate(-90 1313.57 163.534)" fill="white"/>
<circle cx="1176.44" cy="88.1092" r="0.685676" transform="rotate(-90 1176.44 88.1092)" fill="white"/>
<ellipse cx="3.93482" cy="712.074" rx="0.685644" ry="0.685676" transform="rotate(-90 3.93482 712.074)" fill="white"/>
<circle cx="3.93482" cy="609.223" r="0.685676" transform="rotate(-90 3.93482 609.223)" fill="white"/>
<circle cx="3.93482" cy="506.371" r="0.685676" transform="rotate(-90 3.93482 506.371)" fill="white"/>
<circle cx="3.93482" cy="403.52" r="0.685676" transform="rotate(-90 3.93482 403.52)" fill="white"/>
<circle cx="3.93482" cy="300.669" r="0.685676" transform="rotate(-90 3.93482 300.669)" fill="white"/>
<circle cx="3.93482" cy="197.818" r="0.685676" transform="rotate(-90 3.93482 197.818)" fill="white"/>
<circle cx="3.93482" cy="94.9662" r="0.685676" transform="rotate(-90 3.93482 94.9662)" fill="white"/>
<ellipse cx="72.5023" cy="773.785" rx="0.685686" ry="0.685676" transform="rotate(-90 72.5023 773.785)" fill="white"/>
<circle cx="72.5023" cy="670.934" r="0.685676" transform="rotate(-90 72.5023 670.934)" fill="white"/>
<circle cx="72.5023" cy="568.082" r="0.685676" transform="rotate(-90 72.5023 568.082)" fill="white"/>
<ellipse cx="72.5023" cy="465.231" rx="0.685696" ry="0.685676" transform="rotate(-90 72.5023 465.231)" fill="white"/>
<ellipse cx="72.5023" cy="362.38" rx="0.685738" ry="0.685676" transform="rotate(-90 72.5023 362.38)" fill="white"/>
<circle cx="72.5023" cy="259.528" r="0.685676" transform="rotate(-90 72.5023 259.528)" fill="white"/>
<circle cx="72.5023" cy="156.677" r="0.685676" transform="rotate(-90 72.5023 156.677)" fill="white"/>
<ellipse cx="141.07" cy="780.642" rx="0.685665" ry="0.685676" transform="rotate(-90 141.07 780.642)" fill="white"/>
<circle cx="141.07" cy="677.79" r="0.685676" transform="rotate(-90 141.07 677.79)" fill="white"/>
<circle cx="141.07" cy="574.939" r="0.685676" transform="rotate(-90 141.07 574.939)" fill="white"/>
<circle cx="141.07" cy="472.088" r="0.685676" transform="rotate(-90 141.07 472.088)" fill="white"/>
<circle cx="141.07" cy="369.236" r="0.685676" transform="rotate(-90 141.07 369.236)" fill="white"/>
<circle cx="141.07" cy="266.385" r="0.685676" transform="rotate(-90 141.07 266.385)" fill="white"/>
<circle cx="141.07" cy="163.534" r="0.685676" transform="rotate(-90 141.07 163.534)" fill="white"/>
<circle cx="209.637" cy="732.644" r="0.685676" transform="rotate(-90 209.637 732.644)" fill="white"/>
<circle cx="209.637" cy="629.793" r="0.685676" transform="rotate(-90 209.637 629.793)" fill="white"/>
<circle cx="209.637" cy="526.942" r="0.685676" transform="rotate(-90 209.637 526.942)" fill="white"/>
<ellipse cx="209.637" cy="424.09" rx="0.685655" ry="0.685676" transform="rotate(-90 209.637 424.09)" fill="white"/>
<circle cx="209.637" cy="321.239" r="0.685676" transform="rotate(-90 209.637 321.239)" fill="white"/>
<circle cx="209.637" cy="218.388" r="0.685676" transform="rotate(-90 209.637 218.388)" fill="white"/>
<circle cx="209.637" cy="115.536" r="0.685676" transform="rotate(-90 209.637 115.536)" fill="white"/>
<circle cx="278.205" cy="753.215" r="0.685676" transform="rotate(-90 278.205 753.215)" fill="white"/>
<circle cx="278.205" cy="650.363" r="0.685676" transform="rotate(-90 278.205 650.363)" fill="white"/>
<circle cx="278.205" cy="547.512" r="0.685676" transform="rotate(-90 278.205 547.512)" fill="white"/>
<ellipse cx="278.205" cy="444.661" rx="0.685717" ry="0.685676" transform="rotate(-90 278.205 444.661)" fill="white"/>
<circle cx="278.205" cy="341.809" r="0.685676" transform="rotate(-90 278.205 341.809)" fill="white"/>
<circle cx="278.205" cy="238.958" r="0.685676" transform="rotate(-90 278.205 238.958)" fill="white"/>
<circle cx="278.205" cy="136.107" r="0.685676" transform="rotate(-90 278.205 136.107)" fill="white"/>
<circle cx="346.773" cy="732.644" r="0.685676" transform="rotate(-90 346.773 732.644)" fill="white"/>
<circle cx="346.773" cy="629.793" r="0.685676" transform="rotate(-90 346.773 629.793)" fill="white"/>
<circle cx="346.773" cy="526.942" r="0.685676" transform="rotate(-90 346.773 526.942)" fill="white"/>
<ellipse cx="346.773" cy="424.09" rx="0.685655" ry="0.685676" transform="rotate(-90 346.773 424.09)" fill="white"/>
<circle cx="346.773" cy="321.239" r="0.685676" transform="rotate(-90 346.773 321.239)" fill="white"/>
<circle cx="346.773" cy="218.388" r="0.685676" transform="rotate(-90 346.773 218.388)" fill="white"/>
<circle cx="346.773" cy="115.536" r="0.685676" transform="rotate(-90 346.773 115.536)" fill="white"/>
<circle cx="416.711" cy="766.928" r="0.685676" transform="rotate(-90 416.711 766.928)" fill="white"/>
<circle cx="416.711" cy="664.077" r="0.685676" transform="rotate(-90 416.711 664.077)" fill="white"/>
<circle cx="416.711" cy="561.225" r="0.685676" transform="rotate(-90 416.711 561.225)" fill="white"/>
<ellipse cx="416.711" cy="458.374" rx="0.685655" ry="0.685676" transform="rotate(-90 416.711 458.374)" fill="white"/>
<ellipse cx="416.711" cy="355.523" rx="0.685655" ry="0.685676" transform="rotate(-90 416.711 355.523)" fill="white"/>
<circle cx="416.711" cy="252.672" r="0.685676" transform="rotate(-90 416.711 252.672)" fill="white"/>
<circle cx="416.711" cy="149.82" r="0.685676" transform="rotate(-90 416.711 149.82)" fill="white"/>
<circle cx="485.279" cy="725.788" r="0.685676" transform="rotate(-90 485.279 725.788)" fill="white"/>
<circle cx="485.279" cy="622.936" r="0.685676" transform="rotate(-90 485.279 622.936)" fill="white"/>
<circle cx="485.279" cy="520.085" r="0.685676" transform="rotate(-90 485.279 520.085)" fill="white"/>
<ellipse cx="485.279" cy="417.234" rx="0.685655" ry="0.685676" transform="rotate(-90 485.279 417.234)" fill="white"/>
<circle cx="485.279" cy="314.382" r="0.685676" transform="rotate(-90 485.279 314.382)" fill="white"/>
<circle cx="485.279" cy="211.531" r="0.685676" transform="rotate(-90 485.279 211.531)" fill="white"/>
<ellipse cx="553.846" cy="739.501" rx="0.685686" ry="0.685676" transform="rotate(-90 553.846 739.501)" fill="white"/>
<circle cx="553.846" cy="636.65" r="0.685676" transform="rotate(-90 553.846 636.65)" fill="white"/>
<circle cx="553.846" cy="533.799" r="0.685676" transform="rotate(-90 553.846 533.799)" fill="white"/>
<ellipse cx="553.846" cy="430.947" rx="0.685696" ry="0.685676" transform="rotate(-90 553.846 430.947)" fill="white"/>
<circle cx="553.846" cy="328.096" r="0.685676" transform="rotate(-90 553.846 328.096)" fill="white"/>
<circle cx="553.846" cy="225.245" r="0.685676" transform="rotate(-90 553.846 225.245)" fill="white"/>
<circle cx="553.846" cy="122.393" r="0.685676" transform="rotate(-90 553.846 122.393)" fill="white"/>
<ellipse cx="622.414" cy="801.212" rx="0.685676" ry="0.685665" transform="rotate(-90 622.414 801.212)" fill="white"/>
<ellipse cx="622.414" cy="698.361" rx="0.685676" ry="0.685665" transform="rotate(-90 622.414 698.361)" fill="white"/>
<ellipse cx="622.414" cy="595.509" rx="0.685676" ry="0.685665" transform="rotate(-90 622.414 595.509)" fill="white"/>
<ellipse cx="622.414" cy="492.658" rx="0.685655" ry="0.685665" transform="rotate(-90 622.414 492.658)" fill="white"/>
<ellipse cx="622.414" cy="389.807" rx="0.685655" ry="0.685665" transform="rotate(-90 622.414 389.807)" fill="white"/>
<ellipse cx="622.414" cy="286.955" rx="0.685676" ry="0.685665" transform="rotate(-90 622.414 286.955)" fill="white"/>
<ellipse cx="622.414" cy="184.104" rx="0.685676" ry="0.685665" transform="rotate(-90 622.414 184.104)" fill="white"/>
<circle cx="621.043" cy="81.2528" r="0.685676" transform="rotate(-90 621.043 81.2528)" fill="white"/>
<circle cx="690.981" cy="753.215" r="0.685676" transform="rotate(-90 690.981 753.215)" fill="white"/>
<circle cx="690.981" cy="650.363" r="0.685676" transform="rotate(-90 690.981 650.363)" fill="white"/>
<circle cx="690.981" cy="547.512" r="0.685676" transform="rotate(-90 690.981 547.512)" fill="white"/>
<ellipse cx="690.981" cy="444.661" rx="0.685717" ry="0.685676" transform="rotate(-90 690.981 444.661)" fill="white"/>
<circle cx="690.981" cy="341.809" r="0.685676" transform="rotate(-90 690.981 341.809)" fill="white"/>
<circle cx="690.981" cy="238.958" r="0.685676" transform="rotate(-90 690.981 238.958)" fill="white"/>
<circle cx="690.981" cy="136.107" r="0.685676" transform="rotate(-90 690.981 136.107)" fill="white"/>
<circle cx="759.549" cy="732.644" r="0.685676" transform="rotate(-90 759.549 732.644)" fill="white"/>
<circle cx="759.549" cy="629.793" r="0.685676" transform="rotate(-90 759.549 629.793)" fill="white"/>
<circle cx="759.549" cy="526.942" r="0.685676" transform="rotate(-90 759.549 526.942)" fill="white"/>
<ellipse cx="759.549" cy="424.09" rx="0.685655" ry="0.685676" transform="rotate(-90 759.549 424.09)" fill="white"/>
<circle cx="759.549" cy="321.239" r="0.685676" transform="rotate(-90 759.549 321.239)" fill="white"/>
<circle cx="759.549" cy="218.388" r="0.685676" transform="rotate(-90 759.549 218.388)" fill="white"/>
<circle cx="759.549" cy="115.536" r="0.685676" transform="rotate(-90 759.549 115.536)" fill="white"/>
<circle cx="834.973" cy="787.498" r="0.685676" transform="rotate(-90 834.973 787.498)" fill="white"/>
<circle cx="834.973" cy="684.647" r="0.685676" transform="rotate(-90 834.973 684.647)" fill="white"/>
<circle cx="834.973" cy="581.796" r="0.685676" transform="rotate(-90 834.973 581.796)" fill="white"/>
<ellipse cx="834.973" cy="478.944" rx="0.685717" ry="0.685676" transform="rotate(-90 834.973 478.944)" fill="white"/>
<circle cx="834.973" cy="376.093" r="0.685676" transform="rotate(-90 834.973 376.093)" fill="white"/>
<circle cx="834.973" cy="273.242" r="0.685676" transform="rotate(-90 834.973 273.242)" fill="white"/>
<circle cx="834.973" cy="170.391" r="0.685676" transform="rotate(-90 834.973 170.391)" fill="white"/>
<circle cx="833.602" cy="67.5392" r="0.685676" transform="rotate(-90 833.602 67.5392)" fill="white"/>
<circle cx="910.397" cy="725.788" r="0.685676" transform="rotate(-90 910.397 725.788)" fill="white"/>
<circle cx="910.397" cy="622.936" r="0.685676" transform="rotate(-90 910.397 622.936)" fill="white"/>
<circle cx="910.397" cy="520.085" r="0.685676" transform="rotate(-90 910.397 520.085)" fill="white"/>
<ellipse cx="910.397" cy="417.234" rx="0.685655" ry="0.685676" transform="rotate(-90 910.397 417.234)" fill="white"/>
<circle cx="910.397" cy="314.382" r="0.685676" transform="rotate(-90 910.397 314.382)" fill="white"/>
<circle cx="910.397" cy="211.531" r="0.685676" transform="rotate(-90 910.397 211.531)" fill="white"/>
<circle cx="910.397" cy="108.68" r="0.685676" transform="rotate(-90 910.397 108.68)" fill="white"/>
<ellipse cx="984.451" cy="773.785" rx="0.685686" ry="0.685613" transform="rotate(-90 984.451 773.785)" fill="white"/>
<ellipse cx="984.451" cy="670.934" rx="0.685676" ry="0.685613" transform="rotate(-90 984.451 670.934)" fill="white"/>
<ellipse cx="984.451" cy="568.082" rx="0.685676" ry="0.685613" transform="rotate(-90 984.451 568.082)" fill="white"/>
<ellipse cx="984.451" cy="465.231" rx="0.685696" ry="0.685613" transform="rotate(-90 984.451 465.231)" fill="white"/>
<ellipse cx="984.451" cy="362.38" rx="0.685738" ry="0.685613" transform="rotate(-90 984.451 362.38)" fill="white"/>
<ellipse cx="984.451" cy="259.528" rx="0.685676" ry="0.685613" transform="rotate(-90 984.451 259.528)" fill="white"/>
<ellipse cx="984.451" cy="156.677" rx="0.685676" ry="0.685613" transform="rotate(-90 984.451 156.677)" fill="white"/>
<ellipse cx="1059.88" cy="712.074" rx="0.685644" ry="0.685676" transform="rotate(-90 1059.88 712.074)" fill="white"/>
<circle cx="1059.88" cy="609.223" r="0.685676" transform="rotate(-90 1059.88 609.223)" fill="white"/>
<circle cx="1059.88" cy="506.371" r="0.685676" transform="rotate(-90 1059.88 506.371)" fill="white"/>
<circle cx="1059.88" cy="403.52" r="0.685676" transform="rotate(-90 1059.88 403.52)" fill="white"/>
<circle cx="1059.88" cy="300.669" r="0.685676" transform="rotate(-90 1059.88 300.669)" fill="white"/>
<circle cx="1059.88" cy="197.818" r="0.685676" transform="rotate(-90 1059.88 197.818)" fill="white"/>
<circle cx="1059.88" cy="94.9662" r="0.685676" transform="rotate(-90 1059.88 94.9662)" fill="white"/>
<circle cx="1135.3" cy="753.215" r="0.685676" transform="rotate(-90 1135.3 753.215)" fill="white"/>
<circle cx="1135.3" cy="650.363" r="0.685676" transform="rotate(-90 1135.3 650.363)" fill="white"/>
<circle cx="1135.3" cy="547.512" r="0.685676" transform="rotate(-90 1135.3 547.512)" fill="white"/>
<ellipse cx="1135.3" cy="444.661" rx="0.685717" ry="0.685676" transform="rotate(-90 1135.3 444.661)" fill="white"/>
<circle cx="1135.3" cy="341.809" r="0.685676" transform="rotate(-90 1135.3 341.809)" fill="white"/>
<circle cx="1135.3" cy="238.958" r="0.685676" transform="rotate(-90 1135.3 238.958)" fill="white"/>
<circle cx="1135.3" cy="136.107" r="0.685676" transform="rotate(-90 1135.3 136.107)" fill="white"/>
<ellipse cx="1210.72" cy="712.074" rx="0.685644" ry="0.685676" transform="rotate(-90 1210.72 712.074)" fill="white"/>
<circle cx="1210.72" cy="609.223" r="0.685676" transform="rotate(-90 1210.72 609.223)" fill="white"/>
<circle cx="1210.72" cy="506.371" r="0.685676" transform="rotate(-90 1210.72 506.371)" fill="white"/>
<circle cx="1210.72" cy="403.52" r="0.685676" transform="rotate(-90 1210.72 403.52)" fill="white"/>
<circle cx="1210.72" cy="300.669" r="0.685676" transform="rotate(-90 1210.72 300.669)" fill="white"/>
<circle cx="1210.72" cy="197.818" r="0.685676" transform="rotate(-90 1210.72 197.818)" fill="white"/>
<ellipse cx="1279.29" cy="739.501" rx="0.685686" ry="0.685676" transform="rotate(-90 1279.29 739.501)" fill="white"/>
<circle cx="1279.29" cy="636.65" r="0.685676" transform="rotate(-90 1279.29 636.65)" fill="white"/>
<circle cx="1279.29" cy="533.799" r="0.685676" transform="rotate(-90 1279.29 533.799)" fill="white"/>
<ellipse cx="1279.29" cy="430.947" rx="0.685696" ry="0.685676" transform="rotate(-90 1279.29 430.947)" fill="white"/>
<circle cx="1279.29" cy="328.096" r="0.685676" transform="rotate(-90 1279.29 328.096)" fill="white"/>
<circle cx="1279.29" cy="225.245" r="0.685676" transform="rotate(-90 1279.29 225.245)" fill="white"/>
<circle cx="1279.29" cy="225.245" r="0.685676" transform="rotate(-90 1279.29 225.245)" fill="white"/>
<circle cx="1347.86" cy="787.498" r="0.685676" transform="rotate(-90 1347.86 787.498)" fill="white"/>
<circle cx="1347.86" cy="684.647" r="0.685676" transform="rotate(-90 1347.86 684.647)" fill="white"/>
<circle cx="1347.86" cy="581.796" r="0.685676" transform="rotate(-90 1347.86 581.796)" fill="white"/>
<ellipse cx="1347.86" cy="478.944" rx="0.685717" ry="0.685676" transform="rotate(-90 1347.86 478.944)" fill="white"/>
<circle cx="1347.86" cy="376.093" r="0.685676" transform="rotate(-90 1347.86 376.093)" fill="white"/>
<circle cx="1347.86" cy="273.242" r="0.685676" transform="rotate(-90 1347.86 273.242)" fill="white"/>
<circle cx="1347.86" cy="170.391" r="0.685676" transform="rotate(-90 1347.86 170.391)" fill="white"/>
<circle cx="1210.72" cy="94.9662" r="0.685676" transform="rotate(-90 1210.72 94.9662)" fill="white"/>
<circle cx="-0.179193" cy="801.212" r="0.685676" transform="rotate(-90 -0.179193 801.212)" fill="white"/>
<circle cx="-0.179193" cy="698.36" r="0.685676" transform="rotate(-90 -0.179193 698.36)" fill="white"/>
<circle cx="-0.179193" cy="595.509" r="0.685676" transform="rotate(-90 -0.179193 595.509)" fill="white"/>
<circle cx="-0.179193" cy="492.658" r="0.685676" transform="rotate(-90 -0.179193 492.658)" fill="white"/>
<circle cx="-0.179193" cy="389.807" r="0.685676" transform="rotate(-90 -0.179193 389.807)" fill="white"/>
<circle cx="-0.179193" cy="286.955" r="0.685676" transform="rotate(-90 -0.179193 286.955)" fill="white"/>
<circle cx="-0.179193" cy="184.104" r="0.685676" transform="rotate(-90 -0.179193 184.104)" fill="white"/>
<circle cx="68.3883" cy="808.068" r="0.685676" transform="rotate(-90 68.3883 808.068)" fill="white"/>
<circle cx="68.3883" cy="705.217" r="0.685676" transform="rotate(-90 68.3883 705.217)" fill="white"/>
<circle cx="68.3883" cy="602.366" r="0.685676" transform="rotate(-90 68.3883 602.366)" fill="white"/>
<circle cx="68.3883" cy="499.515" r="0.685676" transform="rotate(-90 68.3883 499.515)" fill="white"/>
<circle cx="68.3883" cy="396.663" r="0.685676" transform="rotate(-90 68.3883 396.663)" fill="white"/>
<circle cx="68.3883" cy="293.812" r="0.685676" transform="rotate(-90 68.3883 293.812)" fill="white"/>
<circle cx="68.3883" cy="190.961" r="0.685676" transform="rotate(-90 68.3883 190.961)" fill="white"/>
<circle cx="136.956" cy="760.071" r="0.685676" transform="rotate(-90 136.956 760.071)" fill="white"/>
<circle cx="136.956" cy="657.22" r="0.685676" transform="rotate(-90 136.956 657.22)" fill="white"/>
<circle cx="136.956" cy="554.369" r="0.685676" transform="rotate(-90 136.956 554.369)" fill="white"/>
<ellipse cx="136.956" cy="451.517" rx="0.685696" ry="0.685676" transform="rotate(-90 136.956 451.517)" fill="white"/>
<ellipse cx="136.956" cy="348.666" rx="0.685717" ry="0.685676" transform="rotate(-90 136.956 348.666)" fill="white"/>
<circle cx="136.956" cy="245.815" r="0.685676" transform="rotate(-90 136.956 245.815)" fill="white"/>
<circle cx="136.956" cy="142.963" r="0.685676" transform="rotate(-90 136.956 142.963)" fill="white"/>
<circle cx="205.523" cy="780.641" r="0.685676" transform="rotate(-90 205.523 780.641)" fill="white"/>
<circle cx="205.523" cy="677.79" r="0.685676" transform="rotate(-90 205.523 677.79)" fill="white"/>
<circle cx="205.523" cy="574.939" r="0.685676" transform="rotate(-90 205.523 574.939)" fill="white"/>
<circle cx="205.523" cy="472.088" r="0.685676" transform="rotate(-90 205.523 472.088)" fill="white"/>
<ellipse cx="205.523" cy="369.236" rx="0.685655" ry="0.685676" transform="rotate(-90 205.523 369.236)" fill="white"/>
<circle cx="205.523" cy="266.385" r="0.685676" transform="rotate(-90 205.523 266.385)" fill="white"/>
<circle cx="205.523" cy="163.534" r="0.685676" transform="rotate(-90 205.523 163.534)" fill="white"/>
<circle cx="274.091" cy="760.071" r="0.685676" transform="rotate(-90 274.091 760.071)" fill="white"/>
<circle cx="274.091" cy="657.22" r="0.685676" transform="rotate(-90 274.091 657.22)" fill="white"/>
<circle cx="274.091" cy="554.369" r="0.685676" transform="rotate(-90 274.091 554.369)" fill="white"/>
<ellipse cx="274.091" cy="451.517" rx="0.685696" ry="0.685676" transform="rotate(-90 274.091 451.517)" fill="white"/>
<ellipse cx="274.091" cy="348.666" rx="0.685717" ry="0.685676" transform="rotate(-90 274.091 348.666)" fill="white"/>
<circle cx="274.091" cy="245.815" r="0.685676" transform="rotate(-90 274.091 245.815)" fill="white"/>
<circle cx="274.091" cy="142.963" r="0.685676" transform="rotate(-90 274.091 142.963)" fill="white"/>
<circle cx="344.03" cy="794.355" r="0.685676" transform="rotate(-90 344.03 794.355)" fill="white"/>
<circle cx="344.03" cy="691.504" r="0.685676" transform="rotate(-90 344.03 691.504)" fill="white"/>
<circle cx="344.03" cy="588.652" r="0.685676" transform="rotate(-90 344.03 588.652)" fill="white"/>
<circle cx="344.03" cy="485.801" r="0.685676" transform="rotate(-90 344.03 485.801)" fill="white"/>
<ellipse cx="344.03" cy="382.95" rx="0.685696" ry="0.685676" transform="rotate(-90 344.03 382.95)" fill="white"/>
<circle cx="344.03" cy="280.098" r="0.685676" transform="rotate(-90 344.03 280.098)" fill="white"/>
<circle cx="344.03" cy="177.247" r="0.685676" transform="rotate(-90 344.03 177.247)" fill="white"/>
<circle cx="412.597" cy="753.214" r="0.685676" transform="rotate(-90 412.597 753.214)" fill="white"/>
<circle cx="412.597" cy="650.363" r="0.685676" transform="rotate(-90 412.597 650.363)" fill="white"/>
<circle cx="412.597" cy="547.512" r="0.685676" transform="rotate(-90 412.597 547.512)" fill="white"/>
<ellipse cx="412.597" cy="444.661" rx="0.685655" ry="0.685676" transform="rotate(-90 412.597 444.661)" fill="white"/>
<ellipse cx="412.597" cy="341.809" rx="0.685655" ry="0.685676" transform="rotate(-90 412.597 341.809)" fill="white"/>
<circle cx="412.597" cy="238.958" r="0.685676" transform="rotate(-90 412.597 238.958)" fill="white"/>
<circle cx="481.165" cy="766.928" r="0.685676" transform="rotate(-90 481.165 766.928)" fill="white"/>
<circle cx="481.165" cy="664.077" r="0.685676" transform="rotate(-90 481.165 664.077)" fill="white"/>
<circle cx="481.165" cy="561.225" r="0.685676" transform="rotate(-90 481.165 561.225)" fill="white"/>
<circle cx="481.165" cy="458.374" r="0.685676" transform="rotate(-90 481.165 458.374)" fill="white"/>
<circle cx="481.165" cy="355.523" r="0.685676" transform="rotate(-90 481.165 355.523)" fill="white"/>
<circle cx="481.165" cy="252.671" r="0.685676" transform="rotate(-90 481.165 252.671)" fill="white"/>
<circle cx="481.165" cy="149.82" r="0.685676" transform="rotate(-90 481.165 149.82)" fill="white"/>
<ellipse cx="549.732" cy="725.787" rx="0.685676" ry="0.685665" transform="rotate(-90 549.732 725.787)" fill="white"/>
<ellipse cx="549.732" cy="622.936" rx="0.685676" ry="0.685665" transform="rotate(-90 549.732 622.936)" fill="white"/>
<ellipse cx="549.732" cy="520.085" rx="0.685676" ry="0.685665" transform="rotate(-90 549.732 520.085)" fill="white"/>
<ellipse cx="549.732" cy="417.233" rx="0.685696" ry="0.685665" transform="rotate(-90 549.732 417.233)" fill="white"/>
<ellipse cx="549.732" cy="314.382" rx="0.685717" ry="0.685665" transform="rotate(-90 549.732 314.382)" fill="white"/>
<ellipse cx="549.732" cy="211.531" rx="0.685676" ry="0.685665" transform="rotate(-90 549.732 211.531)" fill="white"/>
<ellipse cx="549.732" cy="108.68" rx="0.685676" ry="0.685665" transform="rotate(-90 549.732 108.68)" fill="white"/>
<circle cx="618.3" cy="780.641" r="0.685676" transform="rotate(-90 618.3 780.641)" fill="white"/>
<circle cx="618.3" cy="677.79" r="0.685676" transform="rotate(-90 618.3 677.79)" fill="white"/>
<circle cx="618.3" cy="574.939" r="0.685676" transform="rotate(-90 618.3 574.939)" fill="white"/>
<circle cx="618.3" cy="472.088" r="0.685676" transform="rotate(-90 618.3 472.088)" fill="white"/>
<ellipse cx="618.3" cy="369.236" rx="0.685655" ry="0.685676" transform="rotate(-90 618.3 369.236)" fill="white"/>
<circle cx="618.3" cy="266.385" r="0.685676" transform="rotate(-90 618.3 266.385)" fill="white"/>
<circle cx="686.867" cy="760.071" r="0.685676" transform="rotate(-90 686.867 760.071)" fill="white"/>
<circle cx="686.867" cy="657.22" r="0.685676" transform="rotate(-90 686.867 657.22)" fill="white"/>
<circle cx="686.867" cy="554.369" r="0.685676" transform="rotate(-90 686.867 554.369)" fill="white"/>
<ellipse cx="686.867" cy="451.517" rx="0.685696" ry="0.685676" transform="rotate(-90 686.867 451.517)" fill="white"/>
<ellipse cx="686.867" cy="348.666" rx="0.685717" ry="0.685676" transform="rotate(-90 686.867 348.666)" fill="white"/>
<circle cx="686.867" cy="245.815" r="0.685676" transform="rotate(-90 686.867 245.815)" fill="white"/>
<circle cx="686.867" cy="142.963" r="0.685676" transform="rotate(-90 686.867 142.963)" fill="white"/>
<circle cx="762.292" cy="712.074" r="0.685676" transform="rotate(-90 762.292 712.074)" fill="white"/>
<circle cx="762.292" cy="609.223" r="0.685676" transform="rotate(-90 762.292 609.223)" fill="white"/>
<circle cx="762.292" cy="506.371" r="0.685676" transform="rotate(-90 762.292 506.371)" fill="white"/>
<ellipse cx="762.292" cy="403.52" rx="0.685655" ry="0.685676" transform="rotate(-90 762.292 403.52)" fill="white"/>
<circle cx="762.292" cy="300.669" r="0.685676" transform="rotate(-90 762.292 300.669)" fill="white"/>
<circle cx="762.292" cy="197.817" r="0.685676" transform="rotate(-90 762.292 197.817)" fill="white"/>
<circle cx="762.292" cy="94.9659" r="0.685676" transform="rotate(-90 762.292 94.9659)" fill="white"/>
<ellipse cx="837.716" cy="753.214" rx="0.685676" ry="0.685655" transform="rotate(-90 837.716 753.214)" fill="white"/>
<ellipse cx="837.716" cy="650.363" rx="0.685676" ry="0.685655" transform="rotate(-90 837.716 650.363)" fill="white"/>
<ellipse cx="837.716" cy="547.512" rx="0.685676" ry="0.685655" transform="rotate(-90 837.716 547.512)" fill="white"/>
<circle cx="837.716" cy="444.661" r="0.685655" transform="rotate(-90 837.716 444.661)" fill="white"/>
<circle cx="837.716" cy="341.809" r="0.685655" transform="rotate(-90 837.716 341.809)" fill="white"/>
<ellipse cx="837.716" cy="238.958" rx="0.685676" ry="0.685655" transform="rotate(-90 837.716 238.958)" fill="white"/>
<ellipse cx="837.716" cy="136.106" rx="0.685676" ry="0.685655" transform="rotate(-90 837.716 136.106)" fill="white"/>
<circle cx="911.769" cy="801.212" r="0.685676" transform="rotate(-90 911.769 801.212)" fill="white"/>
<circle cx="911.769" cy="698.36" r="0.685676" transform="rotate(-90 911.769 698.36)" fill="white"/>
<circle cx="911.769" cy="595.509" r="0.685676" transform="rotate(-90 911.769 595.509)" fill="white"/>
<circle cx="911.769" cy="492.658" r="0.685676" transform="rotate(-90 911.769 492.658)" fill="white"/>
<circle cx="911.769" cy="389.807" r="0.685676" transform="rotate(-90 911.769 389.807)" fill="white"/>
<circle cx="911.769" cy="286.955" r="0.685676" transform="rotate(-90 911.769 286.955)" fill="white"/>
<circle cx="911.769" cy="184.104" r="0.685676" transform="rotate(-90 911.769 184.104)" fill="white"/>
<circle cx="987.193" cy="739.501" r="0.685676" transform="rotate(-90 987.193 739.501)" fill="white"/>
<circle cx="987.193" cy="636.65" r="0.685676" transform="rotate(-90 987.193 636.65)" fill="white"/>
<circle cx="987.193" cy="533.798" r="0.685676" transform="rotate(-90 987.193 533.798)" fill="white"/>
<circle cx="987.193" cy="430.947" r="0.685676" transform="rotate(-90 987.193 430.947)" fill="white"/>
<circle cx="987.193" cy="328.096" r="0.685676" transform="rotate(-90 987.193 328.096)" fill="white"/>
<circle cx="987.193" cy="225.244" r="0.685676" transform="rotate(-90 987.193 225.244)" fill="white"/>
<circle cx="987.193" cy="122.393" r="0.685676" transform="rotate(-90 987.193 122.393)" fill="white"/>
<circle cx="1062.62" cy="780.641" r="0.685676" transform="rotate(-90 1062.62 780.641)" fill="white"/>
<circle cx="1062.62" cy="677.79" r="0.685676" transform="rotate(-90 1062.62 677.79)" fill="white"/>
<circle cx="1062.62" cy="574.939" r="0.685676" transform="rotate(-90 1062.62 574.939)" fill="white"/>
<circle cx="1062.62" cy="472.088" r="0.685676" transform="rotate(-90 1062.62 472.088)" fill="white"/>
<ellipse cx="1062.62" cy="369.236" rx="0.685655" ry="0.685676" transform="rotate(-90 1062.62 369.236)" fill="white"/>
<circle cx="1062.62" cy="266.385" r="0.685676" transform="rotate(-90 1062.62 266.385)" fill="white"/>
<circle cx="1062.62" cy="163.534" r="0.685676" transform="rotate(-90 1062.62 163.534)" fill="white"/>
<circle cx="1138.04" cy="739.501" r="0.685676" transform="rotate(-90 1138.04 739.501)" fill="white"/>
<circle cx="1138.04" cy="636.65" r="0.685676" transform="rotate(-90 1138.04 636.65)" fill="white"/>
<circle cx="1138.04" cy="533.798" r="0.685676" transform="rotate(-90 1138.04 533.798)" fill="white"/>
<circle cx="1138.04" cy="430.947" r="0.685676" transform="rotate(-90 1138.04 430.947)" fill="white"/>
<circle cx="1138.04" cy="328.096" r="0.685676" transform="rotate(-90 1138.04 328.096)" fill="white"/>
<circle cx="1138.04" cy="225.244" r="0.685676" transform="rotate(-90 1138.04 225.244)" fill="white"/>
<circle cx="1206.61" cy="766.928" r="0.685676" transform="rotate(-90 1206.61 766.928)" fill="white"/>
<circle cx="1206.61" cy="664.077" r="0.685676" transform="rotate(-90 1206.61 664.077)" fill="white"/>
<circle cx="1206.61" cy="561.225" r="0.685676" transform="rotate(-90 1206.61 561.225)" fill="white"/>
<circle cx="1206.61" cy="458.374" r="0.685676" transform="rotate(-90 1206.61 458.374)" fill="white"/>
<circle cx="1206.61" cy="355.523" r="0.685676" transform="rotate(-90 1206.61 355.523)" fill="white"/>
<circle cx="1206.61" cy="252.671" r="0.685676" transform="rotate(-90 1206.61 252.671)" fill="white"/>
<circle cx="1206.61" cy="252.671" r="0.685676" transform="rotate(-90 1206.61 252.671)" fill="white"/>
<circle cx="1275.18" cy="712.074" r="0.685676" transform="rotate(-90 1275.18 712.074)" fill="white"/>
<circle cx="1275.18" cy="609.223" r="0.685676" transform="rotate(-90 1275.18 609.223)" fill="white"/>
<circle cx="1275.18" cy="506.371" r="0.685676" transform="rotate(-90 1275.18 506.371)" fill="white"/>
<ellipse cx="1275.18" cy="403.52" rx="0.685655" ry="0.685676" transform="rotate(-90 1275.18 403.52)" fill="white"/>
<circle cx="1275.18" cy="300.669" r="0.685676" transform="rotate(-90 1275.18 300.669)" fill="white"/>
<circle cx="1275.18" cy="197.817" r="0.685676" transform="rotate(-90 1275.18 197.817)" fill="white"/>
<circle cx="1138.04" cy="122.393" r="0.685676" transform="rotate(-90 1138.04 122.393)" fill="white"/>
<ellipse cx="2.90623" cy="111.079" rx="1.37135" ry="1.37132" transform="rotate(-90 2.90623 111.079)" fill="white"/>
<circle cx="133.185" cy="700.76" r="1.37135" transform="rotate(-90 133.185 700.76)" fill="white"/>
<circle cx="126.328" cy="495.058" r="1.37135" transform="rotate(-90 126.328 495.058)" fill="white"/>
<circle cx="133.185" cy="289.355" r="1.37135" transform="rotate(-90 133.185 289.355)" fill="white"/>
<circle cx="140.041" cy="83.6525" r="1.37135" transform="rotate(-90 140.041 83.6525)" fill="white"/>
<circle cx="270.32" cy="741.901" r="1.37135" transform="rotate(-90 270.32 741.901)" fill="white"/>
<circle cx="263.463" cy="536.198" r="1.37135" transform="rotate(-90 263.463 536.198)" fill="white"/>
<circle cx="270.32" cy="330.496" r="1.37135" transform="rotate(-90 270.32 330.496)" fill="white"/>
<circle cx="277.176" cy="124.793" r="1.37135" transform="rotate(-90 277.176 124.793)" fill="white"/>
<circle cx="407.455" cy="659.62" r="1.37135" transform="rotate(-90 407.455 659.62)" fill="white"/>
<circle cx="400.598" cy="453.917" r="1.37135" transform="rotate(-90 400.598 453.917)" fill="white"/>
<circle cx="407.455" cy="248.215" r="1.37135" transform="rotate(-90 407.455 248.215)" fill="white"/>
<circle cx="414.312" cy="42.5118" r="1.37135" transform="rotate(-90 414.312 42.5118)" fill="white"/>
<circle cx="545.961" cy="693.904" r="1.37135" transform="rotate(-90 545.961 693.904)" fill="white"/>
<circle cx="539.104" cy="488.201" r="1.37135" transform="rotate(-90 539.104 488.201)" fill="white"/>
<circle cx="545.961" cy="282.498" r="1.37135" transform="rotate(-90 545.961 282.498)" fill="white"/>
<circle cx="551.447" cy="76.7956" r="1.37135" transform="rotate(-90 551.447 76.7956)" fill="white"/>
<ellipse cx="683.096" cy="728.188" rx="1.37135" ry="1.37134" transform="rotate(-90 683.096 728.188)" fill="white"/>
<ellipse cx="676.239" cy="522.485" rx="1.37135" ry="1.37136" transform="rotate(-90 676.239 522.485)" fill="white"/>
<ellipse cx="683.096" cy="316.782" rx="1.37135" ry="1.37134" transform="rotate(-90 683.096 316.782)" fill="white"/>
<ellipse cx="688.582" cy="111.079" rx="1.37135" ry="1.37134" transform="rotate(-90 688.582 111.079)" fill="white"/>
<circle cx="820.231" cy="618.479" r="1.37135" transform="rotate(-90 820.231 618.479)" fill="white"/>
<circle cx="813.374" cy="412.777" r="1.37135" transform="rotate(-90 813.374 412.777)" fill="white"/>
<circle cx="820.231" cy="207.074" r="1.37135" transform="rotate(-90 820.231 207.074)" fill="white"/>
<circle cx="825.717" cy="1.37132" r="1.37135" transform="rotate(-90 825.717 1.37132)" fill="white"/>
<circle cx="957.366" cy="746.701" r="1.37135" transform="rotate(-90 957.366 746.701)" fill="white"/>
<circle cx="950.509" cy="540.998" r="1.37135" transform="rotate(-90 950.509 540.998)" fill="white"/>
<circle cx="957.366" cy="335.295" r="1.37135" transform="rotate(-90 957.366 335.295)" fill="white"/>
<ellipse cx="962.852" cy="129.593" rx="1.37135" ry="1.37129" transform="rotate(-90 962.852 129.593)" fill="white"/>
<circle cx="1075.3" cy="730.93" r="1.37135" transform="rotate(-90 1075.3 730.93)" fill="white"/>
<ellipse cx="1068.45" cy="525.228" rx="1.37133" ry="1.37135" transform="rotate(-90 1068.45 525.228)" fill="white"/>
<circle cx="1075.3" cy="319.525" r="1.37135" transform="rotate(-90 1075.3 319.525)" fill="white"/>
<circle cx="1082.16" cy="113.822" r="1.37135" transform="rotate(-90 1082.16 113.822)" fill="white"/>
<circle cx="1222.04" cy="680.876" r="1.37135" transform="rotate(-90 1222.04 680.876)" fill="white"/>
<circle cx="1215.18" cy="475.173" r="1.37135" transform="rotate(-90 1215.18 475.173)" fill="white"/>
<circle cx="1222.04" cy="269.47" r="1.37135" transform="rotate(-90 1222.04 269.47)" fill="white"/>
<circle cx="1228.89" cy="63.7678" r="1.37135" transform="rotate(-90 1228.89 63.7678)" fill="white"/>
<circle cx="1368.77" cy="726.816" r="1.37135" transform="rotate(-90 1368.77 726.816)" fill="white"/>
<circle cx="1361.92" cy="521.114" r="1.37135" transform="rotate(-90 1361.92 521.114)" fill="white"/>
<circle cx="1368.77" cy="315.411" r="1.37135" transform="rotate(-90 1368.77 315.411)" fill="white"/>
<circle cx="1375.63" cy="109.708" r="1.37135" transform="rotate(-90 1375.63 109.708)" fill="white"/>
<circle cx="37.1901" cy="776.185" r="1.37135" transform="rotate(-90 37.1901 776.185)" fill="white"/>
<circle cx="30.3333" cy="570.482" r="1.37135" transform="rotate(-90 30.3333 570.482)" fill="white"/>
<circle cx="37.1901" cy="364.78" r="1.37135" transform="rotate(-90 37.1901 364.78)" fill="white"/>
<circle cx="44.0469" cy="159.077" r="1.37135" transform="rotate(-90 44.0469 159.077)" fill="white"/>
<circle cx="167.468" cy="611.623" r="1.37135" transform="rotate(-90 167.468 611.623)" fill="white"/>
<circle cx="174.325" cy="405.92" r="1.37135" transform="rotate(-90 174.325 405.92)" fill="white"/>
<circle cx="181.182" cy="200.217" r="1.37135" transform="rotate(-90 181.182 200.217)" fill="white"/>
<circle cx="312.831" cy="735.044" r="1.37135" transform="rotate(-90 312.831 735.044)" fill="white"/>
<circle cx="305.975" cy="529.342" r="1.37135" transform="rotate(-90 305.975 529.342)" fill="white"/>
<circle cx="312.831" cy="323.639" r="1.37135" transform="rotate(-90 312.831 323.639)" fill="white"/>
<circle cx="318.317" cy="117.936" r="1.37135" transform="rotate(-90 318.317 117.936)" fill="white"/>
<circle cx="449.966" cy="769.328" r="1.37135" transform="rotate(-90 449.966 769.328)" fill="white"/>
<circle cx="443.11" cy="563.625" r="1.37135" transform="rotate(-90 443.11 563.625)" fill="white"/>
<circle cx="449.966" cy="357.923" r="1.37135" transform="rotate(-90 449.966 357.923)" fill="white"/>
<circle cx="456.823" cy="152.22" r="1.37135" transform="rotate(-90 456.823 152.22)" fill="white"/>
<circle cx="587.102" cy="803.612" r="1.37135" transform="rotate(-90 587.102 803.612)" fill="white"/>
<circle cx="580.245" cy="597.909" r="1.37135" transform="rotate(-90 580.245 597.909)" fill="white"/>
<circle cx="587.102" cy="392.207" r="1.37135" transform="rotate(-90 587.102 392.207)" fill="white"/>
<circle cx="593.958" cy="186.504" r="1.37135" transform="rotate(-90 593.958 186.504)" fill="white"/>
<circle cx="724.237" cy="693.904" r="1.37135" transform="rotate(-90 724.237 693.904)" fill="white"/>
<circle cx="717.38" cy="488.201" r="1.37135" transform="rotate(-90 717.38 488.201)" fill="white"/>
<circle cx="724.237" cy="282.498" r="1.37135" transform="rotate(-90 724.237 282.498)" fill="white"/>
<circle cx="729.722" cy="76.7956" r="1.37135" transform="rotate(-90 729.722 76.7956)" fill="white"/>
<circle cx="853.144" cy="616.422" r="1.37135" transform="rotate(-90 853.144 616.422)" fill="white"/>
<ellipse cx="860.001" cy="410.72" rx="1.37135" ry="1.37133" transform="rotate(-90 860.001 410.72)" fill="white"/>
<ellipse cx="866.857" cy="205.017" rx="1.37135" ry="1.37143" transform="rotate(-90 866.857 205.017)" fill="white"/>
<circle cx="979.308" cy="806.354" r="1.37135" transform="rotate(-90 979.308 806.354)" fill="white"/>
<circle cx="972.451" cy="600.652" r="1.37135" transform="rotate(-90 972.451 600.652)" fill="white"/>
<circle cx="979.308" cy="394.949" r="1.37135" transform="rotate(-90 979.308 394.949)" fill="white"/>
<circle cx="986.165" cy="189.246" r="1.37135" transform="rotate(-90 986.165 189.246)" fill="white"/>
<circle cx="1126.04" cy="756.3" r="1.37135" transform="rotate(-90 1126.04 756.3)" fill="white"/>
<circle cx="1119.19" cy="550.597" r="1.37135" transform="rotate(-90 1119.19 550.597)" fill="white"/>
<circle cx="1126.04" cy="344.895" r="1.37135" transform="rotate(-90 1126.04 344.895)" fill="white"/>
<circle cx="1132.9" cy="139.192" r="1.37135" transform="rotate(-90 1132.9 139.192)" fill="white"/>
<circle cx="1272.78" cy="802.24" r="1.37135" transform="rotate(-90 1272.78 802.24)" fill="white"/>
<circle cx="1265.92" cy="596.538" r="1.37135" transform="rotate(-90 1265.92 596.538)" fill="white"/>
<ellipse cx="1272.78" cy="390.835" rx="1.37129" ry="1.37135" transform="rotate(-90 1272.78 390.835)" fill="white"/>
<circle cx="1279.63" cy="185.133" r="1.37135" transform="rotate(-90 1279.63 185.133)" fill="white"/>
</svg>
