<svg width="1388" height="664" viewBox="0 0 1388 664" fill="none" xmlns="http://www.w3.org/2000/svg">
<g clip-path="url(#clip0_51_1657)">
<path d="M804.407 165.943L687.842 367.841" stroke="#9A9A9A" stroke-width="3" stroke-linecap="round"/>
<path d="M686.831 369.244C650.247 320.37 625.839 308.128 564.046 296.504C595.45 275.782 608.268 253.58 610.512 216.023C670.516 227.539 690.651 239.164 734.098 287.375L686.831 369.244Z" fill="white" stroke="#9A9A9A" stroke-width="2" stroke-linejoin="round"/>
<path d="M684.68 320.39C685.511 320.87 686.091 321.513 686.419 322.318C686.747 323.123 686.791 323.973 686.553 324.866L685.104 324.434C685.264 323.918 685.248 323.393 685.056 322.859C684.855 322.327 684.497 321.913 683.983 321.616C683.66 321.43 683.289 321.319 682.87 321.285C682.445 321.248 682.034 321.353 681.637 321.601C681.366 321.776 681.139 322.003 680.955 322.281C680.762 322.562 680.547 322.908 680.31 323.318L675.325 331.952L674.044 331.212L679.029 322.578C679.229 322.231 679.413 321.918 679.582 321.639C679.748 321.365 679.935 321.115 680.143 320.888C680.341 320.664 680.591 320.466 680.891 320.293C681.494 319.941 682.125 319.781 682.783 319.815C683.436 319.845 684.068 320.037 684.68 320.39ZM676.105 315.428C676.809 315.834 677.327 316.303 677.66 316.834C677.987 317.361 678.147 317.904 678.14 318.462C678.134 319.02 677.987 319.548 677.7 320.044C677.407 320.552 677.056 320.927 676.647 321.168C676.229 321.412 675.778 321.548 675.292 321.575C674.801 321.599 674.286 321.537 673.749 321.388C673.209 321.231 672.628 321.03 672.006 320.787C671.376 320.546 670.768 320.298 670.182 320.045C669.588 319.795 669.065 319.581 668.613 319.405L669.223 319.387C668.672 320.301 668.456 321.089 668.575 321.75C668.693 322.411 669.218 323.01 670.147 323.547C670.788 323.917 671.414 324.086 672.025 324.054C672.631 324.018 673.203 323.741 673.742 323.22L674.77 324.299C674.073 325.013 673.268 325.414 672.355 325.503C671.442 325.591 670.468 325.337 669.435 324.74C668.58 324.247 667.949 323.667 667.541 323.001C667.124 322.336 666.966 321.629 667.068 320.88C667.109 320.542 667.209 320.195 667.368 319.841C667.526 319.486 667.706 319.135 667.906 318.789L671.261 312.978L672.395 313.633L671.04 315.98L670.791 315.651C671.572 315.032 672.419 314.705 673.332 314.67C674.245 314.635 675.169 314.888 676.105 315.428ZM675.322 316.443C674.728 316.099 674.146 315.906 673.579 315.863C673.011 315.82 672.484 315.905 672 316.118C671.512 316.336 671.092 316.656 670.741 317.077C670.499 317.337 670.271 317.645 670.059 317.999C669.843 318.36 669.684 318.63 669.58 318.808L669.24 318.277C669.707 318.47 670.21 318.684 670.752 318.919C671.287 319.151 671.822 319.372 672.356 319.58C672.885 319.785 673.375 319.949 673.828 320.071C674.137 320.15 674.455 320.191 674.784 320.196C675.108 320.207 675.417 320.146 675.708 320.014C675.994 319.879 676.234 319.644 676.427 319.309C676.584 319.038 676.669 318.737 676.683 318.406C676.691 318.072 676.593 317.735 676.39 317.394C676.181 317.05 675.825 316.733 675.322 316.443ZM666.816 310.411L664.811 321.724L663.52 320.979L665.198 311.694L658.012 317.799L656.705 317.044L665.499 309.651L666.816 310.411ZM658.547 305.291C659.252 305.698 659.77 306.166 660.103 306.697C660.429 307.224 660.59 307.767 660.583 308.325C660.576 308.884 660.43 309.411 660.143 309.907C659.85 310.415 659.499 310.79 659.09 311.031C658.672 311.275 658.22 311.411 657.735 311.438C657.244 311.463 656.729 311.4 656.191 311.252C655.651 311.094 655.07 310.893 654.449 310.65C653.818 310.409 653.21 310.162 652.625 309.909C652.031 309.658 651.508 309.444 651.055 309.268L651.666 309.251C651.115 310.164 650.899 310.952 651.018 311.613C651.136 312.274 651.66 312.873 652.59 313.41C653.231 313.78 653.857 313.949 654.468 313.917C655.073 313.882 655.646 313.604 656.184 313.084L657.213 314.162C656.516 314.876 655.711 315.277 654.798 315.366C653.884 315.454 652.911 315.2 651.877 314.604C651.023 314.11 650.392 313.53 649.984 312.864C649.567 312.2 649.409 311.493 649.511 310.743C649.552 310.405 649.652 310.059 649.81 309.704C649.969 309.349 650.148 308.998 650.348 308.652L653.703 302.841L654.838 303.496L653.483 305.843L653.234 305.514C654.015 304.895 654.862 304.568 655.775 304.533C656.688 304.498 657.612 304.751 658.547 305.291ZM657.765 306.306C657.17 305.963 656.589 305.769 656.021 305.726C655.453 305.683 654.927 305.768 654.442 305.981C653.954 306.2 653.535 306.519 653.184 306.94C652.942 307.201 652.714 307.508 652.502 307.863C652.286 308.223 652.126 308.493 652.023 308.672L651.683 308.141C652.149 308.333 652.653 308.547 653.195 308.782C653.73 309.015 654.265 309.235 654.799 309.443C655.327 309.648 655.818 309.812 656.27 309.935C656.579 310.013 656.898 310.055 657.226 310.059C657.551 310.07 657.859 310.009 658.151 309.877C658.437 309.742 658.677 309.507 658.87 309.172C659.027 308.901 659.112 308.6 659.126 308.269C659.134 307.935 659.036 307.598 658.833 307.257C658.623 306.913 658.267 306.596 657.765 306.306ZM647.269 298.779C648.141 299.283 648.843 299.88 649.374 300.572C649.897 301.267 650.232 302.014 650.378 302.815C650.518 303.611 650.444 304.419 650.156 305.238L648.732 304.705C648.991 303.777 648.919 302.888 648.516 302.04C648.109 301.197 647.441 300.507 646.512 299.971C645.9 299.617 645.296 299.396 644.701 299.306C644.103 299.223 643.562 299.28 643.078 299.478C642.595 299.676 642.211 300.02 641.928 300.511C641.741 300.834 641.64 301.142 641.626 301.433C641.608 301.731 641.651 302.01 641.755 302.27C641.859 302.53 641.995 302.774 642.163 303.002C642.329 303.236 642.5 303.447 642.677 303.634L645.293 306.403C645.61 306.732 645.882 307.074 646.109 307.428C646.332 307.788 646.497 308.156 646.603 308.533C646.699 308.912 646.721 309.302 646.667 309.702C646.613 310.102 646.466 310.51 646.226 310.925C645.82 311.63 645.283 312.132 644.617 312.433C643.951 312.733 643.217 312.837 642.416 312.744C641.616 312.651 640.807 312.365 639.99 311.886C639.159 311.406 638.502 310.831 638.02 310.159C637.532 309.485 637.232 308.75 637.122 307.955C637.008 307.166 637.096 306.359 637.388 305.534L638.862 306.061C638.635 306.654 638.562 307.24 638.644 307.818C638.726 308.396 638.948 308.932 639.309 309.426C639.662 309.922 640.125 310.34 640.699 310.679C641.259 311.002 641.813 311.195 642.362 311.258C642.902 311.323 643.392 311.267 643.833 311.091C644.274 310.914 644.614 310.618 644.854 310.202C645.097 309.781 645.177 309.376 645.092 308.989C645.002 308.598 644.829 308.233 644.571 307.892C644.308 307.547 644.042 307.235 643.772 306.956L641.745 304.828C641.531 304.612 641.292 304.339 641.028 304.01C640.755 303.683 640.526 303.304 640.343 302.875C640.151 302.449 640.059 301.98 640.069 301.47C640.079 300.96 640.255 300.407 640.599 299.813C640.932 299.235 641.346 298.785 641.84 298.463C642.328 298.136 642.871 297.937 643.466 297.866C644.056 297.791 644.675 297.832 645.323 297.991C645.968 298.14 646.616 298.403 647.269 298.779ZM637.046 292.877C637.987 293.421 638.662 294.091 639.071 294.89C639.48 295.688 639.642 296.555 639.556 297.49C639.461 298.428 639.141 299.383 638.596 300.354C638.017 301.329 637.342 302.085 636.569 302.624C635.792 303.169 634.959 303.458 634.07 303.491C633.178 303.531 632.267 303.282 631.337 302.745C630.391 302.198 629.701 301.492 629.269 300.627C628.832 299.759 628.714 298.848 628.918 297.896L630.395 298.217C630.291 298.904 630.39 299.539 630.693 300.121C630.986 300.706 631.439 301.176 632.051 301.529C632.738 301.926 633.399 302.095 634.032 302.038C634.663 301.986 635.249 301.743 635.792 301.31C636.334 300.877 636.819 300.298 637.245 299.574C637.88 298.447 638.14 297.396 638.025 296.422C637.907 295.453 637.346 294.678 636.341 294.098C635.706 293.732 635.083 293.564 634.472 293.596C633.851 293.631 633.264 293.861 632.71 294.288L631.648 293.167C632.474 292.536 633.349 292.194 634.272 292.142C635.192 292.096 636.117 292.341 637.046 292.877ZM631.185 289.84L625.785 299.193L624.642 298.533L625.942 296.281L625.997 296.706C625.733 296.923 625.451 297.099 625.15 297.233C624.846 297.373 624.553 297.461 624.27 297.498C623.904 297.572 623.528 297.57 623.141 297.493C622.751 297.422 622.387 297.3 622.047 297.127C621.705 296.96 621.418 296.764 621.187 296.538L621.877 295.343C622.167 295.626 622.528 295.861 622.959 296.049C623.39 296.236 623.855 296.289 624.356 296.209C624.808 296.146 625.21 295.99 625.563 295.739C625.912 295.494 626.222 295.196 626.494 294.845C626.763 294.5 627.004 294.142 627.217 293.773L629.912 289.105L631.185 289.84ZM618.346 297.265L617.521 298.694L616.248 297.959L617.073 296.53L618.346 297.265ZM624.771 286.137L619.371 295.49L618.098 294.755L623.498 285.402L624.771 286.137ZM616.851 281.218C617.711 281.714 618.314 282.351 618.658 283.127C619 283.909 619.108 284.761 618.984 285.683C618.857 286.61 618.525 287.538 617.988 288.468C617.442 289.415 616.802 290.169 616.069 290.732C615.328 291.296 614.533 291.619 613.686 291.7C612.839 291.78 611.977 291.567 611.099 291.06C610.245 290.567 609.636 289.927 609.274 289.141C608.912 288.355 608.785 287.496 608.891 286.564C608.992 285.629 609.311 284.697 609.848 283.768C610.388 282.832 611.037 282.087 611.796 281.533C612.556 280.978 613.371 280.659 614.242 280.577C615.109 280.501 615.979 280.714 616.851 281.218ZM623.31 279.751L615.51 293.261L614.367 292.601L618.432 285.56L618.293 285.48L622.028 279.011L623.31 279.751ZM616.296 282.479C615.644 282.103 615.006 281.954 614.383 282.033C613.76 282.112 613.178 282.373 612.638 282.815C612.089 283.26 611.609 283.838 611.199 284.548C610.792 285.252 610.532 285.949 610.419 286.638C610.306 287.327 610.374 287.963 610.623 288.545C610.866 289.124 611.322 289.607 611.992 289.994C612.644 290.371 613.279 290.525 613.895 290.458C614.506 290.387 615.081 290.13 615.621 289.688C616.158 289.251 616.638 288.666 617.062 287.933C617.478 287.211 617.745 286.503 617.861 285.808C617.974 285.119 617.908 284.487 617.661 283.914C617.415 283.341 616.96 282.863 616.296 282.479ZM605.559 275.045C606.148 275.238 606.692 275.495 607.193 275.815C607.687 276.131 608.08 276.504 608.371 276.934C608.656 277.36 608.782 277.841 608.75 278.377C608.718 278.82 608.608 279.222 608.422 279.585C608.227 279.949 607.998 280.36 607.735 280.816L602.79 289.381L601.525 288.651L606.44 280.138C606.667 279.745 606.854 279.414 607.002 279.145C607.14 278.879 607.213 278.613 607.22 278.348C607.235 277.841 607.04 277.42 606.633 277.085C606.22 276.746 605.647 276.439 604.914 276.162L605.559 275.045ZM606.92 286.846L606.29 287.938L600.159 284.398L600.789 283.306L606.92 286.846ZM700.165 298.489L692.965 310.959L688.15 308.179C688.029 308.109 687.896 308.025 687.753 307.927C687.6 307.831 687.455 307.724 687.315 307.605C686.72 307.13 686.3 306.584 686.056 305.966C685.803 305.35 685.717 304.708 685.796 304.037C685.869 303.364 686.094 302.701 686.471 302.048C686.844 301.402 687.304 300.878 687.851 300.478C688.397 300.078 689.002 299.83 689.665 299.736C690.319 299.643 690.997 299.735 691.7 300.01C691.87 300.077 692.035 300.15 692.198 300.228C692.355 300.303 692.494 300.376 692.615 300.446L696.157 302.491L698.892 297.754L700.165 298.489ZM695.457 303.703L691.95 301.678C691.846 301.618 691.721 301.554 691.576 301.486C691.431 301.417 691.283 301.359 691.134 301.311C690.653 301.157 690.202 301.131 689.781 301.234C689.354 301.334 688.971 301.525 688.631 301.806C688.286 302.084 688.002 302.416 687.778 302.803C687.555 303.19 687.409 303.602 687.341 304.04C687.264 304.481 687.289 304.911 687.416 305.331C687.537 305.747 687.785 306.125 688.159 306.464C688.275 306.57 688.401 306.665 688.536 306.751C688.668 306.842 688.786 306.918 688.89 306.978L692.397 309.003L695.457 303.703ZM690.778 287.527L686.133 291.392L686.947 289.922L685.239 302.342L683.888 301.562L685.382 291.212L685.937 291.532L677.981 298.152L676.682 297.402L689.505 286.792L690.778 287.527ZM674.792 283.84C675.381 284.033 675.926 284.29 676.426 284.61C676.921 284.926 677.314 285.299 677.604 285.729C677.89 286.155 678.016 286.636 677.984 287.172C677.951 287.615 677.842 288.017 677.656 288.38C677.461 288.744 677.232 289.155 676.968 289.611L672.023 298.176L670.759 297.446L675.674 288.933C675.901 288.54 676.088 288.209 676.235 287.94C676.374 287.674 676.446 287.408 676.453 287.143C676.469 286.636 676.273 286.215 675.866 285.88C675.453 285.541 674.88 285.234 674.147 284.957L674.792 283.84ZM676.154 295.641L675.524 296.733L669.392 293.193L670.022 292.101L676.154 295.641ZM666.195 278.876L663.44 283.648C663.14 284.167 662.914 284.672 662.762 285.161C662.607 285.657 662.545 286.13 662.578 286.58C662.602 287.032 662.735 287.448 662.978 287.827C663.215 288.202 663.579 288.532 664.07 288.815C664.521 289.075 664.964 289.227 665.4 289.271C665.831 289.312 666.25 289.254 666.656 289.096C667.054 288.941 667.433 288.69 667.795 288.344C668.156 287.999 668.49 287.56 668.797 287.029L669.582 287.748C669.029 288.707 668.396 289.415 667.685 289.874C666.973 290.333 666.226 290.56 665.444 290.555C664.662 290.55 663.89 290.328 663.128 289.888C662.568 289.564 662.13 289.196 661.814 288.783C661.493 288.366 661.273 287.927 661.154 287.466C661.03 287.002 660.988 286.527 661.029 286.043C661.066 285.564 661.168 285.088 661.334 284.614C661.497 284.146 661.7 283.701 661.943 283.28L664.913 278.136L666.195 278.876ZM672.958 282.781L665.758 295.251L664.606 294.586L668.671 287.546L668.542 287.471L671.677 282.041L672.958 282.781ZM658.91 274.323C659.839 274.86 660.511 275.529 660.926 276.331C661.341 277.132 661.51 278.007 661.432 278.955C661.354 279.903 661.037 280.859 660.48 281.823C659.913 282.805 659.238 283.562 658.453 284.094C657.669 284.626 656.829 284.908 655.934 284.938C655.03 284.97 654.122 284.723 653.21 284.196C652.274 283.656 651.599 282.985 651.185 282.184C650.761 281.385 650.59 280.513 650.674 279.568C650.748 278.626 651.064 277.673 651.621 276.708C652.187 275.727 652.862 274.965 653.644 274.424C654.423 273.888 655.264 273.604 656.168 273.572C657.072 273.54 657.986 273.79 658.91 274.323ZM658.205 275.544C657.166 274.944 656.194 274.841 655.289 275.235C654.381 275.635 653.608 276.386 652.972 277.488C652.318 278.62 652.055 279.669 652.182 280.635C652.304 281.598 652.881 282.378 653.915 282.975C654.613 283.378 655.282 283.553 655.922 283.499C656.552 283.447 657.142 283.206 657.69 282.776C658.229 282.348 658.709 281.771 659.129 281.043C659.779 279.918 660.041 278.864 659.915 277.883C659.785 276.907 659.215 276.128 658.205 275.544ZM645.66 267.02L642.905 271.792C642.605 272.312 642.379 272.816 642.228 273.306C642.072 273.801 642.011 274.274 642.044 274.724C642.067 275.177 642.201 275.592 642.444 275.971C642.681 276.347 643.045 276.676 643.536 276.96C643.986 277.22 644.43 277.372 644.866 277.416C645.297 277.457 645.715 277.398 646.122 277.24C646.52 277.085 646.899 276.835 647.26 276.489C647.622 276.143 647.956 275.705 648.262 275.174L649.048 275.893C648.495 276.851 647.862 277.56 647.151 278.019C646.439 278.478 645.692 278.705 644.91 278.7C644.128 278.695 643.356 278.472 642.593 278.032C642.033 277.709 641.596 277.341 641.28 276.927C640.958 276.511 640.738 276.072 640.62 275.611C640.495 275.146 640.454 274.672 640.495 274.188C640.532 273.709 640.634 273.233 640.8 272.759C640.962 272.291 641.165 271.846 641.409 271.424L644.379 266.28L645.66 267.02ZM652.424 270.925L647.024 280.278L645.872 279.613L647.202 277.31L647.072 277.235L651.142 270.185L652.424 270.925ZM710.348 273.191L703.853 284.441L708.209 286.956L707.504 288.177L697.519 282.412L698.224 281.191L702.58 283.706L709.075 272.456L710.348 273.191ZM705.614 264.915L700.969 268.781L701.783 267.311L700.075 279.73L698.724 278.95L700.219 268.601L700.773 268.921L692.818 275.54L691.518 274.79L704.341 264.18L705.614 264.915ZM691.364 261.884C692.224 262.381 692.827 263.017 693.171 263.794C693.513 264.576 693.621 265.427 693.497 266.349C693.37 267.276 693.038 268.204 692.501 269.134C691.955 270.081 691.315 270.835 690.582 271.398C689.841 271.963 689.046 272.285 688.199 272.366C687.352 272.446 686.49 272.233 685.612 271.727C684.758 271.233 684.149 270.594 683.787 269.807C683.425 269.021 683.298 268.162 683.404 267.23C683.505 266.296 683.824 265.364 684.361 264.434C684.901 263.499 685.55 262.754 686.309 262.199C687.069 261.644 687.884 261.326 688.755 261.244C689.622 261.167 690.492 261.381 691.364 261.884ZM697.823 260.417L690.023 273.927L688.88 273.267L692.945 266.226L692.806 266.146L696.541 259.677L697.823 260.417ZM690.809 263.145C690.157 262.769 689.519 262.62 688.896 262.699C688.273 262.778 687.691 263.039 687.151 263.481C686.601 263.926 686.122 264.504 685.712 265.214C685.305 265.918 685.045 266.615 684.932 267.304C684.819 267.993 684.887 268.629 685.136 269.212C685.379 269.791 685.835 270.274 686.505 270.66C687.157 271.037 687.792 271.191 688.408 271.124C689.019 271.053 689.594 270.796 690.134 270.354C690.671 269.917 691.151 269.332 691.575 268.599C691.991 267.877 692.258 267.169 692.374 266.474C692.487 265.785 692.421 265.154 692.174 264.58C691.928 264.007 691.473 263.529 690.809 263.145ZM681.356 256.106C682.269 256.633 682.943 257.291 683.379 258.082C683.81 258.87 683.998 259.737 683.944 260.683C683.891 261.63 683.579 262.597 683.009 263.584C682.419 264.606 681.727 265.384 680.933 265.919C680.139 266.454 679.297 266.733 678.405 266.757C677.508 266.778 676.609 266.529 675.708 266.009C674.785 265.475 674.12 264.807 673.714 264.003C673.305 263.205 673.161 262.314 673.283 261.329C673.405 260.345 673.797 259.313 674.459 258.232L675.758 258.982L675.498 259.433C674.821 260.658 674.556 261.725 674.701 262.633C674.841 263.537 675.39 264.266 676.349 264.82C677.353 265.4 678.312 265.518 679.226 265.176C680.134 264.83 680.936 264.054 681.633 262.847C682.313 261.67 682.575 260.601 682.421 259.642C682.257 258.685 681.685 257.924 680.703 257.357C680.034 256.97 679.362 256.787 678.689 256.806C678.007 256.828 677.353 257.047 676.727 257.463L675.806 256.319C676.646 255.719 677.556 255.402 678.538 255.368C679.51 255.337 680.45 255.583 681.356 256.106ZM682.288 262.752L681.673 263.818L674.528 259.693L675.143 258.627L682.288 262.752ZM671.687 250.535C672.784 251.168 673.551 251.927 673.988 252.81C674.419 253.69 674.472 254.598 674.147 255.535L672.723 255.001C672.891 254.39 672.821 253.784 672.514 253.183C672.197 252.585 671.675 252.076 670.948 251.656C670.238 251.246 669.593 251.069 669.013 251.127C668.43 251.191 667.99 251.479 667.693 251.993C667.526 252.282 667.458 252.554 667.487 252.81C667.507 253.068 667.672 253.39 667.98 253.776C668.289 254.162 668.777 254.69 669.444 255.36C670.16 256.081 670.69 256.695 671.036 257.203C671.382 257.71 671.569 258.173 671.598 258.59C671.623 259.012 671.509 259.443 671.256 259.882C670.949 260.413 670.531 260.791 670.001 261.016C669.467 261.247 668.871 261.319 668.214 261.231C667.553 261.15 666.87 260.906 666.165 260.499C665.461 260.092 664.898 259.614 664.477 259.063C664.047 258.514 663.78 257.937 663.676 257.33C663.572 256.723 663.645 256.13 663.895 255.551L665.329 256.067C665.099 256.666 665.123 257.257 665.402 257.841C665.671 258.428 666.155 258.93 666.853 259.349C667.507 259.749 668.12 259.934 668.692 259.903C669.261 259.877 669.674 259.642 669.931 259.197C670.074 258.949 670.122 258.692 670.076 258.427C670.025 258.167 669.849 257.845 669.546 257.463C669.238 257.077 668.771 256.58 668.144 255.972C667.41 255.256 666.868 254.635 666.518 254.109C666.167 253.583 665.983 253.096 665.965 252.647C665.947 252.198 666.078 251.731 666.358 251.246C666.868 250.362 667.599 249.857 668.55 249.729C669.493 249.603 670.538 249.872 671.687 250.535ZM662.202 245.048C663.144 245.591 663.819 246.262 664.228 247.06C664.637 247.858 664.798 248.725 664.712 249.66C664.617 250.599 664.297 251.553 663.752 252.524C663.174 253.499 662.498 254.256 661.725 254.795C660.948 255.339 660.116 255.628 659.227 255.662C658.334 255.701 657.423 255.452 656.494 254.915C655.547 254.369 654.858 253.663 654.426 252.797C653.988 251.929 653.871 251.018 654.074 250.066L655.551 250.387C655.447 251.074 655.547 251.709 655.849 252.291C656.143 252.877 656.595 253.346 657.207 253.699C657.894 254.096 658.555 254.265 659.188 254.208C659.819 254.156 660.405 253.913 660.948 253.48C661.491 253.047 661.975 252.468 662.401 251.744C663.036 250.617 663.296 249.566 663.181 248.592C663.063 247.623 662.502 246.849 661.497 246.269C660.862 245.902 660.239 245.735 659.628 245.767C659.008 245.801 658.42 246.032 657.866 246.458L656.804 245.337C657.631 244.706 658.505 244.364 659.429 244.312C660.348 244.266 661.273 244.511 662.202 245.048ZM656.342 242.01L650.942 251.363L649.799 250.703L651.099 248.452L651.154 248.876C650.89 249.093 650.607 249.269 650.307 249.403C650.003 249.543 649.709 249.632 649.426 249.668C649.06 249.742 648.684 249.74 648.297 249.663C647.907 249.592 647.543 249.47 647.204 249.298C646.861 249.131 646.574 248.934 646.343 248.708L647.033 247.513C647.324 247.796 647.684 248.032 648.115 248.219C648.546 248.406 649.012 248.459 649.512 248.379C649.964 248.316 650.366 248.16 650.719 247.909C651.068 247.664 651.379 247.366 651.651 247.015C651.919 246.67 652.16 246.313 652.374 245.943L655.069 241.275L656.342 242.01ZM643.502 249.435L642.677 250.864L641.404 250.129L642.229 248.7L643.502 249.435ZM649.927 238.307L644.527 247.66L643.254 246.925L648.654 237.572L649.927 238.307ZM642.007 233.388C642.868 233.885 643.47 234.521 643.815 235.297C644.156 236.08 644.265 236.931 644.141 237.853C644.013 238.78 643.681 239.708 643.145 240.638C642.598 241.585 641.958 242.339 641.226 242.902C640.484 243.466 639.69 243.789 638.842 243.87C637.995 243.95 637.133 243.737 636.255 243.231C635.401 242.737 634.793 242.097 634.431 241.311C634.069 240.525 633.941 239.666 634.048 238.734C634.149 237.8 634.467 236.867 635.004 235.938C635.544 235.003 636.194 234.258 636.953 233.703C637.712 233.148 638.527 232.83 639.398 232.747C640.266 232.671 641.136 232.885 642.007 233.388ZM648.466 231.921L640.666 245.431L639.523 244.771L643.588 237.73L643.45 237.65L647.185 231.181L648.466 231.921ZM641.452 234.649C640.8 234.273 640.162 234.124 639.539 234.203C638.916 234.282 638.334 234.543 637.794 234.985C637.245 235.43 636.765 236.008 636.355 236.718C635.948 237.422 635.689 238.119 635.576 238.808C635.463 239.497 635.53 240.133 635.779 240.715C636.022 241.295 636.479 241.777 637.148 242.164C637.801 242.541 638.435 242.695 639.051 242.628C639.662 242.557 640.237 242.3 640.778 241.858C641.315 241.421 641.795 240.836 642.218 240.103C642.635 239.381 642.901 238.673 643.018 237.978C643.131 237.289 643.064 236.658 642.818 236.084C642.571 235.511 642.116 235.033 641.452 234.649ZM630.715 227.215C631.304 227.408 631.848 227.665 632.349 227.985C632.844 228.301 633.237 228.674 633.527 229.104C633.812 229.53 633.939 230.011 633.907 230.547C633.874 230.99 633.765 231.393 633.579 231.755C633.384 232.119 633.154 232.53 632.891 232.986L627.946 241.551L626.682 240.821L631.597 232.308C631.823 231.915 632.01 231.585 632.158 231.316C632.296 231.049 632.369 230.783 632.376 230.518C632.392 230.011 632.196 229.59 631.789 229.255C631.376 228.917 630.803 228.609 630.07 228.332L630.715 227.215ZM632.077 239.017L631.447 240.108L625.315 236.568L625.945 235.477L632.077 239.017Z" fill="#9A9A9A"/>
</g>
<g clip-path="url(#clip1_51_1657)">
<path d="M1301.91 521.604H1068.78" stroke="#9A9A9A" stroke-width="3" stroke-linecap="round"/>
<path d="M1067.06 521.43C1091.09 465.31 1089.49 438.052 1068.66 378.725C1102.31 395.561 1127.94 395.561 1161.59 378.725C1181.62 436.449 1181.62 459.698 1161.59 521.43H1067.06Z" fill="white" stroke="#9A9A9A" stroke-width="2" stroke-linejoin="round"/>
<path d="M1108 481.596H1093.6V480.116L1105.4 472.186H1093.6V470.706H1108V472.186L1096.19 480.116H1108V481.596ZM1108.3 463.395C1108.3 464.468 1108.06 465.385 1107.57 466.145C1107.08 466.905 1106.41 467.488 1105.55 467.895C1104.69 468.301 1103.7 468.505 1102.59 468.505C1101.46 468.505 1100.46 468.298 1099.61 467.885C1098.76 467.471 1098.09 466.885 1097.62 466.125C1097.14 465.358 1096.9 464.448 1096.9 463.395C1096.9 462.315 1097.14 461.395 1097.63 460.635C1098.11 459.868 1098.78 459.285 1099.64 458.885C1100.49 458.478 1101.48 458.275 1102.59 458.275C1103.72 458.275 1104.72 458.478 1105.58 458.885C1106.43 459.291 1107.1 459.878 1107.58 460.645C1108.06 461.411 1108.3 462.328 1108.3 463.395ZM1106.89 463.395C1106.89 462.195 1106.49 461.301 1105.7 460.715C1104.9 460.128 1103.86 459.835 1102.59 459.835C1101.28 459.835 1100.24 460.131 1099.47 460.725C1098.7 461.311 1098.31 462.201 1098.31 463.395C1098.31 464.201 1098.49 464.868 1098.86 465.395C1099.22 465.915 1099.72 466.305 1100.37 466.565C1101.01 466.818 1101.75 466.945 1102.59 466.945C1103.89 466.945 1104.93 466.645 1105.72 466.045C1106.5 465.445 1106.89 464.561 1106.89 463.395ZM1108.3 451.879C1108.3 452.885 1108.05 453.745 1107.55 454.459C1107.04 455.172 1106.36 455.719 1105.5 456.099C1104.64 456.479 1103.67 456.669 1102.59 456.669C1101.52 456.669 1100.55 456.482 1099.69 456.109C1098.83 455.729 1098.15 455.185 1097.65 454.479C1097.15 453.772 1096.9 452.925 1096.9 451.939C1096.9 450.925 1097.15 450.072 1097.64 449.379C1098.13 448.685 1098.81 448.162 1099.67 447.809C1100.52 447.449 1101.5 447.269 1102.59 447.269C1103.66 447.269 1104.63 447.445 1105.5 447.799C1106.36 448.152 1107.04 448.672 1107.55 449.359C1108.05 450.045 1108.3 450.885 1108.3 451.879ZM1106.93 451.729C1106.93 450.962 1106.74 450.329 1106.37 449.829C1106 449.329 1105.48 448.955 1104.83 448.709C1104.17 448.462 1103.42 448.339 1102.59 448.339C1101.74 448.339 1101 448.462 1100.35 448.709C1099.7 448.955 1099.19 449.329 1098.82 449.829C1098.45 450.322 1098.27 450.945 1098.27 451.699C1098.27 452.472 1098.46 453.112 1098.84 453.619C1099.22 454.125 1099.74 454.502 1100.39 454.749C1101.04 454.989 1101.78 455.109 1102.59 455.109C1103.41 455.109 1104.15 454.985 1104.81 454.739C1105.46 454.485 1105.98 454.109 1106.36 453.609C1106.74 453.109 1106.93 452.482 1106.93 451.729ZM1108 448.339H1099.87V448.499H1093.6V447.019H1108V448.339ZM1108.3 439.643C1108.3 440.697 1108.07 441.61 1107.6 442.383C1107.13 443.15 1106.48 443.747 1105.63 444.173C1104.78 444.6 1103.79 444.813 1102.65 444.813C1101.47 444.813 1100.45 444.603 1099.59 444.183C1098.73 443.763 1098.07 443.173 1097.6 442.413C1097.13 441.647 1096.9 440.743 1096.9 439.703C1096.9 438.637 1097.15 437.727 1097.64 436.973C1098.13 436.22 1098.83 435.65 1099.74 435.263C1100.65 434.877 1101.74 434.7 1103.01 434.733V436.233H1102.49C1101.09 436.26 1100.03 436.563 1099.32 437.143C1098.61 437.717 1098.25 438.557 1098.25 439.663C1098.25 440.823 1098.63 441.713 1099.38 442.333C1100.13 442.947 1101.21 443.253 1102.6 443.253C1103.96 443.253 1105.02 442.947 1105.77 442.333C1106.52 441.713 1106.89 440.837 1106.89 439.703C1106.89 438.93 1106.71 438.257 1106.36 437.683C1106 437.103 1105.48 436.647 1104.81 436.313L1105.34 434.943C1106.28 435.37 1107.01 436 1107.53 436.833C1108.04 437.66 1108.3 438.597 1108.3 439.643ZM1103.01 443.773H1101.78V435.523H1103.01V443.773ZM1108.29 426.05C1108.29 427.01 1108.02 427.833 1107.49 428.52C1106.96 429.207 1106.24 429.67 1105.35 429.91L1105 428.44C1105.53 428.32 1105.97 428.043 1106.34 427.61C1106.7 427.17 1106.88 426.653 1106.88 426.06C1106.88 425.687 1106.79 425.31 1106.61 424.93C1106.43 424.543 1106.13 424.24 1105.72 424.02C1105.43 423.873 1105.12 423.79 1104.79 423.77C1104.45 423.743 1104.04 423.73 1103.57 423.73H1093.6V422.25H1103.57C1103.97 422.25 1104.33 422.253 1104.66 422.26C1104.98 422.267 1105.29 422.303 1105.59 422.37C1105.88 422.43 1106.18 422.547 1106.48 422.72C1107.09 423.067 1107.54 423.533 1107.84 424.12C1108.14 424.7 1108.29 425.343 1108.29 426.05ZM1108.29 415.203C1108.29 416.469 1108.02 417.513 1107.47 418.333C1106.92 419.146 1106.16 419.646 1105.19 419.833L1104.94 418.333C1105.55 418.173 1106.04 417.809 1106.41 417.243C1106.77 416.669 1106.95 415.963 1106.95 415.123C1106.95 414.303 1106.78 413.656 1106.44 413.183C1106.09 412.709 1105.62 412.473 1105.03 412.473C1104.7 412.473 1104.43 412.549 1104.22 412.703C1104.01 412.849 1103.81 413.153 1103.63 413.613C1103.45 414.073 1103.24 414.759 1102.99 415.673C1102.72 416.653 1102.46 417.419 1102.19 417.973C1101.92 418.526 1101.62 418.919 1101.27 419.153C1100.92 419.386 1100.49 419.503 1099.98 419.503C1099.37 419.503 1098.83 419.329 1098.37 418.983C1097.9 418.636 1097.54 418.156 1097.29 417.543C1097.03 416.929 1096.9 416.216 1096.9 415.403C1096.9 414.589 1097.03 413.863 1097.3 413.223C1097.56 412.576 1097.93 412.056 1098.4 411.663C1098.87 411.269 1099.42 411.036 1100.05 410.963L1100.32 412.463C1099.69 412.563 1099.19 412.879 1098.82 413.413C1098.45 413.939 1098.25 414.609 1098.24 415.423C1098.22 416.189 1098.37 416.813 1098.68 417.293C1098.99 417.773 1099.4 418.013 1099.91 418.013C1100.2 418.013 1100.44 417.926 1100.65 417.753C1100.85 417.579 1101.04 417.266 1101.22 416.813C1101.4 416.353 1101.6 415.699 1101.81 414.853C1102.06 413.859 1102.33 413.079 1102.61 412.513C1102.89 411.946 1103.22 411.543 1103.6 411.303C1103.98 411.063 1104.45 410.943 1105.01 410.943C1106.03 410.943 1106.83 411.323 1107.42 412.083C1108 412.836 1108.29 413.876 1108.29 415.203ZM1135.3 479.83C1135.3 480.843 1135.12 481.757 1134.77 482.57C1134.42 483.383 1133.91 484.077 1133.26 484.65C1132.61 485.217 1131.82 485.65 1130.9 485.95C1129.97 486.25 1128.94 486.4 1127.8 486.4C1126.29 486.4 1124.98 486.14 1123.86 485.62C1122.73 485.093 1121.86 484.34 1121.24 483.36C1120.62 482.38 1120.31 481.203 1120.31 479.83C1120.31 478.297 1120.67 477.05 1121.39 476.09C1122.1 475.123 1123.06 474.45 1124.27 474.07L1124.63 475.55C1123.75 475.863 1123.05 476.38 1122.52 477.1C1121.99 477.813 1121.73 478.703 1121.73 479.77C1121.72 480.897 1121.98 481.833 1122.49 482.58C1123 483.327 1123.71 483.89 1124.63 484.27C1125.54 484.643 1126.6 484.833 1127.8 484.84C1129 484.847 1130.06 484.663 1130.97 484.29C1131.88 483.91 1132.59 483.343 1133.11 482.59C1133.62 481.837 1133.88 480.897 1133.89 479.77C1133.89 478.737 1133.69 477.883 1133.29 477.21C1132.89 476.537 1132.32 476.027 1131.57 475.68C1130.82 475.327 1129.94 475.127 1128.92 475.08V478.4H1127.66V473.54C1127.81 473.52 1127.98 473.51 1128.15 473.51C1128.32 473.503 1128.44 473.5 1128.51 473.5C1129.81 473.5 1130.97 473.733 1132 474.2C1133.02 474.667 1133.83 475.37 1134.42 476.31C1135.01 477.243 1135.3 478.417 1135.3 479.83ZM1135 471.498H1124.2V470.178H1126.8L1126.46 470.438C1126.14 470.318 1125.85 470.162 1125.58 469.968C1125.31 469.775 1125.08 469.565 1124.91 469.338C1124.66 469.058 1124.48 468.732 1124.35 468.358C1124.22 467.985 1124.14 467.608 1124.12 467.228C1124.09 466.848 1124.12 466.502 1124.2 466.188H1125.58C1125.48 466.582 1125.46 467.012 1125.51 467.478C1125.56 467.945 1125.75 468.375 1126.07 468.768C1126.35 469.128 1126.69 469.398 1127.08 469.578C1127.47 469.758 1127.88 469.878 1128.32 469.938C1128.75 469.998 1129.18 470.028 1129.61 470.028H1135V471.498ZM1135.3 461.612C1135.3 462.425 1135.15 463.108 1134.86 463.662C1134.57 464.208 1134.18 464.618 1133.69 464.892C1133.2 465.165 1132.67 465.302 1132.1 465.302C1131.51 465.302 1131.01 465.185 1130.6 464.952C1130.18 464.712 1129.84 464.388 1129.57 463.982C1129.3 463.568 1129.1 463.092 1128.96 462.552C1128.83 462.005 1128.71 461.402 1128.61 460.742C1128.5 460.075 1128.41 459.425 1128.34 458.792C1128.26 458.152 1128.18 457.592 1128.11 457.112L1128.43 457.632C1127.36 457.612 1126.57 457.818 1126.06 458.252C1125.55 458.685 1125.29 459.438 1125.29 460.512C1125.29 461.252 1125.46 461.878 1125.79 462.392C1126.12 462.898 1126.65 463.255 1127.37 463.462L1126.95 464.892C1125.98 464.645 1125.23 464.148 1124.7 463.402C1124.17 462.655 1123.9 461.685 1123.9 460.492C1123.9 459.505 1124.09 458.668 1124.46 457.982C1124.83 457.288 1125.36 456.798 1126.06 456.512C1126.37 456.378 1126.72 456.292 1127.11 456.252C1127.5 456.212 1127.89 456.192 1128.29 456.192H1135V457.502H1132.29L1132.45 457.122C1133.38 457.488 1134.08 458.058 1134.57 458.832C1135.06 459.605 1135.3 460.532 1135.3 461.612ZM1134.03 461.442C1134.03 460.755 1133.91 460.155 1133.66 459.642C1133.41 459.128 1133.08 458.715 1132.65 458.402C1132.22 458.088 1131.73 457.885 1131.19 457.792C1130.84 457.712 1130.46 457.668 1130.05 457.662C1129.63 457.655 1129.32 457.652 1129.11 457.652L1129.4 457.092C1129.47 457.592 1129.53 458.135 1129.6 458.722C1129.67 459.302 1129.74 459.875 1129.83 460.442C1129.92 461.002 1130.02 461.508 1130.14 461.962C1130.23 462.268 1130.35 462.565 1130.51 462.852C1130.66 463.138 1130.87 463.375 1131.13 463.562C1131.39 463.742 1131.71 463.832 1132.1 463.832C1132.41 463.832 1132.72 463.755 1133.01 463.602C1133.3 463.442 1133.55 463.188 1133.74 462.842C1133.93 462.488 1134.03 462.022 1134.03 461.442ZM1135.3 448.738C1135.3 449.732 1135.05 450.572 1134.55 451.258C1134.04 451.945 1133.36 452.465 1132.5 452.818C1131.63 453.172 1130.66 453.348 1129.59 453.348C1128.5 453.348 1127.52 453.172 1126.67 452.818C1125.81 452.458 1125.13 451.932 1124.64 451.238C1124.15 450.545 1123.9 449.692 1123.9 448.678C1123.9 447.692 1124.15 446.845 1124.65 446.138C1125.15 445.432 1125.83 444.892 1126.69 444.518C1127.55 444.138 1128.52 443.948 1129.59 443.948C1130.67 443.948 1131.64 444.138 1132.5 444.518C1133.36 444.898 1134.04 445.445 1134.55 446.158C1135.05 446.872 1135.3 447.732 1135.3 448.738ZM1139.8 453.598H1124.2V452.278H1132.33V452.118H1139.8V453.598ZM1133.93 448.888C1133.93 448.135 1133.74 447.508 1133.36 447.008C1132.98 446.508 1132.46 446.135 1131.81 445.888C1131.15 445.635 1130.41 445.508 1129.59 445.508C1128.78 445.508 1128.04 445.632 1127.39 445.878C1126.74 446.125 1126.22 446.502 1125.84 447.008C1125.46 447.508 1125.27 448.145 1125.27 448.918C1125.27 449.672 1125.45 450.298 1125.82 450.798C1126.19 451.292 1126.7 451.662 1127.35 451.908C1128 452.155 1128.74 452.278 1129.59 452.278C1130.42 452.278 1131.17 452.155 1131.83 451.908C1132.48 451.662 1133 451.288 1133.37 450.788C1133.74 450.288 1133.93 449.655 1133.93 448.888ZM1135 433.952H1129.49C1128.89 433.952 1128.34 434.009 1127.84 434.122C1127.33 434.236 1126.89 434.419 1126.52 434.672C1126.14 434.919 1125.85 435.242 1125.64 435.642C1125.43 436.036 1125.33 436.516 1125.33 437.082C1125.33 437.602 1125.42 438.062 1125.6 438.462C1125.78 438.856 1126.04 439.189 1126.38 439.462C1126.71 439.729 1127.12 439.932 1127.6 440.072C1128.08 440.212 1128.63 440.282 1129.24 440.282L1129.01 441.322C1127.9 441.322 1126.97 441.129 1126.22 440.742C1125.47 440.356 1124.9 439.822 1124.51 439.142C1124.12 438.462 1123.93 437.682 1123.93 436.802C1123.93 436.156 1124.03 435.592 1124.23 435.112C1124.43 434.626 1124.7 434.216 1125.04 433.882C1125.38 433.542 1125.77 433.269 1126.21 433.062C1126.64 432.856 1127.11 432.706 1127.6 432.612C1128.09 432.519 1128.57 432.472 1129.06 432.472H1135V433.952ZM1135 441.762H1120.6V440.432H1128.73V440.282H1135V441.762ZM1135.29 414.563L1131.47 418.403L1130.47 417.403L1134.29 413.583L1135.29 414.563ZM1135.3 420.043C1135.3 421.477 1134.98 422.687 1134.35 423.673C1133.71 424.66 1132.83 425.407 1131.7 425.913C1130.57 426.42 1129.27 426.673 1127.8 426.673C1126.33 426.673 1125.03 426.42 1123.9 425.913C1122.77 425.407 1121.89 424.66 1121.26 423.673C1120.62 422.687 1120.3 421.477 1120.3 420.043C1120.3 418.603 1120.62 417.393 1121.26 416.413C1121.89 415.427 1122.77 414.68 1123.9 414.173C1125.03 413.66 1126.33 413.403 1127.8 413.403C1129.27 413.403 1130.57 413.66 1131.7 414.173C1132.83 414.68 1133.71 415.427 1134.35 416.413C1134.98 417.393 1135.3 418.603 1135.3 420.043ZM1133.89 420.043C1133.89 418.917 1133.63 417.977 1133.12 417.223C1132.61 416.47 1131.89 415.907 1130.98 415.533C1130.06 415.153 1129 414.963 1127.8 414.963C1126.6 414.963 1125.54 415.153 1124.63 415.533C1123.72 415.907 1123 416.47 1122.49 417.223C1121.98 417.977 1121.72 418.917 1121.71 420.043C1121.71 421.17 1121.97 422.107 1122.48 422.853C1122.99 423.6 1123.71 424.163 1124.63 424.543C1125.54 424.917 1126.6 425.107 1127.8 425.113C1129 425.12 1130.06 424.937 1130.97 424.563C1131.88 424.183 1132.59 423.617 1133.11 422.863C1133.62 422.11 1133.88 421.17 1133.89 420.043ZM1135 411.201H1120.3V409.731H1135V411.201ZM1162 485.6H1147.6V480.04C1147.6 479.9 1147.61 479.743 1147.62 479.57C1147.63 479.39 1147.65 479.21 1147.68 479.03C1147.79 478.277 1148.06 477.64 1148.47 477.12C1148.88 476.593 1149.39 476.197 1150.01 475.93C1150.63 475.657 1151.32 475.52 1152.07 475.52C1153.16 475.52 1154.1 475.807 1154.9 476.38C1155.7 476.953 1156.2 477.773 1156.41 478.84L1156.53 479.35V484.13H1162V485.6ZM1162 476.88L1156.14 479.72L1155.6 478.31L1162 475.19V476.88ZM1155.13 484.13V480.08C1155.13 479.96 1155.12 479.82 1155.11 479.66C1155.1 479.5 1155.07 479.343 1155.04 479.19C1154.93 478.697 1154.73 478.293 1154.43 477.98C1154.13 477.66 1153.77 477.423 1153.36 477.27C1152.95 477.11 1152.52 477.03 1152.07 477.03C1151.62 477.03 1151.19 477.11 1150.78 477.27C1150.36 477.423 1150 477.66 1149.7 477.98C1149.4 478.293 1149.2 478.697 1149.09 479.19C1149.06 479.343 1149.04 479.5 1149.03 479.66C1149.02 479.82 1149.01 479.96 1149.01 480.08V484.13H1155.13ZM1162.3 468.413C1162.3 469.466 1162.07 470.379 1161.6 471.153C1161.13 471.919 1160.48 472.516 1159.63 472.943C1158.78 473.369 1157.79 473.583 1156.65 473.583C1155.47 473.583 1154.45 473.373 1153.59 472.953C1152.73 472.533 1152.07 471.943 1151.6 471.183C1151.13 470.416 1150.9 469.513 1150.9 468.473C1150.9 467.406 1151.15 466.496 1151.64 465.743C1152.13 464.989 1152.83 464.419 1153.74 464.033C1154.65 463.646 1155.74 463.469 1157.01 463.503V465.003H1156.49C1155.09 465.029 1154.03 465.333 1153.32 465.913C1152.61 466.486 1152.25 467.326 1152.25 468.433C1152.25 469.593 1152.63 470.483 1153.38 471.103C1154.13 471.716 1155.21 472.023 1156.6 472.023C1157.96 472.023 1159.02 471.716 1159.77 471.103C1160.52 470.483 1160.89 469.606 1160.89 468.473C1160.89 467.699 1160.71 467.026 1160.36 466.453C1160 465.873 1159.48 465.416 1158.81 465.083L1159.34 463.713C1160.28 464.139 1161.01 464.769 1161.53 465.603C1162.04 466.429 1162.3 467.366 1162.3 468.413ZM1157.01 472.543H1155.78V464.293H1157.01V472.543ZM1162.29 457.254C1162.29 458.52 1162.02 459.564 1161.47 460.384C1160.92 461.197 1160.16 461.697 1159.19 461.884L1158.94 460.384C1159.55 460.224 1160.04 459.86 1160.41 459.294C1160.77 458.72 1160.95 458.014 1160.95 457.174C1160.95 456.354 1160.78 455.707 1160.44 455.234C1160.09 454.76 1159.62 454.524 1159.03 454.524C1158.7 454.524 1158.43 454.6 1158.22 454.754C1158.01 454.9 1157.81 455.204 1157.63 455.664C1157.45 456.124 1157.24 456.81 1156.99 457.724C1156.72 458.704 1156.46 459.47 1156.19 460.024C1155.92 460.577 1155.62 460.97 1155.27 461.204C1154.92 461.437 1154.49 461.554 1153.98 461.554C1153.37 461.554 1152.83 461.38 1152.37 461.034C1151.9 460.687 1151.54 460.207 1151.29 459.594C1151.03 458.98 1150.9 458.267 1150.9 457.454C1150.9 456.64 1151.03 455.914 1151.3 455.274C1151.56 454.627 1151.93 454.107 1152.4 453.714C1152.87 453.32 1153.42 453.087 1154.05 453.014L1154.32 454.514C1153.69 454.614 1153.19 454.93 1152.82 455.464C1152.45 455.99 1152.25 456.66 1152.24 457.474C1152.22 458.24 1152.37 458.864 1152.68 459.344C1152.99 459.824 1153.4 460.064 1153.91 460.064C1154.2 460.064 1154.44 459.977 1154.65 459.804C1154.85 459.63 1155.04 459.317 1155.22 458.864C1155.4 458.404 1155.6 457.75 1155.81 456.904C1156.06 455.91 1156.33 455.13 1156.61 454.564C1156.89 453.997 1157.22 453.594 1157.6 453.354C1157.98 453.114 1158.45 452.994 1159.01 452.994C1160.03 452.994 1160.83 453.374 1161.42 454.134C1162 454.887 1162.29 455.927 1162.29 457.254ZM1162 444.896C1162.13 445.502 1162.18 446.102 1162.15 446.696C1162.12 447.282 1162 447.809 1161.77 448.276C1161.54 448.736 1161.19 449.086 1160.71 449.326C1160.31 449.519 1159.91 449.626 1159.5 449.646C1159.09 449.659 1158.62 449.666 1158.09 449.666H1148.2V448.206H1158.03C1158.48 448.206 1158.86 448.202 1159.17 448.196C1159.47 448.182 1159.74 448.112 1159.97 447.986C1160.42 447.746 1160.68 447.366 1160.77 446.846C1160.86 446.319 1160.84 445.669 1160.71 444.896H1162ZM1152.46 451.976H1151.2V444.896H1152.46V451.976ZM1162 439.764L1147.6 434.804V432.854L1162 427.894V429.424L1148.42 434.134V433.554L1162 438.234V439.764ZM1158.51 437.554H1157.13V430.114H1158.51V437.554ZM1162.3 421.238C1162.3 422.232 1162.05 423.072 1161.55 423.758C1161.04 424.445 1160.36 424.965 1159.5 425.318C1158.63 425.672 1157.66 425.848 1156.59 425.848C1155.5 425.848 1154.52 425.672 1153.67 425.318C1152.81 424.958 1152.13 424.432 1151.64 423.738C1151.15 423.045 1150.9 422.192 1150.9 421.178C1150.9 420.192 1151.15 419.345 1151.65 418.638C1152.15 417.932 1152.83 417.392 1153.69 417.018C1154.55 416.638 1155.52 416.448 1156.59 416.448C1157.67 416.448 1158.64 416.638 1159.5 417.018C1160.36 417.398 1161.04 417.945 1161.55 418.658C1162.05 419.372 1162.3 420.232 1162.3 421.238ZM1166.8 426.098H1151.2V424.778H1159.33V424.618H1166.8V426.098ZM1160.93 421.388C1160.93 420.635 1160.74 420.008 1160.36 419.508C1159.98 419.008 1159.46 418.635 1158.81 418.388C1158.15 418.135 1157.41 418.008 1156.59 418.008C1155.78 418.008 1155.04 418.132 1154.39 418.378C1153.74 418.625 1153.22 419.002 1152.84 419.508C1152.46 420.008 1152.27 420.645 1152.27 421.418C1152.27 422.172 1152.45 422.798 1152.82 423.298C1153.19 423.792 1153.7 424.162 1154.35 424.408C1155 424.655 1155.74 424.778 1156.59 424.778C1157.42 424.778 1158.17 424.655 1158.83 424.408C1159.48 424.162 1160 423.788 1160.37 423.288C1160.74 422.788 1160.93 422.155 1160.93 421.388ZM1149.15 414.052H1147.5V412.582H1149.15V414.052ZM1162 414.052H1151.2V412.582H1162V414.052Z" fill="#9A9A9A"/>
</g>
<path d="M1460.63 556.591C1445.93 606.597 1393.49 635.222 1343.48 620.529C1293.48 605.835 1264.85 553.386 1279.54 503.381C1294.24 453.376 1346.69 424.75 1396.69 439.444C1446.7 454.138 1475.32 506.586 1460.63 556.591Z" fill="url(#paint0_linear_51_1657)"/>
<path d="M1359.05 484.704C1356.79 492.397 1348.72 496.802 1341.02 494.542C1333.33 492.282 1328.93 484.213 1331.19 476.52C1333.45 468.827 1341.51 464.422 1349.21 466.682C1356.9 468.942 1361.31 477.011 1359.05 484.704Z" fill="url(#paint1_linear_51_1657)"/>
<path d="M1360.26 592.516C1355.02 601.908 1341.75 604.488 1330.61 598.278C1319.46 592.069 1314.67 579.422 1319.91 570.031C1325.14 560.639 1338.41 558.059 1349.56 564.269C1360.7 570.478 1365.49 583.125 1360.26 592.516Z" fill="url(#paint2_linear_51_1657)"/>
<path d="M1403.7 440.39C1403.35 441.782 1398.47 441.765 1392.79 440.353C1387.11 438.941 1382.78 436.668 1383.13 435.276C1383.47 433.885 1388.36 433.901 1394.04 435.314C1399.72 436.726 1404.04 438.999 1403.7 440.39Z" fill="#9E0E17"/>
<path d="M1403.24 442.219C1402.65 444.62 1397.56 445.422 1391.88 444.01C1386.2 442.598 1382.08 439.506 1382.67 437.105C1383.27 434.703 1388.36 433.901 1394.04 435.313C1399.72 436.726 1403.84 439.817 1403.24 442.219Z" fill="#9E0E17"/>
<path d="M1401.22 438.66C1401.12 439.065 1397.81 438.591 1393.84 437.602C1389.86 436.613 1386.71 435.483 1386.81 435.078C1386.91 434.673 1390.22 435.147 1394.2 436.136C1398.18 437.125 1401.32 438.255 1401.22 438.66Z" fill="#580509"/>
<path d="M1286.35 477.883C1288.49 478.797 1287.21 486.643 1283.48 495.407C1279.75 504.171 1274.98 510.534 1272.83 509.62C1270.69 508.705 1271.97 500.86 1275.7 492.096C1279.43 483.332 1284.2 476.968 1286.35 477.883Z" fill="url(#paint3_linear_51_1657)"/>
<path d="M1289.17 479.084C1292.87 480.662 1292.85 489.045 1289.12 497.809C1285.39 506.573 1279.36 512.398 1275.66 510.821C1271.95 509.243 1271.97 500.86 1275.7 492.096C1279.43 483.332 1285.46 477.506 1289.17 479.084Z" fill="url(#paint4_linear_51_1657)"/>
<path d="M1282.93 481.418C1283.55 481.684 1281.94 486.875 1279.33 493.013C1276.72 499.151 1274.09 503.911 1273.47 503.645C1272.84 503.379 1274.45 498.187 1277.07 492.05C1279.68 485.912 1282.31 481.152 1282.93 481.418Z" fill="#470609"/>
<path d="M1296.74 589.327C1297.6 588.437 1304.11 592.792 1311.28 599.056C1318.45 605.319 1323.57 611.118 1322.71 612.009C1321.85 612.9 1315.34 608.544 1308.17 602.281C1301 596.017 1295.88 590.218 1296.74 589.327Z" fill="url(#paint5_linear_51_1657)"/>
<path d="M1297.87 588.157C1299.36 586.62 1306.38 590.452 1313.55 596.715C1320.72 602.979 1325.33 609.302 1323.84 610.839C1322.35 612.376 1315.33 608.544 1308.16 602.281C1300.99 596.017 1296.39 589.694 1297.87 588.157Z" fill="url(#paint6_linear_51_1657)"/>
<path d="M1299.55 593.018C1299.8 592.758 1304.07 596.104 1309.09 600.491C1314.12 604.877 1317.98 608.643 1317.73 608.903C1317.48 609.162 1313.21 605.816 1308.19 601.429C1303.16 597.043 1299.3 593.277 1299.55 593.018Z" fill="#150303"/>
<path d="M1394.89 534.226C1391.67 538.065 1385.95 538.565 1382.11 535.344C1378.27 532.123 1377.77 526.399 1380.99 522.56C1384.21 518.721 1389.93 518.221 1393.77 521.442C1397.61 524.663 1398.11 530.387 1394.89 534.226Z" fill="#780B12"/>
<path d="M1292.21 534.621C1289.21 534.66 1286.72 530.63 1286.65 525.619C1286.59 520.608 1288.97 516.514 1291.98 516.475C1294.98 516.436 1297.47 520.466 1297.54 525.477C1297.6 530.488 1295.22 534.582 1292.21 534.621Z" fill="#650B12"/>
<path d="M1396.22 604.659C1396.28 607.665 1392.26 610.181 1387.25 610.278C1382.24 610.375 1378.13 608.016 1378.07 605.01C1378.02 602.003 1382.03 599.488 1387.04 599.391C1392.05 599.294 1396.16 601.653 1396.22 604.659Z" fill="#4B090E"/>
<path d="M1174.3 251.929C1170.6 264.516 1157.4 271.722 1144.81 268.023C1132.22 264.324 1125.02 251.122 1128.72 238.534C1132.41 225.947 1145.62 218.741 1158.21 222.44C1170.79 226.138 1178 239.341 1174.3 251.929Z" fill="url(#paint7_linear_51_1657)"/>
<path d="M1148.73 233.833C1148.16 235.769 1146.13 236.878 1144.19 236.309C1142.26 235.74 1141.15 233.709 1141.72 231.772C1142.28 229.836 1144.32 228.727 1146.25 229.296C1148.19 229.865 1149.3 231.896 1148.73 233.833Z" fill="url(#paint8_linear_51_1657)"/>
<path d="M1172.33 240.463C1172.26 241.267 1171.62 241.869 1170.91 241.809C1170.19 241.749 1169.66 241.048 1169.73 240.244C1169.8 239.44 1170.43 238.837 1171.15 238.897C1171.87 238.958 1172.4 239.658 1172.33 240.463Z" fill="url(#paint9_linear_51_1657)"/>
<path d="M1167.5 259.241C1167.89 259.899 1167.47 260.872 1166.56 261.414C1165.65 261.957 1164.6 261.863 1164.21 261.206C1163.81 260.548 1164.23 259.575 1165.14 259.033C1166.05 258.49 1167.11 258.584 1167.5 259.241Z" fill="url(#paint10_linear_51_1657)"/>
<path d="M1165.69 227.245C1165.47 227.588 1164.57 227.392 1163.68 226.807C1162.8 226.223 1162.27 225.472 1162.49 225.13C1162.72 224.787 1163.62 224.983 1164.5 225.568C1165.39 226.152 1165.92 226.903 1165.69 227.245Z" fill="url(#paint11_linear_51_1657)"/>
<path d="M1149.03 260.972C1147.72 263.336 1144.37 263.985 1141.57 262.422C1138.76 260.859 1137.56 257.676 1138.88 255.311C1140.19 252.947 1143.54 252.298 1146.34 253.861C1149.15 255.424 1150.35 258.608 1149.03 260.972Z" fill="url(#paint12_linear_51_1657)"/>
<path d="M1159.97 222.678C1159.88 223.028 1158.65 223.024 1157.22 222.668C1155.79 222.313 1154.7 221.741 1154.79 221.39C1154.88 221.04 1156.11 221.044 1157.54 221.4C1158.97 221.755 1160.06 222.327 1159.97 222.678Z" fill="#9E0E17"/>
<path d="M1159.85 223.138C1159.7 223.742 1158.42 223.944 1156.99 223.589C1155.56 223.233 1154.53 222.455 1154.68 221.851C1154.83 221.246 1156.11 221.044 1157.54 221.4C1158.97 221.755 1160 222.533 1159.85 223.138Z" fill="#9E0E17"/>
<path d="M1159.35 222.242C1159.32 222.344 1158.49 222.225 1157.49 221.976C1156.48 221.727 1155.69 221.442 1155.72 221.34C1155.74 221.239 1156.58 221.358 1157.58 221.607C1158.58 221.856 1159.37 222.14 1159.35 222.242Z" fill="#580509"/>
<path d="M1130.43 232.115C1130.97 232.346 1130.65 234.321 1129.71 236.527C1128.77 238.733 1127.57 240.335 1127.03 240.105C1126.49 239.874 1126.81 237.899 1127.75 235.693C1128.69 233.487 1129.89 231.885 1130.43 232.115Z" fill="url(#paint13_linear_51_1657)"/>
<path d="M1131.14 232.418C1132.07 232.815 1132.07 234.925 1131.13 237.131C1130.19 239.338 1128.67 240.804 1127.74 240.407C1126.8 240.01 1126.81 237.899 1127.75 235.693C1128.69 233.487 1130.21 232.021 1131.14 232.418Z" fill="url(#paint14_linear_51_1657)"/>
<path d="M1129.57 233.005C1129.73 233.072 1129.32 234.379 1128.66 235.924C1128 237.469 1127.34 238.667 1127.19 238.6C1127.03 238.533 1127.43 237.227 1128.09 235.682C1128.75 234.137 1129.41 232.938 1129.57 233.005Z" fill="#470609"/>
<path d="M1133.05 260.169C1133.26 259.945 1134.9 261.041 1136.71 262.618C1138.51 264.195 1139.8 265.654 1139.58 265.879C1139.36 266.103 1137.73 265.006 1135.92 263.43C1134.12 261.853 1132.83 260.393 1133.05 260.169Z" fill="url(#paint15_linear_51_1657)"/>
<path d="M1133.33 259.874C1133.7 259.487 1135.47 260.452 1137.28 262.029C1139.08 263.605 1140.24 265.197 1139.87 265.584C1139.49 265.971 1137.73 265.006 1135.92 263.43C1134.12 261.853 1132.96 260.261 1133.33 259.874Z" fill="url(#paint16_linear_51_1657)"/>
<path d="M1133.75 261.098C1133.81 261.033 1134.89 261.875 1136.15 262.979C1137.42 264.083 1138.39 265.031 1138.33 265.097C1138.27 265.162 1137.19 264.32 1135.93 263.215C1134.66 262.111 1133.69 261.163 1133.75 261.098Z" fill="#150303"/>
<path d="M1158.37 268.388C1158.15 267.925 1159.5 266.818 1161.39 265.916C1163.28 265.014 1164.99 264.658 1165.21 265.121C1165.44 265.584 1164.08 266.691 1162.19 267.593C1160.3 268.496 1158.59 268.852 1158.37 268.388Z" fill="url(#paint17_linear_51_1657)"/>
<path d="M1158.08 267.78C1157.7 266.981 1158.92 265.602 1160.81 264.699C1162.7 263.797 1164.54 263.714 1164.92 264.513C1165.31 265.312 1164.08 266.691 1162.19 267.593C1160.3 268.496 1158.46 268.579 1158.08 267.78Z" fill="url(#paint18_linear_51_1657)"/>
<path d="M1159.45 268.303C1159.38 268.168 1160.4 267.547 1161.73 266.915C1163.05 266.283 1164.18 265.88 1164.24 266.015C1164.31 266.149 1163.29 266.771 1161.96 267.403C1160.64 268.035 1159.51 268.438 1159.45 268.303Z" fill="#130406"/>
<path d="M1175.47 248.203C1175.15 248.171 1175 247.093 1175.13 245.794C1175.26 244.496 1175.62 243.469 1175.94 243.501C1176.26 243.532 1176.41 244.611 1176.28 245.91C1176.15 247.208 1175.79 248.235 1175.47 248.203Z" fill="url(#paint19_linear_51_1657)"/>
<path d="M1175.05 248.162C1174.5 248.107 1174.16 247.009 1174.29 245.711C1174.42 244.412 1174.98 243.404 1175.52 243.459C1176.07 243.514 1176.41 244.611 1176.28 245.91C1176.15 247.208 1175.6 248.217 1175.05 248.162Z" fill="url(#paint20_linear_51_1657)"/>
<path d="M1175.77 247.602C1175.68 247.592 1175.68 246.848 1175.77 245.938C1175.86 245.029 1176.01 244.299 1176.1 244.308C1176.2 244.317 1176.2 245.062 1176.11 245.972C1176.02 246.881 1175.87 247.611 1175.77 247.602Z" fill="#550407"/>
<path d="M1157.75 246.299C1156.94 247.265 1155.5 247.391 1154.53 246.58C1153.57 245.769 1153.44 244.328 1154.25 243.362C1155.06 242.396 1156.5 242.27 1157.47 243.081C1158.44 243.891 1158.56 245.332 1157.75 246.299Z" fill="#780B12"/>
<path d="M1131.91 246.398C1131.15 246.408 1130.52 245.393 1130.51 244.132C1130.49 242.871 1131.09 241.84 1131.85 241.83C1132.6 241.82 1133.23 242.835 1133.25 244.096C1133.26 245.358 1132.66 246.388 1131.91 246.398Z" fill="#650B12"/>
<path d="M1166.34 233.225C1165.85 233.805 1164.67 233.618 1163.71 232.807C1162.74 231.996 1162.35 230.869 1162.84 230.289C1163.32 229.709 1164.5 229.896 1165.47 230.707C1166.43 231.518 1166.82 232.645 1166.34 233.225Z" fill="#9B0E17"/>
<path d="M1158.09 264.028C1158.1 264.785 1157.09 265.418 1155.83 265.443C1154.57 265.467 1153.53 264.873 1153.52 264.117C1153.5 263.36 1154.51 262.727 1155.78 262.702C1157.04 262.678 1158.07 263.272 1158.09 264.028Z" fill="#4B090E"/>
<g filter="url(#filter0_d_51_1657)">
<path d="M954.456 -57.7464C1021.91 -4.69479 1033.59 92.9979 980.542 160.456C927.49 227.915 829.798 239.594 762.339 186.542C694.881 133.49 683.202 35.7977 736.254 -31.6606C789.305 -99.119 886.998 -110.798 954.456 -57.7464Z" fill="url(#paint21_linear_51_1657)"/>
<path d="M782.418 53.5773C792.797 61.7382 794.595 76.7677 786.435 87.1466C778.274 97.5255 763.244 99.3236 752.865 91.1627C742.486 83.0018 740.688 67.9723 748.849 57.5934C757.01 47.2145 772.04 45.4164 782.418 53.5773Z" fill="url(#paint22_linear_51_1657)"/>
<path d="M982.349 1.311C987.295 0.527954 992.184 5.44107 993.267 12.2847C994.35 19.1284 991.218 25.3111 986.272 26.0942C981.325 26.8772 976.437 21.9641 975.353 15.1204C974.27 8.27674 977.402 2.09406 982.349 1.311Z" fill="url(#paint23_linear_51_1657)"/>
<path d="M947.981 117.674C959.137 131.42 954.961 153.293 938.652 166.529C922.344 179.766 900.079 179.353 888.923 165.607C877.767 151.862 881.943 129.989 898.252 116.752C914.56 103.516 936.825 103.929 947.981 117.674Z" fill="url(#paint24_linear_51_1657)"/>
<path d="M727.521 160.542C730.232 157.818 741.44 164.581 752.556 175.647C763.671 186.713 770.484 197.891 767.773 200.615C765.062 203.338 753.853 196.575 742.738 185.509C731.622 174.443 724.809 163.265 727.521 160.542Z" fill="url(#paint25_linear_51_1657)"/>
<path d="M731.083 156.964C735.761 152.264 748.564 157.425 759.68 168.491C770.795 179.557 776.013 192.337 771.335 197.036C766.657 201.736 753.853 196.575 742.738 185.509C731.623 174.443 726.404 161.663 731.083 156.964Z" fill="url(#paint26_linear_51_1657)"/>
<path d="M730.833 167.93C731.622 167.137 738.572 172.778 746.357 180.528C754.142 188.278 759.813 195.203 759.024 195.995C758.236 196.788 751.285 191.147 743.5 183.397C735.716 175.647 730.044 168.722 730.833 167.93Z" fill="#111321"/>
<path d="M903.073 210.623C902.239 208.762 912.88 201.472 926.841 194.342C940.802 187.212 952.797 182.941 953.631 184.802C954.466 186.664 943.825 193.954 929.863 201.084C915.902 208.214 903.908 212.485 903.073 210.623Z" fill="url(#paint27_linear_51_1657)"/>
<path d="M901.977 208.178C900.537 204.965 910.687 196.581 924.648 189.45C938.609 182.32 951.095 179.144 952.535 182.357C953.975 185.569 943.825 193.954 929.864 201.084C915.902 208.214 903.417 211.39 901.977 208.178Z" fill="url(#paint28_linear_51_1657)"/>
<path d="M910.432 208.592C910.189 208.05 917.919 203.562 927.697 198.569C937.475 193.575 945.598 189.966 945.841 190.507C946.084 191.049 938.354 195.537 928.576 200.53C918.798 205.524 910.675 209.133 910.432 208.592Z" fill="#050715"/>
<path d="M1015.71 78.9997C1012.36 79.2168 1008.93 68.3089 1008.04 54.6362C1007.15 40.9634 1009.15 29.7035 1012.5 29.4865C1015.85 29.2694 1019.28 40.1773 1020.17 53.8501C1021.06 67.5228 1019.06 78.7827 1015.71 78.9997Z" fill="url(#paint29_linear_51_1657)"/>
<path d="M1011.31 79.2852C1005.53 79.6598 1000.12 68.8796 999.238 55.2068C998.352 41.5341 1002.32 30.1465 1008.1 29.7719C1013.88 29.3973 1019.28 40.1776 1020.17 53.8503C1021.06 67.5231 1017.09 78.9107 1011.31 79.2852Z" fill="url(#paint30_linear_51_1657)"/>
<path d="M1017.81 72.2465C1016.84 72.3097 1015.54 64.5981 1014.92 55.0222C1014.3 45.4463 1014.59 37.6323 1015.56 37.5691C1016.54 37.5059 1017.83 45.2176 1018.45 54.7935C1019.07 64.3694 1018.78 72.1834 1017.81 72.2465Z" fill="#060816"/>
<path d="M880.052 29.0689C883.951 36.3419 881.215 45.3982 873.942 49.2967C866.669 53.1952 857.613 50.4596 853.714 43.1866C849.816 35.9136 852.551 26.8573 859.824 22.9588C867.097 19.0603 876.154 21.7959 880.052 29.0689Z" fill="#2F313F"/>
<path d="M817.85 186.281C816.07 190.901 808.385 192.242 800.685 189.277C792.984 186.311 788.184 180.161 789.963 175.541C791.743 170.921 799.428 169.579 807.128 172.545C814.829 175.511 819.629 181.66 817.85 186.281Z" fill="#282A38"/>
<path d="M988.542 70.1247C993.174 71.8749 994.563 79.5514 991.646 87.2705C988.729 94.9897 982.61 99.8284 977.978 98.0781C973.347 96.3278 971.957 88.6513 974.874 80.9322C977.791 73.213 983.911 68.3744 988.542 70.1247Z" fill="#1B1D2B"/>
</g>
<g filter="url(#filter1_d_51_1657)">
<path d="M118.408 116.815C128.176 124.496 129.867 138.641 122.185 148.408C114.504 158.176 100.359 159.867 90.5917 152.185C80.8244 144.504 79.1334 130.359 86.8148 120.592C94.4961 110.824 108.641 109.133 118.408 116.815Z" fill="url(#paint31_linear_51_1657)"/>
<path d="M93.499 132.933C95.0017 134.115 95.2621 136.291 94.0805 137.794C92.8989 139.297 90.7228 139.557 89.22 138.375C87.7172 137.194 87.4569 135.018 88.6385 133.515C89.8201 132.012 91.9962 131.752 93.499 132.933Z" fill="url(#paint32_linear_51_1657)"/>
<path d="M107.801 114.869C108.43 115.111 108.672 115.738 108.342 116.27C108.011 116.802 107.234 117.037 106.605 116.796C105.976 116.554 105.734 115.926 106.064 115.394C106.395 114.862 107.172 114.627 107.801 114.869Z" fill="url(#paint33_linear_51_1657)"/>
<path d="M122.447 125.366C123.163 125.252 123.871 125.964 124.028 126.955C124.185 127.945 123.731 128.841 123.015 128.954C122.299 129.067 121.591 128.356 121.434 127.365C121.277 126.374 121.731 125.479 122.447 125.366Z" fill="url(#paint34_linear_51_1657)"/>
<path d="M93.6758 115.697C93.8972 116.017 93.4082 116.739 92.5836 117.311C91.759 117.882 90.9111 118.086 90.6896 117.767C90.4682 117.447 90.9572 116.725 91.7818 116.153C92.6064 115.582 93.4544 115.378 93.6758 115.697Z" fill="url(#paint35_linear_51_1657)"/>
<path d="M117.471 142.214C119.086 144.204 118.481 147.371 116.12 149.288C113.759 151.204 110.535 151.144 108.92 149.154C107.304 147.164 107.909 143.997 110.27 142.08C112.632 140.164 115.855 140.224 117.471 142.214Z" fill="url(#paint36_linear_51_1657)"/>
<path d="M87.6451 119.124C87.9225 119.324 87.4861 120.404 86.6705 121.536C85.8548 122.669 84.9687 123.425 84.6913 123.225C84.4139 123.025 84.8502 121.945 85.6659 120.813C86.4816 119.68 87.3677 118.925 87.6451 119.124Z" fill="#3E404E"/>
<path d="M88.0095 119.387C88.4882 119.732 88.2151 120.929 87.3994 122.062C86.5837 123.194 85.5344 123.832 85.0557 123.487C84.577 123.142 84.8502 121.945 85.6659 120.813C86.4816 119.68 87.5309 119.042 88.0095 119.387Z" fill="#3E404E"/>
<path d="M87.0427 119.519C87.1234 119.578 86.7257 120.268 86.1545 121.061C85.5832 121.854 85.0547 122.449 84.9739 122.391C84.8932 122.333 85.2909 121.643 85.8622 120.85C86.4334 120.057 86.962 119.461 87.0427 119.519Z" fill="#111321"/>
<path d="M85.5503 148.421C85.9429 148.026 87.5658 149.006 89.1752 150.608C90.7845 152.21 91.771 153.828 91.3784 154.223C90.9859 154.617 89.363 153.638 87.7536 152.036C86.1442 150.433 85.1578 148.815 85.5503 148.421Z" fill="url(#paint37_linear_51_1657)"/>
<path d="M86.0661 147.903C86.7434 147.222 88.5972 147.969 90.2066 149.572C91.816 151.174 92.5715 153.024 91.8942 153.705C91.2168 154.385 89.363 153.638 87.7536 152.036C86.1442 150.433 85.3887 148.583 86.0661 147.903Z" fill="url(#paint38_linear_51_1657)"/>
<path d="M86.03 149.49C86.1442 149.376 87.1505 150.192 88.2777 151.314C89.4048 152.437 90.226 153.439 90.1118 153.554C89.9975 153.669 88.9912 152.852 87.8641 151.73C86.7369 150.608 85.9157 149.605 86.03 149.49Z" fill="#111321"/>
<path d="M110.969 155.672C110.848 155.402 112.388 154.347 114.41 153.315C116.431 152.282 118.168 151.664 118.289 151.933C118.41 152.203 116.869 153.258 114.847 154.291C112.826 155.323 111.089 155.942 110.969 155.672Z" fill="url(#paint39_linear_51_1657)"/>
<path d="M110.81 155.318C110.601 154.853 112.071 153.639 114.092 152.606C116.114 151.574 117.922 151.114 118.13 151.579C118.339 152.044 116.869 153.258 114.847 154.291C112.826 155.323 111.018 155.783 110.81 155.318Z" fill="url(#paint40_linear_51_1657)"/>
<path d="M112.034 155.378C111.999 155.299 113.118 154.65 114.534 153.927C115.95 153.204 117.126 152.681 117.161 152.759C117.196 152.838 116.077 153.488 114.661 154.211C113.245 154.934 112.069 155.456 112.034 155.378Z" fill="#050715"/>
<path d="M127.277 136.614C126.792 136.646 126.295 135.066 126.167 133.087C126.038 131.107 126.328 129.477 126.813 129.445C127.298 129.414 127.795 130.993 127.923 132.973C128.051 134.952 127.762 136.583 127.277 136.614Z" fill="url(#paint41_linear_51_1657)"/>
<path d="M126.64 136.655C125.803 136.71 125.02 135.149 124.892 133.169C124.764 131.19 125.338 129.541 126.175 129.486C127.012 129.432 127.795 130.993 127.923 132.973C128.051 134.952 127.477 136.601 126.64 136.655Z" fill="url(#paint42_linear_51_1657)"/>
<path d="M127.581 135.636C127.44 135.646 127.253 134.529 127.163 133.143C127.073 131.756 127.115 130.625 127.256 130.616C127.397 130.606 127.584 131.723 127.674 133.109C127.764 134.496 127.722 135.627 127.581 135.636Z" fill="#060816"/>
<path d="M115.545 114.473C115.405 114.742 114.403 114.497 113.307 113.925C112.211 113.354 111.436 112.673 111.576 112.405C111.716 112.136 112.718 112.382 113.814 112.953C114.91 113.524 115.685 114.205 115.545 114.473Z" fill="url(#paint43_linear_51_1657)"/>
<path d="M115.361 114.826C115.12 115.29 114.035 115.202 112.939 114.631C111.843 114.06 111.15 113.221 111.392 112.758C111.633 112.294 112.718 112.382 113.814 112.953C114.91 113.524 115.603 114.363 115.361 114.826Z" fill="url(#paint44_linear_51_1657)"/>
<path d="M115.122 113.995C115.082 114.074 114.426 113.813 113.659 113.413C112.891 113.012 112.302 112.625 112.342 112.547C112.383 112.469 113.038 112.729 113.806 113.13C114.574 113.53 115.163 113.917 115.122 113.995Z" fill="#101220"/>
<path d="M107.635 129.385C108.2 130.438 107.804 131.749 106.751 132.314C105.698 132.878 104.386 132.482 103.822 131.429C103.257 130.376 103.654 129.065 104.707 128.5C105.76 127.936 107.071 128.332 107.635 129.385Z" fill="#2F313F"/>
<path d="M98.6291 152.147C98.3714 152.816 97.2587 153.011 96.1437 152.581C95.0288 152.152 94.3338 151.261 94.5914 150.592C94.849 149.923 95.9618 149.729 97.0767 150.159C98.1917 150.588 98.8867 151.478 98.6291 152.147Z" fill="#282A38"/>
<path d="M99.1601 117.237C99.4987 117.868 98.9196 118.838 97.8666 119.403C96.8135 119.967 95.6853 119.913 95.3466 119.281C95.0079 118.649 95.587 117.679 96.6401 117.115C97.6932 116.55 98.8214 116.605 99.1601 117.237Z" fill="#3F414F"/>
<path d="M123.344 135.329C124.014 135.583 124.215 136.694 123.793 137.812C123.371 138.929 122.485 139.63 121.814 139.377C121.143 139.123 120.942 138.012 121.365 136.894C121.787 135.776 122.673 135.076 123.344 135.329Z" fill="#1B1D2B"/>
</g>
<path d="M172.396 377.909V144.778" stroke="#9A9A9A" stroke-width="3" stroke-linecap="round"/>
<path d="M172.57 143.057C228.69 167.091 255.948 165.489 315.275 144.659C298.439 178.307 298.439 203.943 315.275 237.591C257.551 257.619 234.302 257.619 172.57 237.591V143.057Z" fill="white" stroke="#9A9A9A" stroke-width="2" stroke-linejoin="round"/>
<path d="M208.4 184V169.6H213.96C214.1 169.6 214.257 169.607 214.43 169.62C214.61 169.627 214.79 169.647 214.97 169.68C215.723 169.793 216.36 170.057 216.88 170.47C217.407 170.877 217.803 171.39 218.07 172.01C218.343 172.63 218.48 173.317 218.48 174.07C218.48 175.157 218.193 176.1 217.62 176.9C217.047 177.7 216.227 178.203 215.16 178.41L214.65 178.53H209.87V184H208.4ZM217.12 184L214.28 178.14L215.69 177.6L218.81 184H217.12ZM209.87 177.13H213.92C214.04 177.13 214.18 177.123 214.34 177.11C214.5 177.097 214.657 177.073 214.81 177.04C215.303 176.933 215.707 176.73 216.02 176.43C216.34 176.13 216.577 175.773 216.73 175.36C216.89 174.947 216.97 174.517 216.97 174.07C216.97 173.623 216.89 173.193 216.73 172.78C216.577 172.36 216.34 172 216.02 171.7C215.707 171.4 215.303 171.197 214.81 171.09C214.657 171.057 214.5 171.037 214.34 171.03C214.18 171.017 214.04 171.01 213.92 171.01H209.87V177.13ZM225.587 184.3C224.534 184.3 223.621 184.067 222.847 183.6C222.081 183.133 221.484 182.477 221.057 181.63C220.631 180.783 220.417 179.79 220.417 178.65C220.417 177.47 220.627 176.45 221.047 175.59C221.467 174.73 222.057 174.067 222.817 173.6C223.584 173.133 224.487 172.9 225.527 172.9C226.594 172.9 227.504 173.147 228.257 173.64C229.011 174.127 229.581 174.827 229.967 175.74C230.354 176.653 230.531 177.743 230.497 179.01H228.997V178.49C228.971 177.09 228.667 176.033 228.087 175.32C227.514 174.607 226.674 174.25 225.567 174.25C224.407 174.25 223.517 174.627 222.897 175.38C222.284 176.133 221.977 177.207 221.977 178.6C221.977 179.96 222.284 181.017 222.897 181.77C223.517 182.517 224.394 182.89 225.527 182.89C226.301 182.89 226.974 182.713 227.547 182.36C228.127 182 228.584 181.483 228.917 180.81L230.287 181.34C229.861 182.28 229.231 183.01 228.397 183.53C227.571 184.043 226.634 184.3 225.587 184.3ZM221.457 179.01V177.78H229.707V179.01H221.457ZM235.611 184.3C234.798 184.3 234.114 184.153 233.561 183.86C233.014 183.567 232.604 183.177 232.331 182.69C232.058 182.203 231.921 181.673 231.921 181.1C231.921 180.513 232.038 180.013 232.271 179.6C232.511 179.18 232.834 178.837 233.241 178.57C233.654 178.303 234.131 178.1 234.671 177.96C235.218 177.827 235.821 177.71 236.481 177.61C237.148 177.503 237.798 177.413 238.431 177.34C239.071 177.26 239.631 177.183 240.111 177.11L239.591 177.43C239.611 176.363 239.404 175.573 238.971 175.06C238.538 174.547 237.784 174.29 236.711 174.29C235.971 174.29 235.344 174.457 234.831 174.79C234.324 175.123 233.968 175.65 233.761 176.37L232.331 175.95C232.578 174.983 233.074 174.233 233.821 173.7C234.568 173.167 235.538 172.9 236.731 172.9C237.718 172.9 238.554 173.087 239.241 173.46C239.934 173.827 240.424 174.36 240.711 175.06C240.844 175.373 240.931 175.723 240.971 176.11C241.011 176.497 241.031 176.89 241.031 177.29V184H239.721V181.29L240.101 181.45C239.734 182.377 239.164 183.083 238.391 183.57C237.618 184.057 236.691 184.3 235.611 184.3ZM235.781 183.03C236.468 183.03 237.068 182.907 237.581 182.66C238.094 182.413 238.508 182.077 238.821 181.65C239.134 181.217 239.338 180.73 239.431 180.19C239.511 179.843 239.554 179.463 239.561 179.05C239.568 178.63 239.571 178.317 239.571 178.11L240.131 178.4C239.631 178.467 239.088 178.533 238.501 178.6C237.921 178.667 237.348 178.743 236.781 178.83C236.221 178.917 235.714 179.02 235.261 179.14C234.954 179.227 234.658 179.35 234.371 179.51C234.084 179.663 233.848 179.87 233.661 180.13C233.481 180.39 233.391 180.713 233.391 181.1C233.391 181.413 233.468 181.717 233.621 182.01C233.781 182.303 234.034 182.547 234.381 182.74C234.734 182.933 235.201 183.03 235.781 183.03ZM248.114 184.3C247.028 184.3 246.108 184.057 245.354 183.57C244.601 183.083 244.028 182.413 243.634 181.56C243.248 180.7 243.048 179.713 243.034 178.6C243.048 177.467 243.254 176.473 243.654 175.62C244.054 174.76 244.631 174.093 245.384 173.62C246.138 173.14 247.051 172.9 248.124 172.9C249.218 172.9 250.168 173.167 250.974 173.7C251.788 174.233 252.344 174.963 252.644 175.89L251.204 176.35C250.951 175.703 250.548 175.203 249.994 174.85C249.448 174.49 248.821 174.31 248.114 174.31C247.321 174.31 246.664 174.493 246.144 174.86C245.624 175.22 245.238 175.723 244.984 176.37C244.731 177.017 244.601 177.76 244.594 178.6C244.608 179.893 244.908 180.933 245.494 181.72C246.081 182.5 246.954 182.89 248.114 182.89C248.848 182.89 249.471 182.723 249.984 182.39C250.504 182.05 250.898 181.557 251.164 180.91L252.644 181.35C252.244 182.31 251.658 183.043 250.884 183.55C250.111 184.05 249.188 184.3 248.114 184.3ZM260.589 184C259.982 184.127 259.382 184.177 258.789 184.15C258.202 184.123 257.675 183.997 257.209 183.77C256.749 183.543 256.399 183.19 256.159 182.71C255.965 182.31 255.859 181.907 255.839 181.5C255.825 181.087 255.819 180.617 255.819 180.09V170.2H257.279V180.03C257.279 180.483 257.282 180.863 257.289 181.17C257.302 181.47 257.372 181.737 257.499 181.97C257.739 182.417 258.119 182.683 258.639 182.77C259.165 182.857 259.815 182.837 260.589 182.71V184ZM253.509 174.46V173.2H260.589V174.46H253.509ZM265.12 188.8V187.38H265.73C266.217 187.38 266.604 187.253 266.89 187C267.184 186.753 267.33 186.337 267.33 185.75V173.2H268.79V186.12C268.79 187.02 268.574 187.69 268.14 188.13C267.714 188.577 267.057 188.8 266.17 188.8H265.12ZM267.33 171.15V169.5H268.79V171.15H267.33ZM275.77 184.29C274.503 184.29 273.46 184.017 272.64 183.47C271.827 182.923 271.327 182.163 271.14 181.19L272.64 180.94C272.8 181.553 273.163 182.043 273.73 182.41C274.303 182.77 275.01 182.95 275.85 182.95C276.67 182.95 277.317 182.78 277.79 182.44C278.263 182.093 278.5 181.623 278.5 181.03C278.5 180.697 278.423 180.427 278.27 180.22C278.123 180.007 277.82 179.81 277.36 179.63C276.9 179.45 276.213 179.237 275.3 178.99C274.32 178.723 273.553 178.457 273 178.19C272.447 177.923 272.053 177.617 271.82 177.27C271.587 176.917 271.47 176.487 271.47 175.98C271.47 175.367 271.643 174.83 271.99 174.37C272.337 173.903 272.817 173.543 273.43 173.29C274.043 173.03 274.757 172.9 275.57 172.9C276.383 172.9 277.11 173.033 277.75 173.3C278.397 173.56 278.917 173.927 279.31 174.4C279.703 174.873 279.937 175.423 280.01 176.05L278.51 176.32C278.41 175.687 278.093 175.187 277.56 174.82C277.033 174.447 276.363 174.253 275.55 174.24C274.783 174.22 274.16 174.367 273.68 174.68C273.2 174.987 272.96 175.397 272.96 175.91C272.96 176.197 273.047 176.443 273.22 176.65C273.393 176.85 273.707 177.04 274.16 177.22C274.62 177.4 275.273 177.597 276.12 177.81C277.113 178.063 277.893 178.33 278.46 178.61C279.027 178.89 279.43 179.22 279.67 179.6C279.91 179.98 280.03 180.45 280.03 181.01C280.03 182.03 279.65 182.833 278.89 183.42C278.137 184 277.097 184.29 275.77 184.29ZM208.4 211V196.6H213.96C214.1 196.6 214.257 196.607 214.43 196.62C214.61 196.627 214.79 196.647 214.97 196.68C215.723 196.793 216.36 197.057 216.88 197.47C217.407 197.877 217.803 198.39 218.07 199.01C218.343 199.63 218.48 200.317 218.48 201.07C218.48 202.157 218.193 203.1 217.62 203.9C217.047 204.7 216.227 205.203 215.16 205.41L214.65 205.53H209.87V211H208.4ZM217.12 211L214.28 205.14L215.69 204.6L218.81 211H217.12ZM209.87 204.13H213.92C214.04 204.13 214.18 204.123 214.34 204.11C214.5 204.097 214.657 204.073 214.81 204.04C215.303 203.933 215.707 203.73 216.02 203.43C216.34 203.13 216.577 202.773 216.73 202.36C216.89 201.947 216.97 201.517 216.97 201.07C216.97 200.623 216.89 200.193 216.73 199.78C216.577 199.36 216.34 199 216.02 198.7C215.707 198.4 215.303 198.197 214.81 198.09C214.657 198.057 214.5 198.037 214.34 198.03C214.18 198.017 214.04 198.01 213.92 198.01H209.87V204.13ZM225.587 211.3C224.534 211.3 223.621 211.067 222.847 210.6C222.081 210.133 221.484 209.477 221.057 208.63C220.631 207.783 220.417 206.79 220.417 205.65C220.417 204.47 220.627 203.45 221.047 202.59C221.467 201.73 222.057 201.067 222.817 200.6C223.584 200.133 224.487 199.9 225.527 199.9C226.594 199.9 227.504 200.147 228.257 200.64C229.011 201.127 229.581 201.827 229.967 202.74C230.354 203.653 230.531 204.743 230.497 206.01H228.997V205.49C228.971 204.09 228.667 203.033 228.087 202.32C227.514 201.607 226.674 201.25 225.567 201.25C224.407 201.25 223.517 201.627 222.897 202.38C222.284 203.133 221.977 204.207 221.977 205.6C221.977 206.96 222.284 208.017 222.897 208.77C223.517 209.517 224.394 209.89 225.527 209.89C226.301 209.89 226.974 209.713 227.547 209.36C228.127 209 228.584 208.483 228.917 207.81L230.287 208.34C229.861 209.28 229.231 210.01 228.397 210.53C227.571 211.043 226.634 211.3 225.587 211.3ZM221.457 206.01V204.78H229.707V206.01H221.457ZM236.906 211.3C235.9 211.3 235.04 211.05 234.326 210.55C233.613 210.043 233.066 209.36 232.686 208.5C232.306 207.64 232.116 206.67 232.116 205.59C232.116 204.517 232.303 203.55 232.676 202.69C233.056 201.83 233.6 201.15 234.306 200.65C235.013 200.15 235.86 199.9 236.846 199.9C237.86 199.9 238.713 200.147 239.406 200.64C240.1 201.133 240.623 201.81 240.976 202.67C241.336 203.523 241.516 204.497 241.516 205.59C241.516 206.663 241.34 207.633 240.986 208.5C240.633 209.36 240.113 210.043 239.426 210.55C238.74 211.05 237.9 211.3 236.906 211.3ZM237.056 209.93C237.823 209.93 238.456 209.743 238.956 209.37C239.456 208.997 239.83 208.483 240.076 207.83C240.323 207.17 240.446 206.423 240.446 205.59C240.446 204.743 240.323 203.997 240.076 203.35C239.83 202.697 239.456 202.187 238.956 201.82C238.463 201.453 237.84 201.27 237.086 201.27C236.313 201.27 235.673 201.46 235.166 201.84C234.66 202.22 234.283 202.737 234.036 203.39C233.796 204.043 233.676 204.777 233.676 205.59C233.676 206.41 233.8 207.15 234.046 207.81C234.3 208.463 234.676 208.98 235.176 209.36C235.676 209.74 236.303 209.93 237.056 209.93ZM240.446 211V202.87H240.286V196.6H241.766V211H240.446ZM248.702 211.27C248.055 211.27 247.489 211.17 247.002 210.97C246.522 210.77 246.112 210.5 245.772 210.16C245.439 209.82 245.169 209.433 244.962 209C244.755 208.56 244.605 208.097 244.512 207.61C244.419 207.117 244.372 206.627 244.372 206.14V200.2H245.852V205.71C245.852 206.303 245.909 206.853 246.022 207.36C246.135 207.867 246.315 208.31 246.562 208.69C246.815 209.063 247.139 209.353 247.532 209.56C247.932 209.767 248.415 209.87 248.982 209.87C249.502 209.87 249.959 209.78 250.352 209.6C250.752 209.42 251.085 209.163 251.352 208.83C251.625 208.49 251.832 208.08 251.972 207.6C252.112 207.113 252.182 206.567 252.182 205.96L253.222 206.19C253.222 207.297 253.029 208.227 252.642 208.98C252.255 209.733 251.722 210.303 251.042 210.69C250.362 211.077 249.582 211.27 248.702 211.27ZM252.332 211V208.34H252.182V200.2H253.652V211H252.332ZM255.247 211L259.467 205.54L255.337 200.2H257.097L260.327 204.41L263.527 200.2H265.287L261.157 205.54L265.387 211H263.617L260.327 206.67L257.017 211H255.247ZM208.4 238V223.6H209.88L217.81 235.4V223.6H219.29V238H217.81L209.88 226.19V238H208.4ZM226.661 238.3C225.608 238.3 224.695 238.067 223.921 237.6C223.155 237.133 222.558 236.477 222.131 235.63C221.705 234.783 221.491 233.79 221.491 232.65C221.491 231.47 221.701 230.45 222.121 229.59C222.541 228.73 223.131 228.067 223.891 227.6C224.658 227.133 225.561 226.9 226.601 226.9C227.668 226.9 228.578 227.147 229.331 227.64C230.085 228.127 230.655 228.827 231.041 229.74C231.428 230.653 231.605 231.743 231.571 233.01H230.071V232.49C230.045 231.09 229.741 230.033 229.161 229.32C228.588 228.607 227.748 228.25 226.641 228.25C225.481 228.25 224.591 228.627 223.971 229.38C223.358 230.133 223.051 231.207 223.051 232.6C223.051 233.96 223.358 235.017 223.971 235.77C224.591 236.517 225.468 236.89 226.601 236.89C227.375 236.89 228.048 236.713 228.621 236.36C229.201 236 229.658 235.483 229.991 234.81L231.361 235.34C230.935 236.28 230.305 237.01 229.471 237.53C228.645 238.043 227.708 238.3 226.661 238.3ZM222.531 233.01V231.78H230.781V233.01H222.531ZM232.2 238L236.42 232.54L232.29 227.2H234.05L237.28 231.41L240.48 227.2H242.24L238.11 232.54L242.34 238H240.57L237.28 233.67L233.97 238H232.2ZM249.827 238C249.22 238.127 248.62 238.177 248.027 238.15C247.44 238.123 246.914 237.997 246.447 237.77C245.987 237.543 245.637 237.19 245.397 236.71C245.204 236.31 245.097 235.907 245.077 235.5C245.064 235.087 245.057 234.617 245.057 234.09V224.2H246.517V234.03C246.517 234.483 246.52 234.863 246.527 235.17C246.54 235.47 246.61 235.737 246.737 235.97C246.977 236.417 247.357 236.683 247.877 236.77C248.404 236.857 249.054 236.837 249.827 236.71V238ZM242.747 228.46V227.2H249.827V228.46H242.747ZM254.359 242.8V241.38H254.969C255.455 241.38 255.842 241.253 256.129 241C256.422 240.753 256.569 240.337 256.569 239.75V227.2H258.029V240.12C258.029 241.02 257.812 241.69 257.379 242.13C256.952 242.577 256.295 242.8 255.409 242.8H254.359ZM256.569 225.15V223.5H258.029V225.15H256.569ZM265.008 238.29C263.741 238.29 262.698 238.017 261.878 237.47C261.065 236.923 260.565 236.163 260.378 235.19L261.878 234.94C262.038 235.553 262.401 236.043 262.968 236.41C263.541 236.77 264.248 236.95 265.088 236.95C265.908 236.95 266.555 236.78 267.028 236.44C267.501 236.093 267.738 235.623 267.738 235.03C267.738 234.697 267.661 234.427 267.508 234.22C267.361 234.007 267.058 233.81 266.598 233.63C266.138 233.45 265.451 233.237 264.538 232.99C263.558 232.723 262.791 232.457 262.238 232.19C261.685 231.923 261.291 231.617 261.058 231.27C260.825 230.917 260.708 230.487 260.708 229.98C260.708 229.367 260.881 228.83 261.228 228.37C261.575 227.903 262.055 227.543 262.668 227.29C263.281 227.03 263.995 226.9 264.808 226.9C265.621 226.9 266.348 227.033 266.988 227.3C267.635 227.56 268.155 227.927 268.548 228.4C268.941 228.873 269.175 229.423 269.248 230.05L267.748 230.32C267.648 229.687 267.331 229.187 266.798 228.82C266.271 228.447 265.601 228.253 264.788 228.24C264.021 228.22 263.398 228.367 262.918 228.68C262.438 228.987 262.198 229.397 262.198 229.91C262.198 230.197 262.285 230.443 262.458 230.65C262.631 230.85 262.945 231.04 263.398 231.22C263.858 231.4 264.511 231.597 265.358 231.81C266.351 232.063 267.131 232.33 267.698 232.61C268.265 232.89 268.668 233.22 268.908 233.6C269.148 233.98 269.268 234.45 269.268 235.01C269.268 236.03 268.888 236.833 268.128 237.42C267.375 238 266.335 238.29 265.008 238.29Z" fill="#9A9A9A"/>
<path d="M252.621 373.862C281.062 438.882 251.408 514.648 186.387 543.089C121.366 571.53 45.6005 541.875 17.1598 476.855C-11.2809 411.834 18.3731 336.068 83.394 307.627C148.415 279.187 224.18 308.841 252.621 373.862Z" fill="url(#paint45_linear_51_1657)"/>
<path d="M83.7406 385.272C88.1169 395.275 83.5558 406.931 73.553 411.308C63.5501 415.684 51.8935 411.123 47.5171 401.12C43.1408 391.117 47.7019 379.461 57.7048 375.084C67.7076 370.708 79.3642 375.269 83.7406 385.272Z" fill="url(#paint46_linear_51_1657)"/>
<path d="M203.874 331.087C206.389 334.654 205.997 339.261 202.998 341.376C199.998 343.491 195.528 342.314 193.012 338.746C190.497 335.179 190.889 330.572 193.888 328.457C196.888 326.342 201.358 327.52 203.874 331.087Z" fill="url(#paint47_linear_51_1657)"/>
<path d="M249.877 425.286C253.789 426.648 255.432 432.138 253.548 437.55C251.664 442.961 246.966 446.244 243.054 444.882C239.143 443.52 237.5 438.029 239.384 432.618C241.268 427.207 245.966 423.924 249.877 425.286Z" fill="url(#paint48_linear_51_1657)"/>
<path d="M131.137 298.986C131.39 301.192 126.979 303.509 121.287 304.16C115.594 304.812 110.774 303.551 110.522 301.345C110.27 299.139 114.68 296.823 120.373 296.172C126.065 295.52 130.885 296.78 131.137 298.986Z" fill="url(#paint49_linear_51_1657)"/>
<path d="M179.368 499.186C182.129 513.563 170.54 527.874 153.483 531.15C136.425 534.425 120.359 525.426 117.598 511.05C114.837 496.673 126.426 482.362 143.484 479.086C160.541 475.81 176.607 484.809 179.368 499.186Z" fill="url(#paint50_linear_51_1657)"/>
<path d="M91.5319 299.966C92.3891 301.72 87.2787 305.979 80.1176 309.478C72.9565 312.976 66.4564 314.39 65.5992 312.636C64.742 310.881 69.8524 306.623 77.0135 303.124C84.1746 299.625 90.6747 298.211 91.5319 299.966Z" fill="#AD0D16"/>
<path d="M92.658 302.271C94.1372 305.299 89.5311 310.589 82.37 314.088C75.2089 317.587 68.2046 317.969 66.7254 314.941C65.2462 311.914 69.8523 306.623 77.0134 303.125C84.1745 299.626 91.1789 299.244 92.658 302.271Z" fill="#AD0D16"/>
<path d="M87.4347 300.328C87.6841 300.839 83.8205 303.239 78.8051 305.689C73.7897 308.14 69.5218 309.712 69.2724 309.202C69.0229 308.691 72.8865 306.291 77.9019 303.841C82.9173 301.39 87.1853 299.818 87.4347 300.328Z" fill="#580509"/>
<path d="M1.93976 441.785C4.9797 440.86 10.5069 450.168 14.2851 462.576C18.0633 474.983 18.6618 485.792 15.6219 486.718C12.5819 487.644 7.05472 478.336 3.27652 465.928C-0.501692 453.52 -1.10018 442.711 1.93976 441.785Z" fill="url(#paint51_linear_51_1657)"/>
<path d="M5.93384 440.569C11.1795 438.972 18.4949 447.735 22.2731 460.143C26.0513 472.551 24.8617 483.904 19.616 485.501C14.3703 487.099 7.05493 478.335 3.27672 465.927C-0.501494 453.52 0.688137 442.166 5.93384 440.569Z" fill="url(#paint52_linear_51_1657)"/>
<path d="M1.46734 448.464C2.35186 448.194 5.21401 455.02 7.86014 463.71C10.5063 472.4 11.9343 479.663 11.0498 479.933C10.1653 480.202 7.30316 473.376 4.65703 464.686C2.0109 455.996 0.582828 448.733 1.46734 448.464Z" fill="#390003"/>
<path d="M110.324 551.451C110.443 549.768 121.047 548.612 134.008 548.869C146.969 549.127 157.38 550.7 157.261 552.383C157.142 554.066 146.538 555.221 133.577 554.964C120.616 554.707 110.205 553.133 110.324 551.451Z" fill="url(#paint53_linear_51_1657)"/>
<path d="M110.481 549.24C110.687 546.336 121.36 544.19 134.321 544.448C147.283 544.705 157.623 547.268 157.418 550.172C157.213 553.076 146.539 555.222 133.578 554.964C120.617 554.707 110.276 552.144 110.481 549.24Z" fill="url(#paint54_linear_51_1657)"/>
<path d="M116.482 552.845C116.517 552.356 123.904 552.105 132.981 552.285C142.059 552.466 149.389 553.009 149.355 553.498C149.32 553.988 141.933 554.239 132.856 554.059C123.778 553.878 116.447 553.335 116.482 552.845Z" fill="#150303"/>
<path d="M243.841 494.943C241.315 493.792 243.074 484.5 247.77 474.189C252.465 463.877 258.32 456.451 260.847 457.601C263.373 458.752 261.614 468.044 256.918 478.355C252.222 488.667 246.368 496.093 243.841 494.943Z" fill="url(#paint55_linear_51_1657)"/>
<path d="M240.522 493.432C236.162 491.446 236.435 481.478 241.131 471.166C245.827 460.855 253.167 454.105 257.527 456.091C261.886 458.076 261.613 468.044 256.918 478.356C252.222 488.667 244.881 495.417 240.522 493.432Z" fill="url(#paint56_linear_51_1657)"/>
<path d="M248.01 490.841C247.275 490.506 249.345 484.38 252.634 477.158C255.923 469.936 259.185 464.353 259.92 464.688C260.655 465.023 258.585 471.149 255.296 478.37C252.007 485.592 248.745 491.175 248.01 490.841Z" fill="#130406"/>
<path d="M244.526 351.833C243.096 352.807 238.714 348.869 234.738 343.035C230.762 337.202 228.697 331.684 230.126 330.71C231.555 329.735 235.937 333.674 239.913 339.507C243.89 345.34 245.955 350.859 244.526 351.833Z" fill="url(#paint57_linear_51_1657)"/>
<path d="M242.649 353.114C240.183 354.795 234.96 351.429 230.983 345.596C227.007 339.763 225.783 333.671 228.249 331.99C230.715 330.309 235.937 333.675 239.914 339.508C243.89 345.341 245.115 351.432 242.649 353.114Z" fill="url(#paint58_linear_51_1657)"/>
<path d="M243.688 348.286C243.272 348.57 240.677 345.488 237.892 341.403C235.107 337.317 233.187 333.776 233.602 333.492C234.018 333.209 236.613 336.291 239.398 340.376C242.183 344.461 244.104 348.003 243.688 348.286Z" fill="#460003"/>
<path d="M164.475 405.553C164.475 412.377 158.943 417.908 152.12 417.908C145.296 417.908 139.764 412.377 139.764 405.553C139.764 398.729 145.296 393.197 152.12 393.197C158.943 393.197 164.475 398.729 164.475 405.553Z" fill="#85090F"/>
<path d="M57.7206 495.834C54.6186 498.507 48.4934 496.482 44.0394 491.312C39.5855 486.142 38.4895 479.785 41.5915 477.112C44.6935 474.44 50.8187 476.465 55.2727 481.635C59.7266 486.805 60.8226 493.162 57.7206 495.834Z" fill="#6F090F"/>
<path d="M154.59 321.533C154.59 325.627 149.058 328.947 142.234 328.947C135.41 328.947 129.878 325.627 129.878 321.533C129.878 317.439 135.41 314.12 142.234 314.12C149.058 314.12 154.59 317.439 154.59 321.533Z" fill="#AC0D16"/>
<path d="M227.508 477.861C230.2 480.946 228.213 487.084 223.072 491.57C217.93 496.057 211.579 497.193 208.887 494.107C206.196 491.022 208.182 484.884 213.324 480.398C218.465 475.912 224.816 474.776 227.508 477.861Z" fill="#51070B"/>
<defs>
<filter id="filter0_d_51_1657" x="699" y="-91" width="325.381" height="318.796" filterUnits="userSpaceOnUse" color-interpolation-filters="sRGB">
<feFlood flood-opacity="0" result="BackgroundImageFix"/>
<feColorMatrix in="SourceAlpha" type="matrix" values="0 0 0 0 0 0 0 0 0 0 0 0 0 0 0 0 0 0 127 0" result="hardAlpha"/>
<feOffset dy="4"/>
<feGaussianBlur stdDeviation="2"/>
<feColorMatrix type="matrix" values="0 0 0 0 0 0 0 0 0 0 0 0 0 0 0 0 0 0 0.25 0"/>
<feBlend mode="normal" in2="BackgroundImageFix" result="effect1_dropShadow_51_1657"/>
<feBlend mode="normal" in="SourceGraphic" in2="effect1_dropShadow_51_1657" result="shape"/>
</filter>
<filter id="filter1_d_51_1657" x="78" y="112" width="53.9535" height="53" filterUnits="userSpaceOnUse" color-interpolation-filters="sRGB">
<feFlood flood-opacity="0" result="BackgroundImageFix"/>
<feColorMatrix in="SourceAlpha" type="matrix" values="0 0 0 0 0 0 0 0 0 0 0 0 0 0 0 0 0 0 127 0" result="hardAlpha"/>
<feOffset dy="4"/>
<feGaussianBlur stdDeviation="2"/>
<feColorMatrix type="matrix" values="0 0 0 0 0 0 0 0 0 0 0 0 0 0 0 0 0 0 0.25 0"/>
<feBlend mode="normal" in2="BackgroundImageFix" result="effect1_dropShadow_51_1657"/>
<feBlend mode="normal" in="SourceGraphic" in2="effect1_dropShadow_51_1657" result="shape"/>
</filter>
<linearGradient id="paint0_linear_51_1657" x1="1396.69" y1="439.444" x2="1343.48" y2="620.529" gradientUnits="userSpaceOnUse">
<stop stop-color="#A00F18"/>
<stop offset="1" stop-color="#240508"/>
</linearGradient>
<linearGradient id="paint1_linear_51_1657" x1="1349.21" y1="466.682" x2="1341.02" y2="494.542" gradientUnits="userSpaceOnUse">
<stop stop-color="#1F080C"/>
<stop offset="1" stop-color="#88111B"/>
</linearGradient>
<linearGradient id="paint2_linear_51_1657" x1="1349.56" y1="564.269" x2="1330.6" y2="598.278" gradientUnits="userSpaceOnUse">
<stop stop-color="#16070B"/>
<stop offset="1" stop-color="#5C0C13"/>
</linearGradient>
<linearGradient id="paint3_linear_51_1657" x1="1272.98" y1="510.11" x2="1288.19" y2="477.863" gradientUnits="userSpaceOnUse">
<stop stop-color="#5D090F"/>
<stop offset="1" stop-color="#720B12"/>
</linearGradient>
<linearGradient id="paint4_linear_51_1657" x1="1276.02" y1="511.404" x2="1290.72" y2="478.901" gradientUnits="userSpaceOnUse">
<stop stop-color="#5D090F"/>
<stop offset="1" stop-color="#720B12"/>
</linearGradient>
<linearGradient id="paint5_linear_51_1657" x1="1324.45" y1="612.526" x2="1295.54" y2="590.663" gradientUnits="userSpaceOnUse">
<stop stop-color="#260508"/>
<stop offset="1" stop-color="#2F0609"/>
</linearGradient>
<linearGradient id="paint6_linear_51_1657" x1="1325.97" y1="610.959" x2="1298.14" y2="587.598" gradientUnits="userSpaceOnUse">
<stop stop-color="#260508"/>
<stop offset="1" stop-color="#2F0609"/>
</linearGradient>
<linearGradient id="paint7_linear_51_1657" x1="1158.21" y1="222.44" x2="1144.81" y2="268.023" gradientUnits="userSpaceOnUse">
<stop stop-color="#A00F18"/>
<stop offset="1" stop-color="#240508"/>
</linearGradient>
<linearGradient id="paint8_linear_51_1657" x1="1146.25" y1="229.296" x2="1144.19" y2="236.309" gradientUnits="userSpaceOnUse">
<stop stop-color="#1F080C"/>
<stop offset="1" stop-color="#88111B"/>
</linearGradient>
<linearGradient id="paint9_linear_51_1657" x1="1171.15" y1="238.897" x2="1170.91" y2="241.809" gradientUnits="userSpaceOnUse">
<stop stop-color="#1C070C"/>
<stop offset="1" stop-color="#AF131F"/>
</linearGradient>
<linearGradient id="paint10_linear_51_1657" x1="1165.14" y1="259.033" x2="1166.56" y2="261.414" gradientUnits="userSpaceOnUse">
<stop stop-color="#2B090E"/>
<stop offset="1" stop-color="#670911"/>
</linearGradient>
<linearGradient id="paint11_linear_51_1657" x1="1164.5" y1="225.568" x2="1163.68" y2="226.807" gradientUnits="userSpaceOnUse">
<stop stop-color="#40090F"/>
<stop offset="1" stop-color="#AE131E"/>
</linearGradient>
<linearGradient id="paint12_linear_51_1657" x1="1146.34" y1="253.861" x2="1141.57" y2="262.422" gradientUnits="userSpaceOnUse">
<stop stop-color="#16070B"/>
<stop offset="1" stop-color="#5C0C13"/>
</linearGradient>
<linearGradient id="paint13_linear_51_1657" x1="1127.06" y1="240.228" x2="1130.89" y2="232.111" gradientUnits="userSpaceOnUse">
<stop stop-color="#5D090F"/>
<stop offset="1" stop-color="#720B12"/>
</linearGradient>
<linearGradient id="paint14_linear_51_1657" x1="1127.83" y1="240.554" x2="1131.53" y2="232.372" gradientUnits="userSpaceOnUse">
<stop stop-color="#5D090F"/>
<stop offset="1" stop-color="#720B12"/>
</linearGradient>
<linearGradient id="paint15_linear_51_1657" x1="1140.02" y1="266.009" x2="1132.74" y2="260.505" gradientUnits="userSpaceOnUse">
<stop stop-color="#260508"/>
<stop offset="1" stop-color="#2F0609"/>
</linearGradient>
<linearGradient id="paint16_linear_51_1657" x1="1140.4" y1="265.614" x2="1133.4" y2="259.734" gradientUnits="userSpaceOnUse">
<stop stop-color="#260508"/>
<stop offset="1" stop-color="#2F0609"/>
</linearGradient>
<linearGradient id="paint17_linear_51_1657" x1="1158.38" y1="268.293" x2="1165.23" y2="265.1" gradientUnits="userSpaceOnUse">
<stop stop-color="#2F0609"/>
<stop offset="1" stop-color="#3C070B"/>
</linearGradient>
<linearGradient id="paint18_linear_51_1657" x1="1158.06" y1="267.632" x2="1164.91" y2="264.411" gradientUnits="userSpaceOnUse">
<stop stop-color="#2F0609"/>
<stop offset="1" stop-color="#3C070B"/>
</linearGradient>
<linearGradient id="paint19_linear_51_1657" x1="1175.95" y1="243.084" x2="1175.76" y2="248.29" gradientUnits="userSpaceOnUse">
<stop stop-color="#780C13"/>
<stop offset="1" stop-color="#6C0B11"/>
</linearGradient>
<linearGradient id="paint20_linear_51_1657" x1="1175.51" y1="243.041" x2="1175.18" y2="248.246" gradientUnits="userSpaceOnUse">
<stop stop-color="#780C13"/>
<stop offset="1" stop-color="#6C0B11"/>
</linearGradient>
<linearGradient id="paint21_linear_51_1657" x1="736.254" y1="-31.6605" x2="980.542" y2="160.456" gradientUnits="userSpaceOnUse">
<stop stop-color="#404250"/>
<stop offset="1" stop-color="#090B19"/>
</linearGradient>
<linearGradient id="paint22_linear_51_1657" x1="748.849" y1="57.5933" x2="786.435" y2="87.1465" gradientUnits="userSpaceOnUse">
<stop stop-color="#090B19"/>
<stop offset="1" stop-color="#3A3C4A"/>
</linearGradient>
<linearGradient id="paint23_linear_51_1657" x1="975.353" y1="15.1203" x2="993.267" y2="12.2846" gradientUnits="userSpaceOnUse">
<stop stop-color="#0F111F"/>
<stop offset="1" stop-color="#272937"/>
</linearGradient>
<linearGradient id="paint24_linear_51_1657" x1="898.252" y1="116.752" x2="938.652" y2="166.529" gradientUnits="userSpaceOnUse">
<stop stop-color="#060816"/>
<stop offset="1" stop-color="#242634"/>
</linearGradient>
<linearGradient id="paint25_linear_51_1657" x1="768.613" y1="200.689" x2="728.62" y2="157.706" gradientUnits="userSpaceOnUse">
<stop stop-color="#222432"/>
<stop offset="1" stop-color="#2B2D3B"/>
</linearGradient>
<linearGradient id="paint26_linear_51_1657" x1="774.883" y1="195.832" x2="736.862" y2="149.576" gradientUnits="userSpaceOnUse">
<stop stop-color="#222432"/>
<stop offset="1" stop-color="#2B2D3B"/>
</linearGradient>
<linearGradient id="paint27_linear_51_1657" x1="955.488" y1="182.452" x2="904.378" y2="213.283" gradientUnits="userSpaceOnUse">
<stop stop-color="#0A0C1A"/>
<stop offset="1" stop-color="#0E101E"/>
</linearGradient>
<linearGradient id="paint28_linear_51_1657" x1="954.181" y1="179.609" x2="902.384" y2="209.383" gradientUnits="userSpaceOnUse">
<stop stop-color="#0A0C1A"/>
<stop offset="1" stop-color="#0E101E"/>
</linearGradient>
<linearGradient id="paint29_linear_51_1657" x1="1015.16" y1="78.7078" x2="1012.42" y2="29.3187" gradientUnits="userSpaceOnUse">
<stop stop-color="#0D0F1D"/>
<stop offset="1" stop-color="#131523"/>
</linearGradient>
<linearGradient id="paint30_linear_51_1657" x1="1009" y1="80.2418" x2="1002.97" y2="29.1763" gradientUnits="userSpaceOnUse">
<stop stop-color="#0D0F1D"/>
<stop offset="1" stop-color="#131523"/>
</linearGradient>
<linearGradient id="paint31_linear_51_1657" x1="86.8148" y1="120.592" x2="122.185" y2="148.408" gradientUnits="userSpaceOnUse">
<stop stop-color="#404250"/>
<stop offset="1" stop-color="#090B19"/>
</linearGradient>
<linearGradient id="paint32_linear_51_1657" x1="88.6385" y1="133.515" x2="94.0805" y2="137.794" gradientUnits="userSpaceOnUse">
<stop stop-color="#090B19"/>
<stop offset="1" stop-color="#3A3C4A"/>
</linearGradient>
<linearGradient id="paint33_linear_51_1657" x1="106.064" y1="115.394" x2="108.101" y2="116.658" gradientUnits="userSpaceOnUse">
<stop stop-color="#080A18"/>
<stop offset="1" stop-color="#4C4E5C"/>
</linearGradient>
<linearGradient id="paint34_linear_51_1657" x1="121.434" y1="127.365" x2="124.028" y2="126.954" gradientUnits="userSpaceOnUse">
<stop stop-color="#0F111F"/>
<stop offset="1" stop-color="#272937"/>
</linearGradient>
<linearGradient id="paint35_linear_51_1657" x1="91.7818" y1="116.153" x2="92.5836" y2="117.311" gradientUnits="userSpaceOnUse">
<stop stop-color="#161826"/>
<stop offset="1" stop-color="#4C4E5C"/>
</linearGradient>
<linearGradient id="paint36_linear_51_1657" x1="110.27" y1="142.08" x2="116.12" y2="149.288" gradientUnits="userSpaceOnUse">
<stop stop-color="#060816"/>
<stop offset="1" stop-color="#242634"/>
</linearGradient>
<linearGradient id="paint37_linear_51_1657" x1="91.5" y1="154.234" x2="85.7096" y2="148.01" gradientUnits="userSpaceOnUse">
<stop stop-color="#222432"/>
<stop offset="1" stop-color="#2B2D3B"/>
</linearGradient>
<linearGradient id="paint38_linear_51_1657" x1="92.4079" y1="153.53" x2="86.9029" y2="146.833" gradientUnits="userSpaceOnUse">
<stop stop-color="#222432"/>
<stop offset="1" stop-color="#2B2D3B"/>
</linearGradient>
<linearGradient id="paint39_linear_51_1657" x1="118.558" y1="151.593" x2="111.157" y2="156.057" gradientUnits="userSpaceOnUse">
<stop stop-color="#0A0C1A"/>
<stop offset="1" stop-color="#0E101E"/>
</linearGradient>
<linearGradient id="paint40_linear_51_1657" x1="118.368" y1="151.181" x2="110.869" y2="155.492" gradientUnits="userSpaceOnUse">
<stop stop-color="#0A0C1A"/>
<stop offset="1" stop-color="#0E101E"/>
</linearGradient>
<linearGradient id="paint41_linear_51_1657" x1="127.197" y1="136.572" x2="126.8" y2="129.421" gradientUnits="userSpaceOnUse">
<stop stop-color="#0D0F1D"/>
<stop offset="1" stop-color="#131523"/>
</linearGradient>
<linearGradient id="paint42_linear_51_1657" x1="126.305" y1="136.794" x2="125.433" y2="129.4" gradientUnits="userSpaceOnUse">
<stop stop-color="#0D0F1D"/>
<stop offset="1" stop-color="#131523"/>
</linearGradient>
<linearGradient id="paint43_linear_51_1657" x1="111.36" y1="112.246" x2="115.656" y2="114.101" gradientUnits="userSpaceOnUse">
<stop stop-color="#2E303E"/>
<stop offset="1" stop-color="#292B39"/>
</linearGradient>
<linearGradient id="paint44_linear_51_1657" x1="111.02" y1="112.62" x2="115.481" y2="114.742" gradientUnits="userSpaceOnUse">
<stop stop-color="#2E303E"/>
<stop offset="1" stop-color="#292B39"/>
</linearGradient>
<linearGradient id="paint45_linear_51_1657" x1="83.394" y1="307.627" x2="186.387" y2="543.089" gradientUnits="userSpaceOnUse">
<stop stop-color="#B10E17"/>
<stop offset="1" stop-color="#2B0205"/>
</linearGradient>
<linearGradient id="paint46_linear_51_1657" x1="57.7048" y1="375.084" x2="73.5529" y2="411.308" gradientUnits="userSpaceOnUse">
<stop stop-color="#26070A"/>
<stop offset="1" stop-color="#97111B"/>
</linearGradient>
<linearGradient id="paint47_linear_51_1657" x1="193.888" y1="328.457" x2="202.998" y2="341.376" gradientUnits="userSpaceOnUse">
<stop stop-color="#1C0509"/>
<stop offset="1" stop-color="#C4121F"/>
</linearGradient>
<linearGradient id="paint48_linear_51_1657" x1="239.384" y1="432.618" x2="253.548" y2="437.55" gradientUnits="userSpaceOnUse">
<stop stop-color="#2C070B"/>
<stop offset="1" stop-color="#72080E"/>
</linearGradient>
<linearGradient id="paint49_linear_51_1657" x1="120.373" y1="296.172" x2="121.287" y2="304.16" gradientUnits="userSpaceOnUse">
<stop stop-color="#3F080C"/>
<stop offset="1" stop-color="#C8131E"/>
</linearGradient>
<linearGradient id="paint50_linear_51_1657" x1="143.483" y1="479.086" x2="153.482" y2="531.149" gradientUnits="userSpaceOnUse">
<stop stop-color="#150508"/>
<stop offset="1" stop-color="#650A11"/>
</linearGradient>
<linearGradient id="paint51_linear_51_1657" x1="16.205" y1="487.101" x2="3.84915" y2="440.148" gradientUnits="userSpaceOnUse">
<stop stop-color="#69070D"/>
<stop offset="1" stop-color="#800910"/>
</linearGradient>
<linearGradient id="paint52_linear_51_1657" x1="20.5087" y1="485.79" x2="7.39313" y2="439.02" gradientUnits="userSpaceOnUse">
<stop stop-color="#69070D"/>
<stop offset="1" stop-color="#800910"/>
</linearGradient>
<linearGradient id="paint53_linear_51_1657" x1="159.532" y1="551.395" x2="110.236" y2="553.898" gradientUnits="userSpaceOnUse">
<stop stop-color="#2D0205"/>
<stop offset="1" stop-color="#370306"/>
</linearGradient>
<linearGradient id="paint54_linear_51_1657" x1="159.742" y1="548.436" x2="110.269" y2="548.424" gradientUnits="userSpaceOnUse">
<stop stop-color="#2D0205"/>
<stop offset="1" stop-color="#370306"/>
</linearGradient>
<linearGradient id="paint55_linear_51_1657" x1="243.552" y1="494.514" x2="260.851" y2="457.446" gradientUnits="userSpaceOnUse">
<stop stop-color="#390307"/>
<stop offset="1" stop-color="#450408"/>
</linearGradient>
<linearGradient id="paint56_linear_51_1657" x1="239.942" y1="492.87" x2="257.095" y2="455.735" gradientUnits="userSpaceOnUse">
<stop stop-color="#390307"/>
<stop offset="1" stop-color="#450408"/>
</linearGradient>
<linearGradient id="paint57_linear_51_1657" x1="227.367" y1="332.251" x2="243.724" y2="352.382" gradientUnits="userSpaceOnUse">
<stop stop-color="#840A11"/>
<stop offset="1" stop-color="#79090F"/>
</linearGradient>
<linearGradient id="paint58_linear_51_1657" x1="226.739" y1="332.252" x2="243.095" y2="353.012" gradientUnits="userSpaceOnUse">
<stop stop-color="#850A11"/>
<stop offset="1" stop-color="#79090F"/>
</linearGradient>
<clipPath id="clip0_51_1657">
<rect width="201" height="282" fill="white" transform="translate(701.071 423.719) rotate(-150)"/>
</clipPath>
<clipPath id="clip1_51_1657">
<rect width="201" height="282" fill="white" transform="translate(1027 561) rotate(-90)"/>
</clipPath>
</defs>
</svg>
