<svg width="230" height="159" viewBox="0 0 230 159" fill="none" xmlns="http://www.w3.org/2000/svg">
<path d="M184.842 88.4055L189.541 96.7607C193.743 104.234 202.242 108.196 210.668 106.612L220.089 104.841L211.733 109.54C204.261 113.743 200.298 122.242 201.882 130.668L203.653 140.089L198.954 131.733C194.751 124.26 186.253 120.298 177.826 121.882L168.406 123.653L176.761 118.954C184.234 114.751 188.197 106.252 186.613 97.8264L184.842 88.4055Z" fill="white"/>
<path d="M1.11797 36.0235C6.73887 55.2774 10.776 69.7489 10.6207 69.9042C10.4965 70.0284 8.13633 71.5811 5.34141 73.4134L0.279495 76.7052L0.496878 77.8542C1.83223 85.2452 8.63321 90.5866 21.583 94.4684C29.9057 96.9528 39.4395 98.5366 53.1035 99.7167C55.2463 99.903 66.0844 100.151 77.1709 100.307C100.151 100.617 105.834 100.959 116.548 102.636C136.454 105.741 150.584 112.325 156.547 121.238C157.199 122.231 157.758 122.977 157.758 122.852C157.758 122.759 155.584 115.461 152.944 106.611C150.305 97.7602 148.255 90.4313 148.379 90.3382C148.504 90.245 150.864 88.3817 153.659 86.2079L158.721 82.2329L158.503 81.1149C157.54 75.8667 153.752 71.6122 146.889 68.1651C138.224 63.8175 124.871 60.9294 105.896 59.2835C103.754 59.0971 92.8535 58.8487 81.6738 58.6934C70.4941 58.5382 60.7119 58.3518 59.9355 58.2587C59.1592 58.1655 56.5195 57.9481 54.0352 57.7618C35.8682 56.3643 20.3408 51.9856 10.3102 45.4331C7.88789 43.8493 3.10547 39.0358 1.89434 36.9552C1.33535 36.0235 0.993753 35.5888 1.11797 36.0235Z" fill="white"/>
</svg>
