<?xml version="1.0" standalone="no"?>
<!DOCTYPE svg PUBLIC "-//W3C//DTD SVG 20010904//EN"
 "http://www.w3.org/TR/2001/REC-SVG-20010904/DTD/svg10.dtd">
<svg version="1.0" xmlns="http://www.w3.org/2000/svg"
 width="512.000000pt" height="512.000000pt" viewBox="0 0 512.000000 512.000000"
 preserveAspectRatio="xMidYMid meet">

<g transform="translate(0.000000,512.000000) scale(0.100000,-0.100000)"
fill="#000000" stroke="none">
<path d="M2524 5110 c-12 -4 -31 -21 -43 -36 -21 -27 -22 -35 -19 -222 l3
-194 28 -24 c38 -33 96 -33 134 0 l28 24 0 202 0 202 -33 29 c-33 29 -60 35
-98 19z"/>
<path d="M1888 4757 c-34 -31 -44 -77 -25 -114 23 -43 189 -201 220 -208 33
-9 82 10 102 39 8 11 15 38 15 60 0 37 -7 47 -103 143 -97 97 -105 103 -144
103 -28 0 -47 -7 -65 -23z"/>
<path d="M3023 4677 c-96 -96 -103 -106 -103 -143 0 -47 19 -77 59 -94 49 -20
79 -4 177 92 106 103 121 130 104 182 -14 43 -48 66 -97 66 -34 0 -46 -9 -140
-103z"/>
<path d="M1693 4280 c-12 -5 -29 -19 -37 -32 -11 -17 -167 -512 -262 -830 -5
-16 -20 -18 -129 -18 l-123 0 -4 130 c-3 126 -4 130 -31 157 l-27 28 -307 3
c-219 2 -315 -1 -335 -9 -48 -20 -58 -54 -58 -189 l0 -120 -37 0 c-43 0 -127
-21 -162 -40 -36 -19 -108 -88 -132 -126 -50 -82 -49 -41 -49 -1534 0 -1493
-1 -1452 49 -1534 24 -38 96 -107 132 -126 75 -41 28 -40 2379 -40 2351 0
2304 -1 2379 40 36 19 108 88 132 126 50 82 49 41 49 1534 0 1493 1 1452 -49
1534 -12 18 -41 52 -65 74 -100 92 -95 92 -733 92 -507 0 -542 1 -547 18 -95
318 -251 813 -262 830 -8 13 -26 27 -40 32 -32 13 -1701 12 -1731 0z m1723
-530 c57 -184 104 -338 104 -342 0 -5 -432 -8 -960 -8 -528 0 -960 3 -960 6 0
4 192 632 205 672 4 10 160 12 756 10 l751 -3 104 -335z m-2476 -290 l0 -60
-180 0 -180 0 0 60 0 60 180 0 180 0 0 -60z m3908 -280 c18 -11 41 -34 52 -52
20 -33 20 -54 20 -1428 0 -1374 0 -1395 -20 -1428 -28 -46 -76 -72 -132 -72
l-47 0 -3 369 -3 369 -23 25 c-30 32 -65 41 -107 27 -65 -22 -65 -20 -65 -425
l0 -365 -2107 0 c-2086 0 -2108 0 -2141 20 -18 11 -41 34 -52 52 -20 33 -20
54 -20 1428 0 1374 0 1395 20 1428 11 18 34 41 52 52 33 20 55 20 2288 20
2233 0 2255 0 2288 -20z"/>
<path d="M2205 3841 c-32 -13 -55 -45 -62 -83 -4 -29 0 -41 25 -69 l30 -34
356 -3 355 -3 33 30 c27 24 33 36 33 71 0 35 -6 47 -33 71 l-32 29 -343 -1
c-188 0 -351 -4 -362 -8z"/>
<path d="M546 3060 c-95 -37 -166 -140 -166 -240 0 -101 72 -204 168 -240 66
-25 117 -25 185 0 94 35 167 139 167 240 0 101 -73 205 -167 240 -67 25 -123
25 -187 0z m134 -200 c11 -11 20 -29 20 -40 0 -11 -9 -29 -20 -40 -11 -11 -29
-20 -40 -20 -11 0 -29 9 -40 20 -11 11 -20 29 -20 40 0 11 9 29 20 40 11 11
29 20 40 20 11 0 29 -9 40 -20z"/>
<path d="M2415 3073 c-418 -54 -767 -264 -999 -601 -57 -84 -156 -292 -156
-329 0 -65 76 -113 138 -88 33 15 41 26 87 131 74 167 228 356 382 466 136 97
303 171 478 209 92 20 342 18 444 -4 474 -102 827 -454 928 -927 24 -116 24
-343 0 -459 -101 -473 -453 -826 -927 -928 -128 -27 -363 -24 -490 7 -227 55
-396 149 -561 310 -123 121 -200 232 -266 384 -24 55 -51 108 -59 117 -37 41
-123 29 -149 -21 -20 -39 -19 -65 6 -129 122 -323 368 -593 678 -746 530 -263
1161 -158 1582 261 542 539 542 1409 0 1948 -224 223 -502 358 -816 395 -86
10 -236 12 -300 4z"/>
<path d="M3945 2911 c-32 -14 -55 -46 -62 -83 -4 -29 0 -41 25 -69 l30 -34
301 0 301 0 27 28 c38 38 38 96 0 134 l-27 28 -288 2 c-158 1 -296 -2 -307 -6z"/>
<path d="M2391 2580 c-177 -37 -335 -122 -462 -249 -107 -108 -174 -218 -225
-371 -27 -80 -28 -95 -28 -260 0 -165 1 -180 28 -260 51 -153 118 -263 225
-371 108 -107 218 -174 371 -225 80 -27 95 -28 260 -28 165 0 180 1 260 28
153 51 263 118 371 225 107 108 174 218 225 371 27 80 28 95 28 260 0 165 -1
180 -28 260 -51 153 -118 263 -225 371 -108 108 -220 175 -371 224 -74 24
-104 28 -235 31 -82 2 -170 -1 -194 -6z m341 -209 c309 -79 518 -350 518 -671
0 -388 -302 -690 -690 -690 -388 0 -690 302 -690 690 0 319 208 590 514 670
98 26 249 26 348 1z"/>
<path d="M2477 2140 c-129 -23 -263 -126 -319 -245 -31 -68 -53 -174 -43 -215
16 -62 87 -95 142 -66 33 17 48 48 58 116 9 73 57 145 118 180 28 16 72 32 97
35 97 13 138 53 126 120 -13 67 -75 94 -179 75z"/>
<path d="M1254 1803 c-67 -12 -94 -118 -43 -168 14 -14 41 -28 61 -31 30 -5
41 -1 69 24 29 26 34 37 34 76 0 36 -6 51 -25 70 -26 25 -61 35 -96 29z"/>
<path d="M4580 1339 c-100 -40 -65 -189 44 -189 33 0 82 43 89 77 6 31 -12 81
-35 100 -22 18 -69 24 -98 12z"/>
</g>
</svg>
