<svg width="173" height="223" viewBox="0 0 173 223" fill="none" xmlns="http://www.w3.org/2000/svg">
<path fill-rule="evenodd" clip-rule="evenodd" d="M5.51501 66.1572C10.6836 55.6475 17.0218 43.9975 21.3459 39.0605C28.3603 31.0519 39.6069 22.1208 48.7964 19.5149L19.062 93.7035C28.4543 105.753 40.1102 110.688 53.6298 113.25C59.0901 101.405 67.9032 84.1369 73.4282 77.8288C80.4426 69.8202 91.6892 60.8891 100.879 58.2831L77.696 116.125C87.2124 116.98 97.3514 117.929 108.02 120.079C111.67 110.473 123.092 83.9066 128.975 75.4069C134.786 67.0105 143.761 57.3476 150.685 54.0116L124.204 124.277C150.374 132.727 179.198 150.773 209.475 192.648C281.571 292.362 261.353 120.76 242.233 22.4957L42.53 -55.5034C21.8284 -38.3971 -12.5744 8.67117 5.51501 66.1572Z" fill="#6C9528"/>
</svg>
