<svg width="228" height="154" viewBox="0 0 228 154" fill="none" xmlns="http://www.w3.org/2000/svg">
<path fill-rule="evenodd" clip-rule="evenodd" d="M203.006 59.694C202.064 71.3679 200.453 84.5323 198.247 90.7134C194.669 100.74 187.494 113.181 179.906 118.983L180.279 39.0584C167.114 31.3064 154.461 31.0032 140.946 33.5917C140.224 46.6148 138.377 65.9133 135.559 73.811C131.98 83.8378 124.805 96.2785 117.218 102.081L117.509 39.7667C108.345 42.4711 98.567 45.3165 87.8555 47.2397C87.9928 57.5143 87.1387 86.4201 84.7936 96.4872C82.4769 106.432 77.6833 118.718 72.4715 124.366L71.2615 49.2864C43.8173 51.0504 10.3776 44.8675 -33.1761 17.0579C-136.885 -49.1614 -54.9876 102.985 -1.07539 187.336L213.317 186.442C226.279 162.922 240.965 106.502 203.006 59.694Z" fill="#6C9528"/>
</svg>
